<svg data-name="Icon/Takeaway" xmlns="http://www.w3.org/2000/svg" width="20" height="20">
    <path data-name="Rectangle 465" style="fill:none" d="M0 0h20v20H0z"/>
    <path data-name="Path 35" d="M4754.075 1424.729h-6.038a2.038 2.038 0 0 1-1.894-.917 2.006 2.006 0 0 1-.3-1.1v-11.239a1.884 1.884 0 0 1 1.935-2c.388-.006.78-.024 1.167 0s.54-.141.6-.532a4.7 4.7 0 0 1 3.727-4.123 4.626 4.626 0 0 1 5.387 3.986c.064.5.211.729.724.671a8.169 8.169 0 0 1 1.119-.005 1.875 1.875 0 0 1 1.87 1.914q.018 5.72 0 11.441a1.869 1.869 0 0 1-1.574 1.839 11.4 11.4 0 0 1-1.9.057c-1.609.014-3.216.008-4.823.008zm.053-8.668a4.479 4.479 0 0 0 4.377-3.575c.219-1.03.217-1.032-.8-1.032-.722 0-.722 0-.912.73a2.756 2.756 0 0 1-5.344.1c-.249-.832-.249-.832-1.082-.832h-.195c-.572 0-.627.067-.541.631a4.5 4.5 0 0 0 4.497 3.978zm-.022-6.588c.748 0 1.494-.011 2.241 0 .362.008.449-.157.4-.5a2.674 2.674 0 0 0-5.282 0c-.049.34.041.5.4.5.747-.012 1.495-.001 2.241-.001z" transform="translate(-4744.107 -1404.737)" style="fill:#fff"/>
</svg>
