<svg data-name="Icon/Checkbox/Filled" xmlns="http://www.w3.org/2000/svg" width="24" height="24">
    <g data-name="Group 53">
        <path data-name="Path 38" d="M6626.168 6202.542a12 12 0 1 1-11.665-12.008 12.009 12.009 0 0 1 11.665 12.008zm-5.157-3.508a1.667 1.667 0 0 0-1.387-1.584 1.768 1.768 0 0 0-1.641.57q-2.626 2.627-5.256 5.251c-.262.263-.264.263-.518.008-.631-.629-1.258-1.262-1.891-1.886a1.706 1.706 0 1 0-2.447 2.376c1.1 1.128 2.218 2.239 3.344 3.344a1.707 1.707 0 0 0 2.493 0q3.4-3.37 6.77-6.76a1.839 1.839 0 0 0 .533-1.319z" transform="translate(-6602.169 -6190.53)" style="fill:#ec5540"/>
    </g>
</svg>
