<?xml version="1.0" encoding="UTF-8"?>
<svg width="24px" height="24px" viewBox="0 0 24 24" version="1.1" xmlns="http://www.w3.org/2000/svg" xmlns:xlink="http://www.w3.org/1999/xlink">
    <!-- Generator: Sketch 57 (83077) - https://sketch.com -->
    <title>flogo-HexRBG-Wht-72</title>
    <desc>Created with Sketch.</desc>
    <g id="Design" stroke="none" stroke-width="1" fill="none" fill-rule="evenodd">
        <g id="7.1-Log-in-M-" transform="translate(-74.000000, -148.000000)" fill="#FFFFFF" fill-rule="nonzero">
            <g id="button-fb" transform="translate(16.000000, 136.000000)">
                <g id="Group-2" transform="translate(58.000000, 12.000000)">
                    <g id="Group-3">
                        <g id="flogo-HexRBG-Wht-72">
                            <path d="M22.6666667,0 L1.33333333,0 C0.596953667,0 0,0.576786313 0,1.28828829 L0,21.9009009 C0,22.6124029 0.596953667,23.1891892 1.33333333,23.1891892 L12.82,23.1891892 L12.82,14.2227027 L9.70333333,14.2227027 L9.70333333,10.7121171 L12.82,10.7121171 L12.82,8.13554054 C12.82,5.14027027 14.7133333,3.51058559 17.4866667,3.51058559 C18.4196836,3.50795102 19.3521625,3.55418249 20.28,3.64907658 L20.28,6.76351351 L18.36,6.76351351 C16.86,6.76351351 16.57,7.45274775 16.57,8.46727477 L16.57,10.702455 L20.1666667,10.702455 L19.7,14.2130405 L16.57,14.2130405 L16.57,23.1891892 L22.6666667,23.1891892 C23.4030463,23.1891892 24,22.6124029 24,21.9009009 L24,1.28828829 C24,0.576786313 23.4030463,0 22.6666667,0 Z" id="Shape"></path>
                        </g>
                    </g>
                </g>
            </g>
        </g>
    </g>
</svg> 