<svg xmlns="http://www.w3.org/2000/svg" width="24" height="24" viewBox="0 0 24 24">
    <g fill="none" fill-rule="evenodd">
        <circle cx="12" cy="12" r="12" fill="#FFF"/>
        <path fill="#1C1B1B" fill-rule="nonzero" d="M9.878 6.825l5.773-.136-.995-1.646c-1.22 2.002-2.704 3.714-4.526 5.247-.743.625-.158 1.904.815 1.868 2.296-.085 4.815 1.057 3.3 3.506-1.014 1.639-3.187 2.119-4.984 1.34-1.34-.58-2.512 1.305-1.163 1.89 3.147 1.364 7.317.438 8.583-2.908 1.517-4.01-1.952-6.156-5.736-6.016l.815 1.867a22.974 22.974 0 0 0 4.887-5.69c.429-.704-.113-1.667-.996-1.647-1.924.046-3.85.09-5.773.137-1.48.035-1.487 2.223 0 2.188"/>
    </g>
</svg>
