<svg xmlns="http://www.w3.org/2000/svg" width="9.999" height="16.148" viewBox="0 0 9.999 16.148">
  <g id="Group_110" data-name="Group 110" transform="translate(9.999 0) rotate(90)">
    <path id="Path_37" data-name="Path 37" d="M4972.553,357.085a2.133,2.133,0,0,1-.688,1.146c-2.047,2.03-4.1,4.053-6.114,6.12a1.911,1.911,0,0,1-2.546,0c-2.05-2.106-4.149-4.165-6.229-6.242a1.552,1.552,0,0,1,.007-2.41c.124-.124.247-.249.372-.371a1.537,1.537,0,0,1,2.251,0q2.35,2.341,4.693,4.691c.139.139.212.132.346,0q2.319-2.328,4.647-4.647a1.578,1.578,0,0,1,1.708-.436,1.279,1.279,0,0,1,.437.245,8.167,8.167,0,0,1,.719.705,1.727,1.727,0,0,1,.4.866Z" transform="translate(-4956.405 -354.835)" fill="#fff"/>
  </g>
</svg>
