<?xml version="1.0" encoding="UTF-8"?>
<svg width="25px" height="24px" viewBox="0 0 25 24" version="1.1" xmlns="http://www.w3.org/2000/svg" xmlns:xlink="http://www.w3.org/1999/xlink">
    <!-- Generator: Sketch 48.2 (47327) - http://www.bohemiancoding.com/sketch -->
    <title>icon-user-red</title>
    <desc>Created with Sketch.</desc>
    <defs></defs>
    <g id="Symbols" stroke="none" stroke-width="1" fill="none" fill-rule="evenodd">
        <g id="icon-user-red" stroke="#FF3336" stroke-width="2.4">
            <g id="Group" transform="translate(1.000000, 1.000000)">
                <path d="M11.3639,14.0318 C8.6019,14.0318 6.3639,11.7938 6.3639,9.0318 C6.3639,6.2698 8.4399,4.0318 11.2019,4.0318 C13.9639,4.0318 16.3639,6.2698 16.3639,9.0318 C16.3639,11.7938 14.1249,14.0318 11.3639,14.0318 Z M3.94174229,19.8410941 C4.75927841,16.5258546 7.77219233,14.0658 11.3639,14.0658 C14.7243986,14.0658 17.5786547,16.2199748 18.6006123,19.2134338" id="Stroke-1"></path>
                <path d="M9.54208236,0.540937831 C13.466836,-0.498178403 17.7502535,0.890367033 20.292657,3.99212441 C22.5174936,6.70501569 23.315147,10.5404827 22.1989926,13.8669386 C21.0230609,17.3676506 17.8894225,20.2630521 14.2878399,21.2608972 C10.5218697,22.303682 5.90500699,21.5094413 3.14217469,18.6608138 C1.19661023,16.6550351 0.196274393,13.849513 0.200010474,11.0999362 C0.202812535,9.58115735 0.482084631,8.00918452 1.14710714,6.63072759 C1.97091312,4.92301847 3.44012719,3.59683835 4.87198044,2.37521185" id="Stroke-3" stroke-linecap="round" stroke-linejoin="round"></path>
            </g>
        </g>
    </g>
</svg>