<svg xmlns="http://www.w3.org/2000/svg" width="24" height="24">
    <g data-name="Group 2625">
        <path data-name="Path 3367" d="M11 0A11 11 0 1 1 0 11 11 11 0 0 1 11 0z" transform="translate(1 1)" style="fill:#ec5540"/>
        <g data-name="Icon/Minus">
            <g data-name="Icon/Plus">
                <path data-name="Rectangle 508" style="fill:none" d="M0 0h24v24H0z"/>
            </g>
            <path data-name="Path 39" d="M70-96.72c-.479 0-.685-.178-.685-.591v-2.821a.518.518 0 0 1 .484-.576.651.651 0 0 1 .183 0h14.643c.467 0 .676.179.676.584v2.835a.518.518 0 0 1-.489.568.651.651 0 0 1-.17 0z" transform="translate(-65.308 110.715)" style="fill:#fff"/>
        </g>
    </g>
</svg>
