<svg xmlns="http://www.w3.org/2000/svg" width="24" height="24" viewBox="0 0 24 24">
    <g fill="none" fill-rule="evenodd">
        <circle cx="12" cy="12" r="12" fill="#FFF"/>
        <path fill="#1C1B1B" fill-rule="nonzero" d="M10.435 8.669c.831-1.513 3.283-2.883 4.034-.712.551 1.594-.517 3.736-1.582 4.825-1.523 1.56-3.522 2.574-5.076 4.116-.66.656-.215 2.087.822 1.981a92.795 92.795 0 0 1 8.307-.472c1.492-.018 1.496-2.34 0-2.322a92.795 92.795 0 0 0-8.307.473l.82 1.982c3.35-3.325 8.348-5.312 7.316-11.05-.842-4.681-6.562-3.228-8.338.007-.72 1.31 1.283 2.483 2.004 1.172"/>
    </g>
</svg>
