<svg id="Icon_Circle_JE" data-name="Icon/Circle/JE" xmlns="http://www.w3.org/2000/svg" width="40" height="40">
    <defs>
        <clipPath id="clip-path">
            <path id="Path_136" data-name="Path 136" d="M0-116.445h22.187v-15.937H0z" transform="translate(0 132.382)" style="fill:none"/>
        </clipPath>
        <style>
            .cls-4{fill:red}
        </style>
    </defs>
    <rect id="Rectangle" width="40" height="40" rx="20" style="fill:#fff"/>
    <g id="Group_215" data-name="Group 215" transform="translate(9 12)">
        <g id="Logo_JustEat" data-name="Logo/JustEat" style="clip-path:url(#clip-path)">
            <g id="Group_207" data-name="Group 207" transform="translate(0 .052)">
                <path id="Path_129" data-name="Path 129" class="cls-4" d="M0-50.869a2.985 2.985 0 0 1 .483-.257A2.038 2.038 0 0 0 1.988-52.9c.173-1.156.386-2.306.591-3.519-.436 0-.838-.008-1.24 0-.293.008-.391-.113-.364-.4.093-.988.107-1.007 1.1-1.007h1.777c.446 0 .506.06.429.537-.177 1.1-.367 2.188-.561 3.28-.108.606-.194 1.22-.358 1.812A3.242 3.242 0 0 1 .9-49.745a.33.33 0 0 0-.091.061H.444L0-50.573z" transform="translate(0 57.831)"/>
            </g>
            <g id="Group_208" data-name="Group 208" transform="translate(4.49 .04)">
                <path id="Path_130" data-name="Path 130" class="cls-4" d="M-10.833 0c.77 0 .8.029.675.8-.172 1.068-.358 2.136-.542 3.2-.131.762.1 1.222.705 1.373a1.163 1.163 0 0 0 1.571-.823c.244-1.016.4-2.054.585-3.083.069-.375.135-.751.2-1.127a.358.358 0 0 1 .41-.332c.258.008.518.008.776 0 .3-.009.4.157.356.422-.256 1.468-.445 2.953-.8 4.4a2.893 2.893 0 0 1-4.211 1.8 2.4 2.4 0 0 1-1.159-2.721c.19-1.142.389-2.283.585-3.424.079-.461.135-.492.846-.49" transform="translate(12.315 .001)"/>
            </g>
            <g id="Group_209" data-name="Group 209" transform="translate(16.457 9.103)">
                <path id="Path_131" data-name="Path 131" class="cls-4" d="M-40.787-3.4a4.76 4.76 0 0 0-.119.493.474.474 0 0 1-.568.474c-.466-.023-.933-.006-1.443-.006-.131.746-.26 1.469-.384 2.193-.155.9-.314 1.8-.455 2.7-.058.369-.226.559-.614.511a1.5 1.5 0 0 0-.185 0c-.819 0-.853-.045-.71-.87q.37-2.13.734-4.261c.012-.072.016-.144.03-.268h-1.447c-.412 0-.46-.051-.4-.45.179-1.124.1-.956 1.1-.967 1.27-.014 2.54-.007 3.811 0a5.057 5.057 0 0 1 .649.086z" transform="translate(46.369 3.861)"/>
            </g>
            <g id="Group_210" data-name="Group 210" transform="translate(9.903 9.097)">
                <path id="Path_132" data-name="Path 132" class="cls-4" d="M-30.985-.146h.333c.861.032.865.031 1.014.869q.471 2.655.933 5.312c.087.5-.021.626-.526.628-1.081 0-.988.09-1.154-.95-.1-.642-.1-.641-.749-.641-.518 0-1.036-.014-1.553.011a.507.507 0 0 0-.352.228c-.175.31-.308.644-.453.97a.572.572 0 0 1-.605.386c-.258-.015-.518.007-.776-.01-.34-.022-.427-.145-.29-.456.258-.586.542-1.16.818-1.738.612-1.277 1.249-2.543 1.828-3.835.249-.555.567-.873 1.2-.778a2.282 2.282 0 0 0 .332 0zm.314 3.841c-.1-.729-.195-1.433-.3-2.136-.012-.076-.1-.14-.155-.21-.069.061-.164.108-.2.185-.17.341-.325.69-.482 1.037-.165.364-.325.73-.5 1.123z" transform="translate(35.226 .166)"/>
            </g>
            <g id="Group_211" data-name="Group 211" transform="translate(4.709 9.113)">
                <path id="Path_133" data-name="Path 133" class="cls-4" d="m-17.364-10.347-.22 1.248c.15.009.278.022.406.023h1.813c.4 0 .471.091.409.464-.154.928-.02.907-1.04.9h-1.809l-.218 1.336h2.769c.261 0 .36.12.31.371 0 .024-.009.049-.013.073-.2 1.186-.131.962-1.131.974s-2 0-3 0c-.618 0-.725-.125-.617-.769.271-1.616.551-3.23.829-4.845.046-.267.095-.533.155-.8a.468.468 0 0 1 .506-.394c1.27 0 2.54 0 3.81-.01.29 0 .357.118.317.386-.186 1.259-.168 1.013-1.125 1.028-.7.011-1.4 0-2.152 0" transform="translate(19.74 11.763)"/>
            </g>
            <g id="Group_212" data-name="Group 212" transform="translate(10.696)">
                <path id="Path_134" data-name="Path 134" class="cls-4" d="M-17.01-51.01c-.793-.081-1.381-.144-1.969-.2-.3-.029-.385-.192-.352-.479.111-.981.106-.975 1.078-.915.528.033 1.059.064 1.587.044a1.7 1.7 0 0 0 .764-.223.4.4 0 0 0-.024-.739 4.678 4.678 0 0 0-.685-.269c-.381-.141-.769-.263-1.143-.42a1.848 1.848 0 0 1-.233-3.282 3.557 3.557 0 0 1 1.412-.476 17.17 17.17 0 0 1 2.212.053.365.365 0 0 1 .38.441c-.008.11-.026.22-.046.328-.115.66-.176.7-.841.668-.467-.025-.935-.037-1.4-.052a1.231 1.231 0 0 0-.294.017c-.291.062-.62.109-.661.481s.263.5.543.605c.495.187 1.009.327 1.49.541a1.712 1.712 0 0 1 1.143 1.764 1.851 1.851 0 0 1-1.313 1.786 11.612 11.612 0 0 1-1.646.326" transform="translate(19.338 57.991)"/>
            </g>
            <g id="Group_213" data-name="Group 213" transform="translate(16.623 .035)">
                <path id="Path_135" data-name="Path 135" class="cls-4" d="M-13.662-10.416c-.525 0-1-.011-1.483 0-.341.011-.429-.126-.371-.451.2-1.125.094-.96 1.137-.971 1.319-.013 2.638-.006 3.957 0 .481 0 .494.039.423.518-.163 1.1-.209.875-1.05.9-.34.011-.778-.084-.992.09-.2.16-.161.615-.218.942q-.333 1.91-.66 3.822c-.084.488-.15.542-.654.544h-.259c-.677 0-.724-.039-.612-.723.24-1.47.5-2.937.749-4.406.012-.072.018-.144.033-.271" transform="translate(15.532 11.842)"/>
            </g>
        </g>
    </g>
</svg>
