<svg xmlns="http://www.w3.org/2000/svg" width="24" height="24" viewBox="0 0 24 24">
    <g fill="none" fill-rule="evenodd">
        <path stroke="#FFF" stroke-width="2" d="M12 23c6.075 0 11-4.925 11-11S18.075 1 12 1 1 5.925 1 12s4.925 11 11 11z"/>
        <path fill="#FFF" d="M10.165 17.28a7.04 7.04 0 0 1-3.925-1.198 5.005 5.005 0 0 0 3.79-1.104c-1.12-.021-2.065-.792-2.391-1.851a2.46 2.46 0 0 0 1.156-.046c-1.171-.245-2.054-1.322-2.054-2.614v-.033c.346.2.74.32 1.16.333a2.695 2.695 0 0 1-1.139-2.219c0-.488.126-.946.347-1.34 1.263 1.613 3.15 2.674 5.277 2.785a2.782 2.782 0 0 1-.066-.607c0-1.472 1.146-2.666 2.56-2.666.737 0 1.402.324 1.87.842a5.007 5.007 0 0 0 1.625-.647A2.658 2.658 0 0 1 17.25 8.39a4.962 4.962 0 0 0 1.471-.42 5.328 5.328 0 0 1-1.278 1.38c.005.114.008.23.008.345 0 3.523-2.576 7.585-7.285 7.585"/>
    </g>
</svg>
