<?xml version="1.0" encoding="UTF-8"?>
<svg width="23px" height="4px" viewBox="0 0 23 4" version="1.1" xmlns="http://www.w3.org/2000/svg" xmlns:xlink="http://www.w3.org/1999/xlink">
    <!-- Generator: Sketch 47.1 (45422) - http://www.bohemiancoding.com/sketch -->
    <title>Stroke-1-Copy</title>
    <desc>Created with Sketch.</desc>
    <defs></defs>
    <g id="Page-1" stroke="none" stroke-width="1" fill="none" fill-rule="evenodd">
        <g id="icon-nav" transform="translate(0.000000, -9.000000)" fill-rule="nonzero" fill="#1C1B1B">
            <path d="M0.873657627,12.1933305 C1.70120529,12.280946 3.42087221,12.2967013 6.08954357,12.2669083 C6.67969761,12.2603198 7.2878081,12.2518778 8.05273514,12.2400795 C8.01275731,12.2406961 9.48485659,12.2175072 9.83587214,12.2124447 C10.4163533,12.2040726 10.8100363,12.2 11.0833333,12.2 L23,12.2 L23,9.8 L11.0833333,9.8 C10.7952326,9.8 10.3926984,9.80416412 9.8012613,9.81269423 C9.44836877,9.81778389 7.97420747,9.84100526 8.01572163,9.84036494 C7.25391072,9.85211521 6.64892602,9.8605138 6.06275165,9.86705785 C3.5137547,9.89551484 1.8188345,9.87998627 1.12634237,9.80666953 L0.873657627,12.1933305 Z" id="Stroke-1-Copy"></path>
        </g>
    </g>
</svg>