<svg xmlns="http://www.w3.org/2000/svg" width="24" height="24" viewBox="0 0 24 24">
    <path fill="#1D1C1C" fill-rule="evenodd" d="M2.634 13.307h19v-3h-19v3zm0 8h19v-5h-19v5zm3.5-17.326l.243 1.984-3.97.486-.243-1.986 3.97-.484zm7.942-.968l.242 1.984-4.963.606-.242-1.985 4.963-.605zm6.948-.849l.242 1.986-3.97.484-.243-1.985 3.971-.485zm-10.39 6.143H3.696L22.95 5.96a.548.548 0 0 0 .478-.61L22.834.481a.55.55 0 0 0-.612-.478L.482 2.654a.546.546 0 0 0-.478.612l.63 5.177V22.76a.55.55 0 0 0 .55.549h21.902a.549.549 0 0 0 .548-.55V8.858a.549.549 0 0 0-.548-.55H10.634z"/>
</svg>
