<svg xmlns="http://www.w3.org/2000/svg" width="24" height="24" viewBox="0 0 24 24">
    <g fill="#020303" fill-rule="evenodd">
        <path d="M12.666 11.333h-1.332V8.667h1.332A1.32 1.32 0 0 1 14 10a1.32 1.32 0 0 1-1.333 1.333m0-5.333h-4v12h2.668v-4h1.332c2.213 0 4-1.787 4-4s-1.787-4-4-4"/>
        <path d="M2.571 2a.558.558 0 0 0-.57.571v18.858c0 .326.244.571.57.571h18.857a.559.559 0 0 0 .572-.571V2.571A.559.559 0 0 0 21.428 2H2.571zm18.857 22H2.571a2.544 2.544 0 0 1-2.57-2.571V2.571A2.544 2.544 0 0 1 2.57 0h18.857A2.545 2.545 0 0 1 24 2.571v18.858A2.545 2.545 0 0 1 21.428 24z"/>
    </g>
</svg>
