<svg data-name="Icon/Checkbox/Filled" xmlns="http://www.w3.org/2000/svg" width="18" height="18">
    <g data-name="Group 53">
        <path data-name="Path 38" d="M6620.168 6199.539a9 9 0 1 1-8.749-9.006 9.007 9.007 0 0 1 8.749 9.006zm-3.867-2.631a1.251 1.251 0 0 0-1.04-1.188 1.327 1.327 0 0 0-1.231.427q-1.969 1.971-3.941 3.939c-.2.2-.2.2-.389.006-.473-.472-.943-.946-1.418-1.415a1.28 1.28 0 1 0-1.835 1.782c.824.847 1.664 1.68 2.508 2.508a1.279 1.279 0 0 0 1.869 0q2.547-2.528 5.077-5.07a1.383 1.383 0 0 0 .399-.989z" transform="translate(-6602.168 -6190.53)" style="fill:#ec5540"/>
    </g>
</svg>
