<?xml version="1.0" encoding="UTF-8"?>
<svg width="24px" height="24px" viewBox="0 0 24 24" version="1.1" xmlns="http://www.w3.org/2000/svg" xmlns:xlink="http://www.w3.org/1999/xlink">
    <!-- Generator: Sketch 48.2 (47327) - http://www.bohemiancoding.com/sketch -->
    <title>icon-park-on</title>
    <desc>Created with Sketch.</desc>
    <defs></defs>
    <g id="Symbols" stroke="none" stroke-width="1" fill="none" fill-rule="evenodd" stroke-linecap="round" stroke-linejoin="round">
        <g id="icon-park-on" stroke="#FF3336" stroke-width="2.4">
            <path d="M1,3.80844725 L1.04117498,21.7101297 C1.04117498,22.4225377 1.61362879,23 2.31985785,23 L21.9844716,23 C22.4702321,23 22.8661721,22.606905 22.8732952,22.1167192 C22.9228094,18.6829653 23.0880305,6.21135647 22.9393141,2.14107957 C22.91586,1.50052576 22.3927467,0.994216614 21.7570537,1.00017525 L3.80997511,1 L1,3.80844725 Z M7.62030324,18.7666122 L11.2842279,18.6992674 L11.2842279,14.0155392 L12.3632461,14.0155392 C13.1892097,14.0155392 14.5551936,13.7028669 15.2923751,13.3278319 C16.298459,12.8160458 17.5,11.710354 17.5,9.90389829 C17.5,6.48168264 15.7649141,5.59400251 14.920717,5.31826676 C13.8981036,4.9841197 7.41666667,5.18100018 7.41666667,5.18100018 C7.41666667,5.18100018 7.43319616,17.1843528 7.62030324,18.7666122 Z M11.0833333,8.33774864 L11.0903978,11.1807154 L12.6135874,11.1769542 C12.7169851,11.1767907 12.8197406,11.1586388 12.9154316,11.118574 C13.2216109,10.9910207 13.835575,10.620462 13.8333272,9.70044302 C13.8301161,8.47511373 12.7389812,8.33333333 12.7389812,8.33333333 L11.0833333,8.33774864 Z" id="Page-1"></path>
        </g>
    </g>
</svg>