<svg xmlns="http://www.w3.org/2000/svg" width="24.695" height="24.695" viewBox="0 0 24.695 24.695">
  <g id="E8LX4I.tif" transform="translate(0 12.347) rotate(-45)">
    <g id="Group_55" data-name="Group 55" transform="translate(0 0)">
      <path id="Path_39" data-name="Path 39" d="M6.228,14.13c0-.883-.005-1.764,0-2.646,0-.195-.048-.255-.249-.254-1.744.008-3.489,0-5.234,0-.523,0-.749-.223-.749-.743q0-1.77,0-3.541a.634.634,0,0,1,.729-.723H5.964c.263,0,.264,0,.264-.269q0-2.607,0-5.215c0-.52.224-.743.747-.744h3.541a.63.63,0,0,1,.718.714q0,2.627,0,5.253c0,.258,0,.259.254.259h5.234c.51,0,.739.227.739.733q0,1.78,0,3.561a.63.63,0,0,1-.719.713H11.489c-.254,0-.254,0-.254.259q0,2.618,0,5.234c0,.507-.229.734-.738.734H6.956a.634.634,0,0,1-.728-.725Q6.227,15.434,6.228,14.13Z" transform="translate(0)" fill="#ece2d8"/>
    </g>
  </g>
</svg>
