<svg xmlns="http://www.w3.org/2000/svg" width="24" height="24" viewBox="0 0 24 24">
    <g fill="#020303" fill-rule="evenodd">
        <path d="M15.978 16.394h-4.816a1.137 1.137 0 0 1-1.13-1.131v-6.12a.82.82 0 0 0-.82-.82H6.608a.82.82 0 0 0-.82.82v2.172c.01.108-.07.203-.196.214-.101 0-.186-.077-.194-.223V8.128a.197.197 0 0 1 .196-.195l5.572-.002c.263 0 .512.1.7.278a1.2 1.2 0 0 1 .349.814v5.642c0 .452.367.82.82.82h3.722a.448.448 0 0 1 .394.243l2.644 5.287a.454.454 0 0 1-.196.61.462.462 0 0 1-.608-.195l-2.28-4.582a.816.816 0 0 0-.733-.454m5.3 3.895l-2.644-5.298a2.071 2.071 0 0 0-1.866-1.146h-2.914v-4.82a2.81 2.81 0 0 0-.841-1.992 2.668 2.668 0 0 0-1.861-.751l-5.556.002a1.841 1.841 0 0 0-1.835 1.83v3.176c-.018.49.154.958.488 1.318.334.359.788.567 1.347.587a1.83 1.83 0 0 0 1.834-1.77V9.953h.968v5.31a2.778 2.778 0 0 0 2.766 2.772h4.306l2.076 4.15c.32.63.928 1.028 1.618 1.112l.107.015c.049.003.094.019.143.019.037 0 .072-.011.109-.013.11-.002.223-.017.335-.04.017-.003.035-.004.053-.008.16-.036.319-.085.47-.163.504-.255.85-.693 1.007-1.192a2.085 2.085 0 0 0-.11-1.625M9.658 3.004A1.424 1.424 0 0 1 11.08 1.64c.783 0 1.422.637 1.422 1.422 0 .783-.639 1.421-1.422 1.421a1.427 1.427 0 0 1-1.42-1.42v-.059zm1.423 3.12a3.071 3.071 0 0 0 3.061-3.062A3.065 3.065 0 0 0 11.082 0h-.007-.004A3.067 3.067 0 0 0 8.02 3.062a3.064 3.064 0 0 0 3.062 3.061z"/>
        <path d="M15.184 19.635a.822.822 0 0 0-1.131.279 5.061 5.061 0 0 1-4.963 2.415 5.128 5.128 0 0 1-4.402-4.336 5.059 5.059 0 0 1 .483-2.964l.105-.19a.822.822 0 0 0-1.437-.794 6.711 6.711 0 0 0-.788 2.432 6.663 6.663 0 0 0 1.374 4.947l.009.01a6.644 6.644 0 0 0 4.445 2.517c.043.006.086.002.129.007a6.9 6.9 0 0 0 .7.042c.027 0 .052-.005.078-.005.105-.002.208-.014.312-.02.21-.013.418-.03.624-.061.092-.014.182-.036.273-.054a6.44 6.44 0 0 0 .64-.157c.076-.022.15-.048.224-.074a6.806 6.806 0 0 0 .81-.336 6.742 6.742 0 0 0 2.794-2.527.82.82 0 0 0-.28-1.131"/>
    </g>
</svg>
