<svg data-name="Icon/Circle/Uber" xmlns="http://www.w3.org/2000/svg" width="40" height="40">
    <rect width="40" height="40" rx="20" style="fill:#fff"/>
    <g data-name="Logo/UberEats">
        <g data-name="Group 216">
            <path data-name="Path 137" d="M-69.849-31.825a1.64 1.64 0 0 0-1.651-1.66 1.648 1.648 0 0 0-1.648 1.661 1.648 1.648 0 0 0 1.648 1.66 1.64 1.64 0 0 0 1.648-1.661m1.346-2.718v5.435h-1.371v-.492a2.674 2.674 0 0 1-1.736.629 2.854 2.854 0 0 1-2.887-2.854 2.854 2.854 0 0 1 2.894-2.856 2.674 2.674 0 0 1 1.736.629v-.491zm4.56 4.2h-1.032c-.314 0-.516-.139-.516-.428v-2.541h1.547v-1.233h-1.543v-1.545h-1.384v1.547h-1.044v1.233h1.044v2.894a1.3 1.3 0 0 0 1.447 1.309h1.484zm3.126 1.371c1.585 0 2.478-.755 2.478-1.8 0-.742-.528-1.3-1.635-1.535l-1.17-.239c-.679-.126-.893-.252-.893-.5 0-.327.327-.528.931-.528.654 0 1.132.176 1.27.78h1.371c-.075-1.132-.893-1.887-2.554-1.887-1.434 0-2.441.591-2.441 1.736 0 .792.554 1.308 1.749 1.56l1.309.3c.516.1.654.239.654.453 0 .34-.39.554-1.019.554-.793 0-1.246-.176-1.421-.78h-1.384c.2 1.132 1.044 1.887 2.755 1.887m-19.221-7.5h5.171v1.258h-3.774v1.8h3.674v1.22h-3.674v1.824h3.774v1.258h-5.171z" transform="translate(89.188 57.334)" style="fill:#5abb48"/>
        </g>
        <g data-name="Group 217">
            <path data-name="Path 138" d="M-147.9-20.181v-.988h-.368a1.434 1.434 0 0 0-1.283.7v-.662h-1.049v5.362h1.062v-3.049a1.227 1.227 0 0 1 1.2-1.367zm-7.633 1.241a1.689 1.689 0 0 1 1.64-1.367 1.669 1.669 0 0 1 1.63 1.367h-3.27m1.661-2.292a2.757 2.757 0 0 0-2.755 2.786 2.768 2.768 0 0 0 2.849 2.8 2.811 2.811 0 0 0 2.313-1.146l-.768-.568a1.844 1.844 0 0 1-1.546.789 1.8 1.8 0 0 1-1.777-1.525h4.363v-.347a2.659 2.659 0 0 0-2.681-2.786m-6.066 4.658a1.849 1.849 0 0 1-1.85-1.861 1.849 1.849 0 0 1 1.85-1.861 1.846 1.846 0 0 1 1.84 1.861 1.853 1.853 0 0 1-1.84 1.861m-2.891.81h1.051v-.673a2.676 2.676 0 0 0 1.913.8 2.793 2.793 0 0 0 2.818-2.8 2.8 2.8 0 0 0-2.818-2.807 2.651 2.651 0 0 0-1.9.8v-2.681h-1.062zm-3.732-.862a1.821 1.821 0 0 0 1.808-1.955v-4.542h1.1v7.36h-1.093v-.683a2.656 2.656 0 0 1-1.945.809 2.726 2.726 0 0 1-2.786-2.881v-4.605h1.1v4.542a1.8 1.8 0 0 0 1.808 1.955" transform="translate(178.619 34.758)" style="fill:#00080a"/>
        </g>
    </g>
</svg>
