<svg xmlns="http://www.w3.org/2000/svg" xmlns:xlink="http://www.w3.org/1999/xlink" width="24" height="24" viewBox="0 0 24 24">
    <defs>
        <path id="a" d="M0 23.997h23.962V.037H0z"/>
    </defs>
    <g fill="none" fill-rule="evenodd">
        <g>
            <mask id="b" fill="#fff">
                <use xlink:href="#a"/>
            </mask>
            <path fill="#FFF" d="M11.981.038c-3.254 0-3.662.014-4.94.072-1.275.058-2.146.26-2.908.557a5.872 5.872 0 0 0-2.122 1.382A5.872 5.872 0 0 0 .629 4.17C.333 4.933.13 5.804.072 7.079.014 8.357 0 8.765 0 12.02c0 3.254.014 3.662.072 4.94.058 1.275.26 2.146.557 2.908a5.872 5.872 0 0 0 1.382 2.122 5.872 5.872 0 0 0 2.122 1.382c.762.296 1.633.499 2.908.557 1.278.058 1.686.072 4.94.072 3.254 0 3.662-.014 4.94-.072 1.275-.058 2.146-.26 2.908-.557a5.872 5.872 0 0 0 2.122-1.382 5.873 5.873 0 0 0 1.382-2.122c.296-.762.499-1.633.557-2.908.058-1.278.072-1.686.072-4.94 0-3.254-.014-3.662-.072-4.94-.058-1.275-.26-2.146-.557-2.908a5.873 5.873 0 0 0-1.382-2.122A5.872 5.872 0 0 0 19.83.667C19.067.37 18.196.168 16.921.11 15.643.052 15.235.038 11.98.038m0 2.159c3.2 0 3.578.012 4.841.07 1.169.053 1.803.248 2.225.412.56.217.959.477 1.378.896.42.42.679.819.896 1.378.164.422.36 1.056.413 2.224.057 1.264.07 1.643.07 4.842s-.013 3.578-.07 4.841c-.054 1.168-.249 1.803-.413 2.225a3.71 3.71 0 0 1-.896 1.378 3.71 3.71 0 0 1-1.378.896c-.422.164-1.056.36-2.225.412-1.263.058-1.642.07-4.84.07-3.2 0-3.58-.012-4.842-.07-1.168-.053-1.803-.248-2.225-.412a3.712 3.712 0 0 1-1.378-.896 3.714 3.714 0 0 1-.896-1.378c-.164-.422-.36-1.057-.412-2.225-.058-1.263-.07-1.642-.07-4.841 0-3.2.012-3.578.07-4.842.053-1.168.248-1.802.412-2.224.218-.56.477-.959.896-1.378.42-.42.819-.679 1.378-.896.422-.164 1.057-.36 2.225-.413 1.263-.057 1.642-.07 4.841-.07" mask="url(#b)"/>
        </g>
        <path fill="#FFF" d="M11.981 16.013a3.994 3.994 0 1 1 0-7.988 3.994 3.994 0 0 1 0 7.988m0-10.147a6.152 6.152 0 1 0 0 12.305 6.152 6.152 0 0 0 0-12.305M19.814 5.623a1.438 1.438 0 1 1-2.875 0 1.438 1.438 0 0 1 2.875 0"/>
    </g>
</svg>
