<?xml version="1.0" encoding="UTF-8"?>
<svg width="24px" height="24px" viewBox="0 0 24 24" version="1.1" xmlns="http://www.w3.org/2000/svg" xmlns:xlink="http://www.w3.org/1999/xlink">
    <!-- Generator: Sketch 49.3 (51167) - http://www.bohemiancoding.com/sketch -->
    <title>icon-user</title>
    <desc>Created with Sketch.</desc>
    <defs></defs>
    <g id="Page-1" stroke="none" stroke-width="1" fill="none" fill-rule="evenodd">
        <g id="Icons" transform="translate(-890.000000, -20.000000)" fill="#FFF" fill-rule="nonzero">
            <g id="icon-user" transform="translate(890.000000, 20.000000)">
                <path d="M5.99902509,20 C7.67051315,21.255821 9.74835042,22 12,22 C14.2516496,22 16.3294868,21.255821 18.0009749,20 L18,20 C18,16.6862915 15.3137085,14 12,14 C8.6862915,14 6,16.6862915 6,20 L5.99902509,20 Z M4.19226927,18.2487311 C4.74185685,15.78775 6.42523061,13.7545346 8.66559268,12.7258827 C7.64330049,11.8103785 7,10.4803147 7,9 C7,6.23857625 9.23857625,4 12,4 C14.7614237,4 17,6.23857625 17,9 C17,10.4803147 16.3566995,11.8103785 15.3344073,12.7258827 C17.5747694,13.7545346 19.2581432,15.78775 19.8077307,18.2487311 C21.1795077,16.5369288 22,14.3642825 22,12 C22,6.4771525 17.5228475,2 12,2 C6.4771525,2 2,6.4771525 2,12 C2,14.3642825 2.82049235,16.5369288 4.19226927,18.2487311 Z M12,24 C5.372583,24 0,18.627417 0,12 C0,5.372583 5.372583,0 12,0 C18.627417,0 24,5.372583 24,12 C24,18.627417 18.627417,24 12,24 Z M12,12 C13.6568542,12 15,10.6568542 15,9 C15,7.34314575 13.6568542,6 12,6 C10.3431458,6 9,7.34314575 9,9 C9,10.6568542 10.3431458,12 12,12 Z" id="Combined-Shape"></path>
            </g>
        </g>
    </g>
</svg>