<svg data-name="Icon/Plus" xmlns="http://www.w3.org/2000/svg" width="24" height="24">
    <path data-name="Path 3367" d="M11 0A11 11 0 1 1 0 11 11 11 0 0 1 11 0z" transform="translate(1 1)" style="fill:#ec5540"/>
    <path data-name="Rectangle 508" style="fill:none" d="M0 0h24v24H0z"/>
    <path data-name="Union 3" d="M4705 17115.5a.556.556 0 0 1 0-.166V17110h-5.313c-.477 0-.683-.18-.683-.594v-2.822a.513.513 0 0 1 .481-.57.42.42 0 0 1 .185 0h5.33v-5.318c0-.477.181-.687.593-.687h2.818a.521.521 0 0 1 .576.486.642.642 0 0 1 0 .184v5.336h5.327c.468 0 .674.176.674.584v2.836a.516.516 0 0 1-.485.566 1.262 1.262 0 0 1-.172 0h-5.344v5.322c0 .463-.18.674-.584.674h-2.835a.48.48 0 0 1-.074.006.527.527 0 0 1-.494-.503z" transform="translate(-4695 -17096)" style="fill:#fff;stroke:transparent;stroke-miterlimit:10"/>
</svg>
