<svg xmlns="http://www.w3.org/2000/svg" width="17.462" height="17.462" viewBox="0 0 17.462 17.462">
  <g id="E8LX4I.tif" transform="translate(-5977.57 3254.423) rotate(-90)">
    <g id="Group_55" data-name="Group 55" transform="translate(3236.96 5977.57)">
      <path id="Path_39" data-name="Path 39" d="M3243.188,5991.7c0-.883-.005-1.764,0-2.646,0-.195-.048-.255-.249-.254-1.744.008-3.489,0-5.234,0-.523,0-.749-.223-.749-.743q0-1.77,0-3.541a.634.634,0,0,1,.729-.723h5.234c.263,0,.264,0,.264-.269q0-2.607,0-5.215c0-.52.224-.743.747-.744h3.541a.63.63,0,0,1,.718.714q0,2.627,0,5.253c0,.258,0,.259.254.259h5.234c.51,0,.739.227.739.733q0,1.78,0,3.561a.63.63,0,0,1-.719.713h-5.253c-.254,0-.254,0-.254.259q0,2.618,0,5.234c0,.507-.229.734-.738.734h-3.541a.634.634,0,0,1-.728-.725Q3243.187,5993,3243.188,5991.7Z" transform="translate(-3236.96 -5977.57)" fill="#ffffff"/>
    </g>
  </g>
</svg>
