<?xml version="1.0" encoding="UTF-8"?>
<svg width="68px" height="68px" viewBox="0 0 68 68" version="1.1" xmlns="http://www.w3.org/2000/svg" xmlns:xlink="http://www.w3.org/1999/xlink">
    <!-- Generator: Sketch 48.2 (47327) - http://www.bohemiancoding.com/sketch -->
    <title>icon-q</title>
    <desc>Created with Sketch.</desc>
    <defs></defs>
    <g id="Symbols" stroke="none" stroke-width="1" fill="none" fill-rule="evenodd">
        <g id="icon-q" stroke="#1C1B1B" stroke-width="2.4">
            <path d="M20.2,13.3931 C22.2,10.3931 25.179,9.7701 28.2,9.3931 C33.527,8.7281 39.481,9.7061 43.655,13.4661 C47.887,17.2781 48.047,23.5581 44.726,28.0121 C44.068,28.8951 43.297,29.6931 42.431,30.3731 C40.601,31.8121 38.383,32.8151 36.119,33.3351 C34.88,33.6211 28.2,34.3931 28.2,34.3931 C28.2,34.3931 28.179,34.9901 28.214,35.5531 C28.26,36.2861 28.254,37.0221 28.279,37.7551 C28.393,40.9911 28.732,44.1901 29.2,47.3931" id="Stroke-1" stroke-linecap="round" stroke-linejoin="round"></path>
            <path d="M30.2166,58.3931 C28.6166,58.3931 27.3196,57.0961 27.3196,55.4961 C27.3196,53.8951 28.5226,52.5981 30.1226,52.5981 C31.7236,52.5981 33.1136,53.8951 33.1136,55.4961 C33.1136,57.0961 31.8176,58.3931 30.2166,58.3931 Z" id="Stroke-3"></path>
        </g>
    </g>
</svg>