<svg xmlns="http://www.w3.org/2000/svg" width="24" height="24" viewBox="0 0 24 24">
    <g fill="#020303" fill-rule="evenodd">
        <path d="M6.379 14.33a1.334 1.334 0 1 0 .001 2.668 1.334 1.334 0 0 0-.001-2.668M10.38 12.996a1.335 1.335 0 0 0-2.667 0c0 .735.598 1.334 1.334 1.334.735 0 1.333-.599 1.333-1.334M9.88 15.046a1.335 1.335 0 0 0 0 2.667 1.335 1.335 0 0 0 0-2.667"/>
        <path d="M18.075 1.906c.174 0 .389.056.512.497.07.25.064.543-.017.851-.088.33-.155.753-.208 1.335-.256 1.317.261 4.56.261 4.56.186.694.439 1.37.756 2.012.769 1.553 1.248 3.201 1.28 4.391v1.657c0 1.151-.175 2.238-.523 3.231-.572 1.635-.926 1.654-.93 1.654h-2.503c-.083 0-.46-.228-.887-1.29a7.672 7.672 0 0 0 1.15-2.437l.056-.215a6.546 6.546 0 0 0 .143-.767l.04-.304c.02-.23.037-.464.037-.698 0-.237-.013-.474-.039-.717l-.023-.196a11.74 11.74 0 0 0-.079-.523c-.012-.064-.024-.13-.035-.176a6.807 6.807 0 0 0-.136-.533l-.041-.146a7.686 7.686 0 0 0-.217-.588 3.966 3.966 0 0 0-.126-.28 7.73 7.73 0 0 0-.332-.643s-.166-.275-.188-.309c.153-.364.323-.736.508-1.11.313-.63.567-1.305.755-2.013.384-1.616.282-4.56.282-4.56a9.556 9.556 0 0 0-.23-1.319c-.075-.29-.092-.528-.053-.728.121-.636.428-.636.543-.636h.244zM14.496 13.42c.065.102.126.207.183.316l-.183-.316zm.812 2.437c.017.175.028.352.028.531 0 .183-.011.367-.028.546l-.02.154c-.018.13-.035.257-.059.382l-.043.187a3.511 3.511 0 0 1-.085.322c-.02.065-.039.131-.065.201l-.106.285a4.071 4.071 0 0 1-.107.257l-.076.151c-.201.41-.45.794-.762 1.183a5.685 5.685 0 0 1-4.364 2.04 5.721 5.721 0 0 1-5.715-5.716 5.722 5.722 0 0 1 5.715-5.715 5.73 5.73 0 0 1 4.817 2.66l.298.532c.078.153.146.31.234.54l.086.232c.02.058.036.12.055.191.03.107.058.21.084.325.012.056.024.111.035.18.022.124.04.248.058.374l.02.158zm7.257-.338c-.056-2.104-1.053-4.342-1.48-5.208a8.843 8.843 0 0 1-.927-3.889l.052-.977c.033-.53.09-1.285.203-1.7a3.517 3.517 0 0 0 .014-1.857C20.037.497 18.959 0 18.078 0l-.135.004L17.831 0c-.964 0-2.105.573-2.416 2.183-.094.494-.066 1.008.084 1.567.111.43.207 1.14.245 1.84.015.28.018.531.007.786a8.933 8.933 0 0 1-.927 3.931c-.06.121-.118.241-.173.36a7.636 7.636 0 0 0-5.03-1.908C5.419 8.76 2 12.177 2 16.38S5.419 24 9.621 24a7.55 7.55 0 0 0 4.796-1.703c.614 1.13 1.381 1.703 2.286 1.703h2.503c1.711 0 2.425-2.055 2.729-2.93.418-1.198.63-2.497.63-3.86v-1.692z"/>
    </g>
</svg>
