<svg xmlns="http://www.w3.org/2000/svg" width="328" height="40" viewBox="0 0 328 40" preserveAspectRatio="none">
    <path fill="#2F2F2F" fill-rule="evenodd" d="M223.592 38.586c.12.393.194.804.205 1.178-1.558.003-3.067-.013-4.314-.051-2.773.05-7.274-.262-4.687-.078l-4.478-.072-2.68-.073-.049.059c-5.287.03-10.885-.39-16.93.035-1.78-.06-3.619-.132-6.597-.065l-.58.204c-2.285-.072-6.864.204-7.845-.008-2.466.548-11.093.12-15.112.216l-.152-.266c-2.766.015-5.42-.06-8.854-.168l.212-.235c-2.962-.193-7.613.168-12.296.143.318.09 1.506.067 2.346.013-5.595.531-11.805-.387-16.88 0a21.508 21.508 0 0 0-3.067.003c.119 0 .224.005.314.013-.13.002-.322.003-.52.002-.558.04-1.133.088-1.756.125.53-.057 1.037-.103 1.478-.126-.975-.004-2.454-.034-3.904-.093l-.618.253-.335-.007c-1.423.093-1.143-.12-.385-.31a34.595 34.595 0 0 1-1.917-.152c-1.156.407-3.804-.138-5.382.297-.904-.196-6.382-.166-7.8-.515l.045-.002h-.053a1.058 1.058 0 0 1-.253-.089c-.048.057-.452.085.253.09l.007.001c-1.601.05-3.2.099-4.635-.026l-.686.322-3.53-.433c-2.144.196-3.032.31-.904.557-5.14-.38-4.17-.142-8.543-.52l.214.208c-1.563-.008-4.06-.286-5.004-.114-3.495.395-17.297.054-26.27.422 1.74-.613-4.17.274-4.526-.2-.523.144-1.774.226-.32.351-4.58-.142-6.881.23-10.043-.17-.524.146.98.212.514.298-.368-.03-1.455-.125-1.932-.039-.466.086.671.121 1.396.184-4.678-.024-5.152-.47-5.491-.89-2.372.2-3.554.172-5.266-.103-.826.137-2.202.28.705.33-1.636.02-9.99.2-10.157-.135-.512.085-2.286.024-2.716-.014l-4.979.028c-1.343.006-2.687.006-5.06-.01l1.508-.055c-.232-.143-.668-.197-1.358-.208a.43.43 0 0 0 .006-.033h-.4v-1.264l-.024.007c-.278-.526-.383-.886-.405-1.122-.022-.205.04-.282.096-.38.114-.186.207-.37-.425-1.235l.757.075v-1.436c-.297-.362-.493-.742-.228-1.08l.228.15v-.387c-.812-.509-2.558-1.101-2.738-1.484-.178-.12-.286.19-.419.357-1.214-1.442 1.254-.186 1.545-1.26-.677-.199-1.72.255-1.845-.468-.548-.36 2.195-2.096.898-3.083.521.218 1.041.433 1.432-.066.187-.764-1.97-2.067-.326-2.758a.757.757 0 0 0-.408-.138c.423-.584.704-1.9 1.595-2.252-3.306-.54 1.607-3.634-1.442-3.62l.164-1.798-.312.047c-.201-1.15.53-1.556 1.261-1.96-.207-.266-.492-.072-.652-.05-.614-1.678-.485-1.846 1.034-3.255l-.99-.145c.575-.382-1.55-2.428-.396-4.076-.112.017-.304.051-.444.182.536-.856-.008-1.868-.395-2.775-.048-.085-.094-.287-.134-.462l-.106-.524a4.221 4.221 0 0 1-.065-.968c.04-.594.277-1.057.86-1.233.63.05 1.199.111 1.726.183l.157.006V0h218.176v.129l.383-.002c.507-.053 1.15-.087 1.704-.09.002.27-.011.53-.045.745.003.03.004.06.005.09 7.212-.01 14.96-.036 21.238-.196-2.797.613 6.703-.274 7.275.2.84-.144 2.85-.226.515-.351 7.36.142 11.058-.23 16.14.17.841-.146-1.577-.212-.827-.298.591.03 2.339.125 3.105.039.75-.086-1.079-.121-2.243-.184 7.517.024 8.279.47 8.824.89 3.812-.2 5.712-.172 8.463.103 1.327-.137 3.54-.28-1.132-.33 2.628-.02 16.055-.2 16.322.135.823-.085 3.674-.024 4.366.014l8.001-.028c2.16-.006 4.32-.006 8.133.01l-2.424.055c.373.143 1.074.197 2.174.241h.643l.038 1.257c.446.526.615.886.65 1.122.036.205-.063.282-.154.38-.183.186-.332.37.684 1.235l-1.218-.075v1.436c.478.362.793.742.367 1.08l-.367-.15v.387c1.306.509 4.113 1.101 4.4 1.484.288.12.46-.19.674-.357 1.951 1.442-2.014.186-2.483 1.26 1.088.199 2.764-.255 2.965.468.88.36-3.527 2.096-1.443 3.083-.837-.218-1.673-.433-2.302.066-.3.764 3.166 2.067.525 2.758.23.097.449.133.656.138-.68.584-1.131 1.9-2.564 2.252 5.313.54-2.583 3.634 2.318 3.62l-.264 1.798.502-.047c.323 1.15-.851 1.556-2.027 1.96.334.266.79.072 1.047.05.988 1.678.78 1.846-1.66 3.255l1.59.145c-.925.382 2.491 2.428.637 4.076.18-.017.489-.051.713-.182-.861.856.014 1.868.635 2.775.077.085.15.287.216.462l.17.524c.092.342.137.671.105.968-.067.594-.445 1.057-1.384 1.233-1.01-.05-1.925-.111-3.026-.189l-98.734-1.028z" opacity=".109"/>
</svg>
