<?xml version="1.0" encoding="utf-8"?>
<!-- Generator: Adobe Illustrator 23.0.3, SVG Export Plug-In . SVG Version: 6.00 Build 0)  -->
<svg version="1.1" width="99" height="41" xmlns="http://www.w3.org/2000/svg" xmlns:xlink="http://www.w3.org/1999/xlink" x="0px" y="0px"
	 viewBox="0 0 914.8 304.18" style="enable-background:new 0 0 914.8 304.18;" xml:space="preserve">
<style type="text/css">
	.st0{fill:#3C3C3C;}
	.st1{fill:#00BED6;}
	.st2{fill:#FDC506;}
	.st3{fill:#FF6B00;}
	.st4{fill:#FFFFFF;}
</style>
<g id="Blue">
</g>
<g id="Yellow">
	<g>
		<path class="st0" d="M625.16,6.52h51.64v256.22h-51.64V6.52z M797.05,6.65H693.52v45.57h26.03v210.65h51.63V52.22h25.87V6.65z
			 M206.61,111.84h-17.03V6.52h-51.64v256.22h51.64V157.41h17.03v105.32h51.64V6.52h-51.64V111.84z M280.67,262.74h51.64V6.52
			h-51.64V262.74z M914.94,134.63c0,48.34-19.12,93.9-53.83,128.26l-4.71,4.67c-1.55,1.53-4.04,1.53-5.58,0l-4.71-4.67
			c-34.71-34.37-53.83-79.91-53.83-128.26c0-48.34,19.12-93.89,53.83-128.26l4.71-4.67c1.55-1.53,4.04-1.53,5.58,0l4.71,4.66
			C895.82,40.73,914.94,86.29,914.94,134.63z M864.5,134.62c0-16.75-3.35-33.8-9.69-49.32l-1.21-2.96l-1.21,2.96
			c-6.34,15.52-9.69,32.57-9.69,49.32c0,16.75,3.35,33.81,9.69,49.32l1.21,2.96l1.21-2.96C861.15,168.43,864.5,151.37,864.5,134.62z
			 M61.47,82.34l1.21,2.96c3.99,9.74,6.79,20,8.32,30.49l0.61,4.22l4.24-0.41c7.13-0.69,14.38-1.04,21.57-1.04
			c6.47,0,13,0.28,19.4,0.85l5.44,0.47l-0.61-5.43c-4.6-41.14-22.82-78.51-52.69-108.08L64.26,1.7c-1.55-1.53-4.04-1.53-5.58,0
			l-4.71,4.66C19.25,40.73,0.14,86.28,0.14,134.63c0,48.34,19.12,93.9,53.83,128.26l4.71,4.67c1.55,1.53,4.04,1.53,5.58,0l4.71-4.67
			c29.8-29.5,48.01-66.77,52.66-107.8l0.62-5.44l-4.59,0.4c-6.69,0.59-13.48,0.88-20.2,0.88c-7.49,0-15.06-0.37-22.51-1.09
			l-3.37-0.33l-0.62,4.21c-1.54,10.4-4.32,20.58-8.28,30.24l-1.21,2.95l-1.21-2.95c-6.34-15.52-9.69-32.58-9.69-49.33
			c0-16.75,3.35-33.81,9.69-49.33L61.47,82.34z M551.38,203.66c-0.09,2.31-0.73,9.97-5.06,11.62c-0.72,0.26-1.47,0.41-2.15,0.43
			c-0.26,0-1.88,0.01-2.08,0c-0.71-0.02-1.43-0.16-2.13-0.4c-4.41-1.71-5.04-9.39-5.13-11.68V6.52h-51.57v182.34
			c0,13.77,2.74,59.71,38.02,73c5.43,1.91,11.01,2.98,16.66,3.18c2.37,0.08,4.12,0.1,5.17,0.1c1.04,0,2.77-0.02,5.24-0.1
			c5.62-0.19,11.25-1.28,16.75-3.23l0.09-0.03c14.21-5.4,24.66-16.58,31.06-33.2c5.85-15.19,6.72-31.2,6.72-39.39V6.52h-51.57
			V203.66z M479.39,254.72l5.64,2.53l-4.17,4.56c-13.51,14.79-21.95,26.64-28.22,39.62l-0.25,0.52c-1.05,2.18-3.8,2.92-5.8,1.55
			l-0.48-0.33c-0.39-0.26-0.97-0.64-1.73-1.12c-7.99-5.12-32.19-20.64-54.72-48.11c-28.73-35.02-43.29-75.17-43.29-119.34
			c0-48.34,19.12-93.89,53.83-128.26l5.64-5.58c1.03-1.02,2.7-1.02,3.73,0l5.64,5.58c34.71,34.37,53.83,79.92,53.83,128.26
			c0,33.78-9.46,66.72-27.35,95.24l-0.6,0.96l0.86,0.73C447.82,236.57,460.5,246.25,479.39,254.72z M418.6,134.63
			c0-16.75-3.35-33.8-9.69-49.32l-1.21-2.96l-1.21,2.96c-6.34,15.52-9.69,32.57-9.69,49.32c0,16.75,3.35,33.8,9.69,49.32l1.21,2.96
			l1.21-2.96C415.25,168.43,418.6,151.38,418.6,134.63z"/>
		<path class="st2" d="M112.1,110.07l-1.61-0.09c-4.33-0.24-8.72-0.37-13.07-0.37c-5.68,0-11.43,0.21-17.08,0.63l-1.17,0.08
			l-0.21-1.15c-2.53-13.67-7.08-26.84-13.54-39.13l-1.61-3.07c-0.99-1.89-3.7-1.89-4.69,0l-1.61,3.07
			c-10.39,19.79-15.88,42.12-15.88,64.58s5.49,44.79,15.88,64.58l1.61,3.06c0.99,1.89,3.71,1.89,4.7,0l1.61-3.06
			c6.41-12.22,10.95-25.29,13.49-38.87l0.21-1.15l1.17,0.09c5.66,0.42,11.42,0.63,17.12,0.63c4.33,0,8.72-0.12,13.04-0.37l1.61-0.09
			l-0.25,1.6c-5.6,36.18-22.59,69.2-49.13,95.48l-0.28,0.28c-0.52,0.51-1.34,0.51-1.86,0l-0.28-0.28
			c-33-32.67-51.18-75.97-51.18-121.91c0-45.94,18.18-89.23,51.18-121.9l0.28-0.28c0.51-0.51,1.34-0.51,1.86,0l0.28,0.28
			c26.61,26.35,43.62,59.46,49.18,95.75L112.1,110.07z M215.55,253.8h33.75V15.46h-33.75v105.32h-34.91V15.46h-33.76V253.8h33.76
			V148.47h34.91V253.8z M289.61,15.46h33.75V253.8h-33.75V15.46z M906,134.63c0,45.94-18.18,89.23-51.18,121.91
			c-0.67,0.66-1.75,0.66-2.42,0l0,0c-33-32.67-51.18-75.97-51.18-121.91c0-45.94,18.17-89.23,51.18-121.9l0.28-0.28
			c0.52-0.51,1.35-0.51,1.86,0l0.28,0.28C887.82,45.4,906,88.69,906,134.63z M857.56,199.21c10.39-19.79,15.88-42.12,15.88-64.58
			c0-22.46-5.49-44.79-15.88-64.58l-1.62-3.08c-0.99-1.89-3.69-1.89-4.68,0l-1.62,3.08c-10.39,19.79-15.88,42.12-15.88,64.58
			c0,22.46,5.49,44.79,15.88,64.58l1.62,3.08c0.99,1.89,3.69,1.89,4.68,0L857.56,199.21z M728.49,43.28h-26.03v-27.7h85.8v27.7
			h-26.03v210.65h-33.75V43.28z M634.1,15.46h33.75V253.8H634.1V15.46z M594.06,15.41h-33.79l0,188.5
			c-0.37,10.05-4.33,17.23-10.88,19.72c-1.67,0.59-3.29,0.91-4.96,0.97c-0.24,0.01-2.4,0.01-2.65,0c-1.62-0.06-3.25-0.37-4.82-0.92
			l-0.1-0.04c-6.59-2.48-10.57-9.69-10.92-19.79l0-0.16V15.41h-33.79v173.45c0,7.47,0.79,22.09,6.1,36.08
			c5.5,14.51,14.27,24.12,26.07,28.56c3.89,1.37,8.3,2.21,13.87,2.65c2.62,0.2,8.2,0.1,9.85,0c5.18-0.31,9.77-1.2,14.03-2.71
			c29.69-11.33,32-52.05,32-64.27V15.41z M468.69,259.54c-23.62-11.8-36.08-24.34-36.59-24.87l-2.55-2.59l2.01-3.02
			c18.67-28.03,28.53-60.68,28.53-94.44c0-45.94-18.17-89.23-51.18-121.9l-0.28-0.28c-0.52-0.51-1.34-0.51-1.86,0l-0.28,0.28
			c-33,32.67-51.18,75.97-51.18,121.9c0,84.79,56.62,135.15,90.37,157.62l1.19,0.79l0.68-1.25c5.47-10.03,12.31-19.62,21.53-30.21
			l1.11-1.27L468.69,259.54z M411.66,199.21l-1.62,3.09c-0.99,1.88-3.68,1.88-4.67,0l-1.62-3.09
			c-10.39-19.79-15.88-42.12-15.88-64.58c0-22.46,5.49-44.79,15.88-64.58l1.61-3.07c0.99-1.89,3.7-1.89,4.7,0l1.61,3.07
			c10.39,19.79,15.88,42.12,15.88,64.58S422.05,179.42,411.66,199.21z"/>
	</g>
</g>
<g id="Orange">
</g>
<g id="Grey">
</g>
</svg>
