<?xml version="1.0" encoding="UTF-8"?>
<svg width="33px" height="101px" viewBox="0 0 33 101" version="1.1" xmlns="http://www.w3.org/2000/svg" xmlns:xlink="http://www.w3.org/1999/xlink">
    <!-- Generator: Sketch 60 (88103) - https://sketch.com -->
    <title>Group 216</title>
    <desc>Created with Sketch.</desc>
    <defs>
        <path d="M1.368,9.3928 L4.6344,9.0264 C4.3816,5.9024 3.1232,2.9632 0.3752,0.5456 L0.3752,0.5456" id="path-1"></path>
        <path d="M1.368,9.3928 L4.6344,9.0264 C4.3816,5.9024 3.1232,2.9632 0.3752,0.5456 L0.3752,0.5456" id="path-3"></path>
        <path d="M1.368,9.3928 L4.6344,9.0264 C4.3816,5.9024 3.1232,2.9632 0.3752,0.5456 L0.3752,0.5456" id="path-5"></path>
        <path d="M0.568,0.5928 L1.7,10.6784 C3.1888,7.2632 4.1104,3.6352 3.8344,0.2264 L3.8344,0.2264" id="path-7"></path>
        <path d="M0.568,0.5928 L1.7,10.6784 C3.1888,7.2632 4.1104,3.6352 3.8344,0.2264 L3.8344,0.2264" id="path-9"></path>
        <path d="M0.9584,1.6392 C0.8104,1.7288 0.6624,1.8216 0.5176,1.9176 L0.5176,1.9176 L1.9992,15.1192 L17.368,13.3928 L16.3752,4.5456 C15.8464,4.0816 15.264,3.6368 14.6232,3.2136 L14.6232,3.2136 C12.2368,1.6368 8.9032,0.4144 5.7536,0.4144 L5.7536,0.4144 C4.0408,0.4144 2.3816,0.776 0.9584,1.6392" id="path-11"></path>
        <path d="M0.9584,1.6392 C0.8104,1.7288 0.6624,1.8216 0.5176,1.9176 L0.5176,1.9176 L1.9992,15.1192 L17.368,13.3928 L16.3752,4.5456 C15.8464,4.0816 15.264,3.6368 14.6232,3.2136 L14.6232,3.2136 C12.2368,1.6368 8.9032,0.4144 5.7536,0.4144 L5.7536,0.4144 C4.0408,0.4144 2.3816,0.776 0.9584,1.6392" id="path-13"></path>
        <path d="M0.9584,1.6392 C0.8104,1.7288 0.6624,1.8216 0.5176,1.9176 L0.5176,1.9176 L1.9992,15.1192 L17.368,13.3928 L16.3752,4.5456 C15.8464,4.0816 15.264,3.6368 14.6232,3.2136 L14.6232,3.2136 C12.2368,1.6368 8.9032,0.4144 5.7536,0.4144 L5.7536,0.4144 C4.0408,0.4144 2.3816,0.776 0.9584,1.6392" id="path-15"></path>
        <path d="M0.9584,1.6392 C0.8104,1.7288 0.6624,1.8216 0.5176,1.9176 L0.5176,1.9176 L1.9992,15.1192 L17.368,13.3928 L16.3752,4.5456 C15.8464,4.0816 15.264,3.6368 14.6232,3.2136 L14.6232,3.2136 C12.2368,1.6368 8.9032,0.4144 5.7536,0.4144 L5.7536,0.4144 C4.0408,0.4144 2.3816,0.776 0.9584,1.6392" id="path-17"></path>
        <path d="M0.9584,1.6392 C0.8104,1.7288 0.6624,1.8216 0.5176,1.9176 L0.5176,1.9176 L1.9992,15.1192 L17.368,13.3928 L16.3752,4.5456 C15.8464,4.0816 15.264,3.6368 14.6232,3.2136 L14.6232,3.2136 C12.2368,1.6368 8.9032,0.4144 5.7536,0.4144 L5.7536,0.4144 C4.0408,0.4144 2.3816,0.776 0.9584,1.6392" id="path-19"></path>
        <path d="M0.9584,1.6392 C0.8104,1.7288 0.6624,1.8216 0.5176,1.9176 L0.5176,1.9176 L1.9992,15.1192 L17.368,13.3928 L16.3752,4.5456 C15.8464,4.0816 15.264,3.6368 14.6232,3.2136 L14.6232,3.2136 C12.2368,1.6368 8.9032,0.4144 5.7536,0.4144 L5.7536,0.4144 C4.0408,0.4144 2.3816,0.776 0.9584,1.6392" id="path-21"></path>
        <path d="M0.9584,1.6392 C0.8104,1.7288 0.6624,1.8216 0.5176,1.9176 L0.5176,1.9176 L1.9992,15.1192 L17.368,13.3928 L16.3752,4.5456 C15.8464,4.0816 15.264,3.6368 14.6232,3.2136 L14.6232,3.2136 C12.2368,1.6368 8.9032,0.4144 5.7536,0.4144 L5.7536,0.4144 C4.0408,0.4144 2.3816,0.776 0.9584,1.6392" id="path-23"></path>
        <path d="M0.3992,2.3192 L2.1248,17.6864 L13.8272,16.3736 C14.9616,14.6064 16.0288,12.6784 16.9,10.6784 L16.9,10.6784 L15.768,0.5928" id="path-25"></path>
        <path d="M0.3992,2.3192 L2.1248,17.6864 L13.8272,16.3736 C14.9616,14.6064 16.0288,12.6784 16.9,10.6784 L16.9,10.6784 L15.768,0.5928" id="path-27"></path>
        <path d="M0.3992,2.3192 L2.1248,17.6864 L13.8272,16.3736 C14.9616,14.6064 16.0288,12.6784 16.9,10.6784 L16.9,10.6784 L15.768,0.5928" id="path-29"></path>
        <path d="M0.3992,2.3192 L2.1248,17.6864 L13.8272,16.3736 C14.9616,14.6064 16.0288,12.6784 16.9,10.6784 L16.9,10.6784 L15.768,0.5928" id="path-31"></path>
        <path d="M0.3992,2.3192 L2.1248,17.6864 L13.8272,16.3736 C14.9616,14.6064 16.0288,12.6784 16.9,10.6784 L16.9,10.6784 L15.768,0.5928" id="path-33"></path>
        <path d="M0.3992,2.3192 L2.1248,17.6864 L13.8272,16.3736 C14.9616,14.6064 16.0288,12.6784 16.9,10.6784 L16.9,10.6784 L15.768,0.5928" id="path-35"></path>
        <path d="M0.3992,2.3192 L2.1248,17.6864 L13.8272,16.3736 C14.9616,14.6064 16.0288,12.6784 16.9,10.6784 L16.9,10.6784 L15.768,0.5928" id="path-37"></path>
        <path d="M0.5248,1.6864 L1.8552,13.5392 C5.5896,9.6048 8.9696,5.3296 11.9528,0.7968 L11.9528,0.7968 C12.0448,0.656 12.1352,0.5168 12.2272,0.3736 L12.2272,0.3736" id="path-39"></path>
        <path d="M0.5248,1.6864 L1.8552,13.5392 C5.5896,9.6048 8.9696,5.3296 11.9528,0.7968 L11.9528,0.7968 C12.0448,0.656 12.1352,0.5168 12.2272,0.3736 L12.2272,0.3736" id="path-41"></path>
        <path d="M0.5248,1.6864 L1.8552,13.5392 C5.5896,9.6048 8.9696,5.3296 11.9528,0.7968 L11.9528,0.7968 C12.0448,0.656 12.1352,0.5168 12.2272,0.3736 L12.2272,0.3736" id="path-43"></path>
        <path d="M0.5248,1.6864 L1.8552,13.5392 C5.5896,9.6048 8.9696,5.3296 11.9528,0.7968 L11.9528,0.7968 C12.0448,0.656 12.1352,0.5168 12.2272,0.3736 L12.2272,0.3736" id="path-45"></path>
        <path d="M0.5248,1.6864 L1.8552,13.5392 C5.5896,9.6048 8.9696,5.3296 11.9528,0.7968 L11.9528,0.7968 C12.0448,0.656 12.1352,0.5168 12.2272,0.3736 L12.2272,0.3736" id="path-47"></path>
        <path d="M0.9952,13.5304 C0.8384,13.9384 0.6856,14.3488 0.5384,14.7608 L0.5384,14.7608 L11.5992,13.5192 L10.1176,0.3176 C5.6536,3.2584 2.848,8.7168 0.9952,13.5304" id="path-49"></path>
        <path d="M0.9952,13.5304 C0.8384,13.9384 0.6856,14.3488 0.5384,14.7608 L0.5384,14.7608 L11.5992,13.5192 L10.1176,0.3176 C5.6536,3.2584 2.848,8.7168 0.9952,13.5304" id="path-51"></path>
        <path d="M0.9952,13.5304 C0.8384,13.9384 0.6856,14.3488 0.5384,14.7608 L0.5384,14.7608 L11.5992,13.5192 L10.1176,0.3176 C5.6536,3.2584 2.848,8.7168 0.9952,13.5304" id="path-53"></path>
        <path d="M0.9952,13.5304 C0.8384,13.9384 0.6856,14.3488 0.5384,14.7608 L0.5384,14.7608 L11.5992,13.5192 L10.1176,0.3176 C5.6536,3.2584 2.848,8.7168 0.9952,13.5304" id="path-55"></path>
        <path d="M0.9952,13.5304 C0.8384,13.9384 0.6856,14.3488 0.5384,14.7608 L0.5384,14.7608 L11.5992,13.5192 L10.1176,0.3176 C5.6536,3.2584 2.848,8.7168 0.9952,13.5304" id="path-57"></path>
        <path d="M3.7384,1.9608 C2.4944,5.4064 1.5376,8.9512 0.5584,12.488 L0.5584,12.488 L1.156,17.812 L16.5248,16.0864 L14.7992,0.7192" id="path-59"></path>
        <path d="M3.7384,1.9608 C2.4944,5.4064 1.5376,8.9512 0.5584,12.488 L0.5584,12.488 L1.156,17.812 L16.5248,16.0864 L14.7992,0.7192" id="path-61"></path>
        <path d="M3.7384,1.9608 C2.4944,5.4064 1.5376,8.9512 0.5584,12.488 L0.5584,12.488 L1.156,17.812 L16.5248,16.0864 L14.7992,0.7192" id="path-63"></path>
        <path d="M3.7384,1.9608 C2.4944,5.4064 1.5376,8.9512 0.5584,12.488 L0.5584,12.488 L1.156,17.812 L16.5248,16.0864 L14.7992,0.7192" id="path-65"></path>
        <path d="M3.7384,1.9608 C2.4944,5.4064 1.5376,8.9512 0.5584,12.488 L0.5584,12.488 L1.156,17.812 L16.5248,16.0864 L14.7992,0.7192" id="path-67"></path>
        <path d="M3.7384,1.9608 C2.4944,5.4064 1.5376,8.9512 0.5584,12.488 L0.5584,12.488 L1.156,17.812 L16.5248,16.0864 L14.7992,0.7192" id="path-69"></path>
        <path d="M3.7384,1.9608 C2.4944,5.4064 1.5376,8.9512 0.5584,12.488 L0.5584,12.488 L1.156,17.812 L16.5248,16.0864 L14.7992,0.7192" id="path-71"></path>
        <path d="M0.356,1.812 L2.0824,17.18 L12.9864,15.956 C14.3864,14.6624 15.7424,13.3216 17.0552,11.9392 L17.0552,11.9392 L15.7248,0.0864" id="path-73"></path>
        <path d="M0.356,1.812 L2.0824,17.18 L12.9864,15.956 C14.3864,14.6624 15.7424,13.3216 17.0552,11.9392 L17.0552,11.9392 L15.7248,0.0864" id="path-75"></path>
        <path d="M0.356,1.812 L2.0824,17.18 L12.9864,15.956 C14.3864,14.6624 15.7424,13.3216 17.0552,11.9392 L17.0552,11.9392 L15.7248,0.0864" id="path-77"></path>
        <path d="M0.356,1.812 L2.0824,17.18 L12.9864,15.956 C14.3864,14.6624 15.7424,13.3216 17.0552,11.9392 L17.0552,11.9392 L15.7248,0.0864" id="path-79"></path>
        <path d="M0.356,1.812 L2.0824,17.18 L12.9864,15.956 C14.3864,14.6624 15.7424,13.3216 17.0552,11.9392 L17.0552,11.9392 L15.7248,0.0864" id="path-81"></path>
        <path d="M0.356,1.812 L2.0824,17.18 L12.9864,15.956 C14.3864,14.6624 15.7424,13.3216 17.0552,11.9392 L17.0552,11.9392 L15.7248,0.0864" id="path-83"></path>
        <path d="M0.356,1.812 L2.0824,17.18 L12.9864,15.956 C14.3864,14.6624 15.7424,13.3216 17.0552,11.9392 L17.0552,11.9392 L15.7248,0.0864" id="path-85"></path>
        <path d="M0.4824,1.98 L1.2472,8.7992 C4.8272,6.3864 8.216,3.6904 11.3864,0.756 L11.3864,0.756" id="path-87"></path>
        <path d="M0.4824,1.98 L1.2472,8.7992 C4.8272,6.3864 8.216,3.6904 11.3864,0.756 L11.3864,0.756" id="path-89"></path>
        <path d="M0.4824,1.98 L1.2472,8.7992 C4.8272,6.3864 8.216,3.6904 11.3864,0.756 L11.3864,0.756" id="path-91"></path>
        <path d="M0.5448,6.0608 L2.756,5.812 L2.1584,0.488 C1.6416,2.3536 1.12,4.2168 0.5448,6.0608" id="path-93"></path>
        <path d="M7.7448,0.4608 C6.832,3.3848 5.7904,6.2624 4.4368,9.0288 L4.4368,9.0288 C3.1232,11.7136 1.6904,14.3512 0.0992,16.8808 L0.0992,16.8808 L11.6824,15.58 L9.956,0.212" id="path-95"></path>
        <path d="M7.7448,0.4608 C6.832,3.3848 5.7904,6.2624 4.4368,9.0288 L4.4368,9.0288 C3.1232,11.7136 1.6904,14.3512 0.0992,16.8808 L0.0992,16.8808 L11.6824,15.58 L9.956,0.212" id="path-97"></path>
        <path d="M7.7448,0.4608 C6.832,3.3848 5.7904,6.2624 4.4368,9.0288 L4.4368,9.0288 C3.1232,11.7136 1.6904,14.3512 0.0992,16.8808 L0.0992,16.8808 L11.6824,15.58 L9.956,0.212" id="path-99"></path>
        <path d="M7.7448,0.4608 C6.832,3.3848 5.7904,6.2624 4.4368,9.0288 L4.4368,9.0288 C3.1232,11.7136 1.6904,14.3512 0.0992,16.8808 L0.0992,16.8808 L11.6824,15.58 L9.956,0.212" id="path-101"></path>
        <path d="M7.7448,0.4608 C6.832,3.3848 5.7904,6.2624 4.4368,9.0288 L4.4368,9.0288 C3.1232,11.7136 1.6904,14.3512 0.0992,16.8808 L0.0992,16.8808 L11.6824,15.58 L9.956,0.212" id="path-103"></path>
        <path d="M3.2992,1.6808 C2.2696,3.3168 1.1736,4.908 0.0008,6.4384 L0.0008,6.4384 L0.96,14.996 C1.3904,14.824 1.8184,14.6472 2.2456,14.468 L2.2456,14.468 C6.956,12.4864 11.4352,10.0384 15.6472,7.1992 L15.6472,7.1992 L14.8824,0.38" id="path-105"></path>
        <path d="M3.2992,1.6808 C2.2696,3.3168 1.1736,4.908 0.0008,6.4384 L0.0008,6.4384 L0.96,14.996 C1.3904,14.824 1.8184,14.6472 2.2456,14.468 L2.2456,14.468 C6.956,12.4864 11.4352,10.0384 15.6472,7.1992 L15.6472,7.1992 L14.8824,0.38" id="path-107"></path>
        <path d="M3.2992,1.6808 C2.2696,3.3168 1.1736,4.908 0.0008,6.4384 L0.0008,6.4384 L0.96,14.996 C1.3904,14.824 1.8184,14.6472 2.2456,14.468 L2.2456,14.468 C6.956,12.4864 11.4352,10.0384 15.6472,7.1992 L15.6472,7.1992 L14.8824,0.38" id="path-109"></path>
        <path d="M3.2992,1.6808 C2.2696,3.3168 1.1736,4.908 0.0008,6.4384 L0.0008,6.4384 L0.96,14.996 C1.3904,14.824 1.8184,14.6472 2.2456,14.468 L2.2456,14.468 C6.956,12.4864 11.4352,10.0384 15.6472,7.1992 L15.6472,7.1992 L14.8824,0.38" id="path-111"></path>
        <path d="M3.2992,1.6808 C2.2696,3.3168 1.1736,4.908 0.0008,6.4384 L0.0008,6.4384 L0.96,14.996 C1.3904,14.824 1.8184,14.6472 2.2456,14.468 L2.2456,14.468 C6.956,12.4864 11.4352,10.0384 15.6472,7.1992 L15.6472,7.1992 L14.8824,0.38" id="path-113"></path>
        <path d="M3.2992,1.6808 C2.2696,3.3168 1.1736,4.908 0.0008,6.4384 L0.0008,6.4384 L0.96,14.996 C1.3904,14.824 1.8184,14.6472 2.2456,14.468 L2.2456,14.468 C6.956,12.4864 11.4352,10.0384 15.6472,7.1992 L15.6472,7.1992 L14.8824,0.38" id="path-115"></path>
        <path d="M3.2992,1.6808 C2.2696,3.3168 1.1736,4.908 0.0008,6.4384 L0.0008,6.4384 L0.96,14.996 C1.3904,14.824 1.8184,14.6472 2.2456,14.468 L2.2456,14.468 C6.956,12.4864 11.4352,10.0384 15.6472,7.1992 L15.6472,7.1992 L14.8824,0.38" id="path-117"></path>
        <path d="M7.4544,7.4456 C5.5424,9.0856 2.9184,11.3136 0.2456,12.5744 L0.2456,12.5744 L0.2704,12.7992 L2.3672,12.564 C6.7976,11.6024 11.148,10.2832 15.36,8.596 L15.36,8.596 L14.4008,0.0384 C12.3424,2.7224 10.0464,5.22 7.4544,7.4456" id="path-119"></path>
        <path d="M7.4544,7.4456 C5.5424,9.0856 2.9184,11.3136 0.2456,12.5744 L0.2456,12.5744 L0.2704,12.7992 L2.3672,12.564 C6.7976,11.6024 11.148,10.2832 15.36,8.596 L15.36,8.596 L14.4008,0.0384 C12.3424,2.7224 10.0464,5.22 7.4544,7.4456" id="path-121"></path>
        <path d="M7.4544,7.4456 C5.5424,9.0856 2.9184,11.3136 0.2456,12.5744 L0.2456,12.5744 L0.2704,12.7992 L2.3672,12.564 C6.7976,11.6024 11.148,10.2832 15.36,8.596 L15.36,8.596 L14.4008,0.0384 C12.3424,2.7224 10.0464,5.22 7.4544,7.4456" id="path-123"></path>
        <path d="M7.4544,7.4456 C5.5424,9.0856 2.9184,11.3136 0.2456,12.5744 L0.2456,12.5744 L0.2704,12.7992 L2.3672,12.564 C6.7976,11.6024 11.148,10.2832 15.36,8.596 L15.36,8.596 L14.4008,0.0384 C12.3424,2.7224 10.0464,5.22 7.4544,7.4456" id="path-125"></path>
        <path d="M7.4544,7.4456 C5.5424,9.0856 2.9184,11.3136 0.2456,12.5744 L0.2456,12.5744 L0.2704,12.7992 L2.3672,12.564 C6.7976,11.6024 11.148,10.2832 15.36,8.596 L15.36,8.596 L14.4008,0.0384 C12.3424,2.7224 10.0464,5.22 7.4544,7.4456" id="path-127"></path>
        <path d="M7.4544,7.4456 C5.5424,9.0856 2.9184,11.3136 0.2456,12.5744 L0.2456,12.5744 L0.2704,12.7992 L2.3672,12.564 C6.7976,11.6024 11.148,10.2832 15.36,8.596 L15.36,8.596 L14.4008,0.0384 C12.3424,2.7224 10.0464,5.22 7.4544,7.4456" id="path-129"></path>
        <polygon id="path-131" points="0.000139673802 0.41408589 64.9277256 0.41408589 64.9277256 69.6 0.000139673802 69.6"></polygon>
    </defs>
    <g id="Campaign-" stroke="none" stroke-width="1" fill="none" fill-rule="evenodd">
        <g id="Spin-D" transform="translate(-507.000000, -598.000000)">
            <g id="Group-216" transform="translate(531.500000, 648.500000) scale(-1, 1) rotate(-31.000000) translate(-531.500000, -648.500000) translate(499.000000, 607.000000)">
                <path d="M1.26488,79.78304 C4.80248,79.23264 8.66248,75.96464 11.23448,73.75664 C17.59288,68.29904 22.16488,61.20384 25.81688,53.74064 C29.83608,45.52704 31.10888,36.33424 34.37608,27.84304 C36.28808,22.87104 39.21688,17.21584 43.93848,14.35104 C47.97768,11.90064 53.91768,13.49104 57.60408,15.92624 C67.53048,22.48304 63.46088,34.20784 58.13208,42.30784 C48.92808,56.29984 35.92728,67.85504 20.42568,74.37984 C14.28888,76.96384 7.84168,78.76144 1.26488,79.78304" id="Fill-1" fill="#E9473F"></path>
                <g id="Group-12" transform="translate(57.600000, 17.048000)">
                    <g id="Group-5">
                        <mask id="mask-2" fill="white">
                            <use xlink:href="#path-1"></use>
                        </mask>
                        <g id="Clip-4"></g>
                        <path d="M3.0844,5.31008 C3.2172,6.49648 2.3636,7.56608 1.178,7.69888 C-0.0084,7.83168 -1.078,6.97808 -1.2108,5.79248 C-1.3444,4.60608 -0.4908,3.53648 0.6956,3.40368 C1.8812,3.27008 2.9508,4.12368 3.0844,5.31008" id="Fill-3" fill="#812832" mask="url(#mask-2)"></path>
                    </g>
                    <g id="Group-8">
                        <mask id="mask-4" fill="white">
                            <use xlink:href="#path-3"></use>
                        </mask>
                        <g id="Clip-7"></g>
                        <path d="M10.33752,0.60536 C10.47032,1.79176 9.61672,2.86136 8.43112,2.99416 C7.24472,3.12696 6.17512,2.27416 6.04232,1.08776 C5.90872,-0.09864 6.76152,-1.16824 7.94872,-1.30104 C9.13432,-1.43464 10.20392,-0.58104 10.33752,0.60536" id="Fill-6" fill="#812832" mask="url(#mask-4)"></path>
                    </g>
                    <g id="Group-11">
                        <mask id="mask-6" fill="white">
                            <use xlink:href="#path-5"></use>
                        </mask>
                        <g id="Clip-10"></g>
                        <path d="M2.22192,-2.37392 C2.35472,-1.18832 1.50112,-0.11872 0.31552,0.01488 C-0.87088,0.14768 -1.94048,-0.70592 -2.07328,-1.89152 C-2.20688,-3.07792 -1.35328,-4.14752 -0.16688,-4.28032 C1.01872,-4.41392 2.08832,-3.56032 2.22192,-2.37392" id="Fill-9" fill="#812832" mask="url(#mask-6)"></path>
                    </g>
                </g>
                <g id="Group-19" transform="translate(58.400000, 25.848000)">
                    <g id="Group-15">
                        <mask id="mask-8" fill="white">
                            <use xlink:href="#path-7"></use>
                        </mask>
                        <g id="Clip-14"></g>
                        <path d="M4.00944,11.8784 C4.14304,13.0648 3.29024,14.1344 2.10304,14.2672 C0.91744,14.4008 -0.15216,13.5472 -0.28496,12.3608 C-0.41856,11.1744 0.43424,10.1048 1.62144,9.972 C2.80704,9.8384 3.87664,10.6928 4.00944,11.8784" id="Fill-13" fill="#812832" mask="url(#mask-8)"></path>
                    </g>
                    <g id="Group-18">
                        <mask id="mask-10" fill="white">
                            <use xlink:href="#path-9"></use>
                        </mask>
                        <g id="Clip-17"></g>
                        <path d="M3.14688,4.19448 C3.27968,5.38088 2.42688,6.45048 1.24048,6.58328 C0.05408,6.71608 -1.01552,5.86248 -1.14832,4.67688 C-1.28192,3.49048 -0.42832,2.42088 0.75808,2.28808 C1.94448,2.15448 3.01408,3.00808 3.14688,4.19448" id="Fill-16" fill="#812832" mask="url(#mask-10)"></path>
                    </g>
                </g>
                <g id="Group-41" transform="translate(41.600000, 13.048000)">
                    <g id="Group-22">
                        <mask id="mask-12" fill="white">
                            <use xlink:href="#path-11"></use>
                        </mask>
                        <g id="Clip-21"></g>
                        <path d="M19.0844,9.31008 C19.2172,10.49648 18.3636,11.56608 17.178,11.69888 C15.9916,11.83168 14.922,10.97808 14.7892,9.79248 C14.6556,8.60608 15.5092,7.53648 16.6956,7.40368 C17.8812,7.27008 18.9508,8.12368 19.0844,9.31008" id="Fill-20" fill="#812832" mask="url(#mask-12)"></path>
                    </g>
                    <g id="Group-25">
                        <mask id="mask-14" fill="white">
                            <use xlink:href="#path-13"></use>
                        </mask>
                        <g id="Clip-24"></g>
                        <path d="M11.83128,14.01472 C11.96408,15.20112 11.11208,16.27072 9.92488,16.40352 C8.73928,16.53712 7.66968,15.68352 7.53688,14.49712 C7.40328,13.31072 8.25608,12.24112 9.44328,12.10832 C10.62888,11.97552 11.69848,12.82832 11.83128,14.01472" id="Fill-23" fill="#812832" mask="url(#mask-14)"></path>
                    </g>
                    <g id="Group-28">
                        <mask id="mask-16" fill="white">
                            <use xlink:href="#path-15"></use>
                        </mask>
                        <g id="Clip-27"></g>
                        <path d="M3.71648,11.03544 C3.85008,12.22184 2.99648,13.29144 1.80928,13.42424 C0.62368,13.55704 -0.44592,12.70344 -0.57872,11.51784 C-0.71232,10.33144 0.14048,9.26184 1.32768,9.12904 C2.51408,8.99544 3.58368,9.84904 3.71648,11.03544" id="Fill-26" fill="#812832" mask="url(#mask-16)"></path>
                    </g>
                    <g id="Group-31">
                        <mask id="mask-18" fill="white">
                            <use xlink:href="#path-17"></use>
                        </mask>
                        <g id="Clip-30"></g>
                        <path d="M18.22192,1.62608 C18.35472,2.81168 17.50112,3.88128 16.31552,4.01488 C15.12912,4.14768 14.05952,3.29408 13.92672,2.10848 C13.79312,0.92208 14.64672,-0.14752 15.83312,-0.28032 C17.01872,-0.41392 18.08832,0.43968 18.22192,1.62608" id="Fill-29" fill="#812832" mask="url(#mask-18)"></path>
                    </g>
                    <g id="Group-34">
                        <mask id="mask-20" fill="white">
                            <use xlink:href="#path-19"></use>
                        </mask>
                        <g id="Clip-33"></g>
                        <path d="M10.9688,6.3308 C11.1016,7.5172 10.2488,8.5868 9.0624,8.7196 C7.876,8.8524 6.8064,7.9988 6.6736,6.8132 C6.54,5.6268 7.3936,4.5572 8.5808,4.4244 C9.7664,4.2908 10.836,5.1444 10.9688,6.3308" id="Fill-32" fill="#812832" mask="url(#mask-20)"></path>
                    </g>
                    <g id="Group-37">
                        <mask id="mask-22" fill="white">
                            <use xlink:href="#path-21"></use>
                        </mask>
                        <g id="Clip-36"></g>
                        <path d="M2.85392,3.35144 C2.98672,4.53784 2.13312,5.60744 0.94672,5.74024 C-0.23888,5.87304 -1.30848,5.02024 -1.44128,3.83384 C-1.57488,2.64744 -0.72208,1.57784 0.46512,1.44504 C1.65072,1.31144 2.72112,2.16504 2.85392,3.35144" id="Fill-35" fill="#812832" mask="url(#mask-22)"></path>
                    </g>
                    <g id="Group-40">
                        <mask id="mask-24" fill="white">
                            <use xlink:href="#path-23"></use>
                        </mask>
                        <g id="Clip-39"></g>
                        <path d="M10.10632,-1.3532 C10.23912,-0.1668 9.38552,0.9028 8.19992,1.0356 C7.01352,1.1684 5.94392,0.3148 5.81112,-0.8708 C5.67752,-2.0572 6.53112,-3.1268 7.71752,-3.2596 C8.90392,-3.3932 9.97272,-2.5396 10.10632,-1.3532" id="Fill-38" fill="#812832" mask="url(#mask-24)"></path>
                    </g>
                </g>
                <g id="Group-63" transform="translate(43.200000, 25.848000)">
                    <g id="Group-44">
                        <mask id="mask-26" fill="white">
                            <use xlink:href="#path-25"></use>
                        </mask>
                        <g id="Clip-43"></g>
                        <path d="M19.20944,11.8784 C19.34304,13.0648 18.49024,14.1344 17.30304,14.2672 C16.11744,14.4008 15.04784,13.5472 14.91504,12.3608 C14.78144,11.1744 15.63424,10.1048 16.82144,9.972 C18.00704,9.8384 19.07664,10.6928 19.20944,11.8784" id="Fill-42" fill="#812832" mask="url(#mask-26)"></path>
                    </g>
                    <g id="Group-47">
                        <mask id="mask-28" fill="white">
                            <use xlink:href="#path-27"></use>
                        </mask>
                        <g id="Clip-46"></g>
                        <path d="M11.95704,16.58312 C12.09064,17.76952 11.23704,18.83832 10.04984,18.97192 C8.86424,19.10472 7.79464,18.25112 7.66184,17.06552 C7.52824,15.87912 8.38104,14.80952 9.56824,14.67672 C10.75464,14.54312 11.82424,15.39672 11.95704,16.58312" id="Fill-45" fill="#812832" mask="url(#mask-28)"></path>
                    </g>
                    <g id="Group-50">
                        <mask id="mask-30" fill="white">
                            <use xlink:href="#path-29"></use>
                        </mask>
                        <g id="Clip-49"></g>
                        <path d="M3.84144,13.60384 C3.97424,14.79024 3.12144,15.85984 1.93424,15.99264 C0.74944,16.12544 -0.32096,15.27184 -0.45376,14.08624 C-0.58736,12.89984 0.26624,11.83024 1.45344,11.69744 C2.63824,11.56384 3.70784,12.41744 3.84144,13.60384" id="Fill-48" fill="#812832" mask="url(#mask-30)"></path>
                    </g>
                    <g id="Group-53">
                        <mask id="mask-32" fill="white">
                            <use xlink:href="#path-31"></use>
                        </mask>
                        <g id="Clip-52"></g>
                        <path d="M18.34688,4.19448 C18.47968,5.38088 17.62688,6.45048 16.44048,6.58328 C15.25408,6.71608 14.18448,5.86248 14.05168,4.67688 C13.91808,3.49048 14.77168,2.42088 15.95808,2.28808 C17.14448,2.15448 18.21408,3.00808 18.34688,4.19448" id="Fill-51" fill="#812832" mask="url(#mask-32)"></path>
                    </g>
                    <g id="Group-56">
                        <mask id="mask-34" fill="white">
                            <use xlink:href="#path-33"></use>
                        </mask>
                        <g id="Clip-55"></g>
                        <path d="M11.09456,8.89912 C11.22816,10.08552 10.37456,11.15512 9.18736,11.28792 C8.00176,11.42072 6.93216,10.56712 6.79936,9.38152 C6.66576,8.19512 7.51856,7.12552 8.70576,6.99272 C9.89136,6.85912 10.96176,7.71272 11.09456,8.89912" id="Fill-54" fill="#812832" mask="url(#mask-34)"></path>
                    </g>
                    <g id="Group-59">
                        <mask id="mask-36" fill="white">
                            <use xlink:href="#path-35"></use>
                        </mask>
                        <g id="Clip-58"></g>
                        <path d="M2.97896,5.91944 C3.11256,7.10584 2.25896,8.17544 1.07176,8.30824 C-0.11384,8.44184 -1.18344,7.58824 -1.31624,6.40184 C-1.44984,5.21544 -0.59704,4.14584 0.59016,4.01304 C1.77656,3.88024 2.84616,4.73384 2.97896,5.91944" id="Fill-57" fill="#812832" mask="url(#mask-36)"></path>
                    </g>
                    <g id="Group-62">
                        <mask id="mask-38" fill="white">
                            <use xlink:href="#path-37"></use>
                        </mask>
                        <g id="Clip-61"></g>
                        <path d="M10.23128,1.21472 C10.36408,2.40112 9.51208,3.47072 8.32488,3.60352 C7.13928,3.73712 6.06968,2.88352 5.93688,1.69712 C5.80328,0.51072 6.65608,-0.55888 7.84328,-0.69168 C9.02888,-0.82448 10.09848,0.02832 10.23128,1.21472" id="Fill-60" fill="#812832" mask="url(#mask-38)"></path>
                    </g>
                </g>
                <g id="Group-79" transform="translate(44.800000, 41.848000)">
                    <g id="Group-66">
                        <mask id="mask-40" fill="white">
                            <use xlink:href="#path-39"></use>
                        </mask>
                        <g id="Clip-65"></g>
                    </g>
                    <g id="Group-69">
                        <mask id="mask-42" fill="white">
                            <use xlink:href="#path-41"></use>
                        </mask>
                        <g id="Clip-68"></g>
                        <path d="M3.96648,12.97176 C4.09928,14.15736 3.24648,15.22696 2.06008,15.36056 C0.87448,15.49336 -0.19512,14.63976 -0.32792,13.45416 C-0.46152,12.26776 0.39128,11.19816 1.57848,11.06536 C2.76408,10.93176 3.83288,11.78616 3.96648,12.97176" id="Fill-67" fill="#812832" mask="url(#mask-42)"></path>
                    </g>
                    <g id="Group-72">
                        <mask id="mask-44" fill="white">
                            <use xlink:href="#path-43"></use>
                        </mask>
                        <g id="Clip-71"></g>
                        <path d="M11.2196,8.26712 C11.3524,9.45272 10.4996,10.52232 9.3132,10.65592 C8.1268,10.78872 7.0572,9.93512 6.9244,8.74952 C6.7908,7.56312 7.6444,6.49352 8.8308,6.36072 C10.0172,6.22712 11.086,7.08152 11.2196,8.26712" id="Fill-70" fill="#812832" mask="url(#mask-44)"></path>
                    </g>
                    <g id="Group-75">
                        <mask id="mask-46" fill="white">
                            <use xlink:href="#path-45"></use>
                        </mask>
                        <g id="Clip-74"></g>
                        <path d="M3.10392,5.28784 C3.23672,6.47424 2.38392,7.54304 1.19752,7.67664 C0.01192,7.80944 -1.05768,6.95584 -1.19048,5.77024 C-1.32408,4.58384 -0.47128,3.51424 0.71592,3.38144 C1.90072,3.24784 2.97032,4.10144 3.10392,5.28784" id="Fill-73" fill="#812832" mask="url(#mask-46)"></path>
                    </g>
                    <g id="Group-78">
                        <mask id="mask-48" fill="white">
                            <use xlink:href="#path-47"></use>
                        </mask>
                        <g id="Clip-77"></g>
                        <path d="M10.35704,0.58312 C10.49064,1.76952 9.63704,2.83832 8.44984,2.97192 C7.26424,3.10472 6.19464,2.25112 6.06184,1.06552 C5.92824,-0.12088 6.78104,-1.19048 7.96824,-1.32328 C9.15464,-1.45688 10.22424,-0.60328 10.35704,0.58312" id="Fill-76" fill="#812832" mask="url(#mask-48)"></path>
                    </g>
                </g>
                <g id="Group-95" transform="translate(32.000000, 14.648000)">
                    <g id="Group-82">
                        <mask id="mask-50" fill="white">
                            <use xlink:href="#path-49"></use>
                        </mask>
                        <g id="Clip-81"></g>
                        <path d="M13.31648,9.43544 C13.45008,10.62184 12.59648,11.69144 11.40928,11.82424 C10.22368,11.95704 9.15408,11.10344 9.02128,9.91784 C8.88768,8.73144 9.74048,7.66184 10.92768,7.52904 C12.11408,7.39544 13.18368,8.24904 13.31648,9.43544" id="Fill-80" fill="#812832" mask="url(#mask-50)"></path>
                    </g>
                    <g id="Group-85">
                        <mask id="mask-52" fill="white">
                            <use xlink:href="#path-51"></use>
                        </mask>
                        <g id="Clip-84"></g>
                        <path d="M6.06328,14.14016 C6.19688,15.32656 5.34328,16.39616 4.15688,16.52896 C2.97048,16.66176 1.90088,15.80816 1.76808,14.62256 C1.63448,13.43616 2.48808,12.36656 3.67448,12.23376 C4.86088,12.10016 5.93048,12.95376 6.06328,14.14016" id="Fill-83" fill="#812832" mask="url(#mask-52)"></path>
                    </g>
                    <g id="Group-88">
                        <mask id="mask-54" fill="white">
                            <use xlink:href="#path-53"></use>
                        </mask>
                        <g id="Clip-87"></g>
                        <path d="M12.45392,1.75144 C12.58672,2.93784 11.73312,4.00744 10.54672,4.14024 C9.36112,4.27304 8.29152,3.42024 8.15872,2.23384 C8.02512,1.04744 8.87792,-0.02216 10.06512,-0.15496 C11.25072,-0.28856 12.32112,0.56504 12.45392,1.75144" id="Fill-86" fill="#812832" mask="url(#mask-54)"></path>
                    </g>
                    <g id="Group-91">
                        <mask id="mask-56" fill="white">
                            <use xlink:href="#path-55"></use>
                        </mask>
                        <g id="Clip-90"></g>
                        <path d="M5.2008,6.45616 C5.3344,7.64256 4.4808,8.71216 3.2944,8.84496 C2.108,8.97856 1.0384,8.12496 0.9056,6.93856 C0.772,5.75216 1.6256,4.68256 2.812,4.54976 C3.9984,4.41616 5.068,5.26976 5.2008,6.45616" id="Fill-89" fill="#812832" mask="url(#mask-56)"></path>
                    </g>
                    <g id="Group-94">
                        <mask id="mask-58" fill="white">
                            <use xlink:href="#path-57"></use>
                        </mask>
                        <g id="Clip-93"></g>
                    </g>
                </g>
                <g id="Group-117" transform="translate(28.800000, 27.448000)">
                    <g id="Group-98">
                        <mask id="mask-60" fill="white">
                            <use xlink:href="#path-59"></use>
                        </mask>
                        <g id="Clip-97"></g>
                        <path d="M18.24144,12.00384 C18.37424,13.19024 17.52144,14.25984 16.33424,14.39264 C15.14944,14.52544 14.07904,13.67184 13.94624,12.48624 C13.81264,11.29984 14.66624,10.23024 15.85344,10.09744 C17.03824,9.96384 18.10784,10.81744 18.24144,12.00384" id="Fill-96" fill="#812832" mask="url(#mask-60)"></path>
                    </g>
                    <g id="Group-101">
                        <mask id="mask-62" fill="white">
                            <use xlink:href="#path-61"></use>
                        </mask>
                        <g id="Clip-100"></g>
                        <path d="M10.98912,16.70848 C11.12192,17.89488 10.26832,18.96448 9.08192,19.09728 C7.89632,19.23008 6.82672,18.37648 6.69392,17.19088 C6.56032,16.00448 7.41312,14.93488 8.60032,14.80208 C9.78592,14.66848 10.85552,15.52208 10.98912,16.70848" id="Fill-99" fill="#812832" mask="url(#mask-62)"></path>
                    </g>
                    <g id="Group-104">
                        <mask id="mask-64" fill="white">
                            <use xlink:href="#path-63"></use>
                        </mask>
                        <g id="Clip-103"></g>
                        <path d="M2.87344,13.7292 C3.00624,14.9156 2.15264,15.9852 0.96704,16.118 C-0.21936,16.2508 -1.28896,15.3972 -1.42176,14.2116 C-1.55536,13.0252 -0.70176,11.9556 0.48464,11.8228 C1.67104,11.6892 2.73984,12.5428 2.87344,13.7292" id="Fill-102" fill="#812832" mask="url(#mask-64)"></path>
                    </g>
                    <g id="Group-107">
                        <mask id="mask-66" fill="white">
                            <use xlink:href="#path-65"></use>
                        </mask>
                        <g id="Clip-106"></g>
                        <path d="M17.37896,4.31944 C17.51256,5.50584 16.65896,6.57544 15.47176,6.70824 C14.28616,6.84184 13.21656,5.98824 13.08376,4.80184 C12.95016,3.61544 13.80296,2.54584 14.99016,2.41304 C16.17656,2.28024 17.24616,3.13384 17.37896,4.31944" id="Fill-105" fill="#812832" mask="url(#mask-66)"></path>
                    </g>
                    <g id="Group-110">
                        <mask id="mask-68" fill="white">
                            <use xlink:href="#path-67"></use>
                        </mask>
                        <g id="Clip-109"></g>
                        <path d="M10.12584,9.02456 C10.25864,10.21016 9.40584,11.27976 8.21944,11.41336 C7.03384,11.54616 5.96424,10.69256 5.83144,9.50696 C5.69784,8.32056 6.55064,7.25096 7.73784,7.11816 C8.92344,6.98456 9.99224,7.83816 10.12584,9.02456" id="Fill-108" fill="#812832" mask="url(#mask-68)"></path>
                    </g>
                    <g id="Group-113">
                        <mask id="mask-70" fill="white">
                            <use xlink:href="#path-69"></use>
                        </mask>
                        <g id="Clip-112"></g>
                        <path d="M2.01056,6.0448 C2.14336,7.2312 1.28976,8.3008 0.10416,8.4336 C-1.08224,8.5664 -2.15184,7.7128 -2.28464,6.5272 C-2.41824,5.3408 -1.56464,4.2712 -0.37824,4.1384 C0.80816,4.0048 1.87696,4.8584 2.01056,6.0448" id="Fill-111" fill="#812832" mask="url(#mask-70)"></path>
                    </g>
                    <g id="Group-116">
                        <mask id="mask-72" fill="white">
                            <use xlink:href="#path-71"></use>
                        </mask>
                        <g id="Clip-115"></g>
                        <path d="M9.26328,1.34016 C9.39688,2.52656 8.54328,3.59616 7.35688,3.72896 C6.17048,3.86176 5.10088,3.00816 4.96808,1.82256 C4.83448,0.63616 5.68808,-0.43344 6.87448,-0.56624 C8.06088,-0.69984 9.13048,0.15376 9.26328,1.34016" id="Fill-114" fill="#812832" mask="url(#mask-72)"></path>
                    </g>
                </g>
                <g id="Group-139" transform="translate(29.600000, 43.448000)">
                    <g id="Group-120">
                        <mask id="mask-74" fill="white">
                            <use xlink:href="#path-73"></use>
                        </mask>
                        <g id="Clip-119"></g>
                        <path d="M19.16648,11.37176 C19.29928,12.55736 18.44648,13.62696 17.26008,13.76056 C16.07448,13.89336 15.00488,13.03976 14.87208,11.85416 C14.73848,10.66776 15.59128,9.59816 16.77848,9.46536 C17.96408,9.33176 19.03288,10.18616 19.16648,11.37176" id="Fill-118" fill="#812832" mask="url(#mask-74)"></path>
                    </g>
                    <g id="Group-123">
                        <mask id="mask-76" fill="white">
                            <use xlink:href="#path-75"></use>
                        </mask>
                        <g id="Clip-122"></g>
                        <path d="M11.91408,16.07648 C12.04688,17.26288 11.19328,18.33168 10.00768,18.46528 C8.82128,18.59808 7.75168,17.74448 7.61888,16.55968 C7.48528,15.37248 8.33888,14.30288 9.52528,14.17008 C10.71168,14.03648 11.78128,14.89088 11.91408,16.07648" id="Fill-121" fill="#812832" mask="url(#mask-76)"></path>
                    </g>
                    <g id="Group-126">
                        <mask id="mask-78" fill="white">
                            <use xlink:href="#path-77"></use>
                        </mask>
                        <g id="Clip-125"></g>
                        <path d="M3.79848,13.0976 C3.93208,14.2832 3.07848,15.352 1.89208,15.4856 C0.70568,15.6184 -0.36392,14.7656 -0.49672,13.58 C-0.63032,12.3936 0.22328,11.3232 1.40968,11.1904 C2.59608,11.0568 3.66568,11.9112 3.79848,13.0976" id="Fill-124" fill="#812832" mask="url(#mask-78)"></path>
                    </g>
                    <g id="Group-129">
                        <mask id="mask-80" fill="white">
                            <use xlink:href="#path-79"></use>
                        </mask>
                        <g id="Clip-128"></g>
                        <path d="M18.30392,3.68784 C18.43672,4.87424 17.58392,5.94304 16.39752,6.07664 C15.21192,6.20944 14.14232,5.35584 14.00952,4.17024 C13.87592,2.98384 14.72872,1.91424 15.91592,1.78144 C17.10072,1.64784 18.17032,2.50144 18.30392,3.68784" id="Fill-127" fill="#812832" mask="url(#mask-80)"></path>
                    </g>
                    <g id="Group-132">
                        <mask id="mask-82" fill="white">
                            <use xlink:href="#path-81"></use>
                        </mask>
                        <g id="Clip-131"></g>
                        <path d="M11.0516,8.39288 C11.1844,9.57848 10.3308,10.64728 9.1444,10.78088 C7.9588,10.91368 6.8892,10.06088 6.7564,8.87528 C6.6228,7.68888 7.4756,6.61848 8.6628,6.48568 C9.8492,6.35208 10.9188,7.20648 11.0516,8.39288" id="Fill-130" fill="#812832" mask="url(#mask-82)"></path>
                    </g>
                    <g id="Group-135">
                        <mask id="mask-84" fill="white">
                            <use xlink:href="#path-83"></use>
                        </mask>
                        <g id="Clip-134"></g>
                        <path d="M2.936,5.4132 C3.0688,6.5996 2.2152,7.6692 1.0296,7.802 C-0.1568,7.9348 -1.2264,7.0812 -1.3592,5.8956 C-1.4928,4.7092 -0.6392,3.6396 0.5472,3.5068 C1.7336,3.374 2.8032,4.2276 2.936,5.4132" id="Fill-133" fill="#812832" mask="url(#mask-84)"></path>
                    </g>
                    <g id="Group-138">
                        <mask id="mask-86" fill="white">
                            <use xlink:href="#path-85"></use>
                        </mask>
                        <g id="Clip-137"></g>
                        <path d="M10.18912,0.70848 C10.32192,1.89488 9.46832,2.96448 8.28192,3.09728 C7.09632,3.23008 6.02672,2.37648 5.89392,1.19088 C5.76032,0.00448 6.61312,-1.06512 7.80032,-1.19792 C8.98592,-1.33152 10.05552,-0.47792 10.18912,0.70848" id="Fill-136" fill="#812832" mask="url(#mask-86)"></path>
                    </g>
                </g>
                <g id="Group-149" transform="translate(31.200000, 58.648000)">
                    <g id="Group-142">
                        <mask id="mask-88" fill="white">
                            <use xlink:href="#path-87"></use>
                        </mask>
                        <g id="Clip-141"></g>
                        <path d="M11.17656,8.56088 C11.31016,9.74728 10.45656,10.81608 9.27016,10.94968 C8.08376,11.08248 7.01416,10.22888 6.88136,9.04328 C6.74776,7.85688 7.60136,6.78728 8.78776,6.65448 C9.97416,6.52088 11.04376,7.37448 11.17656,8.56088" id="Fill-140" fill="#812832" mask="url(#mask-88)"></path>
                    </g>
                    <g id="Group-145">
                        <mask id="mask-90" fill="white">
                            <use xlink:href="#path-89"></use>
                        </mask>
                        <g id="Clip-144"></g>
                        <path d="M3.06096,5.5812 C3.19456,6.7676 2.34176,7.8364 1.15456,7.97 C-0.03184,8.1028 -1.10144,7.2492 -1.23424,6.0644 C-1.36784,4.8772 -0.51424,3.8076 0.67216,3.6748 C1.85856,3.5412 2.92816,4.3956 3.06096,5.5812" id="Fill-143" fill="#812832" mask="url(#mask-90)"></path>
                    </g>
                    <g id="Group-148">
                        <mask id="mask-92" fill="white">
                            <use xlink:href="#path-91"></use>
                        </mask>
                        <g id="Clip-147"></g>
                        <path d="M10.31408,0.87648 C10.44688,2.06288 9.59328,3.13168 8.40768,3.26528 C7.22128,3.39808 6.15168,2.54448 6.01888,1.35968 C5.88528,0.17248 6.73888,-0.89712 7.92528,-1.02992 C9.11168,-1.16352 10.18128,-0.30912 10.31408,0.87648" id="Fill-146" fill="#812832" mask="url(#mask-92)"></path>
                    </g>
                </g>
                <g id="Group-152" transform="translate(27.200000, 39.448000)">
                    <mask id="mask-94" fill="white">
                        <use xlink:href="#path-93"></use>
                    </mask>
                    <g id="Clip-151"></g>
                    <path d="M4.47344,1.7292 C4.60624,2.9156 3.75264,3.9852 2.56704,4.118 C1.38064,4.2508 0.31104,3.3972 0.17824,2.2116 C0.04464,1.0252 0.89824,-0.0444 2.08464,-0.1772 C3.27104,-0.3108 4.33984,0.5428 4.47344,1.7292" id="Fill-150" fill="#812832" mask="url(#mask-94)"></path>
                </g>
                <g id="Group-168" transform="translate(20.000000, 45.048000)">
                    <g id="Group-155">
                        <mask id="mask-96" fill="white">
                            <use xlink:href="#path-95"></use>
                        </mask>
                        <g id="Clip-154"></g>
                        <path d="M13.39848,11.4976 C13.53208,12.6832 12.67848,13.752 11.49208,13.8856 C10.30568,14.0184 9.23608,13.1656 9.10328,11.98 C8.96968,10.7936 9.82328,9.7232 11.00968,9.5904 C12.19608,9.4568 13.26568,10.3112 13.39848,11.4976" id="Fill-153" fill="#812832" mask="url(#mask-96)"></path>
                    </g>
                    <g id="Group-158">
                        <mask id="mask-98" fill="white">
                            <use xlink:href="#path-97"></use>
                        </mask>
                        <g id="Clip-157"></g>
                        <path d="M6.14576,16.20224 C6.27936,17.38784 5.42576,18.45664 4.23936,18.59024 C3.05296,18.72304 1.98336,17.87024 1.85056,16.68464 C1.71696,15.49744 2.57056,14.42784 3.75696,14.29504 C4.94336,14.16144 6.01296,15.01664 6.14576,16.20224" id="Fill-156" fill="#812832" mask="url(#mask-98)"></path>
                    </g>
                    <g id="Group-161">
                        <mask id="mask-100" fill="white">
                            <use xlink:href="#path-99"></use>
                        </mask>
                        <g id="Clip-160"></g>
                        <path d="M12.536,3.8132 C12.6688,4.9996 11.8152,6.0692 10.6296,6.202 C9.4432,6.3348 8.3736,5.4812 8.2408,4.2956 C8.1072,3.1092 8.9608,2.0396 10.1472,1.9068 C11.3336,1.774 12.4032,2.6276 12.536,3.8132" id="Fill-159" fill="#812832" mask="url(#mask-100)"></path>
                    </g>
                    <g id="Group-164">
                        <mask id="mask-102" fill="white">
                            <use xlink:href="#path-101"></use>
                        </mask>
                        <g id="Clip-163"></g>
                        <path d="M5.2832,8.51792 C5.4168,9.70352 4.5632,10.77392 3.3768,10.90672 C2.1904,11.03952 1.1208,10.18592 0.988,9.00032 C0.8544,7.81392 1.708,6.74432 2.8944,6.61152 C4.0808,6.47792 5.1504,7.33232 5.2832,8.51792" id="Fill-162" fill="#812832" mask="url(#mask-102)"></path>
                    </g>
                    <g id="Group-167">
                        <mask id="mask-104" fill="white">
                            <use xlink:href="#path-103"></use>
                        </mask>
                        <g id="Clip-166"></g>
                        <path d="M4.42032,0.83352 C4.55312,2.01992 3.70032,3.08952 2.51392,3.22232 C1.32752,3.35592 0.25792,2.50232 0.12512,1.31592 C-0.00848,0.12952 0.84512,-0.94008 2.03152,-1.07288 C3.21792,-1.20568 4.28752,-0.35208 4.42032,0.83352" id="Fill-165" fill="#812832" mask="url(#mask-104)"></path>
                    </g>
                </g>
                <g id="Group-190" transform="translate(16.800000, 60.248000)">
                    <g id="Group-171">
                        <mask id="mask-106" fill="white">
                            <use xlink:href="#path-105"></use>
                        </mask>
                        <g id="Clip-170"></g>
                        <path d="M18.32344,11.66552 C18.45704,12.85192 17.60424,13.92072 16.41704,14.05432 C15.23064,14.18712 14.16104,13.33352 14.02824,12.14792 C13.89464,10.96152 14.74824,9.89192 15.93464,9.75912 C17.12104,9.62552 18.19064,10.47912 18.32344,11.66552" id="Fill-169" fill="#812832" mask="url(#mask-106)"></path>
                    </g>
                    <g id="Group-174">
                        <mask id="mask-108" fill="white">
                            <use xlink:href="#path-107"></use>
                        </mask>
                        <g id="Clip-173"></g>
                        <path d="M11.07112,16.37024 C11.20392,17.55584 10.35032,18.62544 9.16472,18.75904 C7.97832,18.89184 6.90872,18.03824 6.77592,16.85264 C6.64232,15.66624 7.49592,14.59664 8.68232,14.46384 C9.86872,14.33024 10.93752,15.18464 11.07112,16.37024" id="Fill-172" fill="#812832" mask="url(#mask-108)"></path>
                    </g>
                    <g id="Group-177">
                        <mask id="mask-110" fill="white">
                            <use xlink:href="#path-109"></use>
                        </mask>
                        <g id="Clip-176"></g>
                        <path d="M2.95552,13.39056 C3.08832,14.57696 2.23472,15.64576 1.04912,15.77936 C-0.13728,15.91216 -1.20688,15.05856 -1.33968,13.87376 C-1.47328,12.68656 -0.61968,11.61696 0.56672,11.48416 C1.75232,11.35056 2.82192,12.20496 2.95552,13.39056" id="Fill-175" fill="#812832" mask="url(#mask-110)"></path>
                    </g>
                    <g id="Group-180">
                        <mask id="mask-112" fill="white">
                            <use xlink:href="#path-111"></use>
                        </mask>
                        <g id="Clip-179"></g>
                        <path d="M17.46096,3.9812 C17.59456,5.1676 16.74176,6.2364 15.55456,6.37 C14.36816,6.5028 13.29856,5.6492 13.16576,4.4644 C13.03216,3.2772 13.88576,2.2076 15.07216,2.0748 C16.25856,1.9412 17.32816,2.7956 17.46096,3.9812" id="Fill-178" fill="#812832" mask="url(#mask-112)"></path>
                    </g>
                    <g id="Group-183">
                        <mask id="mask-114" fill="white">
                            <use xlink:href="#path-113"></use>
                        </mask>
                        <g id="Clip-182"></g>
                        <path d="M10.20864,8.68584 C10.34144,9.87224 9.48784,10.94104 8.30224,11.07464 C7.11584,11.20744 6.04624,10.35384 5.91344,9.16904 C5.77984,7.98184 6.63344,6.91224 7.81984,6.77944 C9.00544,6.64584 10.07504,7.50024 10.20864,8.68584" id="Fill-181" fill="#812832" mask="url(#mask-114)"></path>
                    </g>
                    <g id="Group-186">
                        <mask id="mask-116" fill="white">
                            <use xlink:href="#path-115"></use>
                        </mask>
                        <g id="Clip-185"></g>
                        <path d="M2.09304,5.70696 C2.22584,6.89256 1.37224,7.96216 0.18664,8.09496 C-0.99976,8.22776 -2.06936,7.37496 -2.20216,6.18936 C-2.33576,5.00296 -1.48216,3.93336 -0.29576,3.80056 C0.88984,3.66696 1.95944,4.52056 2.09304,5.70696" id="Fill-184" fill="#812832" mask="url(#mask-116)"></path>
                    </g>
                    <g id="Group-189">
                        <mask id="mask-118" fill="white">
                            <use xlink:href="#path-117"></use>
                        </mask>
                        <g id="Clip-188"></g>
                        <path d="M9.34576,1.00224 C9.47936,2.18784 8.62576,3.25664 7.43936,3.39024 C6.25296,3.52304 5.18336,2.67024 5.05056,1.48464 C4.91696,0.29744 5.77056,-0.77216 6.95696,-0.90496 C8.14336,-1.03856 9.21296,-0.18336 9.34576,1.00224" id="Fill-187" fill="#812832" mask="url(#mask-118)"></path>
                    </g>
                </g>
                <g id="Group-209" transform="translate(2.400000, 66.648000)">
                    <g id="Group-193">
                        <mask id="mask-120" fill="white">
                            <use xlink:href="#path-119"></use>
                        </mask>
                        <g id="Clip-192"></g>
                        <path d="M17.35552,6.99056 C17.48832,8.17696 16.63472,9.24576 15.44912,9.37936 C14.26272,9.51216 13.19312,8.65856 13.06032,7.47376 C12.92672,6.28656 13.78032,5.21696 14.96672,5.08416 C16.15232,4.95056 17.22192,5.80496 17.35552,6.99056" id="Fill-191" fill="#812832" mask="url(#mask-120)"></path>
                    </g>
                    <g id="Group-196">
                        <mask id="mask-122" fill="white">
                            <use xlink:href="#path-121"></use>
                        </mask>
                        <g id="Clip-195"></g>
                        <path d="M10.1028,11.6952 C10.2356,12.8808 9.382,13.9504 8.1964,14.084 C7.01,14.2168 5.9404,13.3632 5.8076,12.1784 C5.674,10.9912 6.5276,9.9216 7.714,9.7888 C8.9004,9.6552 9.97,10.5096 10.1028,11.6952" id="Fill-194" fill="#812832" mask="url(#mask-122)"></path>
                    </g>
                    <g id="Group-199">
                        <mask id="mask-124" fill="white">
                            <use xlink:href="#path-123"></use>
                        </mask>
                        <g id="Clip-198"></g>
                        <path d="M1.98752,8.71632 C2.12112,9.90192 1.26752,10.97152 0.08112,11.10432 C-1.10528,11.23712 -2.17488,10.38432 -2.30768,9.19872 C-2.44128,8.01152 -1.58768,6.94192 -0.40128,6.80912 C0.78512,6.67552 1.85472,7.52992 1.98752,8.71632" id="Fill-197" fill="#812832" mask="url(#mask-124)"></path>
                    </g>
                    <g id="Group-202">
                        <mask id="mask-126" fill="white">
                            <use xlink:href="#path-125"></use>
                        </mask>
                        <g id="Clip-201"></g>
                        <path d="M16.49304,-0.69304 C16.62584,0.49256 15.77224,1.56216 14.58664,1.69496 C13.40024,1.82776 12.33064,0.97496 12.19784,-0.21064 C12.06424,-1.39704 12.91784,-2.46664 14.10424,-2.59944 C15.28984,-2.73304 16.35944,-1.87944 16.49304,-0.69304" id="Fill-200" fill="#812832" mask="url(#mask-126)"></path>
                    </g>
                    <g id="Group-205">
                        <mask id="mask-128" fill="white">
                            <use xlink:href="#path-127"></use>
                        </mask>
                        <g id="Clip-204"></g>
                        <path d="M9.24024,4.0116 C9.37304,5.1972 8.51944,6.2668 7.33384,6.3996 C6.14744,6.5324 5.07784,5.6796 4.94504,4.494 C4.81144,3.3076 5.66504,2.2372 6.85144,2.1044 C8.03784,1.9716 9.10744,2.826 9.24024,4.0116" id="Fill-203" fill="#812832" mask="url(#mask-128)"></path>
                    </g>
                    <g id="Group-208">
                        <mask id="mask-130" fill="white">
                            <use xlink:href="#path-129"></use>
                        </mask>
                        <g id="Clip-207"></g>
                        <path d="M8.37776,-3.67272 C8.51056,-2.48632 7.65696,-1.41672 6.47136,-1.28392 C5.28496,-1.15032 4.21536,-2.00392 4.08256,-3.19032 C3.94896,-4.37672 4.80256,-5.44632 5.98896,-5.57912 C7.17456,-5.71272 8.24416,-4.85912 8.37776,-3.67272" id="Fill-206" fill="#812832" mask="url(#mask-130)"></path>
                    </g>
                </g>
                <g id="Group-215" transform="translate(0.000000, 0.248000)">
                    <g id="Group-212" transform="translate(0.000000, 11.200000)">
                        <mask id="mask-132" fill="white">
                            <use xlink:href="#path-131"></use>
                        </mask>
                        <g id="Clip-211"></g>
                        <path d="M18.01368,65.25384 C12.71768,67.24344 7.16408,68.69864 1.46248,69.58424 L1.46008,69.58504 C0.76968,69.69224 0.12328,69.22024 0.01528,68.52984 C-0.09192,67.83784 0.38168,67.19304 1.07048,67.08504 C4.31528,66.57784 8.13208,63.30344 10.41208,61.34824 C15.83448,56.69384 20.50168,50.27864 24.68168,41.73624 C26.95928,37.08024 28.37448,31.96264 29.74168,27.01304 C30.75368,23.35224 31.80088,19.56744 33.19608,15.93944 C35.89768,8.91864 39.19688,4.30024 43.28248,1.82104 C47.79448,-0.91576 54.23128,0.73224 58.30168,3.42184 C63.12728,6.60904 65.39128,11.37544 64.84888,17.20664 C64.33528,22.73704 61.48808,28.06184 59.19048,31.55464 C49.40968,46.42184 36.17528,57.67384 20.91688,64.09784 C19.95848,64.50104 18.99048,64.88664 18.01368,65.25384 M9.64488,65.28104 C13.17288,64.33784 16.61288,63.16504 19.93528,61.76584 C34.72968,55.53704 47.57208,44.60984 57.07608,30.16424 C60.45768,25.02504 67.20888,12.33784 56.90728,5.53304 C53.37208,3.19704 48.00728,1.91864 44.59608,3.98424 C41.00648,6.16184 38.04888,10.36984 35.55768,16.84824 C34.20648,20.36024 33.17688,24.08504 32.18088,27.68744 C30.78168,32.74824 29.33528,37.98104 26.95448,42.84824 C22.62008,51.70504 17.74808,58.38504 12.05928,63.26824 C11.37048,63.85944 10.55208,64.56184 9.64488,65.28104" id="Fill-210" fill="#1E1E1C" mask="url(#mask-132)"></path>
                    </g>
                    <path d="M56.19536,15.8124 L56.13056,15.7892 C55.03296,15.3788 54.43056,14.1996 54.73936,13.0708 L57.70656,2.2196 C57.87136,1.6172 58.27856,1.1092 58.82976,0.8164 C59.38096,0.5236 60.02976,0.4716 60.62096,0.6732 L62.56496,1.334 C63.17936,1.5428 63.67376,2.0052 63.92496,2.6028 C64.17536,3.2012 64.15776,3.878 63.87616,4.462 L58.96416,14.6516 C58.46576,15.6852 57.27536,16.1796 56.19536,15.8124" id="Fill-213" fill="#1E1E1C"></path>
                </g>
            </g>
        </g>
    </g>
</svg>