<?xml version="1.0" encoding="UTF-8"?>
<svg width="89px" height="71px" viewBox="0 0 89 71" version="1.1" xmlns="http://www.w3.org/2000/svg" xmlns:xlink="http://www.w3.org/1999/xlink">
    <!-- Generator: Sketch 60 (88103) - https://sketch.com -->
    <title>icon / holy</title>
    <desc>Created with Sketch.</desc>
    <g id="Campaign-" stroke="none" stroke-width="1" fill="none" fill-rule="evenodd">
        <g id="Spin----Winner-D" transform="translate(-276.000000, -520.000000)">
            <g id="icon-/-holy" transform="translate(268.000000, 510.000000)">
                <path d="M80.8044841,49.027856 C80.8044841,49.027856 72.1526041,58.174916 75.9012841,66.062696 C75.9012841,66.062696 54.4967641,56.991236 53.8476841,77.383796 C53.8476841,77.383796 47.6349841,63.346496 30.4338241,76.051616 C30.4338241,76.051616 44.8674841,65.330456 38.0742841,58.624196 C38.0742841,58.624196 60.5798641,66.705836 55.1447641,52.456316 C55.1447641,52.456316 61.9206841,62.270816 80.8044841,49.027856" id="Fill-1" fill="#009E3C" fill-rule="evenodd" transform="translate(55.619154, 63.205826) rotate(37.000000) translate(-55.619154, -63.205826) "></path>
                <path d="M80.8044841,49.027856 C80.8044841,49.027856 72.1526041,58.174916 75.9012841,66.062696 C75.9012841,66.062696 54.4967641,56.991236 53.8476841,77.383796 C53.8476841,77.383796 47.6349841,63.346496 30.4338241,76.051616 C30.4338241,76.051616 44.8674841,65.330456 38.0742841,58.624196 C38.0742841,58.624196 60.5798641,66.705836 55.1447641,52.456316 C55.1447641,52.456316 61.9206841,62.270816 80.8044841,49.027856 Z" id="Stroke-3" stroke="#1D1D1B" stroke-width="2.44944" transform="translate(55.619154, 63.205826) rotate(37.000000) translate(-55.619154, -63.205826) "></path>
                <path d="M42.9615128,5 C42.9615128,5 48.6990128,21.75512 57.4081328,21.12062 C57.4081328,21.12062 41.6606528,34.86416 60.4315928,42.85832 C60.4315928,42.85832 44.2855928,41.10332 49.8907928,61.73888 C49.8907928,61.73888 45.1301528,44.40218 36.4194128,48.30314 C36.4194128,48.30314 41.2956128,27.761 26.0438528,27.6611 C26.0438528,27.6611 48.4592528,27.39974 42.9615128,5" id="Fill-5" fill="#009E3C" fill-rule="evenodd" transform="translate(43.237723, 33.369440) rotate(37.000000) translate(-43.237723, -33.369440) "></path>
                <path d="M42.9615128,5 C42.9615128,5 48.6990128,21.75512 57.4081328,21.12062 C57.4081328,21.12062 41.6606528,34.86416 60.4315928,42.85832 C60.4315928,42.85832 44.2855928,41.10332 49.8907928,61.73888 C49.8907928,61.73888 45.1301528,44.40218 36.4194128,48.30314 C36.4194128,48.30314 41.2956128,27.761 26.0438528,27.6611 C26.0438528,27.6611 48.4592528,27.39974 42.9615128,5 Z" id="Stroke-7" stroke="#1D1D1B" stroke-width="2.44944" transform="translate(43.237723, 33.369440) rotate(37.000000) translate(-43.237723, -33.369440) "></path>
                <path d="M33.7712877,54.5584365 C32.6826477,59.2742565 27.9765477,62.2161765 23.2591077,61.1275365 C18.5427477,60.0372765 15.6013677,55.3317165 16.6910877,50.6153565 C17.7797277,45.8979165 22.4858277,42.9576165 27.2016477,44.0457165 C31.9196277,45.1343565 34.8599277,49.8420765 33.7712877,54.5584365" id="Fill-9" fill="#E8473F" fill-rule="evenodd" transform="translate(25.231017, 52.586684) rotate(37.000000) translate(-25.231017, -52.586684) "></path>
                <path d="M33.7712877,54.5584365 C32.6826477,59.2742565 27.9765477,62.2161765 23.2591077,61.1275365 C18.5427477,60.0372765 15.6013677,55.3317165 16.6910877,50.6153565 C17.7797277,45.8979165 22.4858277,42.9576165 27.2016477,44.0457165 C31.9196277,45.1343565 34.8599277,49.8420765 33.7712877,54.5584365 Z" id="Stroke-11" stroke="#1D1D1B" stroke-width="2.44944" transform="translate(25.231017, 52.586684) rotate(37.000000) translate(-25.231017, -52.586684) "></path>
                <path d="M36.7267908,65.646862 C35.6921508,70.129402 31.2204108,72.924442 26.7378708,71.889802 C22.2553308,70.854082 19.4608308,66.381802 20.4949308,61.899802 C21.5306508,57.417262 26.0034708,54.622762 30.4849308,55.658482 C34.9658508,56.692582 37.7608908,61.164862 36.7267908,65.646862" id="Fill-13" fill="#E8473F" fill-rule="evenodd" transform="translate(28.610849, 63.773930) rotate(37.000000) translate(-28.610849, -63.773930) "></path>
                <path d="M36.7267908,65.646862 C35.6921508,70.129402 31.2204108,72.924442 26.7378708,71.889802 C22.2553308,70.854082 19.4608308,66.381802 20.4949308,61.899802 C21.5306508,57.417262 26.0034708,54.622762 30.4849308,55.658482 C34.9658508,56.692582 37.7608908,61.164862 36.7267908,65.646862 Z" id="Stroke-15" stroke="#1D1D1B" stroke-width="2.44944" transform="translate(28.610849, 63.773930) rotate(37.000000) translate(-28.610849, -63.773930) "></path>
                <path d="M26.4465672,61.8845145 C25.4124672,66.3665145 20.9401872,69.1615545 16.4576472,68.1274545 C11.9756472,67.0917345 9.18060722,62.6189145 10.2152472,58.1369145 C11.2509672,53.6543745 15.7232472,50.8598745 20.2036272,51.8955945 C24.6861672,52.9296945 27.4806672,57.4019745 26.4465672,61.8845145" id="Fill-17" fill="#E8473F" fill-rule="evenodd" transform="translate(18.330822, 60.011215) rotate(37.000000) translate(-18.330822, -60.011215) "></path>
                <path d="M26.4465672,61.8845145 C25.4124672,66.3665145 20.9401872,69.1615545 16.4576472,68.1274545 C11.9756472,67.0917345 9.18060722,62.6189145 10.2152472,58.1369145 C11.2509672,53.6543745 15.7232472,50.8598745 20.2036272,51.8955945 C24.6861672,52.9296945 27.4806672,57.4019745 26.4465672,61.8845145 Z" id="Stroke-19" stroke="#1D1D1B" stroke-width="2.44944" transform="translate(18.330822, 60.011215) rotate(37.000000) translate(-18.330822, -60.011215) "></path>
            </g>
        </g>
    </g>
</svg>