<svg height="463" viewBox="0 0 463 463" width="463" xmlns="http://www.w3.org/2000/svg"><g fill="none" fill-rule="evenodd"><path d="m231.125 459.75c-30.86525 0-60.806-6.0445-88.9905-17.96525-27.224-11.515-51.6745-28-72.67175-48.9975-20.9975-20.99725-37.4825-45.44775-48.99725-72.67175-11.921-28.1845-17.9655-58.12525-17.9655-88.9905s6.0445-60.806 17.9655-88.9905c11.51475-27.224 27.99975-51.6745 48.99725-72.67175 20.99725-20.9975 45.44775-37.4825 72.67175-48.9975 28.1845-11.92075 58.12525-17.96525 88.9905-17.96525s60.806 6.0445 88.9905 17.96525c27.224 11.515 51.6745 28 72.67175 48.9975 20.9975 20.99725 37.4825 45.44775 48.9975 72.67175 11.92075 28.1845 17.96525 58.12525 17.96525 88.9905s-6.0445 60.806-17.96525 88.9905c-11.515 27.224-28 51.6745-48.9975 72.67175-20.99725 20.9975-45.44775 37.4825-72.67175 48.9975-28.1845 11.92075-58.12525 17.96525-88.9905 17.96525" fill="#ff6b00"/><path d="m231.125 0c-127.64675 0-231.125 103.47825-231.125 231.125s103.47825 231.125 231.125 231.125 231.125-103.47825 231.125-231.125-103.47825-231.125-231.125-231.125m0 5c15.3455 0 30.68 1.54575 45.5775 4.59425 14.516 2.97025 28.7945 7.4025 42.439 13.17375 13.39775 5.6665 26.3205 12.681 38.4085 20.84775 11.975 8.08975 23.23575 17.38075 33.4695 27.61475 10.234 10.23375 19.525 21.4945 27.61475 33.4695 8.16675 12.088 15.181 25.01075 20.84775 38.4085 5.77125 13.6445 10.2035 27.92275 13.17375 42.439 3.0485 14.8975 4.59425 30.23175 4.59425 45.5775s-1.54575 30.68-4.59425 45.5775c-2.97025 14.51625-7.4025 28.7945-13.17375 42.439-5.66675 13.39775-12.681 26.3205-20.84775 38.4085-8.08975 11.975-17.38075 23.23575-27.61475 33.4695-10.23375 10.234-21.4945 19.525-33.4695 27.61475-12.088 8.16675-25.01075 15.18125-38.4085 20.84775-13.6445 5.77125-27.923 10.2035-42.439 13.17375-14.8975 3.0485-30.232 4.59425-45.5775 4.59425s-30.68-1.54575-45.5775-4.59425c-14.51625-2.97025-28.79475-7.4025-42.439-13.17375-13.39775-5.6665-26.32025-12.681-38.40875-20.84775-11.97475-8.08975-23.2355-17.38075-33.46925-27.61475-10.234-10.23375-19.525-21.4945-27.615-33.4695-8.16675-12.088-15.18075-25.01075-20.8475-38.4085-5.77125-13.6445-10.2035-27.92275-13.174-42.439-3.04825-14.8975-4.594-30.23175-4.594-45.5775s1.54575-30.68 4.594-45.5775c2.9705-14.51625 7.40275-28.7945 13.174-42.439 5.66675-13.39775 12.68075-26.3205 20.8475-38.4085 8.09-11.975 17.381-23.23575 27.615-33.4695 10.23375-10.234 21.4945-19.525 33.46925-27.61475 12.0885-8.16675 25.011-15.18125 38.40875-20.84775 13.64425-5.77125 27.92275-10.2035 42.439-13.17375 14.8975-3.0485 30.232-4.59425 45.5775-4.59425" fill="#191919"/><path d="m231.375 5.5c-124.74725 0-225.875 101.12775-225.875 225.875s101.12775 225.875 225.875 225.875 225.875-101.12775 225.875-225.875-101.12775-225.875-225.875-225.875m0 5c14.98925 0 29.96775 1.50975 44.51925 4.4875 14.17925 2.9015 28.12625 7.23075 41.45375 12.868 13.0865 5.53525 25.70925 12.3865 37.51675 20.3635 11.69675 7.90225 22.69625 16.9775 32.6925 26.97375s19.0715 20.99575 26.97375 32.6925c7.977 11.8075 14.82825 24.43025 20.3635 37.51675 5.63725 13.3275 9.9665 27.2745 12.868 41.45375 2.97775 14.5515 4.4875 29.53 4.4875 44.51925s-1.50975 29.96775-4.4875 44.51925c-2.9015 14.17925-7.23075 28.12625-12.868 41.45375-5.53525 13.0865-12.3865 25.70925-20.3635 37.51675-7.90225 11.69675-16.9775 22.69625-26.97375 32.6925s-20.99575 19.0715-32.6925 26.97375c-11.8075 7.977-24.43025 14.8285-37.51675 20.3635-13.3275 5.63725-27.2745 9.9665-41.45375 12.868-14.5515 2.97775-29.53 4.4875-44.51925 4.4875-14.9895 0-29.96775-1.50975-44.51925-4.4875-14.179-2.9015-28.12625-7.23075-41.45375-12.868-13.08675-5.535-25.70925-12.3865-37.51675-20.3635-11.697-7.90225-22.69625-16.9775-32.6925-26.97375s-19.0715-20.99575-26.97375-32.6925c-7.977-11.8075-14.82825-24.43025-20.3635-37.51675-5.637-13.3275-9.9665-27.2745-12.868-41.45375-2.97775-14.5515-4.4875-29.53-4.4875-44.51925s1.50975-29.96775 4.4875-44.51925c2.9015-14.17925 7.231-28.12625 12.868-41.45375 5.53525-13.0865 12.3865-25.70925 20.3635-37.51675 7.90225-11.69675 16.9775-22.69625 26.97375-32.6925s20.9955-19.0715 32.6925-26.97375c11.8075-7.977 24.43-14.82825 37.51675-20.3635 13.3275-5.63725 27.27475-9.9665 41.45375-12.868 14.5515-2.97775 29.52975-4.4875 44.51925-4.4875" fill="#000"/><path d="m231.099 433.43995c-27.31675 0-53.81525-5.3495-78.759-15.9-24.09425-10.19075-45.7335-24.78075-64.31675-43.364-18.5835-18.58325-33.17325-40.2225-43.36425-64.31675-10.55025-24.944-15.89975-51.44225-15.89975-78.759 0-27.317 5.3495-53.81525 15.89975-78.75925 10.191-24.09375 24.78075-45.73325 43.36425-64.3165 18.58325-18.58325 40.2225-33.173 64.31675-43.364 24.94375-10.5505 51.44225-15.9 78.759-15.9s53.81525 5.3495 78.75925 15.9c24.094 10.191 45.73325 24.78075 64.3165 43.364s33.17325 40.22275 43.364 64.3165c10.55025 24.944 15.9 51.44225 15.9 78.75925 0 27.31675-5.34975 53.815-15.9 78.759-10.19075 24.09425-24.78075 45.7335-43.364 64.31675s-40.2225 33.17325-64.3165 43.364c-24.944 10.5505-51.4425 15.9-78.75925 15.9" fill="#ffc600"/><path d="m231.099 26.2605c-113.13 0-204.83975 91.70975-204.83975 204.8395 0 113.13 91.70975 204.84 204.83975 204.84s204.84-91.71 204.84-204.84c0-113.12975-91.71-204.8395-204.84-204.8395m0 5c13.56225 0 27.1145 1.366 40.28025 4.06 12.82825 2.625 25.447 6.54225 37.505 11.6425 11.84 5.00775 23.2605 11.2065 33.94375 18.424 10.583 7.1495 20.53475 15.36075 29.57925 24.40525 9.0445 9.04425 17.25525 18.99625 24.405 29.579 7.2175 10.68325 13.41625 22.1035 18.42425 33.944 5.10025 12.05775 9.01725 24.6765 11.64225 37.505 2.694 13.1655 4.06025 26.71775 4.06025 40.27975 0 13.56225-1.36625 27.1145-4.06025 40.28025-2.625 12.8285-6.542 25.447-11.64225 37.505-5.008 11.84025-11.20675 23.26075-18.42425 33.94375-7.14975 10.583-15.3605 20.53475-24.405 29.57925s-18.99625 17.2555-29.57925 24.40525c-10.68325 7.21725-22.10375 13.41625-33.94375 18.42425-12.058 5.10025-24.67675 9.01725-37.505 11.64225-13.16575 2.694-26.718 4.06-40.28025 4.06s-27.11425-1.366-40.28-4.06c-12.8285-2.625-25.447-6.542-37.505-11.64225-11.84025-5.008-23.26075-11.207-33.94375-18.42425-10.583-7.14975-20.535-15.36075-29.57925-24.40525-9.0445-9.0445-17.2555-18.99625-24.40525-29.57925-7.2175-10.683-13.41625-22.1035-18.424-33.94375-5.10025-12.058-9.01725-24.6765-11.6425-37.505-2.694-13.16575-4.06-26.718-4.06-40.28025 0-13.562 1.366-27.11425 4.06-40.27975 2.62525-12.8285 6.54225-25.44725 11.6425-37.505 5.00775-11.8405 11.2065-23.26075 18.424-33.944 7.14975-10.58275 15.36075-20.53475 24.40525-29.579 9.04425-9.0445 18.99625-17.25575 29.57925-24.40525 10.683-7.2175 22.1035-13.41625 33.94375-18.424 12.058-5.10025 24.6765-9.0175 37.505-11.6425 13.16575-2.694 26.71775-4.06 40.28-4.06" fill="#191919"/><path d="m118.168325 92.076175 58.5495 86.0125 5.751-4.7965z" fill="#e9483e"/><path d="m58.137075 183.678475 97.92425 35.171 1.8335-7.26075z" fill="#e9483e"/><path d="m62.9862 291.9148 99.8955-29.1045-2.7845-6.95175z" fill="#e9483e"/><path d="m126.11365 376.767325 63.70975-82.26325-6.33875-3.98725z" fill="#e9483e"/><path d="m334.518075 380.247075-58.54925-86.01225-5.751 4.7965z" fill="#e9483e"/><path d="m402.180675 291.097175-97.92425-35.171-1.83325 7.2605z" fill="#e9483e"/><path d="m405.8733 179.54565-99.8955 29.1045 2.7845 6.95175z" fill="#e9483e"/><path d="m340.4873 86.130125-63.70975 82.26325 6.33875 3.98725z" fill="#e9483e"/><path d="m232.6687 410.7124 3.18925-104-7.472.5z" fill="#e9483e"/><path d="m230.1892 51-3.18925 104 7.472-.5z" fill="#e9483e"/><path d="m231.885375 309.954825c-21.098 0-40.93325-8.216-55.85175-23.1345-14.9185-14.91875-23.1345-34.75375-23.1345-55.85175 0-21.09825 8.216-40.93325 23.1345-55.852 14.9185-14.91825 34.75375-23.1345 55.85175-23.1345s40.93325 8.21625 55.85175 23.1345c14.9185 14.91875 23.1345 34.754 23.1345 55.852 0 21.09775-8.216 40.933-23.1345 55.85175-14.9185 14.9185-34.75375 23.1345-55.85175 23.1345" fill="#20b8d1"/><path d="m231.885375 149.482175c-45.00375 0-81.48625 36.48275-81.48625 81.486 0 45.004 36.4825 81.4865 81.48625 81.4865 45.0035 0 81.48625-36.4825 81.48625-81.4865 0-45.00325-36.48275-81.486-81.48625-81.486m0 5c10.32775 0 20.34375 2.0215 29.7705 6.0085 9.10725 3.852 17.2875 9.36775 24.31325 16.39375 7.02625 7.026 12.54175 15.2065 16.394 24.3135 3.987 9.4265 6.0085 19.44275 6.0085 29.77025 0 10.328-2.0215 20.34425-6.0085 29.7705-3.85225 9.1075-9.36775 17.28775-16.394 24.3135-7.02575 7.02625-15.206 12.54175-24.31325 16.39375-9.42675 3.98725-19.44275 6.00875-29.7705 6.00875-10.328 0-20.344-2.0215-29.7705-6.00875-9.10725-3.852-17.2875-9.3675-24.3135-16.39375-7.026-7.02575-12.5415-15.206-16.39375-24.3135-3.987-9.42625-6.0085-19.4425-6.0085-29.7705 0-10.3275 2.0215-20.34375 6.0085-29.77025 3.85225-9.107 9.36775-17.2875 16.39375-24.3135s15.20625-12.54175 24.3135-16.39375c9.4265-3.987 19.4425-6.0085 29.7705-6.0085" fill="#191919"/><path d="m230.778675 286.52245c-14.86925 0-28.84875-5.7905-39.36275-16.30475-10.51425-10.51425-16.30475-24.4935-16.30475-39.363 0-14.86925 5.7905-28.8485 16.3045-39.36275 10.51425-10.51425 24.49375-16.30475 39.363-16.30475s28.84875 5.7905 39.363 16.30475c10.514 10.51425 16.3045 24.4935 16.3045 39.36275 0 14.8695-5.7905 28.84875-16.3045 39.363-10.51425 10.51425-24.49375 16.30475-39.363 16.30475" fill="#ffc600"/><path d="m230.7788 172.68725c-32.125 0-58.1675 26.0425-58.1675 58.1675 0 32.12525 26.0425 58.16775 58.1675 58.16775s58.1675-26.0425 58.1675-58.16775c0-32.125-26.0425-58.1675-58.1675-58.1675m0 5c7.17975 0 14.142 1.405 20.6935 4.176 6.33075 2.67775 12.01725 6.512 16.90175 11.3965 4.88425 4.88425 8.7185 10.57075 11.39625 16.9015 2.771 6.5515 4.176 13.51375 4.176 20.6935 0 7.18-1.405 14.14225-4.176 20.6935-2.67775 6.33075-6.512 12.01725-11.39625 16.90175-4.8845 4.8845-10.571 8.7185-16.90175 11.39625-6.5515 2.771-13.51375 4.17625-20.6935 4.17625s-14.14225-1.40525-20.69375-4.17625c-6.3305-2.67775-12.017-6.51175-16.9015-11.39625-4.88425-4.8845-8.7185-10.571-11.39625-16.90175-2.771-6.55125-4.176-13.5135-4.176-20.6935 0-7.17975 1.405-14.142 4.176-20.6935 2.67775-6.33075 6.512-12.01725 11.39625-16.9015 4.8845-4.8845 10.571-8.71875 16.9015-11.3965 6.5515-2.771 13.514-4.176 20.69375-4.176" fill="#191919"/><path d="m235 446.875c0 2.6925-2.1825 4.875-4.875 4.875s-4.875-2.1825-4.875-4.875 2.1825-4.875 4.875-4.875 4.875 2.1825 4.875 4.875" fill="#20b8d1"/><path d="m172 437.125c0 2.6925-2.1825 4.875-4.875 4.875s-4.875-2.1825-4.875-4.875 2.1825-4.875 4.875-4.875 4.875 2.1825 4.875 4.875" fill="#fff"/><path d="m298 437.125c0 2.6925-2.1825 4.875-4.875 4.875s-4.875-2.1825-4.875-4.875 2.1825-4.875 4.875-4.875 4.875 2.1825 4.875 4.875" fill="#fff"/><path d="m175.319575 230.4856 27.7425-60.45c5.16775-11.2605 16.495-18.40925 28.883-18.229h.00025c12.3795.18025 23.488 7.64525 28.33125 19.03975l25.774 60.637" fill="#fdc300"/><path d="m175.319575 230.4856 27.7425-60.45c5.16775-11.2605 16.495-18.40925 28.883-18.229h.00025c12.3795.18025 23.488 7.64525 28.33125 19.03975l25.774 60.637" stroke="#191919" stroke-width=".5"/><path d="m177.445425 231.461175-4.2515-1.95125 27.74225-60.44975c5.551-12.09525 17.73625-19.78575 31.043-19.59225 13.29575.1935 25.2485 8.22625 30.45 20.4635l25.77425 60.63725-4.30525 1.82975-25.77425-60.63725c-4.47775-10.53475-14.76675-17.44975-26.21275-17.61625-11.45525-.16675-21.94475 6.45375-26.7235 16.86625z" fill="#1e1e1c"/><path d="m177.445425 231.461175-4.2515-1.95125 27.74225-60.44975c5.551-12.09525 17.73625-19.78575 31.043-19.59225 13.29575.1935 25.2485 8.22625 30.45 20.4635l25.77425 60.63725-4.30525 1.82975-25.77425-60.63725c-4.47775-10.53475-14.76675-17.44975-26.21275-17.61625-11.45525-.16675-21.94475 6.45375-26.7235 16.86625z" stroke="#191919" stroke-width=".5"/><g fill="#1e1e1c"><path d="m236.4668 176.469475c-.21025 1.2675-1.40825 2.1245-2.6755 1.91425-1.2675-.21-2.12475-1.408-1.9145-2.6755.21-1.26725 1.408-2.1245 2.6755-1.91425s2.12475 1.408 1.9145 2.6755"/><path d="m226.05395 211.072025c.21025-1.2675 1.408-2.12475 2.67575-1.9145 1.26725.21025 2.1245 1.40825 1.91425 2.6755-.21 1.2675-1.408 2.12475-2.6755 1.9145s-2.1245-1.40825-1.9145-2.6755"/><path d="m218.59875 181.2229c-.21025 1.26725-1.408 2.1245-2.6755 1.91425s-2.12475-1.408-1.9145-2.6755 1.408-2.1245 2.6755-1.9145c1.2675.21025 2.12475 1.40825 1.9145 2.67575"/><path d="m251.884275 186.742425c-.21 1.26725-1.408 2.1245-2.6755 1.91425-1.26725-.21025-2.1245-1.408-1.91425-2.6755.21-1.2675 1.40775-2.1245 2.6755-1.91425 1.2675.21 2.1245 1.408 1.91425 2.6755"/><path d="m215.226325 201.56005c-.21025 1.2675-1.408 2.12475-2.6755 1.9145s-2.12475-1.40825-1.9145-2.6755c.21025-1.2675 1.408-2.12475 2.6755-1.9145s2.12475 1.40825 1.9145 2.6755"/><path d="m248.511975 207.079825c-.21025 1.26725-1.408 2.1245-2.6755 1.91425s-2.1245-1.408-1.9145-2.6755 1.408-2.1245 2.67575-1.9145c1.26725.21025 2.1245 1.40825 1.91425 2.67575"/><path d="m218.8059 195.078125c-1.81275-.3005-3.70725-1.5125-3.30775-3.92125.404-2.43575 2.58375-2.94425 4.39625-2.64375.00025.00025.00025.00025.0005.00025 3.7675.62475 6.99725 2.8675 8.54725 4.10975.47.3765.34675 1.1195-.2195 1.32425-1.86825.67525-5.649 1.7555-9.41675 1.13075"/><path d="m243.707025 192.461925c1.813.30075 3.70725 1.5125 3.30775 3.92125-.404 2.43575-2.5835 2.94425-4.39625 2.64375h-.00025c-3.76775-.625-6.9975-2.86775-8.5475-4.11-.46975-.3765-.34675-1.11925.2195-1.32425 1.86825-.67525 5.64925-1.7555 9.41675-1.13075"/><path d="m226.16405 205.20655c-1.16675 1.41975-3.16325 2.45425-5.04975.904-1.90725-1.5675-1.258-3.7095-.09125-5.129.00025 0 .00025-.00025.00025-.00025 2.425-2.9505 5.982-4.626 7.83275-5.3475.561-.2185 1.14275.2595 1.037.85225-.349 1.9555-1.304 5.77-3.729 8.7205"/><path d="m236.349125 182.3335c1.16675-1.41975 3.16325-2.45425 5.0495-.904 1.9075 1.5675 1.258 3.7095.09125 5.129 0 .00025-.00025.00025-.00025.0005-2.42475 2.95025-5.98175 4.626-7.83275 5.34725-.561.21875-1.14275-.2595-1.037-.852.34925-1.9555 1.30425-5.77025 3.72925-8.72075"/><path d="m238.61475 203.898425c.646 1.7205.54375 3.96675-1.74225 4.82525-2.31125.868-3.8415-.76525-4.4875-2.4855v-.0005c-1.34275-3.575-1.01525-7.49325-.7145-9.457.091-.595.796-.85975 1.2565-.47175 1.51875 1.28025 4.345 4.01425 5.68775 7.5895"/><path d="m223.898425 183.6416c-.646-1.72025-.54375-3.96675 1.742-4.82525 2.31125-.868 3.8415.76525 4.4875 2.48575l.00025.00025c1.3425 3.575 1.01525 7.4935.7145 9.457-.091.59525-.79625.85975-1.2565.47175-1.519-1.28-4.345-4.01425-5.68775-7.5895"/></g><path d="m225.75 16.125c0-2.6925 2.1825-4.875 4.875-4.875s4.875 2.1825 4.875 4.875-2.1825 4.875-4.875 4.875-4.875-2.1825-4.875-4.875" fill="#20b8d1"/><path d="m288.75 25.875c0-2.6925 2.1825-4.875 4.875-4.875s4.875 2.1825 4.875 4.875-2.1825 4.875-4.875 4.875-4.875-2.1825-4.875-4.875" fill="#fff"/><path d="m162.75 25.875c0-2.6925 2.1825-4.875 4.875-4.875s4.875 2.1825 4.875 4.875-2.1825 4.875-4.875 4.875-4.875-2.1825-4.875-4.875" fill="#fff"/><path d="m446.375 226.25c2.6925 0 4.875 2.1825 4.875 4.875s-2.1825 4.875-4.875 4.875-4.875-2.1825-4.875-4.875 2.1825-4.875 4.875-4.875" fill="#20b8d1"/><path d="m436.625 289.25c2.6925 0 4.875 2.1825 4.875 4.875s-2.1825 4.875-4.875 4.875-4.875-2.1825-4.875-4.875 2.1825-4.875 4.875-4.875" fill="#fff"/><path d="m436.625 163.25c2.6925 0 4.875 2.1825 4.875 4.875s-2.1825 4.875-4.875 4.875-4.875-2.1825-4.875-4.875 2.1825-4.875 4.875-4.875" fill="#fff"/><path d="m15.625 236.25c-2.6925 0-4.875-2.1825-4.875-4.875s2.1825-4.875 4.875-4.875 4.875 2.1825 4.875 4.875-2.1825 4.875-4.875 4.875" fill="#20b8d1"/><path d="m25.375 173.25c-2.6925 0-4.875-2.1825-4.875-4.875s2.1825-4.875 4.875-4.875 4.875 2.1825 4.875 4.875-2.1825 4.875-4.875 4.875" fill="#fff"/><path d="m25.375 299.25c-2.6925 0-4.875-2.1825-4.875-4.875s2.1825-4.875 4.875-4.875 4.875 2.1825 4.875 4.875-2.1825 4.875-4.875 4.875" fill="#fff"/><path d="m231.94775 143.5c-48.16475 0-87.20975 39.04525-87.20975 87.21 0 48.1645 39.045 87.20975 87.20975 87.20975s87.21-39.04525 87.21-87.20975c0-48.16475-39.04525-87.21-87.21-87.21m0 5c11.1005 0 21.86625 2.17275 31.99825 6.4585 9.78875 4.14025 18.58125 10.0685 26.13275 17.62 7.55175 7.55175 13.48 16.34425 17.6205 26.13325 4.2855 10.132 6.4585 20.8975 6.4585 31.99825 0 11.10025-2.173 21.86625-6.4585 31.998-4.1405 9.789-10.06875 18.5815-17.6205 26.133-7.5515 7.5515-16.344 13.48-26.13275 17.6205-10.132 4.28525-20.89775 6.45825-31.99825 6.45825s-21.86625-2.173-31.99825-6.45825c-9.78875-4.1405-18.58125-10.069-26.13275-17.6205-7.55175-7.5515-13.48-16.344-17.6205-26.133-4.2855-10.13175-6.45825-20.89775-6.45825-31.998 0-11.10075 2.17275-21.86625 6.45825-31.99825 4.1405-9.789 10.06875-18.5815 17.6205-26.13325 7.5515-7.5515 16.344-13.47975 26.13275-17.62 10.132-4.28575 20.89775-6.4585 31.99825-6.4585" fill="#000"/><text fill="#2b2929" font-family="Avenir-Book, Avenir" font-size="13"><tspan x="328.2785" y="223">ksjfhgkjghsfkgjh</tspan> <tspan x="326.4715" y="241">adjfghakfjghakjd</tspan> <tspan x="347.4145" y="259">fhgkajgfh</tspan></text><text fill="#2b2929" font-family="Avenir-Book, Avenir" font-size="13" transform="matrix(.81915204 .57357644 -.57357644 .81915204 246.306852 -141.274791)"><tspan x="300.965122" y="306.455371">ksjfhgkjghsfkgjh</tspan> <tspan x="299.158122" y="324.455371">adjfghakfjghakjd</tspan> <tspan x="320.101122" y="342.455371">fhgkajgfh</tspan></text><text fill="#2b2929" font-family="Avenir-Book, Avenir" font-size="13" transform="matrix(.42261826 .90630779 -.90630779 .42261826 493.868926 -40.21893)"><tspan x="232.2785" y="354">ksjfhgkjghsfkgjh</tspan> <tspan x="230.4715" y="372">adjfghakfjghakjd</tspan> <tspan x="251.4145" y="390">fhgkajgfh</tspan></text><text fill="#2b2929" font-family="Avenir-Book, Avenir" font-size="13" transform="matrix(-.70710678 .70710678 -.70710678 -.70710678 428.919877 463.33557)"><tspan x="72.2785" y="307">ksjfhgkjghsfkgjh</tspan> <tspan x="70.4715" y="325">adjfghakfjghakjd</tspan> <tspan x="91.4145" y="343">fhgkajgfh</tspan></text><text fill="#2b2929" font-family="Avenir-Book, Avenir" font-size="13" transform="matrix(-.2923717 .95630476 -.95630476 -.2923717 598.963603 300.074932)"><tspan x="142.238417" y="358.142342">ksjfhgkjghsfkgjh</tspan> <tspan x="140.431417" y="376.142342">adjfghakfjghakjd</tspan> <tspan x="161.374417" y="394.142342">fhgkajgfh</tspan></text><text fill="#2b2929" font-family="Avenir-Book, Avenir" font-size="13" transform="matrix(-1 0 0 -1 167 473)"><tspan x="37.2785" y="223">ksjfhgkjghsfkgjh</tspan> <tspan x="35.4715" y="241">adjfghakfjghakjd</tspan> <tspan x="56.4145" y="259">fhgkajgfh</tspan></text><text fill="#2b2929" font-family="Avenir-Book, Avenir" font-size="13" transform="matrix(-.82903757 -.5591929 .5591929 -.82903757 114.443504 341.98889)"><tspan x="63.2785" y="140">ksjfhgkjghsfkgjh</tspan> <tspan x="61.4715" y="158">adjfghakfjghakjd</tspan> <tspan x="82.4145" y="176">fhgkajgfh</tspan></text><text fill="#2b2929" font-family="Avenir-Book, Avenir" font-size="13" transform="matrix(-.34202014 -.93969262 .93969262 -.34202014 155.042993 305.562273)"><tspan x="138.2785" y="85">ksjfhgkjghsfkgjh</tspan> <tspan x="136.4715" y="103">adjfghakfjghakjd</tspan> <tspan x="157.4145" y="121">fhgkajgfh</tspan></text><text fill="#2b2929" font-family="Avenir-Book, Avenir" font-size="13" transform="matrix(.30901699 -.95105652 .95105652 .30901699 98.7597 332.931066)"><tspan x="232.2785" y="85">ksjfhgkjghsfkgjh</tspan> <tspan x="230.4715" y="103">adjfghakfjghakjd</tspan> <tspan x="251.4145" y="121">fhgkajgfh</tspan></text><text fill="#2b2929" font-family="Avenir-Book, Avenir" font-size="13" transform="matrix(.77714596 -.62932039 .62932039 .77714596 -19.342514 254.378426)"><tspan x="303.2785" y="141">ksjfhgkjghsfkgjh</tspan> <tspan x="301.4715" y="159">adjfghakfjghakjd</tspan> <tspan x="322.4145" y="177">fhgkajgfh</tspan></text></g></svg>