<svg xmlns="http://www.w3.org/2000/svg" width="32" height="35" viewBox="0 0 32 35">
    <g data-name="Icon/ScrollDown">
        <path data-name="Rectangle 467" transform="rotate(90 16 16)" style="fill:none" d="M0 0h32v32H0z"/>
        <path data-name="Path 37" d="M4975.906 357.535a2.554 2.554 0 0 1-.831 1.375c-2.472 2.437-4.956 4.864-7.384 7.344a2.318 2.318 0 0 1-3.074 0c-2.475-2.528-5.01-5-7.522-7.491a1.855 1.855 0 0 1 .008-2.893c.15-.148.3-.3.449-.445a1.863 1.863 0 0 1 2.718 0q2.838 2.809 5.667 5.629c.168.167.256.159.419 0q2.8-2.794 5.612-5.577a1.913 1.913 0 0 1 2.063-.523 1.543 1.543 0 0 1 .527.294 9.873 9.873 0 0 1 .869.847 2.068 2.068 0 0 1 .479 1.039z" transform="rotate(90 2657.995 -2285.16)" style="fill:#fff"/>
    </g>
</svg>
