<svg data-name="Icon/Basket" xmlns="http://www.w3.org/2000/svg" width="48" height="48.001" viewBox="0 0 48 48.001">
    <g data-name="Group 48">
        <path data-name="Path 35" d="M4765.762 1452.718h-14.606a4.947 4.947 0 0 1-4.581-2.2 4.807 4.807 0 0 1-.736-2.633c.01-8.991 0-17.983.012-26.975a4.54 4.54 0 0 1 4.681-4.8c.939-.015 1.887-.058 2.824.011s1.307-.339 1.438-1.278a11.311 11.311 0 0 1 9.016-9.9 11.176 11.176 0 0 1 13.028 9.567c.153 1.193.51 1.75 1.748 1.612a19.79 19.79 0 0 1 2.707-.013 4.515 4.515 0 0 1 4.523 4.594q.045 13.729 0 27.458a4.5 4.5 0 0 1-3.807 4.412 27.761 27.761 0 0 1-4.584.137c-3.888.022-7.777.009-11.663.008zm.128-20.8a10.816 10.816 0 0 0 10.588-8.58c.53-2.473.524-2.478-1.937-2.478-1.745 0-1.745 0-2.206 1.751a6.677 6.677 0 0 1-12.924.245c-.6-2-.6-2-2.619-2h-.47c-1.386.009-1.518.161-1.308 1.515a10.853 10.853 0 0 0 10.876 9.542zm-.052-15.812c1.807 0 3.611-.026 5.419.011.876.018 1.087-.378.968-1.191a6.475 6.475 0 0 0-12.776 0c-.117.817.1 1.207.972 1.189 1.804-.04 3.611-.015 5.417-.015z" transform="translate(-4741.838 -1404.737)" style="fill:#0068a3"/>
    </g>
    <path data-name="Rectangle 503" transform="translate(0 .001)" style="fill:none" d="M0 0h48v48H0z"/>
</svg>
