<svg xmlns="http://www.w3.org/2000/svg" width="18" height="18" viewBox="0 0 18 18">
  <g id="Group_233" data-name="Group 233">
    <circle id="Ellipse_26" data-name="Ellipse 26" cx="9" cy="9" r="9" fill="#000000"/>
    <path id="Path_39" transform="rotate(45) translate(8 -9)" data-name="Path 39" d="M4.04,9.167c0-.573,0-1.145,0-1.717,0-.126-.031-.165-.162-.165-1.132.006-2.264,0-3.4,0C.146,7.288,0,7.143,0,6.806q0-1.149,0-2.3a.411.411,0,0,1,.473-.468h3.4c.171,0,.171,0,.171-.174q0-1.692,0-3.383C4.04.145,4.186,0,4.525,0h2.3a.409.409,0,0,1,.466.463q0,1.7,0,3.408c0,.168,0,.169.165.169h3.4c.331,0,.479.146.479.475q0,1.155,0,2.31a.409.409,0,0,1-.467.463H7.454c-.165,0-.165,0-.165.168q0,1.7,0,3.4c0,.329-.148.477-.478.477h-2.3a.411.411,0,0,1-.472-.47Q4.04,10.012,4.04,9.167Z" fill="#ece2d8"/>
  </g>
</svg>
