<svg id="Icon_Clock" data-name="Icon/Clock" xmlns="http://www.w3.org/2000/svg" width="48" height="48" viewBox="0 0 48 48">
    <defs>
        <style>
            .cls-1{fill:#0068a3}
        </style>
    </defs>
    <g id="oxHqcr.tif">
        <g id="Group_60" data-name="Group 60">
            <path id="Path_42" data-name="Path 42" class="cls-1" d="M6870.844 1144h4.313c.555.079 1.113.135 1.664.241q14.622 2.822 19.273 16.975a24.505 24.505 0 0 1 .906 4.628v4.312c-.08.555-.135 1.114-.24 1.664-1.869 9.712-7.523 16.115-16.887 19.25a24.268 24.268 0 0 1-4.717.93h-4.312c-.555-.079-1.109-.152-1.664-.239a24.079 24.079 0 0 1-19.281-16.975 30.381 30.381 0 0 1-.9-4.63v-4.312c.08-.555.137-1.115.242-1.664 1.869-9.712 7.52-16.115 16.885-19.25a24.4 24.4 0 0 1 4.718-.93zm2.129 41.9a17.915 17.915 0 1 0-17.9-17.88 17.961 17.961 0 0 0 17.9 17.88z" transform="translate(-6849 -1144)"/>
            <path id="Path_43" data-name="Path 43" class="cls-1" d="M7081.35 1257.168h-5.824a2.858 2.858 0 0 1-2.923-2.939v-11.693a2.948 2.948 0 0 1 5.9-.013q.006 4.05 0 8.1c0 .648 0 .649.666.649h8.053a2.912 2.912 0 0 1 2.924 2.472 2.963 2.963 0 0 1-2.292 3.379 3.007 3.007 0 0 1-.633.044q-2.937.004-5.871.001z" transform="translate(-7051.274 -1230.496)"/>
        </g>
    </g>
    <path id="Rectangle_505" data-name="Rectangle 505" style="fill:none" d="M0 0h48v48H0z"/>
</svg>
