<svg xmlns="http://www.w3.org/2000/svg" width="28.284" height="28.284">
    <path data-name="Rectangle 447" transform="translate(2.142 2.142)" style="fill:none" d="M0 0h24v24H0z"/>
    <path data-name="Path 39" d="M7.133 16.184c0-1.012-.006-2.021 0-3.031 0-.223-.055-.292-.285-.291-2 .009-4 .005-5.995 0-.6 0-.857-.256-.857-.851Q0 9.989 0 7.961a.726.726 0 0 1 .835-.828h6c.3 0 .3 0 .3-.308V.852c0-.6.257-.851.856-.852h4.056a.722.722 0 0 1 .823.818v6.017c0 .3 0 .3.291.3h5.995c.584 0 .846.26.846.839v4.078a.722.722 0 0 1-.824.817h-6.019c-.29 0-.291 0-.291.3v5.995c0 .58-.262.841-.845.841H7.966a.726.726 0 0 1-.833-.83v-2.991z" transform="rotate(-45 17.07 7.071)" style="fill:#3c3c3c"/>
</svg>
