<svg data-name="Icon/Dropdown" xmlns="http://www.w3.org/2000/svg" width="16" height="16" viewBox="0 0 16 16">
    <path data-name="Rectangle 495" style="fill:none" d="M0 0h16v16H0z"/>
    <g data-name="Group 75">
        <path data-name="Path 37" d="M4968.406 356.522a1.6 1.6 0 0 1-.511.859c-1.522 1.523-3.05 3.04-4.544 4.59a1.411 1.411 0 0 1-1.892 0c-1.521-1.58-3.083-3.124-4.629-4.682a1.172 1.172 0 0 1 .006-1.808l.277-.278a1.134 1.134 0 0 1 1.672 0q1.746 1.756 3.487 3.518c.1.1.157.1.257 0q1.723-1.746 3.455-3.485a1.164 1.164 0 0 1 1.269-.327.952.952 0 0 1 .325.184 6.132 6.132 0 0 1 .534.529 1.308 1.308 0 0 1 .295.649z" transform="translate(-4954.406 -350.585)" style="fill:#fff"/>
    </g>
</svg>
