<svg data-name="Icon/Dropdown" xmlns="http://www.w3.org/2000/svg" width="16" height="16">
    <path data-name="Rectangle 495" style="fill:none" d="M0 0h16v16H0z"/>
    <g data-name="Group 75">
        <path data-name="Path 37" d="M4968.405 356.635a1.737 1.737 0 0 1-.511.917c-1.522 1.625-3.049 3.243-4.544 4.9a1.346 1.346 0 0 1-1.892 0c-1.522-1.685-3.083-3.332-4.629-4.994a1.3 1.3 0 0 1 .006-1.928l.276-.3a1.088 1.088 0 0 1 1.673 0q1.746 1.873 3.487 3.753c.1.112.157.106.257 0q1.723-1.863 3.454-3.718a1.117 1.117 0 0 1 1.27-.348.934.934 0 0 1 .324.2 6.278 6.278 0 0 1 .534.564 1.436 1.436 0 0 1 .295.693z" transform="translate(-4954.405 -350.835)" style="fill:#3c3c3c"/>
    </g>
</svg>
