<svg height="24.45" viewBox="0 0 20.923 24.45" width="20.923" xmlns="http://www.w3.org/2000/svg"><path d="m4756.259 1429.177q-3.819 0-7.64 0a2.611 2.611 0 0 1 -2.4-1.121 2.4 2.4 0 0 1 -.386-1.341c.006-4.58 0-9.16.006-13.74a2.342 2.342 0 0 1 2.449-2.445c.491-.008.986-.029 1.477.006s.684-.173.753-.651a5.816 5.816 0 0 1 11.53-.168c.08.608.268.891.914.821a10.676 10.676 0 0 1 1.417-.006 2.33 2.33 0 0 1 2.365 2.34q.023 6.993 0 13.987a2.312 2.312 0 0 1 -1.991 2.248 14.894 14.894 0 0 1 -2.4.07c-2.027.008-4.061.001-6.094 0zm.067-10.6a5.624 5.624 0 0 0 5.538-4.37c.278-1.26.274-1.262-1.013-1.262-.913 0-.913 0-1.153.892a3.518 3.518 0 0 1 -6.761.125c-.315-1.017-.315-1.017-1.37-1.017h-.246c-.724 0-.793.082-.684.772a5.63 5.63 0 0 0 5.689 4.863zm-.026-8.054c.945 0 1.889-.013 2.834.006.458.01.568-.192.507-.607a3.4 3.4 0 0 0 -6.684 0c-.062.416.052.615.508.605.944-.014 1.889-.001 2.835-.001z" fill="#ece2d8" transform="translate(-4745.838 -1404.737)"/></svg>