<svg xmlns="http://www.w3.org/2000/svg" width="122.658" height="93.332">
    <defs>
        <clipPath id="clip-path">
            <path id="Path_55" data-name="Path 55" class="cls-1" d="M0-400.8h122.658v-93.332H0z" transform="translate(0 494.128)"/>
        </clipPath>
        <style>
            .cls-1{fill:#3c3c3c}
        </style>
    </defs>
    <g id="Group_76" data-name="Group 76" transform="translate(0 494.128)">
        <g id="Group_75" data-name="Group 75" transform="translate(0 -494.128)" style="clip-path:url(#clip-path)">
            <g id="Group_64" data-name="Group 64" transform="translate(21.971 30.04)">
                <path id="Path_44" data-name="Path 44" class="cls-1" d="M-192.744-213.679c-12.2 0-24.392-.02-36.587.027a2.353 2.353 0 0 1-2.269-3.048 24.378 24.378 0 0 1 5.571-9.425 52.367 52.367 0 0 1 5.613-4.875 9.508 9.508 0 0 0 2.114-2.274 1.513 1.513 0 0 0 .3-1.592c-.306-.56-.9-.564-1.465-.564q-7.99 0-15.979-.007a2.032 2.032 0 0 1-1.693-.557 1.647 1.647 0 0 1-.341-1.845 1.6 1.6 0 0 1 1.561-1.042c1.218-.019 2.436-.007 3.654-.007h38.244a3.747 3.747 0 0 1 2.482.846 2.933 2.933 0 0 1 .624 3.991 33.427 33.427 0 0 0-1.942 4.193 14.938 14.938 0 0 0-1.08 4.922c-.062 3.26 1.343 5.49 4.79 6.507a17.55 17.55 0 0 0 6.221.529 20.562 20.562 0 0 0 8.68-2.639 29.734 29.734 0 0 0 5.461-3.966 65.685 65.685 0 0 0 9.861-11.7c3.267-4.732 6.159-9.7 9.077-14.645a17.233 17.233 0 0 0 2.134-5 4.566 4.566 0 0 0 .063-1.6 2.343 2.343 0 0 0-2.358-1.93c-.679-.053-1.361-.069-2.041-.094a1.949 1.949 0 0 1-2-1.692 2.017 2.017 0 0 1 1.655-2.193 2.87 2.87 0 0 1 .579-.064c3.443-.009 6.886-.029 10.328-.012a4.2 4.2 0 0 1 4.282 3.224 7.613 7.613 0 0 1 .236 2.752 13.9 13.9 0 0 1-2.282 6.6 5.243 5.243 0 0 1-1.488 1.521 1.357 1.357 0 0 1-.668.278 1.772 1.772 0 0 0-1.447 1.014 23.657 23.657 0 0 0-2.112 4.538c-1.2 3.124-2.176 6.319-3.123 9.525a2.385 2.385 0 0 0 1.7 3.083 12.254 12.254 0 0 1 3.777 1.976 7.837 7.837 0 0 1 3.185 4.792c.161.9.059 1.137-.629 1.547l-12.631 7.531c-.5.3-1 .6-1.508.892a3.754 3.754 0 0 1-1.91.485q-18.318-.007-36.636 0" transform="translate(237.628 263.438)"/>
            </g>
            <g id="Group_65" data-name="Group 65" transform="translate(16.157 16.225)">
                <path id="Path_45" data-name="Path 45" class="cls-1" d="M-155.941 0h13.4a4.483 4.483 0 0 1 2.13.41 2.943 2.943 0 0 1 1.4 3.547 6.849 6.849 0 0 1-.666 1.72l-8.557 15.849c-1.606 2.969-3.088 6.017-4.872 8.875a13.719 13.719 0 0 1-9.143 6.338 7.1 7.1 0 0 1-1.451.132c-8.135-.006-16.271 0-24.406-.012a4.022 4.022 0 0 1-3.5-1.57 4.07 4.07 0 0 1-.576-3.077 7.8 7.8 0 0 1 .966-2.635l5.944-11.011c2.322-4.3 4.605-8.615 6.984-12.88a10.919 10.919 0 0 1 7.453-5.55 7.07 7.07 0 0 1 1.5-.134q6.7-.015 13.4-.006" transform="translate(192.254 .005)"/>
            </g>
            <g id="Group_66" data-name="Group 66" transform="translate(59.967 16.968)">
                <path id="Path_46" data-name="Path 46" class="cls-1" d="M-60.387-154.676c-1.819 0-3.638.032-5.456-.008a9.407 9.407 0 0 1-5.753-1.8 7.3 7.3 0 0 1-2.826-6.725 14.5 14.5 0 0 1 2.071-6.023q3.642-6.553 7.268-13.114c.857-1.548 1.682-3.114 2.572-4.642a6.8 6.8 0 0 1 4.867-3.619 5.742 5.742 0 0 1 5.18 1.629q4.946 4.869 9.833 9.8a2.51 2.51 0 0 0 1.873.772c2.6 0 5.2-.047 7.792.019a3.163 3.163 0 0 1 2.942 1.845 3.267 3.267 0 0 1-.186 3.343 3.073 3.073 0 0 1-2.606 1.283c-.908.04-1.818.009-2.727.016-2.126.016-4.255-.009-6.379.068a6.8 6.8 0 0 1-4.959-1.863c-1.538-1.365-3.146-2.653-4.732-3.964a1.4 1.4 0 0 0-2.3.469q-2.69 4.911-5.389 9.817a3.409 3.409 0 0 0-.516 1.8 2.092 2.092 0 0 0 2.031 2.079c1.038.033 2.078.015 3.117.026 2.077.022 4.156.012 6.231.087a10.524 10.524 0 0 1 4.339.964 4.131 4.131 0 0 1 2.358 4.714 16.083 16.083 0 0 1-2.161 5.545q-3.58 6.477-7.153 12.958c-.627 1.137-1.241 2.281-1.893 3.4a4.692 4.692 0 0 1-7.692.662 3.569 3.569 0 0 1-.329-3.98q3.667-6.51 7.336-13.019c.1-.184.206-.369.3-.558a1.317 1.317 0 0 0-1.21-1.977c-1.949-.015-3.9 0-5.846 0z" transform="translate(74.45 190.695)"/>
            </g>
            <g id="Group_67" data-name="Group 67" transform="translate(75.506)">
                <path id="Path_47" data-name="Path 47" class="cls-1" d="M-.005-46.26a10.507 10.507 0 0 1 1.938-6.605 9.427 9.427 0 0 1 7.115-4.14 9.642 9.642 0 0 1 8.645 3.95 6.608 6.608 0 0 1 1.366 4.808c-.1 1.065-.587 1.385-1.607 1.094-.763-.218-1.469-.579-2.207-.859a2.49 2.49 0 0 0-3.476 2.71 1.82 1.82 0 0 0 .751 1.258A27.53 27.53 0 0 0 15-42.607a1.675 1.675 0 0 1 .734 2.294 5.309 5.309 0 0 1-2.622 2.637.782.782 0 0 1-.654-.011q-5.7-2.059-11.4-4.1a.664.664 0 0 1-.464-.5 13.9 13.9 0 0 1-.6-3.978" transform="translate(.007 57.033)"/>
            </g>
            <g id="Group_68" data-name="Group 68" transform="translate(92.919 74.22)">
                <path id="Path_48" data-name="Path 48" class="cls-1" d="M-11.9-29.637h1.948c.747 0 .752 0 .74.729a5.609 5.609 0 0 0 1.712 4.35 5.785 5.785 0 0 0 5.753 1.3 8.715 8.715 0 0 0 6.288-7.038 6.334 6.334 0 0 0-.229-2.984c-.092-.263-.087-.44.189-.6q2.141-1.253 4.261-2.542c.343-.209.5-.151.63.224a11.879 11.879 0 0 1 .634 4.927 14.114 14.114 0 0 1-2.606 7.135A14.914 14.914 0 0 1-2.773-17.6a10.342 10.342 0 0 1-8.012-1.9 9.626 9.626 0 0 1-3.646-5.917 13.317 13.317 0 0 1-.192-3.678c.025-.389.142-.578.585-.553.712.04 1.428.011 2.142.011z" transform="translate(14.667 36.539)"/>
            </g>
            <g id="Group_69" data-name="Group 69" transform="translate(32.73 81.114)">
                <path id="Path_49" data-name="Path 49" class="cls-1" d="M-12.037-.035c.7 0 1.4.019 2.094-.007.417-.015.571.106.548.549a5.78 5.78 0 0 0 1.038 3.775A5.34 5.34 0 0 0-4.2 6.567c3.644.26 7.206-2.509 8.271-6.083a.615.615 0 0 1 .711-.525c1.412.016 2.824 0 4.236.008.564 0 .61.045.447.586C7.636 6.641 3.732 10.609-2.554 11.921a9.937 9.937 0 0 1-9.315-2.6 9.769 9.769 0 0 1-2.868-5.769 17.021 17.021 0 0 1-.082-2.917c.011-.608.092-.666.687-.669h2.094" transform="translate(14.841 .043)"/>
            </g>
            <g id="Group_70" data-name="Group 70" transform="translate(13.208 16.225)">
                <path id="Path_50" data-name="Path 50" class="cls-1" d="M-31.66-14.4c-1.914 0-3.828.006-5.741 0A1.559 1.559 0 0 1-39-15.751a1.608 1.608 0 0 1 .978-1.857 2.426 2.426 0 0 1 .906-.149c3.665 0 7.331-.006 11 0a1.664 1.664 0 0 1 1.813 2.133 1.566 1.566 0 0 1-1.609 1.215c-1.914.006-3.828 0-5.741 0" transform="translate(39.032 17.759)"/>
            </g>
            <g id="Group_71" data-name="Group 71" transform="translate(7.322 27.127)">
                <path id="Path_51" data-name="Path 51" class="cls-1" d="M-31.837-14.437c-1.9 0-3.8.012-5.7 0a1.655 1.655 0 0 1-1.613-2.247 1.7 1.7 0 0 1 1.72-1.106q3.921-.006 7.843 0c1.153 0 2.306-.011 3.458 0a1.627 1.627 0 0 1 1.579 1.086 1.729 1.729 0 0 1-.467 1.869 1.742 1.742 0 0 1-1.219.4h-5.6" transform="translate(39.25 17.799)"/>
            </g>
            <g id="Group_72" data-name="Group 72" transform="translate(8.797 76.514)">
                <path id="Path_52" data-name="Path 52" class="cls-1" d="M-31.561-14.107h-5.651a1.6 1.6 0 0 1-1.7-1.614 1.576 1.576 0 0 1 1.691-1.669h11.448a1.591 1.591 0 0 1 1.677 1.636 1.6 1.6 0 0 1-1.67 1.646q-2.9.006-5.8 0" transform="translate(38.911 17.393)"/>
            </g>
            <g id="Group_73" data-name="Group 73" transform="translate(14.706 65.6)">
                <path id="Path_53" data-name="Path 53" class="cls-1" d="M-31.622-14.131h-5.7a1.512 1.512 0 0 1-1.665-1.6 1.528 1.528 0 0 1 1.646-1.684q5.747-.008 11.495 0a1.6 1.6 0 0 1 1.631 1.69 1.568 1.568 0 0 1-1.613 1.592c-1.932.006-3.864 0-5.8 0z" transform="translate(38.986 17.422)"/>
            </g>
            <g id="Group_74" data-name="Group 74" transform="translate(0 38.903)">
                <path id="Path_54" data-name="Path 54" class="cls-1" d="M-31.625-14.09c-1.915 0-3.831.005-5.746 0a1.546 1.546 0 0 1-1.618-1.668 1.571 1.571 0 0 1 1.64-1.609q5.746-.005 11.492 0a1.569 1.569 0 0 1 1.646 1.655 1.567 1.567 0 0 1-1.668 1.627h-5.746z" transform="translate(38.989 17.371)"/>
            </g>
        </g>
    </g>
</svg>
