<svg data-name="icon/Delivery" xmlns="http://www.w3.org/2000/svg" width="24" height="24">
    <path data-name="Path 87" d="M-896.974 5523.7h4.605a1.62 1.62 0 0 1 .732.133.938.938 0 0 1 .481 1.154 2.159 2.159 0 0 1-.229.561l-2.942 5.156c-.552.967-1.062 1.959-1.675 2.889a4.72 4.72 0 0 1-3.144 2.063 2.565 2.565 0 0 1-.5.043h-8.391a1.419 1.419 0 0 1-1.2-.512 1.268 1.268 0 0 1-.2-1 2.452 2.452 0 0 1 .332-.856l2.043-3.583c.8-1.4 1.583-2.8 2.4-4.193a3.742 3.742 0 0 1 2.564-1.8 2.519 2.519 0 0 1 .515-.045h4.606m-11.065 2.368h1.974a.533.533 0 0 0 .553-.395c.1-.393-.161-.694-.623-.694h-3.781a.884.884 0 0 0-.311.048.519.519 0 0 0-.336.6.529.529 0 0 0 .55.438h1.974m-2.009 3.552h1.926a.626.626 0 0 0 .419-.131.544.544 0 0 0 .161-.609.561.561 0 0 0-.543-.353H-911.977a.585.585 0 0 0-.591.36.545.545 0 0 0 .554.731c.653.006 1.306 0 1.959 0m-2.534 3.806h1.975a.525.525 0 0 0 .573-.529.526.526 0 0 0-.566-.539h-3.951a.527.527 0 0 0-.564.523.516.516 0 0 0 .556.543h1.976z" transform="translate(915.114 -5517.699)" style="fill:#fff"/>
    <path data-name="Rectangle 504" style="fill:none" d="M0 0h24v24H0z"/>
</svg>
