<svg xmlns="http://www.w3.org/2000/svg" width="22.874" height="22.864" viewBox="0 0 22.874 22.864">
  <g id="Group_170" data-name="Group 170" transform="translate(-8780.316 -5925.069)">
    <path id="Path_40" data-name="Path 40" d="M8803.178,5936.064a.643.643,0,0,0,.012-.156,9.558,9.558,0,0,0-.145-1.333,10.54,10.54,0,0,0-.4-1.633.3.3,0,0,0-.076-.136h0c-.011-.027,0-.056,0-.083a11.29,11.29,0,0,0-1.481-2.871,2.682,2.682,0,0,0-.333-.432.6.6,0,0,0-.2-.22v0a.773.773,0,0,0-.223-.3,11.237,11.237,0,0,0-1.369-1.314c-.088-.073-.179-.141-.266-.215a9.65,9.65,0,0,0-.982-.67,1.833,1.833,0,0,0-.531-.275.068.068,0,0,1-.059-.03.343.343,0,0,0-.182-.132,12.509,12.509,0,0,0-1.369-.583.314.314,0,0,0-.206-.04l-.263-.083a15.433,15.433,0,0,0-1.526-.352,14,14,0,0,0-1.819-.145,14.9,14.9,0,0,0-1.7.125,13.717,13.717,0,0,0-1.709.4c-.033,0-.066.008-.1,0a.276.276,0,0,0-.123.027,11.7,11.7,0,0,0-1.416.586,1.1,1.1,0,0,0-.351.216l-.026.012a.238.238,0,0,0-.16.054,13.325,13.325,0,0,0-1.322.866c-.113.084-.218.176-.33.26-.185.152-.371.3-.542.472a13.065,13.065,0,0,0-1.009,1.064.991.991,0,0,0-.188.275c-.019.022-.036.045-.053.068-.069.016-.095.078-.132.126a10.934,10.934,0,0,0-.879,1.365,11.452,11.452,0,0,0-.8,1.81c0,.013-.011.027-.015.042-.039.123-.082.245-.119.369a12.781,12.781,0,0,0-.338,1.5,11.085,11.085,0,0,0-.125,1.245,1.039,1.039,0,0,0,.016.156,3.406,3.406,0,0,1,0,.772,6.433,6.433,0,0,0,.105,1.313,10.255,10.255,0,0,0,.413,1.759c.026.084.056.168.082.253a10.858,10.858,0,0,0,.671,1.555,12.035,12.035,0,0,0,1.1,1.721,1.285,1.285,0,0,1,.1.126.411.411,0,0,0,.037.047c.211.246.42.5.645.73a12.593,12.593,0,0,0,1.076.99.713.713,0,0,0,.064.05c.057.043.111.091.168.134a12.251,12.251,0,0,0,1.567,1.014,10.679,10.679,0,0,0,1.409.636,1.063,1.063,0,0,0,.387.107c.105.03.213.06.316.092a15.09,15.09,0,0,0,1.5.35.388.388,0,0,0,.214.066c.469.078.942.078,1.413.115a.2.2,0,0,0,.162-.042c.349-.02.7-.033,1.048-.059.256-.019.513-.055.77-.083a.211.211,0,0,0,.142.006,11.392,11.392,0,0,0,1.523-.371.236.236,0,0,0,.122-.073,1.611,1.611,0,0,1,.318-.112,1.741,1.741,0,0,0,.445-.145c.331-.138.658-.284.975-.453.023-.013.047-.028.07-.044a10.747,10.747,0,0,0,1.287-.8c.068-.053.135-.107.207-.154a12.239,12.239,0,0,0,1.193-1.039c.3-.3.578-.628.855-.952a.874.874,0,0,1,.1-.128,11.008,11.008,0,0,0,1.668-2.989,1.041,1.041,0,0,1,.043-.116c.029-.068.049-.141.074-.21.016-.047.031-.093.047-.138.009-.021.018-.041.025-.062.092-.282.166-.568.235-.856.083-.343.142-.691.194-1.041a9.338,9.338,0,0,0,.1-.99.8.8,0,0,0-.015-.129A4.535,4.535,0,0,1,8803.178,5936.064Zm-7.573,1.8c-.54.8-1.151,1.539-1.736,2.3-.723.941-1.413,1.907-2.042,2.915-.037.06-.059.141-.136.018a43.281,43.281,0,0,0-2.851-3.964,12.99,12.99,0,0,1-1.429-2.108,5.226,5.226,0,0,1,.474-5.476,4.6,4.6,0,0,1,3.063-1.721,5.056,5.056,0,0,1,3.565.719,4.547,4.547,0,0,1,2.084,3.35,5.452,5.452,0,0,1-.993,3.968Z" transform="translate(0 0)" fill="#b7253a"/>
    <path id="Path_41" data-name="Path 41" d="M9079.549,6157.259a2.888,2.888,0,1,0,2.89,2.887A2.887,2.887,0,0,0,9079.549,6157.259Z" transform="translate(-287.796 -225.492)" fill="#b7253a"/>
  </g>
</svg>
