<svg xmlns="http://www.w3.org/2000/svg" xmlns:xlink="http://www.w3.org/1999/xlink" width="31.434" height="19.979" viewBox="0 0 31.434 19.979">
  <defs>
    <clipPath id="clip-path">
      <path id="Path_146" data-name="Path 146" d="M0,12.155H31.434V-7.824H0Z" transform="translate(0 7.824)" fill="none"/>
    </clipPath>
  </defs>
  <g id="Group_337" data-name="Group 337" transform="translate(0 7.824)">
    <g id="Group_336" data-name="Group 336" transform="translate(0 -7.824)" clip-path="url(#clip-path)">
      <g id="Group_330" data-name="Group 330" transform="translate(15.777 0.001)">
        <path id="Path_140" data-name="Path 140" d="M.2,2.5.182,2.494A.571.571,0,0,1-.1,1.779L.785-1.143a.686.686,0,0,1,.289-.386.48.48,0,0,1,.421-.054l.444.158a.489.489,0,0,1,.3.327.691.691,0,0,1-.043.5L.866,2.164A.559.559,0,0,1,.2,2.5" transform="translate(0.127 1.608)" fill="#2b2e34"/>
      </g>
      <g id="Group_331" data-name="Group 331" transform="translate(0.345 2.226)">
        <path id="Path_141" data-name="Path 141" d="M0,10.59A6.525,6.525,0,0,0,2.811,9.107,16.728,16.728,0,0,0,7.1,3.887C8.327,1.714,8.82-.77,9.846-3.033a7.243,7.243,0,0,1,2.819-3.521,3.767,3.767,0,0,1,3.7.646c2.6,1.943,1.3,5.074-.276,7.193A23.318,23.318,0,0,1,5.306,9.423,22.355,22.355,0,0,1,0,10.59" transform="translate(0 6.817)" fill="#ff8535"/>
      </g>
      <g id="Group_332" data-name="Group 332" transform="translate(0.001 1.881)">
        <path id="Path_142" data-name="Path 142" d="M.189,11.009a.345.345,0,0,1,0-.687A6.341,6.341,0,0,0,2.824,8.908a16.323,16.323,0,0,0,4.2-5.115A23.237,23.237,0,0,0,8.636-.137c.335-.981.679-2,1.118-2.962a7.334,7.334,0,0,1,2.972-3.685,4.091,4.091,0,0,1,4.065.674,3.846,3.846,0,0,1,1.563,3.858,9.082,9.082,0,0,1-1.77,3.82A23.492,23.492,0,0,1,5.643,9.824,22.7,22.7,0,0,1,.255,11.009a.289.289,0,0,1-.066,0M14.315-6.383a2.238,2.238,0,0,0-1.267.209,6.721,6.721,0,0,0-2.666,3.36C9.959-1.878,9.619-.88,9.29.085A23.62,23.62,0,0,1,7.625,4.132,16.965,16.965,0,0,1,3.243,9.457c-.2.151-.432.329-.689.511a22.015,22.015,0,0,0,2.86-.794A22.794,22.794,0,0,0,16.031,1.155c1-1.346,3.044-4.7.347-6.713a4.336,4.336,0,0,0-2.063-.825" transform="translate(0.122 7.087)" fill="#2b2e34"/>
      </g>
      <g id="Group_333" data-name="Group 333" transform="translate(28.677 0.001)">
        <path id="Path_143" data-name="Path 143" d="M.2,2.5.182,2.494A.571.571,0,0,1-.1,1.779L.785-1.143a.686.686,0,0,1,.289-.386.48.48,0,0,1,.421-.054l.444.158a.489.489,0,0,1,.3.327.691.691,0,0,1-.043.5L.866,2.164A.559.559,0,0,1,.2,2.5" transform="translate(0.127 1.608)" fill="#2b2e34"/>
      </g>
      <g id="Group_334" data-name="Group 334" transform="translate(13.245 2.226)">
        <path id="Path_144" data-name="Path 144" d="M0,10.59A6.525,6.525,0,0,0,2.811,9.107,16.728,16.728,0,0,0,7.1,3.887C8.327,1.714,8.82-.77,9.846-3.033a7.243,7.243,0,0,1,2.819-3.521,3.767,3.767,0,0,1,3.7.646c2.6,1.943,1.3,5.074-.276,7.193A23.318,23.318,0,0,1,5.306,9.423,22.355,22.355,0,0,1,0,10.59" transform="translate(0 6.817)" fill="#ff8535"/>
      </g>
      <g id="Group_335" data-name="Group 335" transform="translate(12.901 1.881)">
        <path id="Path_145" data-name="Path 145" d="M.189,11.009a.345.345,0,0,1,0-.687A6.341,6.341,0,0,0,2.824,8.908a16.323,16.323,0,0,0,4.2-5.115A23.237,23.237,0,0,0,8.636-.137c.335-.981.679-2,1.118-2.962a7.334,7.334,0,0,1,2.972-3.685,4.091,4.091,0,0,1,4.065.674,3.846,3.846,0,0,1,1.563,3.858,9.082,9.082,0,0,1-1.77,3.82A23.492,23.492,0,0,1,5.643,9.824,22.7,22.7,0,0,1,.255,11.009a.289.289,0,0,1-.066,0M14.315-6.383a2.238,2.238,0,0,0-1.267.209,6.721,6.721,0,0,0-2.666,3.36C9.959-1.878,9.619-.88,9.29.085A23.62,23.62,0,0,1,7.625,4.132,16.965,16.965,0,0,1,3.243,9.457c-.2.151-.432.329-.689.511a22.015,22.015,0,0,0,2.86-.794A22.794,22.794,0,0,0,16.031,1.155c1-1.346,3.044-4.7.347-6.713a4.336,4.336,0,0,0-2.063-.825" transform="translate(0.122 7.087)" fill="#2b2e34"/>
      </g>
    </g>
  </g>
</svg>
