<svg xmlns="http://www.w3.org/2000/svg" width="25" height="25.008">
    <g data-name="Icon/Locate">
        <path data-name="Rectangle 448" style="fill:none" d="M0 0h24v24H0z" transform="translate(.5 .508)"/>
        <path data-name="Union 1" d="M10.763 22.7c-.007-.971-.009-1.941 0-2.912a1.241 1.241 0 0 1 1.572-1.281 1.269 1.269 0 0 1 .9 1.273c.008.493 0 .987 0 1.48v1.431A1.264 1.264 0 0 1 12 24a1.247 1.247 0 0 1-1.237-1.3zm3.161-.8v-.913c0-.305.008-.625 0-.938a.272.272 0 0 1 .24-.309 7.972 7.972 0 0 0 5.054-4.181 6.259 6.259 0 0 0 .522-1.381.281.281 0 0 1 .321-.257c.392.006.784 0 1.176 0h.674c.294 0 .318.028.251.314a10.263 10.263 0 0 1-5.205 6.914 9.691 9.691 0 0 1-2.72 1 .945.945 0 0 1-.181.028c-.118.011-.131-.06-.132-.277zm-4.14.266a10.279 10.279 0 0 1-5.4-3.071 10.182 10.182 0 0 1-2.543-4.852c-.066-.3-.054-.317.265-.318h.888c.312 0 .624.008.937 0a.286.286 0 0 1 .33.244 7.94 7.94 0 0 0 3.813 4.851 7.086 7.086 0 0 0 1.751.719.282.282 0 0 1 .254.321q-.014.937 0 1.875c0 .179-.046.251-.171.251a.57.57 0 0 1-.124-.019zM12 15.6a3.6 3.6 0 1 1 3.606-3.6 3.629 3.629 0 0 1-3.58 3.6zm7.713-2.368a1.211 1.211 0 0 1-1.15-.751 1.154 1.154 0 0 1 .2-1.288 1.238 1.238 0 0 1 .982-.432c1-.006 2-.013 3.005 0A1.236 1.236 0 0 1 24 12.005a1.267 1.267 0 0 1-1.281 1.235h-2.396c-.202.004-.406.002-.609-.003zm-16.952 0h-1.43a1.24 1.24 0 1 1-.017-2.475c.969-.006 1.938-.01 2.908 0A1.238 1.238 0 0 1 5.5 12.321a1.26 1.26 0 0 1-1.231.918h-.547c-.322.004-.641.001-.96.001zm16.974-3.408a7.919 7.919 0 0 0-5.473-5.538c-.256-.08-.368-.182-.343-.455s0-.559 0-.839V2.08c0-.284.021-.3.3-.244a9.936 9.936 0 0 1 3.254 1.307 10.252 10.252 0 0 1 4.679 6.594c.074.32.055.338-.27.339H20.067a.3.3 0 0 1-.332-.252zm-15.8.256c-.4-.007-.79-.006-1.184 0h-.594c-.373 0-.391-.019-.308-.374A10.384 10.384 0 0 1 9.7 1.85c.353-.083.375-.064.376.306v.864c0 .288-.01.592 0 .888.011.209-.066.3-.271.361a7.966 7.966 0 0 0-5.046 4.224 6.209 6.209 0 0 0-.5 1.337.281.281 0 0 1-.318.25zm6.991-5.18a1.425 1.425 0 0 1-.163-.712V2.734c0-.493-.013-.986 0-1.479a1.206 1.206 0 0 1 .709-1.126 1.174 1.174 0 0 1 1.3.152 1.189 1.189 0 0 1 .465.965c.01 1 .012 2 0 3.006a1.247 1.247 0 0 1-.928 1.248 1.312 1.312 0 0 1-.318.04 1.217 1.217 0 0 1-1.065-.64z" style="fill:#3c3c3c;stroke:transparent;stroke-miterlimit:10" transform="translate(.5 .508)"/>
    </g>
</svg>
