<svg data-name="Icon/Light" xmlns="http://www.w3.org/2000/svg" width="24" height="24">
    <defs>
        <clipPath id="a">
            <path data-name="Path 135" d="M0 16.3h24v-24H0z" transform="translate(0 7.697)" style="fill:none"/>
        </clipPath>
    </defs>
    <g data-name="Group 323" style="clip-path:url(#a)">
        <g data-name="Group 320">
            <path data-name="Path 132" d="M15.841 6.419a5 5 0 0 0-2.794-3.58 5 5 0 0 0-6.71-4.524A5 5 0 0 0-1.611-.142 4.994 4.994 0 0 0-5.58 2.06a5 5 0 0 0-.555 4.509 5 5 0 0 0-1.25 4.365 5 5 0 0 0 2.794 3.58 5.016 5.016 0 0 0 2.2 3.972 4.994 4.994 0 0 0 4.506.552 5 5 0 0 0 7.948-1.543 5 5 0 0 0 4.524-6.71 5 5 0 0 0 1.25-4.365" transform="translate(7.906 3.427)" style="fill:#ffd53b"/>
        </g>
        <g data-name="Group 321">
            <path data-name="Path 133" d="m6.766 14.96.131.122a4.71 4.71 0 0 0 7.48-1.453l.075-.162.181-.006a4.712 4.712 0 0 0 4.259-6.314l-.062-.168.122-.134A4.707 4.707 0 0 0 17.5-.633l-.162-.075-.008-.181a4.731 4.731 0 0 0-2.074-3.739 4.727 4.727 0 0 0-4.241-.521l-.171.062-.131-.125A4.727 4.727 0 0 0 6.6-6.386a4.725 4.725 0 0 0-3.364 2.632l-.078.162-.178.006A4.731 4.731 0 0 0-.758-1.512a4.726 4.726 0 0 0-.521 4.241l.062.168-.125.134a4.712 4.712 0 0 0 1.453 7.477l.165.075.006.181A4.712 4.712 0 0 0 6.6 15.023zm4.353 1.88a5.319 5.319 0 0 1-4.49-1.207A5.294 5.294 0 0 1-.3 10.963a5.3 5.3 0 0 1-1.6-8.2 5.314 5.314 0 0 1 .645-4.6 5.317 5.317 0 0 1 4.032-2.329 5.321 5.321 0 0 1 3.714-2.8 5.321 5.321 0 0 1 4.493 1.2 5.327 5.327 0 0 1 4.6.645 5.326 5.326 0 0 1 2.326 4.033 5.3 5.3 0 0 1 1.593 8.2 5.3 5.3 0 0 1-4.671 6.925 5.329 5.329 0 0 1-3.714 2.8" transform="translate(3.194 7.063)" style="fill:#2b2e34"/>
        </g>
        <g data-name="Group 322">
            <path data-name="Path 134" d="M6.753.053a4.242 4.242 0 0 0-2.95 2.2A4.244 4.244 0 0 0-3.11 6.3c0 .012.006.025.009.041.739 4.131 9.092 7.165 9.092 7.165s6.657-5.981 5.737-10.09A4.246 4.246 0 0 0 6.753.053" transform="translate(7.526 5.754)" style="fill:#ff5038"/>
        </g>
    </g>
</svg>
