<?xml version="1.0" encoding="UTF-8"?>
<svg width="24px" height="24px" viewBox="0 0 24 24" version="1.1" xmlns="http://www.w3.org/2000/svg" xmlns:xlink="http://www.w3.org/1999/xlink">
    <!-- Generator: Sketch 51.2 (57519) - http://www.bohemiancoding.com/sketch -->
    <title>icon-mc2</title>
    <desc>Created with Sketch.</desc>
    <defs></defs>
    <g id="icon-mc2" stroke="none" stroke-width="1" fill="none" fill-rule="evenodd">
        <rect id="Rectangle-3" x="0" y="0" width="24" height="24"></rect>
        <path d="M24,18 C24,19.1 23.1,20 22,20 L2,20 C0.9,20 0,19.1 0,18 L0,6 C0,4.9 0.9,4 2,4 L22,4 C23.1,4 24,4.9 24,6 L24,18 Z" id="Shape" fill="#2B2929" fill-rule="nonzero"></path>
        <polyline id="Shape" fill="#FF5F00" fill-rule="nonzero" points="13.323 7.27558333 9.4128 7.27558333 9.4128 14.0935833 13.323 14.0935833"></polyline>
        <path d="M9.66,10.68575 C9.66,9.29975 10.3308,8.07125 11.361,7.27558333 C10.602,6.69866667 9.6468,6.34866667 8.6052,6.34866667 C6.1338,6.34866667 4.1352,8.28766667 4.1352,10.6851667 C4.1352,13.0809167 6.1338,15.0205 8.6052,15.0205 C9.6468,15.0205 10.602,14.6716667 11.361,14.093 C10.3296,13.3101667 9.6594,12.0694167 9.6594,10.6845833 L9.66,10.68575 Z" id="Shape" fill="#EB001B" fill-rule="nonzero"></path>
        <path d="M18.5976,10.68575 C18.5976,13.0815 16.5978,15.0210833 14.1282,15.0210833 C13.086,15.0210833 12.1296,14.67225 11.3724,14.0935833 C12.4146,13.2990833 13.0728,12.07 13.0728,10.6851667 C13.0728,9.29916667 12.4026,8.07066667 11.3724,7.275 C12.1296,6.69808333 13.086,6.34808333 14.1282,6.34808333 C16.5978,6.34808333 18.5976,8.29991667 18.5976,10.6845833 L18.5976,10.68575 Z" id="Shape" fill="#F79E1B" fill-rule="nonzero"></path>
        <path d="M4.87727467,18.4276192 L4.87727467,17.3412026 C4.87727467,16.9232686 4.6146641,16.6510024 4.16354056,16.6510024 C3.93797879,16.6510024 3.69280295,16.722512 3.52390404,16.959818 C3.39150909,16.7595911 3.20408578,16.6510024 2.92240599,16.6510024 C2.73389301,16.6510024 2.54592487,16.7055616 2.39555035,16.9052588 L2.39555035,16.6880814 L2,16.6880814 L2,18.4276192 L2.39555035,18.4276192 L2.39555035,17.4672714 C2.39555035,17.1589855 2.56390443,17.0138475 2.8281495,17.0138475 C3.09076006,17.0138475 3.22315501,17.1775251 3.22315501,17.4678012 L3.22315501,18.4276192 L3.61816053,18.4276192 L3.61816053,17.4672714 C3.61816053,17.1589855 3.80776318,17.0138475 4.05130451,17.0138475 C4.31609441,17.0138475 4.44685486,17.1775251 4.44685486,17.4678012 L4.44685486,18.4276192 L4.87945401,18.4276192 L4.87727467,18.4276192 Z M10.7298943,16.6880814 L10.089713,16.6880814 L10.089713,16.1620885 L9.69361779,16.1620885 L9.69361779,16.6880814 L9.33675074,16.6880814 L9.33675074,17.0313276 L9.69361779,17.0313276 L9.69361779,17.8290572 C9.69361779,18.2289813 9.86360637,18.4646982 10.3141851,18.4646982 C10.4847185,18.4646982 10.6726866,18.4106687 10.8034471,18.3365106 L10.6917559,18.0112743 C10.578975,18.0833136 10.44658,18.1023828 10.3523235,18.1023828 C10.1649002,18.1023828 10.089713,17.9927347 10.089713,17.8121067 L10.089713,17.032387 L10.7298943,17.032387 L10.7298943,16.6886111 L10.7298943,16.6880814 Z M14.0773618,16.6510024 C13.8518,16.6510024 13.7019703,16.7595911 13.6077138,16.9052588 L13.6077138,16.6880814 L13.2121635,16.6880814 L13.2121635,18.4276192 L13.6077138,18.4276192 L13.6077138,17.4487319 C13.6077138,17.1589855 13.7401088,16.995308 13.984195,16.995308 C14.0582925,16.995308 14.1530939,17.0138475 14.2282811,17.032387 L14.3416068,16.6695419 C14.2669644,16.6510024 14.1530939,16.6510024 14.0768169,16.6510024 L14.0773618,16.6510024 Z M9.01693248,16.8321601 C8.82896434,16.7050319 8.56580894,16.6510024 8.28303947,16.6510024 C7.83082626,16.6510024 7.53007723,16.8687095 7.53007723,17.213015 C7.53007723,17.5032911 7.75727351,17.666439 8.15064452,17.7204685 L8.340792,17.739008 C8.54728454,17.7750277 8.65897576,17.8290572 8.65897576,17.9201657 C8.65897576,18.0483533 8.50860124,18.1378728 8.24599068,18.1378728 C7.98120077,18.1378728 7.7741634,18.0478236 7.64340295,17.9567151 L7.45488997,18.2464614 C7.66192735,18.3905401 7.94306231,18.4636388 8.22583177,18.4636388 C8.75268741,18.4636388 9.0528916,18.2284516 9.0528916,17.9016262 C9.0528916,17.5943997 8.80880543,17.4307221 8.43232431,17.3761629 L8.24490101,17.3581531 C8.07545726,17.3401432 7.94360714,17.3041236 7.94360714,17.1955349 C7.94360714,17.067877 8.0760021,16.995308 8.28303947,16.995308 C8.50751157,16.995308 8.73361818,17.0864165 8.8469439,17.1409757 L9.01638764,16.8321601 L9.01693248,16.8321601 Z M19.514817,16.6510024 C19.2887104,16.6510024 19.1383359,16.7595911 19.0451691,16.9052588 L19.0451691,16.6880814 L18.6496187,16.6880814 L18.6496187,18.4276192 L19.0451691,18.4276192 L19.0451691,17.4487319 C19.0451691,17.1589855 19.177564,16.995308 19.4216502,16.995308 C19.4957478,16.995308 19.5894594,17.0138475 19.6641019,17.032387 L19.7774276,16.6695419 C19.7038748,16.6510024 19.5905491,16.6510024 19.514817,16.6510024 Z M14.4729121,17.5573206 C14.4729121,18.0849027 14.8493932,18.4646982 15.4323669,18.4646982 C15.696612,18.4646982 15.8840353,18.4106687 16.0725483,18.2644713 L15.8840353,17.9572448 C15.7331159,18.0658334 15.5827414,18.1203926 15.4127528,18.1203926 C15.0940242,18.1203926 14.8684625,17.9026856 14.8684625,17.55838 C14.8684625,17.2331437 15.0940242,17.0143772 15.4143873,16.9968971 C15.5827414,16.9968971 15.7331159,17.0514563 15.8840353,17.1605746 L16.0725483,16.8522887 C15.8840353,16.7071507 15.6960671,16.6525915 15.4323669,16.6525915 C14.8493932,16.6525915 14.4729121,17.0339761 14.4729121,17.5589097 L14.4729121,17.5573206 Z M18.1227631,17.5573206 L18.1227631,16.6886111 L17.7261231,16.6886111 L17.7261231,16.9057885 C17.5953626,16.7426406 17.4073945,16.6515321 17.1633083,16.6515321 C16.6549771,16.6515321 16.2594267,17.0329167 16.2594267,17.55838 C16.2594267,18.0854324 16.6549771,18.4652279 17.1627635,18.4652279 C17.4248292,18.4652279 17.6133422,18.3751788 17.7250334,18.2120309 L17.7250334,18.4292083 L18.1222183,18.4292083 L18.1222183,17.55838 L18.1227631,17.5573206 Z M16.6735015,17.5573206 C16.6735015,17.2506238 16.8794492,16.9963674 17.2188815,16.9963674 C17.5386998,16.9963674 17.7648064,17.2320843 17.7648064,17.55838 C17.7648064,17.8677253 17.5386998,18.1209223 17.2188815,18.1209223 C16.8794492,18.1034422 16.6735015,17.8677253 16.6735015,17.5589097 L16.6735015,17.5573206 Z M11.9497803,16.6515321 C11.4240144,16.6515321 11.0486229,17.0143772 11.0486229,17.55838 C11.0486229,18.1034422 11.4240144,18.4652279 11.9699392,18.4652279 C12.2347291,18.4652279 12.4978845,18.3937183 12.7043771,18.2300407 L12.5164089,17.9583042 C12.3671241,18.0663631 12.1769766,18.1394619 11.9900981,18.1394619 C11.7449223,18.1394619 11.5002913,18.0308732 11.4436284,17.7220576 L12.7795643,17.7220576 L12.7795643,17.5785086 C12.7980887,17.0154366 12.4592012,16.6525915 11.95087,16.6525915 L11.9497803,16.6515321 Z M11.9497803,16.9799466 C12.1960458,16.9799466 12.3654896,17.1234956 12.4030832,17.3952321 L11.4621528,17.3952321 C11.4992016,17.1595152 11.6691902,16.9799466 11.9497803,16.9799466 Z M21.753,17.55838 L21.753,16 L21.3558151,16 L21.3558151,16.9068479 C21.2255995,16.7437 21.0376314,16.6525915 20.7935452,16.6525915 C20.2846691,16.6525915 19.8896636,17.0339761 19.8896636,17.5589097 C19.8896636,18.0864918 20.2846691,18.4662873 20.7930004,18.4662873 C21.055611,18.4662873 21.2435791,18.3757085 21.3547255,18.2130903 L21.3547255,18.4302677 L21.7524552,18.4302677 L21.7524552,17.5589097 L21.753,17.55838 Z M20.3037384,17.55838 C20.3037384,17.2516832 20.5107758,16.9968971 20.8502081,16.9968971 C21.1689367,16.9968971 21.3961329,17.2331437 21.3961329,17.5589097 C21.3961329,17.8687847 21.1689367,18.1219817 20.8502081,18.1219817 C20.5107758,18.1039719 20.3037384,17.8687847 20.3037384,17.5599691 L20.3037384,17.55838 Z M7.09475391,17.55838 L7.09475391,16.6896706 L6.7013829,16.6896706 L6.7013829,16.9068479 C6.56898795,16.7437 6.38156464,16.6525915 6.1363888,16.6525915 C5.62805756,16.6525915 5.23305205,17.0339761 5.23305205,17.5589097 C5.23305205,18.0864918 5.62805756,18.4662873 6.13584397,18.4662873 C6.39899937,18.4662873 6.58642267,18.3757085 6.69974839,18.2130903 L6.69974839,18.4302677 L7.09420907,18.4302677 L7.09420907,17.5589097 L7.09475391,17.55838 Z M5.6286024,17.55838 C5.6286024,17.2516832 5.83563977,16.9968971 6.17452727,16.9968971 C6.49380069,16.9968971 6.72045213,17.2331437 6.72045213,17.5589097 C6.72045213,17.8687847 6.49380069,18.1219817 6.17452727,18.1219817 C5.83563977,18.1039719 5.6286024,17.8687847 5.6286024,17.5599691 L5.6286024,17.55838 Z" id="Shape" fill="#FFFFFF" fill-rule="nonzero"></path>
    </g>
</svg>