<svg xmlns="http://www.w3.org/2000/svg" width="59.867" height="94.131" viewBox="0 0 59.867 94.131">
    <defs>
        <style>
            .cls-1{fill:#e02f2f}.cls-2{fill:#2e2e2d}.cls-4{fill:#ffb400}.cls-5{fill:#fff}
        </style>
    </defs>
    <g id="Group_2585" data-name="Group 2585" transform="translate(538.939 -1095.453)">
        <path id="Path_3469" data-name="Path 3469" class="cls-1" d="M-506.911 1172.517c-1.351-.02-2.7.02-4.048.125a48.963 48.963 0 0 0-8.586 1.5 51.046 51.046 0 0 0-7.822 2.742c-1.134.5-2.265 1.037-3.345 1.647-1.782 1-3.795 1.936-4.982 3.681a5 5 0 0 0 .508 6.175 10.633 10.633 0 0 0 2.98 2.511 20.625 20.625 0 0 0 6.235 2.113c5.887 1.21 11.963 1.114 17.944 1.09 4.336-.019 8.676-.073 13.01-.273 4.7-.217 10.055-.572 13.876-3.734 2.027-1.677 3.485-4.709 2.269-7.262-.92-1.933-2.968-2.861-4.725-3.877a47.5 47.5 0 0 0-10.033-4.323 48.6 48.6 0 0 0-13.28-2.11" transform="translate(-1.935 -62.183)"/>
        <path id="Path_3470" data-name="Path 3470" class="cls-2" d="M-515.071 1192.621a66.843 66.843 0 0 1-12.93-1.105 21.306 21.306 0 0 1-6.374-2.167 11.143 11.143 0 0 1-3.11-2.623 5.458 5.458 0 0 1-.53-6.728 11.808 11.808 0 0 1 4.4-3.415c.248-.136.5-.272.738-.41 1.2-.674 2.438-1.245 3.384-1.667a51.743 51.743 0 0 1 7.894-2.767 49.639 49.639 0 0 1 8.667-1.509 45.84 45.84 0 0 1 4.092-.127 48.893 48.893 0 0 1 13.408 2.13 47.987 47.987 0 0 1 10.132 4.367c.231.134.469.267.708.4 1.567.877 3.342 1.87 4.2 3.68 1.309 2.75-.212 6.016-2.392 7.82-4.077 3.376-9.9 3.645-14.152 3.84-4.579.212-9.156.257-13.029.273h-.925c-1.386.006-2.783.013-4.186 0m5.892-21.589a42.685 42.685 0 0 0-3.679.127 48.7 48.7 0 0 0-8.5 1.483 50.658 50.658 0 0 0-7.752 2.717c-.927.412-2.142.971-3.3 1.626-.246.139-.5.277-.749.415a11.125 11.125 0 0 0-4.078 3.123 4.516 4.516 0 0 0 .487 5.622 10.172 10.172 0 0 0 2.849 2.4 20.465 20.465 0 0 0 6.1 2.061c5.536 1.137 11.325 1.109 16.923 1.083h.926c3.864-.016 8.429-.061 12.991-.272 4.119-.19 9.763-.451 13.6-3.628 1.9-1.576 3.251-4.383 2.146-6.7-.735-1.542-2.3-2.418-3.818-3.267-.243-.136-.485-.271-.72-.408a47.041 47.041 0 0 0-9.935-4.281 47.971 47.971 0 0 0-13.152-2.089h-.327" transform="translate(0 -60.235)"/>
        <path id="Path_3471" data-name="Path 3471" class="cls-1" d="m-442.433 1113.6 5.442-12.074a6.228 6.228 0 0 1 5.726-3.669 6.23 6.23 0 0 1 5.667 3.753l5.214 12.038" transform="translate(-77.875 -1.943)"/>
        <path id="Path_3472" data-name="Path 3472" class="cls-2" d="m-443.781 1111.852-.849-.382 5.442-12.074a6.7 6.7 0 0 1 6.154-3.943 6.7 6.7 0 0 1 6.091 4.033l5.214 12.038-.855.37-5.214-12.038a5.766 5.766 0 0 0-5.243-3.472 5.765 5.765 0 0 0-5.3 3.394z" transform="translate(-76.102)"/>
        <path id="Path_3473" data-name="Path 3473" d="M-524.241 1237.18a.1.1 0 0 0 0-.019l-.929-.072c.013-.172.233-1.723 3.787-3.162 4.552-1.843 12.408-2.739 23.35-2.662h.14c8.056.062 14.437.642 18.97 1.723 3.232.771 5.463 1.774 6.628 2.983a2.288 2.288 0 0 1 .794 1.539l-.93-.027a.135.135 0 0 0 0 .02c0-.052-.59-5.114-25.468-5.306h-.14c-25.069-.175-26.2 4.932-26.2 4.984" transform="translate(-11.113 -109.59)" style="fill:#161615"/>
        <path id="Path_3474" data-name="Path 3474" class="cls-4" d="M-385.943 1117.23a.516.516 0 0 1-.52.511.514.514 0 0 1-.511-.519.516.516 0 0 1 .52-.513.516.516 0 0 1 .511.52" transform="translate(-122.628 -17.153)"/>
        <path id="Path_3475" data-name="Path 3475" class="cls-4" d="M-387.247 1158.381a.516.516 0 0 1 .52-.511.515.515 0 0 1 .511.519.516.516 0 0 1-.52.512.516.516 0 0 1-.511-.52" transform="translate(-122.407 -50.367)"/>
        <path id="Path_3476" data-name="Path 3476" class="cls-4" d="M-405.359 1125.822a.516.516 0 0 1-.52.511.514.514 0 0 1-.511-.519.516.516 0 0 1 .519-.513.517.517 0 0 1 .512.52" transform="translate(-106.96 -24.087)"/>
        <path id="Path_3477" data-name="Path 3477" class="cls-4" d="M-366.616 1126.121a.516.516 0 0 1-.519.511.515.515 0 0 1-.512-.518.517.517 0 0 1 .52-.513.516.516 0 0 1 .511.52" transform="translate(-138.224 -24.328)"/>
        <path id="Path_3478" data-name="Path 3478" class="cls-4" d="M-405.543 1149.494a.516.516 0 0 1-.52.511.515.515 0 0 1-.511-.519.516.516 0 0 1 .52-.512.516.516 0 0 1 .511.52" transform="translate(-106.811 -43.189)"/>
        <path id="Path_3479" data-name="Path 3479" class="cls-4" d="M-366.8 1149.794a.516.516 0 0 1-.52.511.515.515 0 0 1-.511-.519.516.516 0 0 1 .52-.513.516.516 0 0 1 .511.52" transform="translate(-138.076 -43.431)"/>
        <path id="Path_3480" data-name="Path 3480" class="cls-4" d="M-401.926 1137.51c-.407 0-.864-.2-.859-.744s.464-.734.871-.73a4.345 4.345 0 0 1 2.013.6.17.17 0 0 1 0 .3 4.349 4.349 0 0 1-2.022.573" transform="translate(-109.869 -32.749)"/>
        <path id="Path_3481" data-name="Path 3481" class="cls-4" d="M-379.382 1136.247c.407 0 .864.2.859.744s-.464.734-.871.73a4.351 4.351 0 0 1-2.014-.6.17.17 0 0 1 0-.3 4.358 4.358 0 0 1 2.023-.573" transform="translate(-127.05 -32.918)"/>
        <path id="Path_3482" data-name="Path 3482" class="cls-4" d="M-394.148 1144.6a.763.763 0 0 1-1.074.372.76.76 0 0 1-.2-1.12 4.359 4.359 0 0 1 1.53-1.443.171.171 0 0 1 .256.151 4.365 4.365 0 0 1-.515 2.038" transform="translate(-115.685 -37.87)"/>
        <path id="Path_3483" data-name="Path 3483" class="cls-4" d="M-382.869 1124.069a.763.763 0 0 1 1.074-.372.76.76 0 0 1 .2 1.12 4.368 4.368 0 0 1-1.53 1.443.171.171 0 0 1-.256-.151 4.366 4.366 0 0 1 .515-2.038" transform="translate(-125.524 -22.705)"/>
        <path id="Path_3484" data-name="Path 3484" class="cls-4" d="M-381.672 1143.9a.764.764 0 0 1-.214 1.117.76.76 0 0 1-1.068-.389 4.362 4.362 0 0 1-.485-2.046.171.171 0 0 1 .26-.147 4.366 4.366 0 0 1 1.508 1.465" transform="translate(-125.48 -37.894)"/>
        <path id="Path_3485" data-name="Path 3485" class="cls-4" d="M-395.225 1124.69a.764.764 0 0 1 .214-1.117.76.76 0 0 1 1.068.39 4.362 4.362 0 0 1 .485 2.046.171.171 0 0 1-.259.147 4.357 4.357 0 0 1-1.509-1.465" transform="translate(-115.85 -22.608)"/>
        <path id="Path_3486" data-name="Path 3486" class="cls-4" d="M-478.873 1182.828c-.92-1.933-2.968-2.861-4.724-3.878a47.513 47.513 0 0 0-10.034-4.323 48.583 48.583 0 0 0-13.279-2.11q-2.029-.03-4.049.125a49 49 0 0 0-8.585 1.5 51.068 51.068 0 0 0-7.823 2.742 37.82 37.82 0 0 0-3.344 1.647c-1.782 1.005-3.794 1.936-4.982 3.681a5 5 0 0 0 .508 6.175 9.759 9.759 0 0 0 1.306 1.334c.008-.094.656-5.575 26.667-5.393 26.236.182 26.071 5.767 26.071 5.767 2.026-1.677 3.486-4.709 2.269-7.262" transform="translate(-1.934 -62.183)"/>
        <path id="Path_3487" data-name="Path 3487" class="cls-2" d="m-483.672 1189.242.129-1.1c-.037-.25-1.106-5.108-25.466-5.3h-.14c-25.07-.175-26.195 4.932-26.2 4.984l-.086.885-.678-.587a10.171 10.171 0 0 1-1.367-1.4 5.457 5.457 0 0 1-.53-6.728 11.8 11.8 0 0 1 4.4-3.415c.247-.136.495-.272.738-.41 1.2-.674 2.437-1.245 3.384-1.667a51.828 51.828 0 0 1 7.894-2.767 49.615 49.615 0 0 1 8.669-1.509c1.342-.1 2.718-.146 4.091-.127a48.883 48.883 0 0 1 13.408 2.13 47.929 47.929 0 0 1 10.126 4.369c.232.134.47.267.709.4 1.567.877 3.343 1.87 4.2 3.68 1.31 2.75-.212 6.016-2.392 7.82zm-25.507-18.209a42.271 42.271 0 0 0-3.679.128 48.61 48.61 0 0 0-8.5 1.482 50.643 50.643 0 0 0-7.75 2.717c-.929.412-2.144.971-3.306 1.626-.246.139-.5.277-.748.415a11.116 11.116 0 0 0-4.078 3.123 4.516 4.516 0 0 0 .487 5.622 9.08 9.08 0 0 0 .768.84c1.034-1.638 5.71-5.222 26.846-5.074h.141c8.056.062 14.436.641 18.97 1.722 3.232.771 5.462 1.775 6.628 2.984a3.466 3.466 0 0 1 .537.706c1.623-1.623 2.645-4.135 1.641-6.243-.735-1.542-2.3-2.418-3.818-3.267-.243-.136-.485-.271-.72-.408a47.081 47.081 0 0 0-9.935-4.281 47.977 47.977 0 0 0-13.152-2.089h-.327" transform="translate(0 -60.237)"/>
        <path id="Path_3488" data-name="Path 3488" class="cls-5" d="M-522.413 1192.059a.269.269 0 0 1 .247-.285.268.268 0 0 1 .284.247.267.267 0 0 1-.248.285h-.021a.266.266 0 0 1-.262-.248m-.677.1a.267.267 0 0 1-.131-.354.264.264 0 0 1 .352-.131.266.266 0 0 1 .132.353.269.269 0 0 1-.245.156.329.329 0 0 1-.108-.023m-.958-.6a.267.267 0 0 1-.034-.374.268.268 0 0 1 .376-.033.269.269 0 0 1 .034.376.275.275 0 0 1-.207.094.256.256 0 0 1-.168-.063m1.6-.58a.265.265 0 0 1 .265-.267.267.267 0 0 1 .267.266.266.266 0 0 1-.265.267.266.266 0 0 1-.264-.266m6.983-.072a.264.264 0 0 1 .171-.335.264.264 0 0 1 .335.17.266.266 0 0 1-.17.335.28.28 0 0 1-.085.013.267.267 0 0 1-.251-.184m-.809-.017a.266.266 0 0 1-.18-.331.265.265 0 0 1 .331-.179.265.265 0 0 1 .18.33.267.267 0 0 1-.256.19.255.255 0 0 1-.074-.01m-8.527-.186a.267.267 0 0 1 .081-.368.266.266 0 0 1 .368.08.267.267 0 0 1-.081.368.274.274 0 0 1-.146.041.269.269 0 0 1-.223-.122m7.5-.2a.267.267 0 0 1-.129-.354.266.266 0 0 1 .353-.129.267.267 0 0 1 .13.354.268.268 0 0 1-.244.154.285.285 0 0 1-.11-.025m-4.862-.323a.265.265 0 0 1-.247-.284.265.265 0 0 1 .284-.248.265.265 0 0 1 .246.284.266.266 0 0 1-.267.249.051.051 0 0 1-.016 0m6.451-.349a.264.264 0 0 1 .221-.3.262.262 0 0 1 .3.219.266.266 0 0 1-.219.306.214.214 0 0 1-.045 0 .265.265 0 0 1-.26-.223m-2.552.125a.264.264 0 0 1-.069-.368.266.266 0 0 1 .369-.071.266.266 0 0 1 .069.37.265.265 0 0 1-.221.116.265.265 0 0 1-.149-.047m12.248.1a.267.267 0 0 1-.2-.317.265.265 0 0 1 .318-.2.265.265 0 0 1 .2.316.266.266 0 0 1-.263.21.224.224 0 0 1-.056-.007m-19.254-.383a.268.268 0 0 1 .178-.331.266.266 0 0 1 .332.178.265.265 0 0 1-.179.331.247.247 0 0 1-.078.011.266.266 0 0 1-.253-.189m18.206.106a.265.265 0 0 1-.174-.332.265.265 0 0 1 .332-.176.266.266 0 0 1 .176.333.267.267 0 0 1-.257.188.254.254 0 0 1-.076-.013m1.7-.1a.269.269 0 0 1-.2-.319.269.269 0 0 1 .32-.2.268.268 0 0 1 .2.318.263.263 0 0 1-.261.206.274.274 0 0 1-.056 0m-2.725-.269a.264.264 0 0 1-.142-.347.265.265 0 0 1 .348-.145.268.268 0 0 1 .143.349.264.264 0 0 1-.248.163.252.252 0 0 1-.1-.019m-11.036-.152a.265.265 0 0 1-.006-.376.266.266 0 0 1 .377-.006.266.266 0 0 1 .006.377.271.271 0 0 1-.194.081.259.259 0 0 1-.182-.076m-2.945-.138a.264.264 0 0 1-.219-.306.267.267 0 0 1 .307-.219.267.267 0 0 1 .218.308.267.267 0 0 1-.263.222.218.218 0 0 1-.043 0m6.244-.378a.267.267 0 0 1 .256-.277.268.268 0 0 1 .277.255.267.267 0 0 1-.256.277h-.013a.265.265 0 0 1-.264-.254m6.753.194a.265.265 0 0 1-.106-.36.266.266 0 0 1 .361-.106.265.265 0 0 1 .1.362.264.264 0 0 1-.235.137.248.248 0 0 1-.124-.032m-16.123-.124a.268.268 0 0 1-.253-.278.268.268 0 0 1 .279-.253.266.266 0 0 1 .253.279.267.267 0 0 1-.268.253h-.01m20.091-.169a.265.265 0 0 1-.172-.334.265.265 0 0 1 .334-.172.264.264 0 0 1 .172.335.266.266 0 0 1-.255.184.245.245 0 0 1-.08-.013m-14.748-.22a.266.266 0 0 1 .056-.373.268.268 0 0 1 .372.058.264.264 0 0 1-.057.372.246.246 0 0 1-.159.051.259.259 0 0 1-.211-.108m9.851-.065a.269.269 0 0 1-.063-.372.268.268 0 0 1 .371-.064.267.267 0 0 1 .063.372.262.262 0 0 1-.219.114.276.276 0 0 1-.152-.049m-11.859-.282a.266.266 0 0 1-.168-.336.264.264 0 0 1 .336-.168.266.266 0 0 1 .169.336.268.268 0 0 1-.256.182.241.241 0 0 1-.081-.014m6.3-.143a.266.266 0 0 1-.241-.289.265.265 0 0 1 .289-.241.265.265 0 0 1 .241.288.267.267 0 0 1-.267.244h-.022m4.7-.261a.265.265 0 0 1-.018-.375.265.265 0 0 1 .376-.018.269.269 0 0 1 .018.377.274.274 0 0 1-.2.087.267.267 0 0 1-.178-.07m-9.576-.193a.266.266 0 0 1 .117-.358.267.267 0 0 1 .358.119.266.266 0 0 1-.118.356.281.281 0 0 1-.122.029.263.263 0 0 1-.235-.146m15.672.157a.266.266 0 0 1-.147-.347.267.267 0 0 1 .348-.146.268.268 0 0 1 .147.348.271.271 0 0 1-.249.165.243.243 0 0 1-.1-.02m-16.71-.549a.268.268 0 0 1-.064-.372.268.268 0 0 1 .372-.062.265.265 0 0 1 .062.37.264.264 0 0 1-.218.114.264.264 0 0 1-.152-.05m9.851-.2a.267.267 0 0 1 .03-.375.269.269 0 0 1 .377.03.267.267 0 0 1-.031.375.256.256 0 0 1-.174.064.261.261 0 0 1-.2-.093m-3.811-.007a.267.267 0 0 1-.2-.319.266.266 0 0 1 .319-.2.267.267 0 0 1 .2.319.266.266 0 0 1-.261.205.262.262 0 0 1-.057-.006m-5.412-.439a.267.267 0 0 1 .186-.327.267.267 0 0 1 .327.186.267.267 0 0 1-.186.327.255.255 0 0 1-.073.011.268.268 0 0 1-.254-.2m16.505.221a.265.265 0 0 1-.118-.357.266.266 0 0 1 .358-.119.267.267 0 0 1 .118.357.263.263 0 0 1-.239.146.258.258 0 0 1-.117-.027m-7.94-.653a.267.267 0 0 1 .079-.37.267.267 0 0 1 .368.079.266.266 0 0 1-.077.368.285.285 0 0 1-.148.042.266.266 0 0 1-.221-.12m-2.877-.156a.267.267 0 0 1-.15-.346.266.266 0 0 1 .346-.149.264.264 0 0 1 .148.344.262.262 0 0 1-.248.169.281.281 0 0 1-.1-.018m11.315-.132a.267.267 0 0 1-.088-.367.265.265 0 0 1 .365-.088.265.265 0 0 1 .087.366.261.261 0 0 1-.228.127.262.262 0 0 1-.136-.038m-8.977-.67a.267.267 0 0 1 .123-.355.266.266 0 0 1 .356.124.267.267 0 0 1-.124.355.264.264 0 0 1-.117.026.266.266 0 0 1-.239-.15m-1.909-.172a.266.266 0 0 1-.094-.364.268.268 0 0 1 .364-.1.265.265 0 0 1 .094.365.266.266 0 0 1-.231.131.27.27 0 0 1-.132-.037m11.463-.054a.263.263 0 0 1-.056-.371.265.265 0 0 1 .372-.057.268.268 0 0 1 .055.373.27.27 0 0 1-.216.107.252.252 0 0 1-.155-.053m-9.965-.794a.264.264 0 0 1 .17-.335.266.266 0 0 1 .335.169.266.266 0 0 1-.17.335.266.266 0 0 1-.086.015.267.267 0 0 1-.25-.185m-.924-.047a.266.266 0 0 1-.039-.374.266.266 0 0 1 .374-.04.266.266 0 0 1 .039.374.263.263 0 0 1-.209.1.271.271 0 0 1-.165-.059m11.542 0a.266.266 0 0 1-.02-.376.266.266 0 0 1 .376-.021.267.267 0 0 1 .019.378.267.267 0 0 1-.2.087.265.265 0 0 1-.177-.068m-10.841-.8a.265.265 0 0 1 .014-.376.264.264 0 0 1 .376.014.265.265 0 0 1-.014.375.264.264 0 0 1-.184.073.263.263 0 0 1-.192-.086m11.572.028a.264.264 0 0 1 .016-.375.267.267 0 0 1 .376.016.267.267 0 0 1-.018.376.265.265 0 0 1-.181.069.262.262 0 0 1-.2-.087m.8-.7a.266.266 0 0 1 .056-.373.268.268 0 0 1 .373.055.268.268 0 0 1-.057.373.259.259 0 0 1-.16.053.269.269 0 0 1-.212-.108m.871-.61a.266.266 0 0 1 .1-.364.266.266 0 0 1 .364.093.267.267 0 0 1-.094.365.262.262 0 0 1-.136.036.266.266 0 0 1-.229-.131m.929-.516a.267.267 0 0 1 .132-.354.266.266 0 0 1 .352.131.268.268 0 0 1-.131.353.244.244 0 0 1-.112.024.265.265 0 0 1-.241-.153" transform="translate(-10.884 -69.033)"/>
        <path id="Path_3489" data-name="Path 3489" class="cls-5" d="M-360.735 1192.7a.265.265 0 0 1-.243-.288.264.264 0 0 1 .286-.242.266.266 0 0 1 .243.287.266.266 0 0 1-.268.243h-.019m.611-.269a.266.266 0 0 1 .137-.351.265.265 0 0 1 .35.136.27.27 0 0 1-.136.352.28.28 0 0 1-.11.021.265.265 0 0 1-.241-.159m.943-.488a.267.267 0 0 1 .039-.375.266.266 0 0 1 .374.038.266.266 0 0 1-.038.374.27.27 0 0 1-.169.061.273.273 0 0 1-.206-.1m-1.486-.306a.267.267 0 0 1-.26-.27.266.266 0 0 1 .27-.262.266.266 0 0 1 .261.271.265.265 0 0 1-.268.262m-7.049-.276a.269.269 0 0 1-.166-.339.269.269 0 0 1 .339-.166.267.267 0 0 1 .165.339.266.266 0 0 1-.254.179.279.279 0 0 1-.085-.013m.818-.356a.267.267 0 0 1 .186-.327.267.267 0 0 1 .328.184.268.268 0 0 1-.185.33.353.353 0 0 1-.075.008.268.268 0 0 1-.254-.2m8.49.206a.263.263 0 0 1-.074-.368.261.261 0 0 1 .367-.074.264.264 0 0 1 .074.369.265.265 0 0 1-.222.118.247.247 0 0 1-.144-.044m-7.475-.527a.267.267 0 0 1 .135-.352.266.266 0 0 1 .351.134.266.266 0 0 1-.134.352.3.3 0 0 1-.11.023.264.264 0 0 1-.241-.158m4.939-.364a.267.267 0 0 1 .252-.28.267.267 0 0 1 .28.252.266.266 0 0 1-.251.28h-.017a.266.266 0 0 1-.264-.252m-6.474.017a.264.264 0 0 1-.215-.308.265.265 0 0 1 .308-.215.267.267 0 0 1 .216.309.265.265 0 0 1-.264.219.244.244 0 0 1-.044 0m2.488-.124a.266.266 0 0 1 .077-.369.266.266 0 0 1 .368.076.266.266 0 0 1-.076.37.257.257 0 0 1-.148.043.262.262 0 0 1-.22-.12m-12.193-.224a.264.264 0 0 1 .206-.313.265.265 0 0 1 .314.206.266.266 0 0 1-.207.314.263.263 0 0 1-.056.006.266.266 0 0 1-.256-.215m19.237.3a.265.265 0 0 1-.173-.333.266.266 0 0 1 .334-.173.267.267 0 0 1 .174.334.263.263 0 0 1-.254.185.243.243 0 0 1-.08-.013m-18.2-.529a.266.266 0 0 1 .182-.33.266.266 0 0 1 .33.181.266.266 0 0 1-.182.33.24.24 0 0 1-.076.012.266.266 0 0 1-.254-.193m-1.684-.152a.264.264 0 0 1 .2-.315.266.266 0 0 1 .316.2.265.265 0 0 1-.206.315.165.165 0 0 1-.056.006.266.266 0 0 1-.258-.21m2.7-.17a.268.268 0 0 1 .148-.346.269.269 0 0 1 .347.149.267.267 0 0 1-.149.347.27.27 0 0 1-.1.018.267.267 0 0 1-.246-.168m11.006.157a.266.266 0 0 1 .012-.376.266.266 0 0 1 .376.012.265.265 0 0 1-.012.375.264.264 0 0 1-.184.073.268.268 0 0 1-.193-.084m3.02-.3a.266.266 0 0 1 .223-.3.266.266 0 0 1 .3.223.266.266 0 0 1-.223.3.242.242 0 0 1-.042 0 .265.265 0 0 1-.261-.227m-6.215 0a.266.266 0 0 1-.251-.281.267.267 0 0 1 .28-.252.268.268 0 0 1 .251.282.266.266 0 0 1-.268.251h-.012m-6.834-.272a.266.266 0 0 1 .111-.359.267.267 0 0 1 .359.112.266.266 0 0 1-.11.359.266.266 0 0 1-.127.031.266.266 0 0 1-.233-.144m16.207-.031a.266.266 0 0 1 .268-.265.267.267 0 0 1 .265.268.268.268 0 0 1-.269.264.266.266 0 0 1-.264-.268m-20.145-.39a.267.267 0 0 1 .179-.331.266.266 0 0 1 .331.177.267.267 0 0 1-.177.332.242.242 0 0 1-.08.012.267.267 0 0 1-.253-.189m14.712.236a.264.264 0 0 1-.052-.373.267.267 0 0 1 .372-.052.267.267 0 0 1 .052.373.264.264 0 0 1-.214.106.251.251 0 0 1-.158-.055m-9.849-.337a.266.266 0 0 1 .07-.37.266.266 0 0 1 .37.069.266.266 0 0 1-.069.369.268.268 0 0 1-.152.048.27.27 0 0 1-.219-.116m11.9-.2a.266.266 0 0 1 .174-.333.266.266 0 0 1 .334.173.266.266 0 0 1-.173.334.268.268 0 0 1-.083.013.267.267 0 0 1-.252-.186m-6.25-.314a.266.266 0 0 1 .246-.286.265.265 0 0 1 .284.247.266.266 0 0 1-.246.285h-.021a.267.267 0 0 1-.263-.247m-4.791-.11a.266.266 0 0 1 .024-.376.267.267 0 0 1 .376.024.265.265 0 0 1-.024.375.267.267 0 0 1-.178.066.266.266 0 0 1-.2-.089m9.6.09a.268.268 0 0 1-.114-.359.268.268 0 0 1 .361-.113.265.265 0 0 1 .111.359.266.266 0 0 1-.239.143.267.267 0 0 1-.12-.03m-15.659-.35a.266.266 0 0 1 .152-.344.265.265 0 0 1 .344.152.264.264 0 0 1-.15.344.264.264 0 0 1-.1.018.262.262 0 0 1-.247-.169m16.691-.208a.265.265 0 0 1 .069-.369.267.267 0 0 1 .371.068.267.267 0 0 1-.069.37.269.269 0 0 1-.152.047.27.27 0 0 1-.219-.116m-9.851-.261a.268.268 0 0 1-.025-.377.268.268 0 0 1 .376-.024.267.267 0 0 1 .025.376.27.27 0 0 1-.2.091.271.271 0 0 1-.173-.065m3.871-.178a.266.266 0 0 1 .2-.316.267.267 0 0 1 .316.2.264.264 0 0 1-.2.314.235.235 0 0 1-.056.007.266.266 0 0 1-.258-.211m5.4.031a.266.266 0 0 1-.181-.331.265.265 0 0 1 .33-.18.267.267 0 0 1 .181.33.264.264 0 0 1-.258.19.247.247 0 0 1-.072-.01m-16.532-.34a.267.267 0 0 1 .124-.356.266.266 0 0 1 .356.122.268.268 0 0 1-.123.356.278.278 0 0 1-.118.027.268.268 0 0 1-.239-.149m7.934-.335a.266.266 0 0 1-.072-.37.267.267 0 0 1 .369-.071.266.266 0 0 1 .073.369.265.265 0 0 1-.223.117.257.257 0 0 1-.147-.045m2.907-.339a.268.268 0 0 1 .155-.344.268.268 0 0 1 .344.157.265.265 0 0 1-.156.342.259.259 0 0 1-.1.018.267.267 0 0 1-.247-.172m-11.333-.245a.266.266 0 0 1 .094-.365.266.266 0 0 1 .364.095.265.265 0 0 1-.093.363.252.252 0 0 1-.138.037.266.266 0 0 1-.227-.13m8.993-.318a.265.265 0 0 1-.119-.355.267.267 0 0 1 .357-.118.268.268 0 0 1 .119.357.267.267 0 0 1-.241.148.251.251 0 0 1-.117-.029m1.906-.362a.264.264 0 0 1 .1-.361.264.264 0 0 1 .363.1.267.267 0 0 1-.1.362.268.268 0 0 1-.134.035.267.267 0 0 1-.23-.135m-11.468-.192a.266.266 0 0 1 .06-.371.267.267 0 0 1 .372.06.268.268 0 0 1-.061.373.27.27 0 0 1-.156.049.265.265 0 0 1-.215-.111m10.009-.414a.266.266 0 0 1-.166-.338.267.267 0 0 1 .339-.164.267.267 0 0 1 .164.339.265.265 0 0 1-.252.179.225.225 0 0 1-.085-.015m.889-.244a.265.265 0 0 1 .044-.373.266.266 0 0 1 .373.044.266.266 0 0 1-.044.373.263.263 0 0 1-.166.058.267.267 0 0 1-.207-.1m-11.542-.156a.267.267 0 0 1 .025-.377.267.267 0 0 1 .376.026.27.27 0 0 1-.026.377.271.271 0 0 1-.177.064.262.262 0 0 1-.2-.09m10.851-.6a.264.264 0 0 1-.007-.376.263.263 0 0 1 .374-.008.263.263 0 0 1 .01.375.261.261 0 0 1-.2.083.265.265 0 0 1-.181-.074m-11.571-.146a.267.267 0 0 1-.012-.377.266.266 0 0 1 .376-.012.268.268 0 0 1 .011.378.269.269 0 0 1-.2.083.268.268 0 0 1-.179-.072m-.79-.672a.266.266 0 0 1-.052-.373.266.266 0 0 1 .373-.049.266.266 0 0 1 .051.373.26.26 0 0 1-.214.1.266.266 0 0 1-.159-.055m-.855-.585a.267.267 0 0 1-.088-.366.268.268 0 0 1 .366-.089.263.263 0 0 1 .088.364.271.271 0 0 1-.23.128.275.275 0 0 1-.136-.039m-.91-.494a.266.266 0 0 1-.126-.355.267.267 0 0 1 .355-.126.266.266 0 0 1 .125.356.266.266 0 0 1-.242.151.262.262 0 0 1-.113-.026" transform="translate(-125.087 -69.067)"/>
        <path id="Path_3490" data-name="Path 3490" d="M-461.958 1197.686a18.446 18.446 0 0 1 18.437 18.289 18.472 18.472 0 0 1-18.453 18.277 18.277 18.277 0 0 1-18.291-18.368 18.283 18.283 0 0 1 18.307-18.2" transform="translate(-47.346 -82.497)" style="fill:#ffb700"/>
        <path id="Path_3491" data-name="Path 3491" d="M-461.958 1197.686a18.446 18.446 0 0 1 18.437 18.289 18.472 18.472 0 0 1-18.453 18.277 18.277 18.277 0 0 1-18.291-18.368 18.283 18.283 0 0 1 18.307-18.2" transform="translate(-47.346 -82.497)" style="fill:none;stroke:#161615;stroke-miterlimit:10;stroke-width:1.882px"/>
        <path id="Path_3492" data-name="Path 3492" class="cls-2" d="M-466.16 1231.06h-.01a19.174 19.174 0 0 1-13.658-5.658 19.228 19.228 0 0 1-5.636-13.716 19.3 19.3 0 0 1 19.3-19.2h.01a19.4 19.4 0 0 1 19.44 19.293 19.044 19.044 0 0 1-5.735 13.608 19.38 19.38 0 0 1-13.712 5.673m0-36.565a17.289 17.289 0 0 0-17.294 17.2 17.241 17.241 0 0 0 5.05 12.293 17.179 17.179 0 0 0 12.238 5.068h.009a17.385 17.385 0 0 0 12.3-5.091 17.059 17.059 0 0 0 5.14-12.181 17.384 17.384 0 0 0-17.433-17.284z" transform="translate(-43.151 -78.301)"/>
        <path id="Path_3493" data-name="Path 3493" class="cls-1" d="M-478.873 1182.828c-.92-1.933-2.968-2.861-4.724-3.878a47.513 47.513 0 0 0-10.034-4.323 48.583 48.583 0 0 0-13.279-2.11q-2.029-.03-4.049.125a49 49 0 0 0-8.585 1.5 51.068 51.068 0 0 0-7.823 2.742 37.82 37.82 0 0 0-3.344 1.647c-1.782 1.005-3.794 1.936-4.982 3.681a5 5 0 0 0 .508 6.175 9.759 9.759 0 0 0 1.306 1.334c.008-.094.656-5.575 26.667-5.393 26.236.182 26.071 5.767 26.071 5.767 2.026-1.677 3.486-4.709 2.269-7.262" transform="translate(-1.934 -62.183)"/>
        <path id="Path_3494" data-name="Path 3494" class="cls-2" d="m-483.672 1189.242.129-1.1c-.037-.25-1.106-5.108-25.466-5.3h-.14c-25.07-.175-26.195 4.932-26.2 4.984l-.086.885-.678-.587a10.171 10.171 0 0 1-1.367-1.4 5.457 5.457 0 0 1-.53-6.728 11.8 11.8 0 0 1 4.4-3.415c.247-.136.495-.272.738-.41 1.2-.674 2.437-1.245 3.384-1.667a51.828 51.828 0 0 1 7.894-2.767 49.615 49.615 0 0 1 8.669-1.509c1.342-.1 2.718-.146 4.091-.127a48.883 48.883 0 0 1 13.408 2.13 47.929 47.929 0 0 1 10.126 4.369c.232.134.47.267.709.4 1.567.877 3.343 1.87 4.2 3.68 1.31 2.75-.212 6.016-2.392 7.82zm-25.507-18.209a42.271 42.271 0 0 0-3.679.128 48.61 48.61 0 0 0-8.5 1.482 50.643 50.643 0 0 0-7.75 2.717c-.929.412-2.144.971-3.306 1.626-.246.139-.5.277-.748.415a11.116 11.116 0 0 0-4.078 3.123 4.516 4.516 0 0 0 .487 5.622 9.08 9.08 0 0 0 .768.84c1.034-1.638 5.71-5.222 26.846-5.074h.141c8.056.062 14.436.641 18.97 1.722 3.232.771 5.462 1.775 6.628 2.984a3.466 3.466 0 0 1 .537.706c1.623-1.623 2.645-4.135 1.641-6.243-.735-1.542-2.3-2.418-3.818-3.267-.243-.136-.485-.271-.72-.408a47.081 47.081 0 0 0-9.935-4.281 47.977 47.977 0 0 0-13.152-2.089h-.327" transform="translate(0 -60.237)"/>
        <path id="Path_3495" data-name="Path 3495" class="cls-5" d="M-522.413 1192.059a.269.269 0 0 1 .247-.285.268.268 0 0 1 .284.247.267.267 0 0 1-.248.285h-.021a.266.266 0 0 1-.262-.248m-.677.1a.267.267 0 0 1-.131-.354.264.264 0 0 1 .352-.131.266.266 0 0 1 .132.353.269.269 0 0 1-.245.156.329.329 0 0 1-.108-.023m-.958-.6a.267.267 0 0 1-.034-.374.268.268 0 0 1 .376-.033.269.269 0 0 1 .034.376.275.275 0 0 1-.207.094.256.256 0 0 1-.168-.063m1.6-.58a.265.265 0 0 1 .265-.267.267.267 0 0 1 .267.266.266.266 0 0 1-.265.267.266.266 0 0 1-.264-.266m6.983-.072a.264.264 0 0 1 .171-.335.264.264 0 0 1 .335.17.266.266 0 0 1-.17.335.28.28 0 0 1-.085.013.267.267 0 0 1-.251-.184m-.809-.017a.266.266 0 0 1-.18-.331.265.265 0 0 1 .331-.179.265.265 0 0 1 .18.33.267.267 0 0 1-.256.19.255.255 0 0 1-.074-.01m-8.527-.186a.267.267 0 0 1 .081-.368.266.266 0 0 1 .368.08.267.267 0 0 1-.081.368.274.274 0 0 1-.146.041.269.269 0 0 1-.223-.122m7.5-.2a.267.267 0 0 1-.129-.354.266.266 0 0 1 .353-.129.267.267 0 0 1 .13.354.268.268 0 0 1-.244.154.285.285 0 0 1-.11-.025m-4.862-.323a.265.265 0 0 1-.247-.284.265.265 0 0 1 .284-.248.265.265 0 0 1 .246.284.266.266 0 0 1-.267.249.051.051 0 0 1-.016 0m6.451-.349a.264.264 0 0 1 .221-.3.262.262 0 0 1 .3.219.266.266 0 0 1-.219.306.214.214 0 0 1-.045 0 .265.265 0 0 1-.26-.223m-2.552.125a.264.264 0 0 1-.069-.368.266.266 0 0 1 .369-.071.266.266 0 0 1 .069.37.265.265 0 0 1-.221.116.265.265 0 0 1-.149-.047m12.248.1a.267.267 0 0 1-.2-.317.265.265 0 0 1 .318-.2.265.265 0 0 1 .2.316.266.266 0 0 1-.263.21.224.224 0 0 1-.056-.007m-19.254-.383a.268.268 0 0 1 .178-.331.266.266 0 0 1 .332.178.265.265 0 0 1-.179.331.247.247 0 0 1-.078.011.266.266 0 0 1-.253-.189m18.206.106a.265.265 0 0 1-.174-.332.265.265 0 0 1 .332-.176.266.266 0 0 1 .176.333.267.267 0 0 1-.257.188.254.254 0 0 1-.076-.013m1.7-.1a.269.269 0 0 1-.2-.319.269.269 0 0 1 .32-.2.268.268 0 0 1 .2.318.263.263 0 0 1-.261.206.274.274 0 0 1-.056 0m-2.725-.269a.264.264 0 0 1-.142-.347.265.265 0 0 1 .348-.145.268.268 0 0 1 .143.349.264.264 0 0 1-.248.163.252.252 0 0 1-.1-.019m-11.036-.152a.265.265 0 0 1-.006-.376.266.266 0 0 1 .377-.006.266.266 0 0 1 .006.377.271.271 0 0 1-.194.081.259.259 0 0 1-.182-.076m-2.945-.138a.264.264 0 0 1-.219-.306.267.267 0 0 1 .307-.219.267.267 0 0 1 .218.308.267.267 0 0 1-.263.222.218.218 0 0 1-.043 0m6.244-.378a.267.267 0 0 1 .256-.277.268.268 0 0 1 .277.255.267.267 0 0 1-.256.277h-.013a.265.265 0 0 1-.264-.254m6.753.194a.265.265 0 0 1-.106-.36.266.266 0 0 1 .361-.106.265.265 0 0 1 .1.362.264.264 0 0 1-.235.137.248.248 0 0 1-.124-.032m-16.123-.124a.268.268 0 0 1-.253-.278.268.268 0 0 1 .279-.253.266.266 0 0 1 .253.279.267.267 0 0 1-.268.253h-.01m20.091-.169a.265.265 0 0 1-.172-.334.265.265 0 0 1 .334-.172.264.264 0 0 1 .172.335.266.266 0 0 1-.255.184.245.245 0 0 1-.08-.013m-14.748-.22a.266.266 0 0 1 .056-.373.268.268 0 0 1 .372.058.264.264 0 0 1-.057.372.246.246 0 0 1-.159.051.259.259 0 0 1-.211-.108m9.851-.065a.269.269 0 0 1-.063-.372.268.268 0 0 1 .371-.064.267.267 0 0 1 .063.372.262.262 0 0 1-.219.114.276.276 0 0 1-.152-.049m-11.859-.282a.266.266 0 0 1-.168-.336.264.264 0 0 1 .336-.168.266.266 0 0 1 .169.336.268.268 0 0 1-.256.182.241.241 0 0 1-.081-.014m6.3-.143a.266.266 0 0 1-.241-.289.265.265 0 0 1 .289-.241.265.265 0 0 1 .241.288.267.267 0 0 1-.267.244h-.022m4.7-.261a.265.265 0 0 1-.018-.375.265.265 0 0 1 .376-.018.269.269 0 0 1 .018.377.274.274 0 0 1-.2.087.267.267 0 0 1-.178-.07m-9.576-.193a.266.266 0 0 1 .117-.358.267.267 0 0 1 .358.119.266.266 0 0 1-.118.356.281.281 0 0 1-.122.029.263.263 0 0 1-.235-.146m15.672.157a.266.266 0 0 1-.147-.347.267.267 0 0 1 .348-.146.268.268 0 0 1 .147.348.271.271 0 0 1-.249.165.243.243 0 0 1-.1-.02m-16.71-.549a.268.268 0 0 1-.064-.372.268.268 0 0 1 .372-.062.265.265 0 0 1 .062.37.264.264 0 0 1-.218.114.264.264 0 0 1-.152-.05m9.851-.2a.267.267 0 0 1 .03-.375.269.269 0 0 1 .377.03.267.267 0 0 1-.031.375.256.256 0 0 1-.174.064.261.261 0 0 1-.2-.093m-3.811-.007a.267.267 0 0 1-.2-.319.266.266 0 0 1 .319-.2.267.267 0 0 1 .2.319.266.266 0 0 1-.261.205.262.262 0 0 1-.057-.006m-5.412-.439a.267.267 0 0 1 .186-.327.267.267 0 0 1 .327.186.267.267 0 0 1-.186.327.255.255 0 0 1-.073.011.268.268 0 0 1-.254-.2m16.505.221a.265.265 0 0 1-.118-.357.266.266 0 0 1 .358-.119.267.267 0 0 1 .118.357.263.263 0 0 1-.239.146.258.258 0 0 1-.117-.027m-7.94-.653a.267.267 0 0 1 .079-.37.267.267 0 0 1 .368.079.266.266 0 0 1-.077.368.285.285 0 0 1-.148.042.266.266 0 0 1-.221-.12m-2.877-.156a.267.267 0 0 1-.15-.346.266.266 0 0 1 .346-.149.264.264 0 0 1 .148.344.262.262 0 0 1-.248.169.281.281 0 0 1-.1-.018m11.315-.132a.267.267 0 0 1-.088-.367.265.265 0 0 1 .365-.088.265.265 0 0 1 .087.366.261.261 0 0 1-.228.127.262.262 0 0 1-.136-.038m-8.977-.67a.267.267 0 0 1 .123-.355.266.266 0 0 1 .356.124.267.267 0 0 1-.124.355.264.264 0 0 1-.117.026.266.266 0 0 1-.239-.15m-1.909-.172a.266.266 0 0 1-.094-.364.268.268 0 0 1 .364-.1.265.265 0 0 1 .094.365.266.266 0 0 1-.231.131.27.27 0 0 1-.132-.037m11.463-.054a.263.263 0 0 1-.056-.371.265.265 0 0 1 .372-.057.268.268 0 0 1 .055.373.27.27 0 0 1-.216.107.252.252 0 0 1-.155-.053m-9.965-.794a.264.264 0 0 1 .17-.335.266.266 0 0 1 .335.169.266.266 0 0 1-.17.335.266.266 0 0 1-.086.015.267.267 0 0 1-.25-.185m-.924-.047a.266.266 0 0 1-.039-.374.266.266 0 0 1 .374-.04.266.266 0 0 1 .039.374.263.263 0 0 1-.209.1.271.271 0 0 1-.165-.059m11.542 0a.266.266 0 0 1-.02-.376.266.266 0 0 1 .376-.021.267.267 0 0 1 .019.378.267.267 0 0 1-.2.087.265.265 0 0 1-.177-.068m-10.841-.8a.265.265 0 0 1 .014-.376.264.264 0 0 1 .376.014.265.265 0 0 1-.014.375.264.264 0 0 1-.184.073.263.263 0 0 1-.192-.086m11.572.028a.264.264 0 0 1 .016-.375.267.267 0 0 1 .376.016.267.267 0 0 1-.018.376.265.265 0 0 1-.181.069.262.262 0 0 1-.2-.087m.8-.7a.266.266 0 0 1 .056-.373.268.268 0 0 1 .373.055.268.268 0 0 1-.057.373.259.259 0 0 1-.16.053.269.269 0 0 1-.212-.108m.871-.61a.266.266 0 0 1 .1-.364.266.266 0 0 1 .364.093.267.267 0 0 1-.094.365.262.262 0 0 1-.136.036.266.266 0 0 1-.229-.131m.929-.516a.267.267 0 0 1 .132-.354.266.266 0 0 1 .352.131.268.268 0 0 1-.131.353.244.244 0 0 1-.112.024.265.265 0 0 1-.241-.153" transform="translate(-10.884 -69.033)"/>
        <path id="Path_3496" data-name="Path 3496" class="cls-5" d="M-360.735 1192.7a.265.265 0 0 1-.243-.288.264.264 0 0 1 .286-.242.266.266 0 0 1 .243.287.266.266 0 0 1-.268.243h-.019m.611-.269a.266.266 0 0 1 .137-.351.265.265 0 0 1 .35.136.27.27 0 0 1-.136.352.28.28 0 0 1-.11.021.265.265 0 0 1-.241-.159m.943-.488a.267.267 0 0 1 .039-.375.266.266 0 0 1 .374.038.266.266 0 0 1-.038.374.27.27 0 0 1-.169.061.273.273 0 0 1-.206-.1m-1.486-.306a.267.267 0 0 1-.26-.27.266.266 0 0 1 .27-.262.266.266 0 0 1 .261.271.265.265 0 0 1-.268.262m-7.049-.276a.269.269 0 0 1-.166-.339.269.269 0 0 1 .339-.166.267.267 0 0 1 .165.339.266.266 0 0 1-.254.179.279.279 0 0 1-.085-.013m.818-.356a.267.267 0 0 1 .186-.327.267.267 0 0 1 .328.184.268.268 0 0 1-.185.33.353.353 0 0 1-.075.008.268.268 0 0 1-.254-.2m8.49.206a.263.263 0 0 1-.074-.368.261.261 0 0 1 .367-.074.264.264 0 0 1 .074.369.265.265 0 0 1-.222.118.247.247 0 0 1-.144-.044m-7.475-.527a.267.267 0 0 1 .135-.352.266.266 0 0 1 .351.134.266.266 0 0 1-.134.352.3.3 0 0 1-.11.023.264.264 0 0 1-.241-.158m4.939-.364a.267.267 0 0 1 .252-.28.267.267 0 0 1 .28.252.266.266 0 0 1-.251.28h-.017a.266.266 0 0 1-.264-.252m-6.474.017a.264.264 0 0 1-.215-.308.265.265 0 0 1 .308-.215.267.267 0 0 1 .216.309.265.265 0 0 1-.264.219.244.244 0 0 1-.044 0m2.488-.124a.266.266 0 0 1 .077-.369.266.266 0 0 1 .368.076.266.266 0 0 1-.076.37.257.257 0 0 1-.148.043.262.262 0 0 1-.22-.12m-12.193-.224a.264.264 0 0 1 .206-.313.265.265 0 0 1 .314.206.266.266 0 0 1-.207.314.263.263 0 0 1-.056.006.266.266 0 0 1-.256-.215m19.237.3a.265.265 0 0 1-.173-.333.266.266 0 0 1 .334-.173.267.267 0 0 1 .174.334.263.263 0 0 1-.254.185.243.243 0 0 1-.08-.013m-18.2-.529a.266.266 0 0 1 .182-.33.266.266 0 0 1 .33.181.266.266 0 0 1-.182.33.24.24 0 0 1-.076.012.266.266 0 0 1-.254-.193m-1.684-.152a.264.264 0 0 1 .2-.315.266.266 0 0 1 .316.2.265.265 0 0 1-.206.315.165.165 0 0 1-.056.006.266.266 0 0 1-.258-.21m2.7-.17a.268.268 0 0 1 .148-.346.269.269 0 0 1 .347.149.267.267 0 0 1-.149.347.27.27 0 0 1-.1.018.267.267 0 0 1-.246-.168m11.006.157a.266.266 0 0 1 .012-.376.266.266 0 0 1 .376.012.265.265 0 0 1-.012.375.264.264 0 0 1-.184.073.268.268 0 0 1-.193-.084m3.02-.3a.266.266 0 0 1 .223-.3.266.266 0 0 1 .3.223.266.266 0 0 1-.223.3.242.242 0 0 1-.042 0 .265.265 0 0 1-.261-.227m-6.215 0a.266.266 0 0 1-.251-.281.267.267 0 0 1 .28-.252.268.268 0 0 1 .251.282.266.266 0 0 1-.268.251h-.012m-6.834-.272a.266.266 0 0 1 .111-.359.267.267 0 0 1 .359.112.266.266 0 0 1-.11.359.266.266 0 0 1-.127.031.266.266 0 0 1-.233-.144m16.207-.031a.266.266 0 0 1 .268-.265.267.267 0 0 1 .265.268.268.268 0 0 1-.269.264.266.266 0 0 1-.264-.268m-20.145-.39a.267.267 0 0 1 .179-.331.266.266 0 0 1 .331.177.267.267 0 0 1-.177.332.242.242 0 0 1-.08.012.267.267 0 0 1-.253-.189m14.712.236a.264.264 0 0 1-.052-.373.267.267 0 0 1 .372-.052.267.267 0 0 1 .052.373.264.264 0 0 1-.214.106.251.251 0 0 1-.158-.055m-9.849-.337a.266.266 0 0 1 .07-.37.266.266 0 0 1 .37.069.266.266 0 0 1-.069.369.268.268 0 0 1-.152.048.27.27 0 0 1-.219-.116m11.9-.2a.266.266 0 0 1 .174-.333.266.266 0 0 1 .334.173.266.266 0 0 1-.173.334.268.268 0 0 1-.083.013.267.267 0 0 1-.252-.186m-6.25-.314a.266.266 0 0 1 .246-.286.265.265 0 0 1 .284.247.266.266 0 0 1-.246.285h-.021a.267.267 0 0 1-.263-.247m-4.791-.11a.266.266 0 0 1 .024-.376.267.267 0 0 1 .376.024.265.265 0 0 1-.024.375.267.267 0 0 1-.178.066.266.266 0 0 1-.2-.089m9.6.09a.268.268 0 0 1-.114-.359.268.268 0 0 1 .361-.113.265.265 0 0 1 .111.359.266.266 0 0 1-.239.143.267.267 0 0 1-.12-.03m-15.659-.35a.266.266 0 0 1 .152-.344.265.265 0 0 1 .344.152.264.264 0 0 1-.15.344.264.264 0 0 1-.1.018.262.262 0 0 1-.247-.169m16.691-.208a.265.265 0 0 1 .069-.369.267.267 0 0 1 .371.068.267.267 0 0 1-.069.37.269.269 0 0 1-.152.047.27.27 0 0 1-.219-.116m-9.851-.261a.268.268 0 0 1-.025-.377.268.268 0 0 1 .376-.024.267.267 0 0 1 .025.376.27.27 0 0 1-.2.091.271.271 0 0 1-.173-.065m3.871-.178a.266.266 0 0 1 .2-.316.267.267 0 0 1 .316.2.264.264 0 0 1-.2.314.235.235 0 0 1-.056.007.266.266 0 0 1-.258-.211m5.4.031a.266.266 0 0 1-.181-.331.265.265 0 0 1 .33-.18.267.267 0 0 1 .181.33.264.264 0 0 1-.258.19.247.247 0 0 1-.072-.01m-16.532-.34a.267.267 0 0 1 .124-.356.266.266 0 0 1 .356.122.268.268 0 0 1-.123.356.278.278 0 0 1-.118.027.268.268 0 0 1-.239-.149m7.934-.335a.266.266 0 0 1-.072-.37.267.267 0 0 1 .369-.071.266.266 0 0 1 .073.369.265.265 0 0 1-.223.117.257.257 0 0 1-.147-.045m2.907-.339a.268.268 0 0 1 .155-.344.268.268 0 0 1 .344.157.265.265 0 0 1-.156.342.259.259 0 0 1-.1.018.267.267 0 0 1-.247-.172m-11.333-.245a.266.266 0 0 1 .094-.365.266.266 0 0 1 .364.095.265.265 0 0 1-.093.363.252.252 0 0 1-.138.037.266.266 0 0 1-.227-.13m8.993-.318a.265.265 0 0 1-.119-.355.267.267 0 0 1 .357-.118.268.268 0 0 1 .119.357.267.267 0 0 1-.241.148.251.251 0 0 1-.117-.029m1.906-.362a.264.264 0 0 1 .1-.361.264.264 0 0 1 .363.1.267.267 0 0 1-.1.362.268.268 0 0 1-.134.035.267.267 0 0 1-.23-.135m-11.468-.192a.266.266 0 0 1 .06-.371.267.267 0 0 1 .372.06.268.268 0 0 1-.061.373.27.27 0 0 1-.156.049.265.265 0 0 1-.215-.111m10.009-.414a.266.266 0 0 1-.166-.338.267.267 0 0 1 .339-.164.267.267 0 0 1 .164.339.265.265 0 0 1-.252.179.225.225 0 0 1-.085-.015m.889-.244a.265.265 0 0 1 .044-.373.266.266 0 0 1 .373.044.266.266 0 0 1-.044.373.263.263 0 0 1-.166.058.267.267 0 0 1-.207-.1m-11.542-.156a.267.267 0 0 1 .025-.377.267.267 0 0 1 .376.026.27.27 0 0 1-.026.377.271.271 0 0 1-.177.064.262.262 0 0 1-.2-.09m10.851-.6a.264.264 0 0 1-.007-.376.263.263 0 0 1 .374-.008.263.263 0 0 1 .01.375.261.261 0 0 1-.2.083.265.265 0 0 1-.181-.074m-11.571-.146a.267.267 0 0 1-.012-.377.266.266 0 0 1 .376-.012.268.268 0 0 1 .011.378.269.269 0 0 1-.2.083.268.268 0 0 1-.179-.072m-.79-.672a.266.266 0 0 1-.052-.373.266.266 0 0 1 .373-.049.266.266 0 0 1 .051.373.26.26 0 0 1-.214.1.266.266 0 0 1-.159-.055m-.855-.585a.267.267 0 0 1-.088-.366.268.268 0 0 1 .366-.089.263.263 0 0 1 .088.364.271.271 0 0 1-.23.128.275.275 0 0 1-.136-.039m-.91-.494a.266.266 0 0 1-.126-.355.267.267 0 0 1 .355-.126.266.266 0 0 1 .125.356.266.266 0 0 1-.242.151.262.262 0 0 1-.113-.026" transform="translate(-125.087 -69.067)"/>
        <g id="Chxt9v.tif" transform="translate(-538.746 1154.693)">
            <g id="Group_2584" data-name="Group 2584">
                <g id="Group_2583" data-name="Group 2583">
                    <path id="Path_3497" data-name="Path 3497" class="cls-4" d="M-529.841 1440.282c-2.338-1.076-3.215-2.487-3.088-4.982a28.694 28.694 0 0 1 4.7-14.848 28.092 28.092 0 0 1 21.249-12.956 27.832 27.832 0 0 1 22.8 7.78 27.837 27.837 0 0 1 8.667 16.857c.111.79.213 1.581.319 2.372v2.311a4.7 4.7 0 0 1-3.079 3.466z" transform="translate(533.907 -1406.357)"/>
                    <path id="Path_3498" data-name="Path 3498" class="cls-2" d="M-482.14 1437.209h-51.947l-.192-.088c-2.7-1.244-3.8-3.011-3.649-5.908a29.788 29.788 0 0 1 4.858-15.337 29.072 29.072 0 0 1 21.951-13.378 28.77 28.77 0 0 1 23.562 8.036 28.818 28.818 0 0 1 8.962 17.426c.076.544.149 1.089.221 1.633l.108.874v2.433l-.031.119a5.641 5.641 0 0 1-3.683 4.133zm-51.519-1.93h51.171a3.73 3.73 0 0 0 2.291-2.628v-2.12l-.091-.684c-.071-.539-.143-1.079-.219-1.617a26.93 26.93 0 0 0-8.372-16.288 26.918 26.918 0 0 0-22.041-7.524 27.222 27.222 0 0 0-20.547 12.534 27.517 27.517 0 0 0-4.533 14.359 3.582 3.582 0 0 0 2.341 3.968z" transform="translate(537.941 -1402.319)"/>
                </g>
            </g>
        </g>
    </g>
</svg>
