<svg id="Icon_Spicy" data-name="Icon/Spicy" xmlns="http://www.w3.org/2000/svg" width="24" height="24">
    <defs>
        <style>
            .cls-2{fill:#2b2e34}
        </style>
    </defs>
    <path id="Rectangle_511" data-name="Rectangle 511" style="fill:none" d="M0 0h24v24H0z"/>
    <g id="Group_2618" data-name="Group 2618" transform="translate(-168.001 -823.516)">
        <path id="Path_82" data-name="Path 82" class="cls-2" d="M.127 1.613a.027.027 0 0 0-.013 0 .466.466 0 0 1-.228-.59l.758-2.434a.571.571 0 0 1 .243-.32.415.415 0 0 1 .353-.049l.37.131a.4.4 0 0 1 .246.267.584.584 0 0 1-.04.413l-1.128 2.3a.477.477 0 0 1-.561.283" transform="translate(185.44 829.316)"/>
        <path id="Path_83" data-name="Path 83" d="M0 6.866a5.591 5.591 0 0 0 2.361-1.249A14.228 14.228 0 0 0 5.982 1.26C7.021-.551 7.451-2.614 8.324-4.5A6.169 6.169 0 0 1 10.7-7.437a3.144 3.144 0 0 1 3.085.51c2.16 1.595 1.056 4.2-.279 5.969a19.939 19.939 0 0 1-9.069 6.82A18.927 18.927 0 0 1 0 6.866" transform="translate(172.289 837.045)" style="fill:#d3de5d"/>
        <path id="Path_84" data-name="Path 84" class="cls-2" d="M.122 7.136a.28.28 0 0 1-.256-.256.291.291 0 0 1 .262-.315 5.416 5.416 0 0 0 2.212-1.19A13.918 13.918 0 0 0 5.885 1.1 19.566 19.566 0 0 0 7.26-2.164c.284-.817.58-1.661.954-2.465a6.247 6.247 0 0 1 2.51-3.071 3.418 3.418 0 0 1 3.394.531A3.131 3.131 0 0 1 15.4-3.984 7.653 7.653 0 0 1 13.892-.8a20.1 20.1 0 0 1-9.2 6.92A19.3 19.3 0 0 1 .177 7.136a.267.267 0 0 1-.055 0M12.049-7.382a1.89 1.89 0 0 0-1.06.182 5.72 5.72 0 0 0-2.252 2.8c-.36.777-.652 1.608-.933 2.41a19.76 19.76 0 0 1-1.42 3.367 14.455 14.455 0 0 1-3.7 4.446c-.165.125-.362.275-.58.428a18.621 18.621 0 0 0 2.4-.679 19.5 19.5 0 0 0 8.93-6.721c.848-1.122 2.577-3.913.336-5.567a3.543 3.543 0 0 0-1.718-.671" transform="translate(172.137 837.059)"/>
    </g>
</svg>
