<svg id="Icon_New" data-name="Icon/New" xmlns="http://www.w3.org/2000/svg" width="24" height="24">
    <defs>
        <clipPath id="clip-path">
            <path id="Path_126" data-name="Path 126" class="cls-1" d="M0 16.124h24v-24H0z" transform="translate(0 7.876)"/>
        </clipPath>
        <style>
            .cls-1{fill:none}.cls-4{fill:#2b2e34}
        </style>
    </defs>
    <g id="Group_2642" data-name="Group 2642" transform="translate(-1208.5 -958.258)">
        <g id="Group_615" data-name="Group 615" transform="translate(1208.5 958.258)">
            <g id="Group_312" data-name="Group 312" style="clip-path:url(#clip-path)">
                <g id="Group_310" data-name="Group 310" transform="translate(.731 .384)">
                    <path id="Path_124" data-name="Path 124" d="M16.026 8.176a5.089 5.089 0 0 0-2.066-4.1A5.123 5.123 0 0 0 12.552-.3a4.949 4.949 0 0 0-4.321-1.42 4.959 4.959 0 0 0-8.09.013A4.947 4.947 0 0 0-4.173-.282 5.113 5.113 0 0 0-5.572 4.1a5.092 5.092 0 0 0-2.053 4.11 5.094 5.094 0 0 0 2.066 4.1 5.116 5.116 0 0 0 1.408 4.38 4.964 4.964 0 0 0 4.318 1.42 4.962 4.962 0 0 0 8.092-.01 4.95 4.95 0 0 0 4.315-1.432 5.116 5.116 0 0 0 1.4-4.381 5.091 5.091 0 0 0 2.053-4.108" transform="translate(6.894 3.551)" style="fill:#20b8d1"/>
                </g>
                <g id="Group_311" data-name="Group 311" transform="translate(.001)">
                    <path id="Path_125" data-name="Path 125" class="cls-4" d="M8.072 16.124a5.314 5.314 0 0 1-4.147-1.993 5.292 5.292 0 0 1-5.866-5.848A5.3 5.3 0 0 1-1.953 0 5.322 5.322 0 0 1-.442-4.347 5.317 5.317 0 0 1 3.9-5.871a5.328 5.328 0 0 1 4.139-2.005 5.333 5.333 0 0 1 4.147 1.993 5.318 5.318 0 0 1 4.342 1.511 5.317 5.317 0 0 1 1.524 4.34 5.3 5.3 0 0 1 .012 8.285 5.3 5.3 0 0 1-5.851 5.869 5.325 5.325 0 0 1-4.141 2m-3.806-2.811.134.189a4.531 4.531 0 0 0 7.332-.012l.137-.189.229.037a4.533 4.533 0 0 0 5.177-5.189l-.037-.232.189-.137a4.531 4.531 0 0 0-.009-7.332l-.186-.137.034-.232a4.545 4.545 0 0 0-1.277-3.91A4.552 4.552 0 0 0 12.076-5.1l-.232.037-.137-.189a4.55 4.55 0 0 0-3.668-1.859A4.555 4.555 0 0 0 4.376-5.24l-.137.189-.229-.037A4.56 4.56 0 0 0 .1-3.811 4.554 4.554 0 0 0-1.167.1l.037.229-.189.141a4.534 4.534 0 0 0 .012 7.335l.186.137-.034.229a4.533 4.533 0 0 0 5.189 5.177z" transform="translate(3.943 7.876)"/>
                </g>
            </g>
        </g>
    </g>
    <g id="Rectangle_516" data-name="Rectangle 516" transform="translate(0 7)" style="fill:#ffc600;stroke:#2b2e34;stroke-width:.6px">
        <rect width="24" height="11" rx="2" style="stroke:none"/>
        <rect class="cls-1" x=".3" y=".3" width="23.4" height="10.4" rx="1.7"/>
    </g>
    <path id="Path_3519" data-name="Path 3519" class="cls-4" d="M.392 0h1.384v-2.664c0-.2-.016-.936-.016-.936h.016s.312.616.408.768L3.864 0h1.424v-5.72H3.9v2.712c0 .2.016.888.016.888H3.9s-.3-.568-.392-.728L1.816-5.72H.392zm5.68 0h4.384v-1.2H7.488v-1.224h2.5v-1.1h-2.5v-1.028h2.92V-5.72H6.072zm6.2 0h1.392l.6-2.744c.1-.456.192-1.064.192-1.064h.016s.1.608.2 1.064l.6 2.744h1.384l1.568-5.72H16.8l-.568 2.384c-.128.568-.288 1.432-.288 1.432h-.016s-.144-.792-.272-1.376l-.536-2.44h-1.312l-.536 2.456c-.128.576-.28 1.36-.28 1.36h-.016s-.136-.864-.264-1.416l-.576-2.4H10.7z" transform="translate(3 15.359)"/>
</svg>
