<?xml version="1.0" encoding="UTF-8"?>
<svg width="24px" height="24px" viewBox="0 0 24 24" version="1.1" xmlns="http://www.w3.org/2000/svg" xmlns:xlink="http://www.w3.org/1999/xlink">
    <!-- Generator: Sketch 51.2 (57519) - http://www.bohemiancoding.com/sketch -->
    <title>icon-pp</title>
    <desc>Created with Sketch.</desc>
    <defs>
        <polygon id="path-1" points="0 0.0115690511 8.90465076 0.0115690511 8.90465076 2.73516964 0 2.73516964"></polygon>
        <polygon id="path-3" points="0.018192129 0.0115690511 7.48358123 0.0115690511 7.48358123 3.37051095 0.018192129 3.37051095"></polygon>
    </defs>
    <g id="icon-pp" stroke="none" stroke-width="1" fill="none" fill-rule="evenodd">
        <rect id="Rectangle-3" x="0" y="0" width="24" height="24"></rect>
        <path d="M23.5,18 L23.5,6 C23.5,5.17614237 22.8238576,4.5 22,4.5 L2,4.5 C1.17614237,4.5 0.5,5.17614237 0.5,6 L0.5,18 C0.5,18.8238576 1.17614237,19.5 2,19.5 L22,19.5 C22.8238576,19.5 23.5,18.8238576 23.5,18 Z" id="Shape" stroke="#CCCCCC" fill-rule="nonzero"></path>
        <g id="paypal-seeklogo.com" transform="translate(6.000000, 6.000000)">
            <g id="Group-4" transform="translate(0.000000, 9.109489)">
                <mask id="mask-2" fill="white">
                    <use xlink:href="#path-1"></use>
                </mask>
                <g id="Clip-2"></g>
                <path d="M8.19764621,0.929805547 C8.14665704,1.28175066 7.89101805,1.28175066 7.64374007,1.28175066 L7.50303249,1.28175066 L7.60171841,0.624637664 C7.60769675,0.584920292 7.64027437,0.555678832 7.67852708,0.555678832 L7.74298917,0.555678832 C7.91133574,0.555678832 8.07032491,0.555678832 8.15228881,0.656475328 C8.20132852,0.716825693 8.21618773,0.806235328 8.19764621,0.929805547 Z M8.0900361,0.0115690511 L7.15745848,0.0115690511 C7.09368953,0.0115690511 7.03940794,0.060350365 7.02948736,0.12657635 L6.65237545,2.64070423 C6.64492419,2.6903054 6.68140072,2.73516964 6.72914079,2.73516964 L7.20762455,2.73516964 C7.25224549,2.73516964 7.29028159,2.70100905 7.297213,2.6546873 L7.40417329,1.94191533 C7.41409386,1.87568934 7.46837545,1.82690803 7.5321444,1.82690803 L7.8272491,1.82690803 C8.44150181,1.82690803 8.796,1.51436146 8.88866426,0.894870657 C8.93038267,0.623954453 8.89035379,0.411065693 8.76970397,0.262034453 C8.63705415,0.098200292 8.40199278,0.0115690511 8.0900361,0.0115690511 Z" id="Fill-1" fill="#238EC2" mask="url(#mask-2)"></path>
                <path d="M1.54626715,0.929805547 C1.49527798,1.28175066 1.23959567,1.28175066 0.992361011,1.28175066 L0.85165343,1.28175066 L0.95033935,0.624637664 C0.95631769,0.584920292 0.988851986,0.555678832 1.02710469,0.555678832 L1.09161011,0.555678832 C1.25991336,0.555678832 1.41894585,0.555678832 1.50090975,0.656475328 C1.54994946,0.716825693 1.56480866,0.806235328 1.54626715,0.929805547 Z M1.43861372,0.0115690511 L0.506036101,0.0115690511 C0.442310469,0.0115690511 0.38798556,0.060350365 0.378064982,0.12657635 L0.000953068592,2.64070423 C-0.00645487365,2.6903054 0.0299783394,2.73516964 0.0777617329,2.73516964 L0.523018051,2.73516964 C0.586787004,2.73516964 0.641068592,2.68638832 0.65098917,2.62016234 L0.752750903,1.94191533 C0.762714801,1.87568934 0.81699639,1.82690803 0.880765343,1.82690803 L1.17582671,1.82690803 C1.79012274,1.82690803 2.14462094,1.51436146 2.2372852,0.894870657 C2.27896029,0.623954453 2.23897473,0.411065693 2.11828159,0.262034453 C1.98567509,0.098200292 1.75061372,0.0115690511 1.43861372,0.0115690511 Z" id="Fill-3" fill="#253667" mask="url(#mask-2)"></path>
            </g>
            <path d="M3.60363899,10.9418628 C3.56049097,11.2101372 3.3579639,11.3902318 3.09959567,11.3902318 C2.9701083,11.3902318 2.86644043,11.3464152 2.79976895,11.2634733 C2.73370397,11.1812601 2.70883755,11.0641577 2.72980505,10.9337098 C2.77000722,10.6678493 2.97578339,10.4819702 3.23020939,10.4819702 C3.35701083,10.4819702 3.45998556,10.5261512 3.52795668,10.6098674 C3.59636101,10.6941758 3.62322022,10.8120981 3.60363899,10.9418628 Z M4.22594946,10.0280444 L3.77943682,10.0280444 C3.74114079,10.0280444 3.70856318,10.0572858 3.70262816,10.0970488 L3.68300361,10.2283165 L3.65176895,10.180765 C3.55507581,10.0331457 3.33955235,9.98386336 3.12433213,9.98386336 C2.63098917,9.98386336 2.20955957,10.3769378 2.12750903,10.9281985 C2.08483755,11.2032596 2.14544404,11.4660683 2.29373285,11.6495334 C2.43002166,11.818059 2.62449097,11.8882476 2.85617329,11.8882476 C3.25381949,11.8882476 3.47436823,11.6196543 3.47436823,11.6196543 L3.45444043,11.7501477 C3.44698917,11.7997489 3.4834657,11.8446587 3.5312491,11.8446587 L3.9333574,11.8446587 C3.99712635,11.8446587 4.05140794,11.7959229 4.06132852,11.7296969 L4.30275812,10.1224642 C4.31020939,10.0728631 4.27373285,10.0280444 4.22594946,10.0280444 Z" id="Fill-5" fill="#253667"></path>
            <path d="M10.2550181,10.9418628 C10.2119134,11.2101372 10.009343,11.3902318 9.75101805,11.3902318 C9.62148736,11.3902318 9.51781949,11.3464152 9.45114801,11.2634733 C9.38508303,11.1812601 9.36021661,11.0641577 9.38118412,10.9337098 C9.42138628,10.6678493 9.62720578,10.4819702 9.88163177,10.4819702 C10.0084332,10.4819702 10.1113646,10.5261512 10.1793357,10.6098674 C10.2477401,10.6941758 10.2745993,10.8120981 10.2550181,10.9418628 Z M10.8773718,10.0280444 L10.4308159,10.0280444 C10.3925632,10.0280444 10.3599856,10.0572858 10.3540505,10.0970488 L10.3343827,10.2283165 L10.3031913,10.180765 C10.2064549,10.0331457 9.99093141,9.98386336 9.77571119,9.98386336 C9.28236823,9.98386336 8.86093863,10.3769378 8.77888809,10.9281985 C8.73621661,11.2032596 8.7968231,11.4660683 8.94515523,11.6495334 C9.08140072,11.818059 9.27587004,11.8882476 9.50755235,11.8882476 C9.90519856,11.8882476 10.1257906,11.6196543 10.1257906,11.6196543 L10.1058195,11.7501477 C10.0983682,11.7997489 10.1348448,11.8446587 10.1826282,11.8446587 L10.5847798,11.8446587 C10.6485054,11.8446587 10.702787,11.7959229 10.7127509,11.7296969 L10.9541372,10.1224642 C10.9615884,10.0728631 10.9251119,10.0280444 10.8773718,10.0280444 Z" id="Fill-6" fill="#238EC2"></path>
            <g id="Group-10" transform="translate(4.505415, 9.109489)">
                <mask id="mask-4" fill="white">
                    <use xlink:href="#path-3"></use>
                </mask>
                <g id="Clip-8"></g>
                <path d="M2.09891697,0.918555328 L1.65006498,0.918555328 C1.60713357,0.918555328 1.56697473,0.940964672 1.54288809,0.978268029 L0.923740072,1.9369962 L0.66134296,1.01570803 C0.644924188,0.958090511 0.594454874,0.918555328 0.537227437,0.918555328 L0.096,0.918555328 C0.0427148014,0.918555328 0.00524187726,0.973667737 0.0223971119,1.02668496 L0.516649819,2.55188672 L0.0517689531,3.24152058 C0.0152924188,3.29563095 0.0521155235,3.37051095 0.115191336,3.37051095 L0.563610108,3.37051095 C0.606108303,3.37051095 0.645920578,3.34860263 0.670093863,3.31189139 L2.16281588,1.04686248 C2.19851264,0.992661022 2.16164621,0.918555328 2.09891697,0.918555328" id="Fill-7" fill="#253667" mask="url(#mask-4)"></path>
                <path d="M6.89826715,0.0806189781 L6.51552347,2.64074978 C6.50811552,2.69035095 6.54459206,2.73516964 6.59233213,2.73516964 L6.97724188,2.73516964 C7.04101083,2.73516964 7.09529242,2.68638832 7.105213,2.62016234 L7.48262816,0.10608 C7.49007942,0.0564332847 7.45360289,0.0115690511 7.40581949,0.0115690511 L6.97507581,0.0115690511 C6.93677978,0.0115690511 6.90420217,0.0408560584 6.89826715,0.0806189781" id="Fill-9" fill="#238EC2" mask="url(#mask-4)"></path>
            </g>
            <path d="M8.90218051,2.07026803 C8.99657762,1.43743182 8.90153069,1.00682628 8.57597112,0.616803504 C8.21753069,0.18738219 7.57000722,0.00341605839 6.74153069,0.00341605839 L4.3366787,0.00341605839 C4.16733574,0.00341605839 4.02316245,0.132952993 3.99677978,0.308811679 L2.99540794,6.9851562 C2.97565343,7.11687942 3.07247653,7.23598599 3.1993213,7.23598599 L4.68394224,7.23598599 L4.58148736,7.91919766 C4.56420217,8.0344327 4.64889531,8.13864526 4.75988448,8.13864526 L6.01126354,8.13864526 C6.15937906,8.13864526 6.28548736,8.02532321 6.30857762,7.87150949 L6.32083755,7.80464584 L6.55659206,6.23294015 L6.57179783,6.14608117 C6.59484477,5.99226745 6.72095307,5.8789454 6.86906859,5.8789454 L7.05630325,5.8789454 C8.2686065,5.8789454 9.21786282,5.36107095 9.4952491,3.86347095 C9.61113357,3.23764905 9.55122022,2.71531095 9.24472202,2.34810745 C9.15201444,2.23701723 9.03669314,2.14519358 8.90218051,2.07026803" id="Fill-11" fill="#238EC2"></path>
            <path d="M8.90218051,2.07026803 C8.99657762,1.43743182 8.90153069,1.00682628 8.57597112,0.616803504 C8.21753069,0.18738219 7.57000722,0.00341605839 6.74153069,0.00341605839 L4.3366787,0.00341605839 C4.16733574,0.00341605839 4.02316245,0.132952993 3.99677978,0.308811679 L2.99540794,6.9851562 C2.97565343,7.11687942 3.07247653,7.23598599 3.1993213,7.23598599 L4.68394224,7.23598599 L5.05689531,4.74964204 L5.04532852,4.82757372 C5.07171119,4.65176058 5.21467148,4.52222365 5.38397112,4.52222365 L6.08958845,4.52222365 C7.4753935,4.52222365 8.56050542,3.93028905 8.87757401,2.21834277 C8.88697473,2.16764847 8.89498917,2.11854832 8.90218051,2.07026803" id="Fill-12" fill="#20274F"></path>
            <path d="M5.45753069,2.07869431 C5.47338628,1.97288759 5.53793502,1.8863019 5.62488087,1.84248526 C5.66438989,1.82258102 5.7085343,1.81151299 5.75484477,1.81151299 L7.6399278,1.81151299 C7.8632491,1.81151299 8.07145126,1.82686248 8.26184838,1.85911007 C8.31625993,1.86831066 8.36919856,1.87892321 8.42062094,1.89090219 C8.47204332,1.90292672 8.52194946,1.91631766 8.57029603,1.93121168 C8.59446931,1.93859036 8.61820939,1.94637898 8.64160289,1.95453197 C8.73504693,1.98718949 8.82207942,2.02567708 8.90218051,2.07026803 C8.99657762,1.43743182 8.90153069,1.00682628 8.57597112,0.616803504 C8.21753069,0.18738219 7.57000722,0.00341605839 6.74153069,0.00341605839 L4.3366787,0.00341605839 C4.16733574,0.00341605839 4.02316245,0.132952993 3.99677978,0.308811679 L2.99540794,6.9851562 C2.97565343,7.11687942 3.07247653,7.23598599 3.1993213,7.23598599 L4.68394224,7.23598599 L5.45753069,2.07869431" id="Fill-13" fill="#253667"></path>
        </g>
    </g>
</svg>