<svg xmlns="http://www.w3.org/2000/svg" width="66.14" height="48" viewBox="0 0 66.14 48">
    <defs>
        <style>
            .cls-1{fill:#0068a3}
        </style>
    </defs>
    <g id="Group_130" data-name="Group 130" transform="translate(684.112 -272.727)">
        <path id="Path_115" data-name="Path 115" class="cls-1" d="M-406.328 375.806V398.965a2.754 2.754 0 0 1-3.022 2.955 2.836 2.836 0 0 1-2.615-2.968c-.012-3.061 0-6.122 0-9.183 0-1.049-.205-1.417-.783-1.432-.561-.015-.786.39-.787 1.422 0 3.037.011 6.074-.006 9.111a2.8 2.8 0 0 1-2.665 3.052 2.68 2.68 0 0 1-2.833-2.227 5.687 5.687 0 0 1-.094-1.139q-.009-10.976-.005-21.953v-.766c-.346 0-.446.219-.591.36-.958.935-1.893 1.9-2.866 2.815a2.766 2.766 0 0 1-3.939-.057 2.71 2.71 0 0 1-.132-3.872q3.1-3.183 6.337-6.239a4.923 4.923 0 0 1 3.425-1.275q4.089-.043 8.178 0a5.545 5.545 0 0 1 3.949 1.623q2.944 2.889 5.862 5.8a2.815 2.815 0 0 1 .081 3.835 2.729 2.729 0 0 1-4.025.189c-.97-.886-1.874-1.846-2.813-2.766a1.105 1.105 0 0 0-.656-.444z" transform="translate(-219.845 -81.213)"/>
        <path id="Path_116" data-name="Path 116" class="cls-1" d="M-675.957 375.9c-.3.038-.437.282-.617.457-.907.884-1.791 1.794-2.709 2.667a2.8 2.8 0 0 1-4.145-.187 2.817 2.817 0 0 1 .259-3.934 428.606 428.606 0 0 0 5.493-5.462 5.917 5.917 0 0 1 4.436-1.835c2.487.011 4.973.006 7.46 0a6.014 6.014 0 0 1 4.509 1.844c1.793 1.824 3.648 3.586 5.451 5.4a2.766 2.766 0 0 1 0 4.285 2.74 2.74 0 0 1-3.878-.166c-.916-.875-1.8-1.785-2.7-2.672-.163-.16-.283-.387-.559-.429a1.464 1.464 0 0 0-.081.835q-.008 11.154-.007 22.308a2.736 2.736 0 0 1-3.085 2.951 2.857 2.857 0 0 1-2.552-3.03c-.017-3.037-.005-6.073-.006-9.11 0-.215 0-.431-.01-.645a.724.724 0 0 0-.758-.782.729.729 0 0 0-.786.757c-.011.215-.011.43-.011.645v8.966a3.351 3.351 0 0 1-.588 2.1 2.62 2.62 0 0 1-2.785 1.054 2.661 2.661 0 0 1-2.109-2.021 4.961 4.961 0 0 1-.128-1.424v-21.806a1.307 1.307 0 0 0-.094-.766z" transform="translate(0 -81.26)"/>
        <path id="Path_117" data-name="Path 117" class="cls-1" d="M-614.019 279.2a6.457 6.457 0 0 1-6.438 6.441 6.489 6.489 0 0 1-6.4-6.432 6.483 6.483 0 0 1 6.495-6.476 6.471 6.471 0 0 1 6.343 6.467z" transform="translate(-49.04)"/>
        <path id="Path_118" data-name="Path 118" class="cls-1" d="M-357.063 279.206a6.465 6.465 0 0 1-6.453 6.436 6.466 6.466 0 0 1-6.381-6.506 6.475 6.475 0 0 1 6.489-6.4 6.478 6.478 0 0 1 6.345 6.47z" transform="translate(-269.115 -.007)"/>
        <path id="Path_119" data-name="Path 119" class="cls-1" d="M-500.864 337.889h-11.119c-.07.289.189.388.27.576a.949.949 0 0 1-.16 1.128.841.841 0 0 1-1.175.125 15.223 15.223 0 0 1-2.427-2.423.847.847 0 0 1 .165-1.171 88.089 88.089 0 0 1 2.027-2.028.93.93 0 0 1 1.355-.077.874.874 0 0 1 .114 1.286c-.393.517-.086.521.317.521h10.031c.463 0 .722-.028.327-.559a.86.86 0 0 1 .167-1.276.92.92 0 0 1 1.3.084 77.52 77.52 0 0 1 2.029 2.026.949.949 0 0 1 0 1.461 76.035 76.035 0 0 1-1.925 1.927.966.966 0 0 1-1.409.164.945.945 0 0 1-.047-1.457 2.235 2.235 0 0 0 .16-.307z" transform="translate(-144.286 -52.274)"/>
    </g>
</svg>
