<svg xmlns="http://www.w3.org/2000/svg" width="102.571" height="145.949" viewBox="0 0 102.571 145.949">
    <defs>
        <style>
            .cls-2,.cls-4{fill:#2e2e2d}.cls-4{stroke:#2e2e2d;stroke-miterlimit:10;stroke-width:10px}.cls-5{fill:#ffb600}
        </style>
    </defs>
    <g id="Group_2798" data-name="Group 2798" transform="translate(-127.276 -592.963)">
        <g id="Group_2797" data-name="Group 2797" transform="translate(127.276 592.963)">
            <g id="Group_2773" data-name="Group 2773">
                <path id="Path_3530" data-name="Path 3530" d="M180.038 596.128a47.653 47.653 0 0 1 43.9 29.1 42.776 42.776 0 0 1 1.1 30.331q-.086.254-.174.5a10.808 10.808 0 0 0-.665 3.771 8.752 8.752 0 0 0 1.959 5.3 16.827 16.827 0 0 1 3.533 10.439c0 7.7-4.949 14.123-11.507 15.547a1.759 1.759 0 0 0-1.4 1.58l-1.487 19.7s-.409 26.367-34.973 26.367h-.521c-34.564 0-34.974-26.367-34.974-26.367l-1.486-19.7a1.759 1.759 0 0 0-1.4-1.58c-6.559-1.424-11.508-7.844-11.508-15.547a16.83 16.83 0 0 1 3.533-10.439 8.749 8.749 0 0 0 1.959-5.3 10.808 10.808 0 0 0-.665-3.771q-.089-.248-.175-.5a42.775 42.775 0 0 1 1.1-30.331 47.653 47.653 0 0 1 43.9-29.1" transform="translate(-128.78 -594.467)" style="fill:#00a7c4"/>
                <path id="Path_3531" data-name="Path 3531" class="cls-2" d="M178.822 738.912h-.522c-10.259 0-24.108-2.414-31.828-13.919a28.477 28.477 0 0 1-4.806-14.026l-1.483-19.656c0-.044-.048-.072-.092-.082-7.427-1.612-12.817-8.833-12.817-17.17a18.554 18.554 0 0 1 3.89-11.468 7.043 7.043 0 0 0 1.6-4.286 9.2 9.2 0 0 0-.568-3.194 32.008 32.008 0 0 1-.183-.527 44.335 44.335 0 0 1 1.147-31.511 49.23 49.23 0 0 1 45.37-30.11h.056a49.229 49.229 0 0 1 45.37 30.11 44.336 44.336 0 0 1 1.147 31.51c-.06.177-.121.355-.184.531a9.189 9.189 0 0 0-.567 3.191 7.043 7.043 0 0 0 1.6 4.285 18.553 18.553 0 0 1 3.89 11.468c0 8.337-5.39 15.558-12.816 17.17-.044.01-.089.039-.093.082l-1.483 19.656a28.478 28.478 0 0 1-4.806 14.026c-4.255 6.351-13.235 13.92-31.822 13.92zm-.26-142.627a45.914 45.914 0 0 0-42.338 28.082 41.02 41.02 0 0 0-1.06 29.151c.054.159.109.317.164.473a12.5 12.5 0 0 1 .763 4.35 10.333 10.333 0 0 1-2.317 6.307 15.22 15.22 0 0 0-3.176 9.41c0 6.784 4.289 12.64 10.2 13.924a3.4 3.4 0 0 1 2.7 3.078l1.491 19.8a25.484 25.484 0 0 0 4.332 12.414c5.56 8.173 15.311 12.317 28.981 12.317h.521c13.747 0 23.527-4.188 29.069-12.448a25.209 25.209 0 0 0 4.243-12.284v-.1l1.486-19.7a3.4 3.4 0 0 1 2.7-3.079c5.909-1.283 10.2-7.139 10.2-13.923a15.217 15.217 0 0 0-3.176-9.41 10.332 10.332 0 0 1-2.316-6.307 12.5 12.5 0 0 1 .762-4.348c.056-.157.111-.314.164-.473a41.018 41.018 0 0 0-1.059-29.154 45.914 45.914 0 0 0-42.334-28.08z" transform="translate(-127.276 -592.963)"/>
            </g>
            <g id="Group_2787" data-name="Group 2787" transform="translate(36.109 11.889)">
                <g id="Group_2774" data-name="Group 2774" transform="translate(13.325)">
                    <circle id="Ellipse_938" data-name="Ellipse 938" class="cls-2" cx="1.84" cy="1.84" r="1.84"/>
                </g>
                <g id="Group_2775" data-name="Group 2775" transform="translate(13.357 28.342)">
                    <circle id="Ellipse_939" data-name="Ellipse 939" class="cls-2" cx="1.84" cy="1.84" r="1.84"/>
                </g>
                <g id="Group_2786" data-name="Group 2786" transform="translate(0 4.692)">
                    <g id="Group_2776" data-name="Group 2776" transform="translate(0 1.327)">
                        <circle id="Ellipse_940" data-name="Ellipse 940" class="cls-2" cx="1.84" cy="1.84" r="1.84"/>
                    </g>
                    <g id="Group_2777" data-name="Group 2777" transform="translate(26.682 1.327)">
                        <circle id="Ellipse_941" data-name="Ellipse 941" class="cls-2" cx="1.84" cy="1.84" r="1.84"/>
                    </g>
                    <g id="Group_2778" data-name="Group 2778" transform="translate(0 17.63)">
                        <circle id="Ellipse_942" data-name="Ellipse 942" class="cls-2" cx="1.84" cy="1.84" r="1.84"/>
                    </g>
                    <g id="Group_2779" data-name="Group 2779" transform="translate(26.682 17.63)">
                        <circle id="Ellipse_943" data-name="Ellipse 943" class="cls-2" cx="1.84" cy="1.84" r="1.84"/>
                    </g>
                    <g id="Group_2780" data-name="Group 2780" transform="translate(2.546 8.687)">
                        <path id="Path_3532" data-name="Path 3532" class="cls-2" d="M204.013 646.37c-1.453 0-3.088-.7-3.088-2.631 0-1.952 1.634-2.632 3.088-2.632a15.575 15.575 0 0 1 7.2 2.1.608.608 0 0 1 0 1.062 15.569 15.569 0 0 1-7.2 2.101z" transform="translate(-200.925 -641.107)"/>
                    </g>
                    <g id="Group_2781" data-name="Group 2781" transform="translate(17.21 8.687)">
                        <path id="Path_3533" data-name="Path 3533" class="cls-2" d="M236.377 641.107c1.453 0 3.088.7 3.088 2.632 0 1.952-1.635 2.631-3.088 2.631a15.569 15.569 0 0 1-7.2-2.1.608.608 0 0 1 0-1.062 15.571 15.571 0 0 1 7.2-2.101z" transform="translate(-228.865 -641.107)"/>
                    </g>
                    <g id="Group_2782" data-name="Group 2782" transform="translate(7.578 12.996)">
                        <path id="Path_3534" data-name="Path 3534" class="cls-2" d="M215.619 657.221c-.727 1.258-2.151 2.323-3.823 1.358-1.691-.976-1.461-2.731-.735-3.99a15.563 15.563 0 0 1 5.419-5.185.608.608 0 0 1 .919.531 15.569 15.569 0 0 1-1.78 7.286z" transform="translate(-210.512 -649.318)"/>
                    </g>
                    <g id="Group_2783" data-name="Group 2783" transform="translate(15.89 .005)">
                        <path id="Path_3535" data-name="Path 3535" class="cls-2" d="M228.13 626.3c.726-1.259 2.15-2.324 3.822-1.359 1.691.976 1.461 2.731.735 3.99a15.573 15.573 0 0 1-5.419 5.185.608.608 0 0 1-.92-.531 15.57 15.57 0 0 1 1.782-7.285z" transform="translate(-226.349 -624.565)"/>
                    </g>
                    <g id="Group_2784" data-name="Group 2784" transform="translate(15.89 12.996)">
                        <path id="Path_3536" data-name="Path 3536" class="cls-2" d="M232.688 654.589c.726 1.259.937 3.024-.735 3.99-1.691.976-3.1-.1-3.822-1.358a15.575 15.575 0 0 1-1.781-7.285.608.608 0 0 1 .92-.531 15.567 15.567 0 0 1 5.418 5.184z" transform="translate(-226.349 -649.318)"/>
                    </g>
                    <g id="Group_2785" data-name="Group 2785" transform="translate(7.584)">
                        <path id="Path_3537" data-name="Path 3537" class="cls-2" d="M211.066 628.924c-.726-1.259-.937-3.024.735-3.99 1.691-.976 3.1.1 3.823 1.359a15.569 15.569 0 0 1 1.781 7.286.608.608 0 0 1-.919.531 15.575 15.575 0 0 1-5.42-5.186z" transform="translate(-210.523 -624.556)"/>
                    </g>
                </g>
            </g>
            <g id="Group_2788" data-name="Group 2788" transform="translate(25.274 114.215)">
                <path id="Path_3538" data-name="Path 3538" class="cls-2" d="M179.932 812.448v3.8a2.079 2.079 0 0 1-2.237 1.871h-.026a2.079 2.079 0 0 1-2.237-1.871v-3.8a2.079 2.079 0 0 1 2.237-1.871h.026a2.079 2.079 0 0 1 2.237 1.871z" transform="translate(-175.431 -810.577)"/>
            </g>
            <g id="Group_2789" data-name="Group 2789" transform="translate(31.53 116.615)">
                <path id="Path_3539" data-name="Path 3539" class="cls-2" d="M192.352 821.453a2.31 2.31 0 0 1-2.486 2.079h-.029a2.31 2.31 0 0 1-2.486-2.079v-4.224a2.31 2.31 0 0 1 2.486-2.079h.029a2.31 2.31 0 0 1 2.486 2.079z" transform="translate(-187.351 -815.15)"/>
            </g>
            <g id="Group_2790" data-name="Group 2790" transform="translate(38.308 117.972)">
                <path id="Path_3540" data-name="Path 3540" class="cls-2" d="M205.53 824.372a2.432 2.432 0 0 1-2.617 2.188h-.03a2.432 2.432 0 0 1-2.617-2.188v-4.447a2.432 2.432 0 0 1 2.617-2.189h.03a2.432 2.432 0 0 1 2.617 2.189z" transform="translate(-200.265 -817.736)"/>
            </g>
            <g id="Group_2791" data-name="Group 2791" transform="translate(45.165 117.972)">
                <path id="Path_3541" data-name="Path 3541" class="cls-2" d="M218.7 824.507a2.481 2.481 0 0 1-2.67 2.233H216a2.481 2.481 0 0 1-2.67-2.233v-4.538a2.481 2.481 0 0 1 2.67-2.233h.031a2.481 2.481 0 0 1 2.67 2.233z" transform="translate(-213.329 -817.736)"/>
            </g>
            <g id="Group_2792" data-name="Group 2792" transform="translate(52.075 117.972)">
                <path id="Path_3542" data-name="Path 3542" class="cls-2" d="M231.866 824.507a2.481 2.481 0 0 1-2.67 2.233h-.031a2.481 2.481 0 0 1-2.67-2.233v-4.538a2.481 2.481 0 0 1 2.67-2.233h.031a2.481 2.481 0 0 1 2.67 2.233z" transform="translate(-226.494 -817.736)"/>
            </g>
            <g id="Group_2793" data-name="Group 2793" transform="translate(59.038 117.972)">
                <path id="Path_3543" data-name="Path 3543" class="cls-2" d="M245.026 824.372a2.432 2.432 0 0 1-2.617 2.188h-.03a2.432 2.432 0 0 1-2.617-2.188v-4.447a2.432 2.432 0 0 1 2.617-2.189h.03a2.432 2.432 0 0 1 2.617 2.189z" transform="translate(-239.762 -817.736)"/>
            </g>
            <g id="Group_2794" data-name="Group 2794" transform="translate(66.08 116.615)">
                <path id="Path_3544" data-name="Path 3544" class="cls-2" d="M253.178 821.453v-4.224a2.31 2.31 0 0 1 2.486-2.079h.029a2.31 2.31 0 0 1 2.486 2.079v4.224a2.31 2.31 0 0 1-2.486 2.079h-.029a2.31 2.31 0 0 1-2.486-2.079z" transform="translate(-253.178 -815.15)"/>
            </g>
            <g id="Group_2795" data-name="Group 2795" transform="translate(72.97 114.1)">
                <path id="Path_3545" data-name="Path 3545" class="cls-2" d="M270.808 816.032a2.079 2.079 0 0 1-2.237 1.872h-.026a2.079 2.079 0 0 1-2.238-1.872v-3.8a2.079 2.079 0 0 1 2.238-1.871h.026a2.079 2.079 0 0 1 2.237 1.871z" transform="translate(-266.307 -810.359)"/>
            </g>
            <g id="Group_2796" data-name="Group 2796" transform="translate(41.283 87.598)">
                <path id="Path_3546" data-name="Path 3546" d="M221.446 768.546a1.31 1.31 0 0 0-1.623.017 23.355 23.355 0 0 0-4 4.87q-.474.781-.877 1.6c-.134.274-.259.553-.381.832a1.567 1.567 0 0 0-.216.841c.082.735.869 1.2 1.514 1.374a3.233 3.233 0 0 0 2.316-.218l2.536-1.31 2.563 1.256a3.238 3.238 0 0 0 2.383.151c.656-.211 1.5-.773 1.43-1.569a2.3 2.3 0 0 0-.272-.711 11.63 11.63 0 0 0-.3-.628q-.336-.667-.723-1.306a21.416 21.416 0 0 0-1.773-2.505 24.559 24.559 0 0 0-2.577-2.694z" transform="translate(-209.93 -763.86)" style="fill:#008cd0"/>
                <path id="Path_3547" data-name="Path 3547" class="cls-2" d="M220.739 778.538a7.561 7.561 0 0 1-3.4-.759l-.566-.277-.561.29a7.687 7.687 0 0 1-5.52.552 6.141 6.141 0 0 1-4.725-5.135 5.683 5.683 0 0 1 .537-3.057l.025-.056a24.105 24.105 0 0 1 1.526-2.949 27.75 27.75 0 0 1 4.749-5.8 5.72 5.72 0 0 1 7.6-.079 29.071 29.071 0 0 1 3.046 3.18 25.907 25.907 0 0 1 2.137 3.022c.316.524.614 1.062.884 1.6.132.263.256.523.373.787l.016.031a5.723 5.723 0 0 1 .638 2.134 6.019 6.019 0 0 1-4.478 6.149 7.751 7.751 0 0 1-2.281.367zm-6.245-10.7.006.006-.006-.005z" transform="translate(-205.932 -759.865)"/>
            </g>
        </g>
        <path id="Path_3548" data-name="Path 3548" class="cls-4" d="M186.983 696.4a2.1 2.1 0 0 0-.677-1.557q-1.506-1.5-3.011-3.01a2.552 2.552 0 0 0-.557-.431 2.2 2.2 0 0 0-2.671.426q-3.247 3.241-6.488 6.487c-.229.228-.229.228-.457 0l-6.489-6.487a2.185 2.185 0 0 0-3.193-.027c-1.025 1-2.031 2.025-3.044 3.04a2.111 2.111 0 0 0-.628 1.088 2.221 2.221 0 0 0 .633 2.125q3.249 3.238 6.489 6.486c.23.23.23.231 0 .46-2.146 2.147-4.275 4.312-6.448 6.43a2.3 2.3 0 0 0-.007 3.323c1 .958 1.969 1.959 2.951 2.94a2.587 2.587 0 0 0 .572.448 2.2 2.2 0 0 0 2.656-.41q3.255-3.248 6.5-6.5c.229-.229.23-.229.457 0l6.489 6.487a2.185 2.185 0 0 0 3.193.028c1.036-1.014 2.053-2.046 3.077-3.072a2.044 2.044 0 0 0 .595-1.055 2.219 2.219 0 0 0-.631-2.126q-3.233-3.222-6.456-6.454c-.263-.263-.263-.264 0-.524q3.228-3.228 6.457-6.454a2.2 2.2 0 0 0 .688-1.661z" transform="translate(-15.413 -46.642)"/>
        <path id="Path_3549" data-name="Path 3549" class="cls-5" d="M186.983 696.4a2.1 2.1 0 0 0-.677-1.557q-1.506-1.5-3.011-3.01a2.552 2.552 0 0 0-.557-.431 2.2 2.2 0 0 0-2.671.426q-3.247 3.241-6.488 6.487c-.229.228-.229.228-.457 0l-6.489-6.487a2.185 2.185 0 0 0-3.193-.027c-1.025 1-2.031 2.025-3.044 3.04a2.111 2.111 0 0 0-.628 1.088 2.221 2.221 0 0 0 .633 2.125q3.249 3.238 6.489 6.486c.23.23.23.231 0 .46-2.146 2.147-4.275 4.312-6.448 6.43a2.3 2.3 0 0 0-.007 3.323c1 .958 1.969 1.959 2.951 2.94a2.587 2.587 0 0 0 .572.448 2.2 2.2 0 0 0 2.656-.41q3.255-3.248 6.5-6.5c.229-.229.23-.229.457 0l6.489 6.487a2.185 2.185 0 0 0 3.193.028c1.036-1.014 2.053-2.046 3.077-3.072a2.044 2.044 0 0 0 .595-1.055 2.219 2.219 0 0 0-.631-2.126q-3.233-3.222-6.456-6.454c-.263-.263-.263-.264 0-.524q3.228-3.228 6.457-6.454a2.2 2.2 0 0 0 .688-1.661z" transform="translate(-15.413 -46.642)"/>
        <path id="Path_3550" data-name="Path 3550" class="cls-4" d="M262.232 696.4a2.092 2.092 0 0 0-.677-1.557q-1.506-1.5-3.011-3.01a2.537 2.537 0 0 0-.556-.431 2.2 2.2 0 0 0-2.671.426q-3.247 3.241-6.489 6.487c-.228.228-.229.228-.457 0l-6.489-6.487a2.185 2.185 0 0 0-3.193-.027c-1.025 1-2.031 2.025-3.045 3.04a2.11 2.11 0 0 0-.627 1.088 2.221 2.221 0 0 0 .633 2.125q3.249 3.238 6.489 6.486c.23.23.23.231 0 .46-2.147 2.147-4.275 4.312-6.448 6.43a2.3 2.3 0 0 0-.007 3.323c1 .958 1.969 1.959 2.951 2.94a2.6 2.6 0 0 0 .572.448 2.2 2.2 0 0 0 2.656-.41q3.255-3.248 6.5-6.5c.229-.229.23-.229.457 0l6.488 6.487a2.185 2.185 0 0 0 3.193.028c1.036-1.014 2.053-2.046 3.077-3.072a2.041 2.041 0 0 0 .6-1.055 2.221 2.221 0 0 0-.631-2.126q-3.233-3.222-6.456-6.454c-.263-.263-.263-.264 0-.524q3.228-3.228 6.457-6.454a2.2 2.2 0 0 0 .684-1.661z" transform="translate(-51.168 -46.642)"/>
        <path id="Path_3551" data-name="Path 3551" class="cls-5" d="M262.232 696.4a2.092 2.092 0 0 0-.677-1.557q-1.506-1.5-3.011-3.01a2.537 2.537 0 0 0-.556-.431 2.2 2.2 0 0 0-2.671.426q-3.247 3.241-6.489 6.487c-.228.228-.229.228-.457 0l-6.489-6.487a2.185 2.185 0 0 0-3.193-.027c-1.025 1-2.031 2.025-3.045 3.04a2.11 2.11 0 0 0-.627 1.088 2.221 2.221 0 0 0 .633 2.125q3.249 3.238 6.489 6.486c.23.23.23.231 0 .46-2.147 2.147-4.275 4.312-6.448 6.43a2.3 2.3 0 0 0-.007 3.323c1 .958 1.969 1.959 2.951 2.94a2.6 2.6 0 0 0 .572.448 2.2 2.2 0 0 0 2.656-.41q3.255-3.248 6.5-6.5c.229-.229.23-.229.457 0l6.488 6.487a2.185 2.185 0 0 0 3.193.028c1.036-1.014 2.053-2.046 3.077-3.072a2.041 2.041 0 0 0 .6-1.055 2.221 2.221 0 0 0-.631-2.126q-3.233-3.222-6.456-6.454c-.263-.263-.263-.264 0-.524q3.228-3.228 6.457-6.454a2.2 2.2 0 0 0 .684-1.661z" transform="translate(-51.168 -46.642)"/>
    </g>
</svg>
