<svg xmlns="http://www.w3.org/2000/svg" width="24" height="24" viewBox="0 0 24 24">
    <g fill="none" fill-rule="evenodd">
        <circle cx="12" cy="12" r="11" stroke="#669532" stroke-width="2"/>
        <path fill="#669532" d="M7.452 7.012h1.46c.147 0 .287.003.42.01a.753.753 0 0 1 .34.09c.147.093.25.263.31.51s.123.463.19.65c.147.44.287.89.42 1.35.133.46.273.917.42 1.37.107.32.207.647.3.98.093.333.2.653.32.96.04.12.083.247.13.38s.143.2.29.2a.285.285 0 0 1 .06-.05.285.285 0 0 0 .06-.05 1.4 1.4 0 0 0 .1-.2c.027-.067.053-.14.08-.22.067-.147.117-.3.15-.46.033-.16.077-.313.13-.46.187-.56.363-1.123.53-1.69.167-.567.343-1.13.53-1.69.067-.16.12-.323.16-.49.04-.167.087-.323.14-.47.027-.107.06-.213.1-.32.04-.107.1-.193.18-.26.04-.027.127-.067.26-.12a.665.665 0 0 1 .26-.03c.093.007.18.01.26.01h.98c.147 0 .283.003.41.01a.426.426 0 0 1 .29.11c.08.067.11.163.09.29-.02.127-.043.23-.07.31-.067.187-.133.383-.2.59-.067.207-.133.403-.2.59-.04.093-.07.183-.09.27-.02.087-.043.17-.07.25a3.978 3.978 0 0 0-.17.44c-.047.147-.097.293-.15.44a.743.743 0 0 0-.03.13.311.311 0 0 1-.05.13c-.08.2-.15.403-.21.61-.06.207-.123.41-.19.61-.147.4-.287.81-.42 1.23-.133.42-.28.83-.44 1.23-.067.187-.127.37-.18.55a10.533 10.533 0 0 1-.24.72 1.815 1.815 0 0 1-.06.17 8.895 8.895 0 0 0-.15.45 8.895 8.895 0 0 1-.15.45c-.067.147-.127.283-.18.41a.486.486 0 0 1-.3.27.827.827 0 0 1-.34.05c-.12-.007-.24-.01-.36-.01h-1.73a.817.817 0 0 1-.37-.08.558.558 0 0 1-.2-.25c-.04-.1-.08-.21-.12-.33a5.52 5.52 0 0 1-.18-.5 5.52 5.52 0 0 0-.18-.5.496.496 0 0 1-.05-.15.767.767 0 0 0-.05-.17 5.52 5.52 0 0 1-.18-.5 8.013 8.013 0 0 0-.18-.52 1.236 1.236 0 0 1-.06-.19 1.236 1.236 0 0 0-.06-.19 3.52 3.52 0 0 1-.14-.37c-.04-.127-.08-.25-.12-.37a.23.23 0 0 1-.04-.13.23.23 0 0 0-.04-.13 2.599 2.599 0 0 1-.13-.36 3.679 3.679 0 0 0-.13-.38c-.12-.307-.233-.623-.34-.95-.107-.327-.213-.65-.32-.97-.147-.36-.273-.723-.38-1.09-.107-.367-.227-.73-.36-1.09l-.18-.54a.742.742 0 0 1-.03-.15.299.299 0 0 1 .03-.17c.04-.093.133-.16.28-.2a.343.343 0 0 0 .14-.02z"/>
    </g>
</svg>
