<svg id="Icon_Vegan" data-name="Icon/Vegan" xmlns="http://www.w3.org/2000/svg" width="24" height="24">
    <defs>
        <clipPath id="clip-path">
            <path id="Path_131" data-name="Path 131" d="M0 17.036h24v-24H0z" transform="translate(0 6.964)" style="fill:none"/>
        </clipPath>
        <style>
            .cls-4{fill:#2b2e34}
        </style>
    </defs>
    <g id="Group_318" data-name="Group 318" style="clip-path:url(#clip-path)">
        <g id="Group_315" data-name="Group 315" transform="translate(.38 .38)">
            <path id="Path_128" data-name="Path 128" d="M16.5 8.237a4.918 4.918 0 0 0-2.03-3.974 4.916 4.916 0 0 0-5.632-5.61 4.915 4.915 0 0 0-7.951.01A4.911 4.911 0 0 0-3.348.048a4.9 4.9 0 0 0-1.375 4.243 4.92 4.92 0 0 0-2.02 3.977 4.918 4.918 0 0 0 2.03 3.974 4.921 4.921 0 0 0 1.385 4.238 4.9 4.9 0 0 0 4.243 1.372 4.915 4.915 0 0 0 7.951-.01 4.912 4.912 0 0 0 5.611-5.628A4.9 4.9 0 0 0 16.5 8.237" transform="translate(6.743 3.367)" style="fill:#ffbbc4"/>
        </g>
        <g id="Group_316" data-name="Group 316" transform="translate(-.001)">
            <path id="Path_129" data-name="Path 129" class="cls-4" d="M8.53 17.036a5.312 5.312 0 0 1-4.146-1.992 5.289 5.289 0 0 1-5.865-5.852A5.292 5.292 0 0 1-1.5.907 5.329 5.329 0 0 1 .018-3.438a5.321 5.321 0 0 1 4.339-1.524 5.324 5.324 0 0 1 4.139-2 5.319 5.319 0 0 1 4.149 1.992 5.319 5.319 0 0 1 4.342 1.509A5.325 5.325 0 0 1 18.511.88a5.295 5.295 0 0 1 .01 8.285 5.293 5.293 0 0 1-5.848 5.869 5.331 5.331 0 0 1-4.142 2m-3.809-2.81.138.186a4.531 4.531 0 0 0 7.334-.01l.138-.186.227.034a4.531 4.531 0 0 0 5.176-5.19l-.035-.231.186-.138a4.531 4.531 0 0 0-.01-7.334l-.186-.134.035-.231a4.563 4.563 0 0 0-1.275-3.911 4.559 4.559 0 0 0-3.915-1.265l-.231.034-.138-.186A4.551 4.551 0 0 0 8.5-6.2a4.55 4.55 0 0 0-3.664 1.872l-.136.187-.231-.034A4.555 4.555 0 0 0 .556-2.9 4.549 4.549 0 0 0-.709 1.014l.038.231-.19.138a4.536 4.536 0 0 0 .01 7.334l.19.134-.039.231a4.531 4.531 0 0 0 5.19 5.176z" transform="translate(3.487 6.964)"/>
        </g>
        <g id="Group_317" data-name="Group 317" transform="translate(4.241 7.698)">
            <path id="Path_130" data-name="Path 130" class="cls-4" d="M2.016 6.106h2.2L7.044-2.5H4.89L3.556 2.015c-.183.638-.4 1.516-.4 1.516h-.02s-.207-.865-.4-1.516L1.389-2.5H-.824zm6.086 0h6.589V4.3h-4.463V2.46H14V.8h-3.772V-.738h4.394V-2.5H8.1z" transform="translate(.824 2.496)"/>
        </g>
    </g>
</svg>
