<svg id="Icon_Veg" data-name="Icon/Veg" xmlns="http://www.w3.org/2000/svg" width="24" height="24">
    <defs>
        <clipPath id="clip-path">
            <path id="Path_126" data-name="Path 126" d="M0 16.124h24v-24H0z" transform="translate(0 7.876)" style="fill:none"/>
        </clipPath>
        <style>
            .cls-4{fill:#2b2e34}
        </style>
    </defs>
    <g id="Group_615" data-name="Group 615">
        <g id="Group_312" data-name="Group 312" style="clip-path:url(#clip-path)">
            <g id="Group_310" data-name="Group 310" transform="translate(.382 .384)">
                <path id="Path_124" data-name="Path 124" d="M15.61 7.794a4.9 4.9 0 0 0-2.029-3.971A4.914 4.914 0 0 0 7.952-1.79a4.913 4.913 0 0 0-7.947.012A4.9 4.9 0 0 0-4.233-.394a4.9 4.9 0 0 0-1.375 4.242 4.907 4.907 0 0 0-2.017 3.98A4.909 4.909 0 0 0-5.6 11.8a4.908 4.908 0 0 0 1.383 4.239A4.922 4.922 0 0 0 .03 17.411a4.916 4.916 0 0 0 7.95-.011 4.917 4.917 0 0 0 5.613-5.628 4.905 4.905 0 0 0 2.017-3.978" transform="translate(7.625 3.807)" style="fill:#d3de5d"/>
            </g>
            <g id="Group_311" data-name="Group 311" transform="translate(.001)">
                <path id="Path_125" data-name="Path 125" class="cls-4" d="M8.072 16.124a5.314 5.314 0 0 1-4.147-1.993 5.292 5.292 0 0 1-5.866-5.848A5.3 5.3 0 0 1-1.953 0 5.322 5.322 0 0 1-.442-4.347 5.317 5.317 0 0 1 3.9-5.871a5.328 5.328 0 0 1 4.139-2.005 5.333 5.333 0 0 1 4.147 1.993 5.318 5.318 0 0 1 4.342 1.511 5.317 5.317 0 0 1 1.524 4.34 5.3 5.3 0 0 1 .012 8.285 5.3 5.3 0 0 1-5.851 5.869 5.325 5.325 0 0 1-4.141 2m-3.806-2.811.134.189a4.531 4.531 0 0 0 7.332-.012l.137-.189.229.037a4.533 4.533 0 0 0 5.177-5.189l-.037-.232.189-.137a4.531 4.531 0 0 0-.009-7.332l-.186-.137.034-.232a4.545 4.545 0 0 0-1.277-3.91A4.552 4.552 0 0 0 12.076-5.1l-.232.037-.137-.189a4.55 4.55 0 0 0-3.668-1.859A4.555 4.555 0 0 0 4.376-5.24l-.137.189-.229-.037A4.56 4.56 0 0 0 .1-3.811 4.554 4.554 0 0 0-1.167.1l.037.229-.189.141a4.534 4.534 0 0 0 .012 7.335l.186.137-.034.229a4.533 4.533 0 0 0 5.189 5.177z" transform="translate(3.943 7.876)"/>
            </g>
        </g>
        <g id="Group_313" data-name="Group 313" transform="translate(7.079 6.675)">
            <path id="Path_127" data-name="Path 127" class="cls-4" d="M5.123 0h2.534L3.692 11.683h-2.3L-2.577.014.029.008l2.549 8.863z" transform="translate(2.577 .001)"/>
        </g>
    </g>
</svg>
