<?xml version="1.0" encoding="UTF-8"?>
<svg width="24px" height="24px" viewBox="0 0 24 24" version="1.1" xmlns="http://www.w3.org/2000/svg" xmlns:xlink="http://www.w3.org/1999/xlink">
    <!-- Generator: Sketch 51.1 (57501) - http://www.bohemiancoding.com/sketch -->
    <title>icon-visa</title>
    <desc>Created with Sketch.</desc>
    <defs></defs>
    <g id="icon-visa" stroke="none" stroke-width="1" fill="none" fill-rule="evenodd">
        <rect id="Rectangle-10" x="0" y="0" width="24" height="24"></rect>
        <path d="M0,8.1025641 L0,6.05128205 C0,4.92307692 0.931034483,4 2.06896552,4 L21.9310345,4 C23.0689655,4 24,4.92307692 24,6.05128205 L24,8.1025641" id="Shape" fill="#5565AF" fill-rule="nonzero"></path>
        <path d="M24,16.3076923 L24,18.3589744 C24,19.4871795 23.0689655,20 21.9310345,20 L2.06896552,20 C0.931034483,20 0,19.4871795 0,18.3589744 L0,16.3076923" id="Shape" fill="#E6A124" fill-rule="nonzero"></path>
        <rect id="Rectangle-13" fill="#FFFFFF" fill-rule="nonzero" x="0" y="8.1025641" width="24" height="8.20512821"></rect>
        <path d="M6.67737931,13.5913846 C6.84537931,13.1195897 6.96331034,12.8172308 7.03282759,12.6843077 L8.42937931,9.86379487 L9.45103448,9.86379487 L7.03282759,14.5497436 L5.95324138,14.5497436 L5.54275862,9.86379487 L6.49655172,9.86379487 L6.66124138,12.6843077 C6.66951724,12.7803077 6.67406897,12.9230769 6.67406897,13.1105641 C6.66910345,13.3308718 6.66289655,13.4912821 6.65462069,13.5913846 L6.67737931,13.5913846 Z" id="Shape" fill="#5565AF" fill-rule="nonzero"></path>
        <polygon id="Shape" fill="#5565AF" fill-rule="nonzero" points="9.02441379 14.5497436 10.0332414 9.86379487 11.0193103 9.86379487 10.0104828 14.5497436"></polygon>
        <path d="M14.0416552,13.1651282 C14.0416552,13.6123077 13.8815172,13.9647179 13.5633103,14.2244103 C13.2442759,14.4841026 12.8118621,14.6137436 12.2668966,14.6137436 C11.7902069,14.6137436 11.4070345,14.5177436 11.1161379,14.3253333 L11.1161379,13.4469744 C11.5315862,13.6775385 11.918069,13.7932308 12.2735172,13.7932308 C12.5143448,13.7932308 12.7034483,13.7485128 12.8391724,13.6570256 C12.9748966,13.566359 13.0427586,13.4424615 13.0427586,13.2836923 C13.0427586,13.1922051 13.0282759,13.1113846 12.9993103,13.041641 C12.9703448,12.9727179 12.9281379,12.9078974 12.8747586,12.8475897 C12.8205517,12.7876923 12.6873103,12.6793846 12.4737931,12.5206154 C12.1762759,12.3085128 11.9668966,12.1001026 11.8464828,11.8921026 C11.7252414,11.6849231 11.6652414,11.4617436 11.6652414,11.2221538 C11.6652414,10.9464615 11.7314483,10.7007179 11.8655172,10.4832821 C11.9987586,10.2666667 12.1886897,10.0980513 12.4361379,9.97702564 C12.6827586,9.85641026 12.9662069,9.79610256 13.2881379,9.79610256 C13.7553103,9.79610256 14.1835862,9.90194872 14.5717241,10.1132308 L14.2191724,10.8598974 C13.8831724,10.7019487 13.5728276,10.6227692 13.2881379,10.6227692 C13.1085517,10.6227692 12.9624828,10.6707692 12.8486897,10.7671795 C12.734069,10.8631795 12.6773793,10.9907692 12.6773793,11.1487179 C12.6773793,11.2791795 12.7129655,11.3932308 12.7841379,11.4900513 C12.8553103,11.5872821 13.0146207,11.7161026 13.2624828,11.8761026 C13.5227586,12.0471795 13.7184828,12.2358974 13.8475862,12.4418462 C13.9766897,12.6490256 14.0416552,12.8894359 14.0416552,13.1651282 Z" id="Shape" fill="#5565AF" fill-rule="nonzero"></path>
        <path d="M17.2129655,13.4342564 L15.684,13.4342564 L15.1278621,14.5497436 L14.0933793,14.5497436 L16.5695172,9.84451282 L17.7753103,9.84451282 L18.2503448,14.5497436 L17.2903448,14.5497436 L17.2129655,13.4342564 Z M17.1641379,12.6010256 L17.0801379,11.4793846 C17.0582069,11.1995897 17.0478621,10.9292308 17.0478621,10.6683077 L17.0478621,10.5530256 C16.9526897,10.8094359 16.8351724,11.0810256 16.6953103,11.3669744 L16.0874483,12.6010256 L17.1641379,12.6010256 Z" id="Shape" fill="#5565AF" fill-rule="nonzero"></path>
    </g>
</svg>