<svg xmlns="http://www.w3.org/2000/svg" xmlns:xlink="http://www.w3.org/1999/xlink" width="37.139" height="18.24" viewBox="0 0 37.139 18.24">
  <defs>
    <clipPath id="clip-path">
      <path id="Path_156" data-name="Path 156" d="M0,10.92H37.139V-7.32H0Z" transform="translate(0 7.32)" fill="none"/>
    </clipPath>
  </defs>
  <g id="Group_348" data-name="Group 348" transform="translate(0 7.32)">
    <g id="Group_347" data-name="Group 347" transform="translate(0 -7.32)" clip-path="url(#clip-path)">
      <g id="Group_338" data-name="Group 338" transform="translate(24.937 0)">
        <path id="Path_147" data-name="Path 147" d="M.177,2.245s-.01,0-.012,0a.524.524,0,0,1-.257-.653L.716-1.082a.637.637,0,0,1,.262-.351.442.442,0,0,1,.384-.047l.406.145a.443.443,0,0,1,.272.3A.627.627,0,0,1,2-.583L.788,1.938a.512.512,0,0,1-.611.306" transform="translate(0.119 1.505)" fill="#2b2e34"/>
      </g>
      <g id="Group_339" data-name="Group 339" transform="translate(10.846 2.031)">
        <path id="Path_148" data-name="Path 148" d="M0,9.516A5.96,5.96,0,0,0,2.567,8.163,15.286,15.286,0,0,0,6.484,3.4C7.6,1.41,8.054-.858,8.988-2.921a6.637,6.637,0,0,1,2.577-3.217,3.438,3.438,0,0,1,3.374.588c2.375,1.777,1.191,4.632-.252,6.571A21.285,21.285,0,0,1,4.844,8.449,20.44,20.44,0,0,1,0,9.516" transform="translate(0 6.378)" fill="#ff5038"/>
      </g>
      <g id="Group_340" data-name="Group 340" transform="translate(10.53 1.715)">
        <path id="Path_149" data-name="Path 149" d="M.171,9.892a.315.315,0,0,1,0-.628A5.8,5.8,0,0,0,2.578,7.974,14.931,14.931,0,0,0,6.413,3.3,21.164,21.164,0,0,0,7.883-.284c.306-.9.62-1.824,1.022-2.706a6.7,6.7,0,0,1,2.714-3.364,3.737,3.737,0,0,1,3.713.615,3.512,3.512,0,0,1,1.428,3.523,8.293,8.293,0,0,1-1.617,3.486,21.477,21.477,0,0,1-9.99,7.54A20.749,20.749,0,0,1,.231,9.892a.24.24,0,0,1-.06,0m12.9-15.881a2.041,2.041,0,0,0-1.156.192A6.138,6.138,0,0,0,9.478-2.729c-.386.855-.7,1.764-1,2.646a21.572,21.572,0,0,1-1.52,3.7,15.508,15.508,0,0,1-4,4.862c-.179.137-.394.3-.63.466A19.635,19.635,0,0,0,4.94,8.215a20.806,20.806,0,0,0,9.7-7.321c.917-1.228,2.781-4.286.316-6.127a3.94,3.94,0,0,0-1.884-.755" transform="translate(0.114 6.631)" fill="#2b2e34"/>
      </g>
      <g id="Group_341" data-name="Group 341" transform="translate(14.406 0)">
        <path id="Path_150" data-name="Path 150" d="M.177,2.245s-.01,0-.012,0a.524.524,0,0,1-.257-.653L.716-1.082a.637.637,0,0,1,.262-.351.442.442,0,0,1,.384-.047l.406.145a.443.443,0,0,1,.272.3A.627.627,0,0,1,2-.583L.788,1.938a.512.512,0,0,1-.611.306" transform="translate(0.119 1.505)" fill="#2b2e34"/>
      </g>
      <g id="Group_342" data-name="Group 342" transform="translate(0.315 2.031)">
        <path id="Path_151" data-name="Path 151" d="M0,9.516A5.96,5.96,0,0,0,2.567,8.163,15.286,15.286,0,0,0,6.484,3.4C7.6,1.41,8.054-.858,8.991-2.921a6.618,6.618,0,0,1,2.574-3.217,3.438,3.438,0,0,1,3.374.588c2.375,1.777,1.191,4.632-.252,6.571A21.285,21.285,0,0,1,4.844,8.449,20.44,20.44,0,0,1,0,9.516" transform="translate(0 6.378)" fill="#ff5038"/>
      </g>
      <g id="Group_343" data-name="Group 343" transform="translate(-0.001 1.715)">
        <path id="Path_152" data-name="Path 152" d="M.171,9.892a.315.315,0,0,1,0-.628A5.8,5.8,0,0,0,2.578,7.974,14.931,14.931,0,0,0,6.413,3.3,21.164,21.164,0,0,0,7.883-.284c.306-.9.62-1.824,1.022-2.706a6.7,6.7,0,0,1,2.714-3.364,3.737,3.737,0,0,1,3.713.615,3.512,3.512,0,0,1,1.428,3.523,8.293,8.293,0,0,1-1.617,3.486,21.477,21.477,0,0,1-9.99,7.54A20.749,20.749,0,0,1,.231,9.892a.24.24,0,0,1-.06,0m12.9-15.881a2.041,2.041,0,0,0-1.156.192A6.138,6.138,0,0,0,9.478-2.729c-.386.855-.7,1.764-1,2.646a21.572,21.572,0,0,1-1.52,3.7,15.508,15.508,0,0,1-4,4.862c-.179.137-.394.3-.628.466A19.7,19.7,0,0,0,4.94,8.215a20.806,20.806,0,0,0,9.7-7.321c.917-1.228,2.781-4.286.316-6.127a3.94,3.94,0,0,0-1.884-.755" transform="translate(0.114 6.631)" fill="#2b2e34"/>
      </g>
      <g id="Group_344" data-name="Group 344" transform="translate(34.622 0)">
        <path id="Path_153" data-name="Path 153" d="M.177,2.245s-.01,0-.012,0a.524.524,0,0,1-.257-.653L.716-1.082a.637.637,0,0,1,.262-.351.442.442,0,0,1,.384-.047l.406.145a.443.443,0,0,1,.272.3A.627.627,0,0,1,2-.583L.788,1.938a.512.512,0,0,1-.611.306" transform="translate(0.119 1.505)" fill="#2b2e34"/>
      </g>
      <g id="Group_345" data-name="Group 345" transform="translate(20.532 2.031)">
        <path id="Path_154" data-name="Path 154" d="M0,9.516A5.96,5.96,0,0,0,2.567,8.163,15.286,15.286,0,0,0,6.484,3.4C7.6,1.41,8.054-.858,8.988-2.921a6.637,6.637,0,0,1,2.577-3.217,3.438,3.438,0,0,1,3.374.588c2.375,1.777,1.191,4.632-.252,6.571A21.285,21.285,0,0,1,4.844,8.449,20.44,20.44,0,0,1,0,9.516" transform="translate(0 6.378)" fill="#ff5038"/>
      </g>
      <g id="Group_346" data-name="Group 346" transform="translate(20.216 1.715)">
        <path id="Path_155" data-name="Path 155" d="M.171,9.892a.315.315,0,0,1,0-.628A5.8,5.8,0,0,0,2.578,7.974,14.931,14.931,0,0,0,6.413,3.3,21.164,21.164,0,0,0,7.883-.284c.306-.9.62-1.824,1.022-2.706a6.7,6.7,0,0,1,2.714-3.364,3.737,3.737,0,0,1,3.713.615,3.512,3.512,0,0,1,1.428,3.523,8.293,8.293,0,0,1-1.617,3.486,21.477,21.477,0,0,1-9.99,7.54A20.749,20.749,0,0,1,.231,9.892a.24.24,0,0,1-.06,0m12.9-15.881a2.041,2.041,0,0,0-1.156.192A6.138,6.138,0,0,0,9.478-2.729c-.386.855-.7,1.764-1,2.646a21.572,21.572,0,0,1-1.52,3.7,15.508,15.508,0,0,1-4,4.862c-.179.137-.394.3-.63.466A19.635,19.635,0,0,0,4.94,8.215a20.806,20.806,0,0,0,9.7-7.321c.917-1.228,2.781-4.286.316-6.127a3.94,3.94,0,0,0-1.884-.755" transform="translate(0.114 6.631)" fill="#2b2e34"/>
      </g>
    </g>
  </g>
</svg>
