<svg xmlns="http://www.w3.org/2000/svg" width="24" height="24" viewBox="0 0 24 24">
    <g fill="none" fill-rule="evenodd">
        <path fill="#000" fill-rule="nonzero" d="M21.53 17.468c-.064.18-.126.375-.197.565-.591 1.6-1.488 3.02-2.576 4.321-.21.253-.454.483-.707.695-.5.423-1.074.678-1.739.702-.499.016-.978-.075-1.44-.263-.335-.137-.664-.29-1.004-.413-1.101-.4-2.196-.347-3.28.081-.39.155-.776.325-1.174.46-.461.154-.94.217-1.427.125-.425-.08-.797-.278-1.143-.533-.428-.317-.788-.704-1.125-1.113-1.594-1.944-2.664-4.142-3.18-6.604-.223-1.059-.33-2.126-.265-3.208.077-1.298.378-2.533 1.072-3.646.87-1.4 2.097-2.316 3.712-2.694.971-.229 1.916-.136 2.842.221.487.187.976.371 1.465.555.45.169.9.169 1.35-.004.5-.19 1-.38 1.501-.566.514-.188 1.037-.341 1.582-.384a5.942 5.942 0 0 1 2.387.299 5.228 5.228 0 0 1 2.666 1.964l.051.075c-1.701 1.186-2.67 2.753-2.529 4.874.142 2.123 1.285 3.559 3.158 4.491zM11.987 5.502c.502.013.984-.083 1.449-.268 2.12-.841 3.227-3.083 3.194-4.798-.003-.138-.012-.276-.018-.436-.218.033-.417.048-.607.096-1.548.38-2.738 1.243-3.521 2.64-.458.82-.713 1.689-.635 2.639.006.1.042.126.138.127z"/>
        <path d="M0 0h24v24H0z"/>
    </g>
</svg>
