<svg id="Icon_Calendar" data-name="Icon/Calendar" xmlns="http://www.w3.org/2000/svg" width="24" height="24">
    <defs>
        <style>
            .cls-2{fill:#3c3c3c}
        </style>
    </defs>
    <path id="Rectangle_543" data-name="Rectangle 543" style="fill:none" d="M0 0h24v24H0z"/>
    <g id="_0PX1PO" data-name="0PX1PO" transform="translate(2.119 .999)">
        <g id="Group_2727" data-name="Group 2727">
            <path id="Path_3528" data-name="Path 3528" class="cls-2" d="M1052.3 113.457v-7.394a2.3 2.3 0 0 1 2.459-2.482c.806-.012.8-.012.81-.8.025-1.52-.269-1.384 1.4-1.39.885 0 .877 0 .888.908.017 1.448-.216 1.271 1.252 1.277 2.232.009 4.464-.015 6.695.014.57.008.727-.181.717-.733-.027-1.479 0-1.48 1.482-1.466.777.007.777.016.794.775.009.424-.157.919.081 1.254.25.354.763.114 1.156.172a2.274 2.274 0 0 1 2.022 2.265q.016 7.627 0 15.254a2.181 2.181 0 0 1-2.033 2.222 6.951 6.951 0 0 1-.812.054q-7.016.005-14.031 0a7.025 7.025 0 0 1-.812-.05 2.2 2.2 0 0 1-2.061-2.313c-.014-2.524-.007-5.045-.007-7.567zm9.838 7.6c2.309 0 4.617-.01 6.925.009.5 0 .722-.1.718-.673q-.038-5.267 0-10.533c0-.5-.148-.675-.661-.673q-6.926.023-13.851 0c-.543 0-.69.182-.686.708q.03 5.237 0 10.475c0 .535.156.7.692.7 2.282-.029 4.571-.016 6.861-.016z" transform="translate(-1052.297 -101.39)"/>
            <path id="Path_3529" data-name="Path 3529" class="cls-2" d="M1083.845 142.285c-.757 0-1.513-.01-2.27 0-.373.006-.526-.155-.525-.52q.008-2.269 0-4.539c0-.379.185-.5.543-.5q2.27.014 4.539 0c.378 0 .525.158.524.519q-.006 2.27 0 4.539c0 .378-.185.507-.544.5-.753-.008-1.512.001-2.267.001z" transform="translate(-1071.242 -124.675)"/>
        </g>
    </g>
</svg>
