<svg id="Icon_Clock" data-name="Icon/Clock" xmlns="http://www.w3.org/2000/svg" width="24" height="24">
    <defs>
        <style>
            .cls-1{fill:#3c3c3c}
        </style>
    </defs>
    <g id="oxHqcr.tif">
        <g id="Group_60" data-name="Group 60">
            <path id="Path_42" data-name="Path 42" class="cls-1" d="M6859.922 1144h2.156c.277.04.557.068.832.121a11.888 11.888 0 0 1 9.637 8.487 12.253 12.253 0 0 1 .453 2.314v2.156c-.04.277-.067.557-.12.832a11.9 11.9 0 0 1-8.443 9.625 12.134 12.134 0 0 1-2.358.465h-2.156c-.277-.04-.555-.076-.832-.119a12.039 12.039 0 0 1-9.641-8.487 15.19 15.19 0 0 1-.449-2.315v-2.156c.04-.278.068-.557.121-.832a11.892 11.892 0 0 1 8.442-9.625 12.2 12.2 0 0 1 2.358-.466zm1.064 20.95a8.958 8.958 0 1 0-8.95-8.94 8.981 8.981 0 0 0 8.95 8.94z" transform="translate(-6849 -1144)"/>
            <path id="Path_43" data-name="Path 43" class="cls-1" d="M7076.976 1248.391h-2.912a1.429 1.429 0 0 1-1.461-1.47v-5.847a1.474 1.474 0 0 1 2.948-.006v4.049c0 .324 0 .324.333.324h4.026a1.456 1.456 0 0 1 1.462 1.236 1.482 1.482 0 0 1-1.146 1.69 1.5 1.5 0 0 1-.316.022q-1.467.004-2.934.002z" transform="translate(-7061.938 -1235.055)"/>
        </g>
    </g>
    <path id="Rectangle_505" data-name="Rectangle 505" style="fill:none" d="M0 0h24v24H0z"/>
</svg>
