<svg data-name="Icon/Dropdown" xmlns="http://www.w3.org/2000/svg" width="24" height="24">
    <path data-name="Rectangle 495" style="fill:none" d="M0 0h24v24H0z"/>
    <g data-name="Group 75">
        <path data-name="Path 37" d="M4972.405 357.085a2.137 2.137 0 0 1-.682 1.146c-2.029 2.03-4.066 4.053-6.059 6.12a1.88 1.88 0 0 1-2.522 0c-2.031-2.106-4.111-4.165-6.172-6.242a1.561 1.561 0 0 1 .007-2.41c.123-.124.244-.249.368-.371a1.513 1.513 0 0 1 2.23 0q2.328 2.341 4.65 4.691c.137.139.21.132.343 0q2.3-2.328 4.6-4.647a1.554 1.554 0 0 1 1.693-.436 1.267 1.267 0 0 1 .433.245 8.088 8.088 0 0 1 .712.705 1.734 1.734 0 0 1 .394.866z" transform="translate(-4952.405 -347.835)" style="fill:#3c3c3c"/>
    </g>
</svg>
