<svg xmlns="http://www.w3.org/2000/svg" width="24" height="24" viewBox="0 0 24 24">
    <g fill="none" fill-rule="evenodd">
        <path d="M0 0h24v24H0z"/>
        <g fill-rule="nonzero">
            <path fill="#1976D2" d="M23.25 5.63h-10.5a.757.757 0 0 0-.75.763c0 .421.336.763.75.763h8.314l-4.608 3.648-3.304-2.14-.804 1.29 3.75 2.427a.736.736 0 0 0 .863-.04L22.5 7.952v9.892h-9.75a.757.757 0 0 0-.75.763c0 .422.336.764.75.764h10.5c.414 0 .75-.342.75-.764V6.393a.757.757 0 0 0-.75-.764z"/>
            <path fill="#2196F3" d="M13.229 1.224a.728.728 0 0 0-.617-.162l-12 2.29a.758.758 0 0 0-.612.75V20.9c0 .366.257.682.612.75l12 2.29a.739.739 0 0 0 .617-.162.77.77 0 0 0 .271-.588V1.812a.767.767 0 0 0-.271-.588z"/>
            <path fill="#FAFAFA" d="M6.75 17.845C4.683 17.845 3 15.79 3 13.264c0-2.526 1.683-4.58 3.75-4.58s3.75 2.054 3.75 4.58c0 2.526-1.683 4.58-3.75 4.58zm0-7.635c-1.24 0-2.25 1.37-2.25 3.054 0 1.684 1.01 3.054 2.25 3.054S9 14.948 9 13.264c0-1.684-1.01-3.054-2.25-3.054z"/>
        </g>
    </g>
</svg>
