<svg xmlns="http://www.w3.org/2000/svg" width="25" height="24" viewBox="0 0 25 24">
    <g fill="none" fill-rule="evenodd" stroke="#1C1B1B" stroke-width="2.4">
        <path d="M12.364 15.032a5 5 0 0 1-5-5c0-2.762 2.076-5 4.838-5s5.162 2.238 5.162 5a5 5 0 0 1-5 5zm-7.422 5.81c.817-3.316 3.83-5.776 7.422-5.776a7.638 7.638 0 0 1 7.237 5.147"/>
        <path stroke-linecap="round" stroke-linejoin="round" d="M10.542 1.54c3.925-1.038 8.208.35 10.75 3.452 2.225 2.713 3.023 6.548 1.907 9.875-1.176 3.5-4.31 6.396-7.911 7.394-3.766 1.043-8.383.248-11.146-2.6C2.197 17.655 1.196 14.85 1.2 12.1c.003-1.519.282-3.09.947-4.47.824-1.707 2.293-3.033 3.725-4.255"/>
    </g>
</svg>
