<svg xmlns="http://www.w3.org/2000/svg" width="24" height="24" viewBox="0 0 24 24">
    <g fill="none" fill-rule="evenodd">
        <path d="M0 0h24v24H0z"/>
        <path fill="#4202B0" d="M13.458 23.889c-.53-.04-1.021-.106-1.513-.106-.485 0-.969.069-1.495.11v-.288c.055-3.207.112-6.414.162-9.62a.792.792 0 0 0-.082-.396C8.211 9.614 5.888 5.64 3.56 1.671 3.234 1.118 2.873.587 2.5 0c.149.025.253.037.356.06.837.193 1.673.162 2.503-.03.206-.048.3.003.408.184 2.011 3.37 4.031 6.736 6.05 10.103.035.059.077.114.136.201.063-.094.118-.168.165-.246C14.142 6.898 16.165 3.525 18.186.15c.064-.108.118-.174.262-.139.937.227 1.875.206 2.814.005.038-.008.08 0 .144 0-.206.312-.414.6-.594.906-2.221 3.76-4.44 7.523-6.658 11.285-.212.36-.399.734-.628 1.081-.211.32-.268.652-.26 1.03.073 3.085.13 6.17.192 9.255.002.103 0 .206 0 .316"/>
    </g>
</svg>
