<svg xmlns="http://www.w3.org/2000/svg" width="24" height="24" viewBox="0 0 24 24">
    <g fill="none" fill-rule="evenodd">
        <path d="M0 0h24v24H0z"/>
        <path fill="#008257" d="M18.947 19.659H5.052l-2.36-9.442h18.616l-2.36 9.442zM12 4.181l2.624 3.674H9.376L12 4.181zm11.75 4.128a1.184 1.184 0 0 0-.93-.454h-5.295l-4.564-6.39c-.445-.62-1.478-.62-1.922 0l-4.565 6.39H1.18A1.18 1.18 0 0 0 .035 9.322l2.951 11.804a1.18 1.18 0 0 0 1.145.893H19.87c.541 0 1.013-.368 1.144-.893l2.952-11.804a1.188 1.188 0 0 0-.215-1.013z"/>
    </g>
</svg>
