<svg xmlns="http://www.w3.org/2000/svg" width="24" height="24" viewBox="0 0 24 24">
    <g fill="none" fill-rule="evenodd" stroke="#1C1B1B" stroke-linecap="round" stroke-linejoin="round" stroke-width="2.4">
        <path d="M22.015 9.927c.75 4.8-1.104 8.643-4.876 10.854-5.085 2.981-12.717.633-14.684-4.891-1.021-2.867-.516-6.541.898-9.217 1.138-2.152 3.147-3.84 5.56-4.419 3.018-.725 6.42-.795 9.504 1.496 2.055 1.527 3.255 3.586 3.598 6.177z"/>
        <path d="M18.392 10.946c-1.74.117-4.498 1.467-6.066 2.088l6.066-2.088zM8.891 7c.358 1.706 2.08 4.25 2.913 5.716L8.89 7z"/>
    </g>
</svg>
