<svg xmlns="http://www.w3.org/2000/svg" width="24" height="24" viewBox="0 0 24 24">
    <g fill="none" fill-rule="evenodd" stroke-linecap="round" stroke-linejoin="round" stroke-width="2.4">
        <path fill="#e9483e" stroke="#e9483e" d="M3.69 19.36c-1.716-1.987-2.12-2.179-2.12-7.525 0-3.516 2.686-8.133 6.832-9.395 4.147-1.262 8.31-1.185 11.215 1.74 2.257 2.272 3.954 8.618.787 14.02-3.167 5.403-13.96 4.348-16.715 1.16z"/>
        <path stroke="#FFF" d="M17.44 6.526c-3.022 1.976-5.975 4.515-8.25 7.333-.924 1.144-1.943 2.433-2.75 3.667"/>
        <path stroke="#FFF" d="M17.44 17.526c-3.425-2.24-6.569-5.034-8.712-8.555-.486-.799-.897-1.64-1.372-2.445"/>
    </g>
</svg>
