<svg xmlns="http://www.w3.org/2000/svg" width="24" height="24" viewBox="0 0 24 24">
    <g fill="none" fill-rule="evenodd" stroke="#1C1B1B" stroke-linecap="round" stroke-linejoin="round" stroke-width="2.4">
        <path d="M17.167 19.322c-3.412 2.65-8.255 1.996-11.286-.805C4.15 16.92 2.959 14.765 3 12.43c.075-4.18 2.65-7.685 6.878-8.968a10.483 10.483 0 0 1 3.349-.458c2.176.066 4.24.942 5.639 2.54 1.89 2.158 2.587 5.15 1.837 7.974-.14.529-.497 1.552-1.004 2.59"/>
        <path d="M5.803 12.09a48.633 48.633 0 0 1-4.813-.227c5.843.156 7.447.232 4.813.228zM18.217 11.874c1.604-.025 3.212.01 4.816.145-5.845-.055-7.45-.103-4.816-.145zM12.09 18.197a48.633 48.633 0 0 1-.227 4.813c.156-5.843.232-7.447.228-4.813zM11.874 5.783c-.025-1.604.01-3.212.145-4.816-.055 5.845-.103 7.45-.145 4.816z"/>
    </g>
</svg>
