<?xml version="1.0" encoding="UTF-8"?>
<svg width="24px" height="24px" viewBox="0 0 24 24" version="1.1" xmlns="http://www.w3.org/2000/svg" xmlns:xlink="http://www.w3.org/1999/xlink">
    <!-- Generator: Sketch 52.5 (67469) - http://www.bohemiancoding.com/sketch -->
    <title>icon/v</title>
    <desc>Created with Sketch.</desc>
    <defs>
        <polygon id="path-1" points="2.4656523e-05 0.0546113744 23.8970357 0.0546113744 23.8970357 22.8909953 2.4656523e-05 22.8909953"></polygon>
    </defs>
    <g id="icon/v" stroke="none" stroke-width="1" fill="none" fill-rule="evenodd">
        <rect id="Rectangle-6" x="0" y="0" width="24" height="24"></rect>
        <g id="Group-8">
            <path d="M16.3491857,22.563872 C15.3370071,22.5246303 14.3463643,22.2817678 13.3299,22.2793697 C12.1995429,22.2768626 11.0691857,22.2744645 9.93882857,22.2817678 C8.84500714,22.2890711 7.76200714,22.0831611 6.6639,22.0831611 C5.82368571,22.0831611 4.98550714,22.0855592 4.14754286,22.0904645 C3.72197143,22.0929716 3.29436429,22.0757488 2.87104286,22.0953697 C2.59815,22.1100853 2.32515,22.2744645 2.05665,22.2621469 C1.82661429,22.2524455 0.87465,21.7741327 0.704935714,21.4061327 C0.496435714,20.9499479 0.614614286,19.6058104 0.520114286,19.044218 C0.288042857,17.6534265 0.404078571,15.8678199 0.401935714,14.4305924 C0.399792857,12.7038483 0.33315,10.9622796 0.522257143,9.27237915 C0.601757143,8.56602844 0.440614286,8.05577725 0.419078571,7.35683886 C0.391114286,6.45166351 0.614614286,5.58354976 0.653292857,4.69069194 C0.696257143,3.76600474 0.453471429,2.71367299 0.878935714,1.98279621 C1.2894,1.27393839 1.79865,1.42120379 2.31015,1.28374882 C2.6754,1.18575355 2.94197143,0.692616114 3.32018571,0.700028436 C3.66400714,0.707440758 4.02068571,0.937876777 4.37747143,0.937876777 C4.72343571,0.940383886 5.07797143,0.793227488 5.42179286,0.739270142 C7.64811429,0.378791469 9.90454286,0.516028436 12.1437214,0.516028436 C14.4044357,0.516028436 16.7080071,0.837483412 18.9363643,0.842388626 C19.1857929,0.842388626 19.3555071,0.724554502 19.61115,0.709947867 C20.0259,0.685312796 20.5932214,0.783417062 21.0079714,0.910952607 C21.3517929,1.01646919 22.00515,1.06050711 22.3060071,1.27154028 C22.4049,1.34261137 22.5101143,1.38436019 22.6024714,1.49478199 C22.6132929,1.67627488 22.6476857,1.84555924 22.7036143,2.00492417 C22.8389357,2.38753081 23.0580429,2.59104265 23.1397929,3.013 C23.2235786,3.44226066 23.1397929,3.9720237 23.1655071,4.42090521 C23.20215,5.03645498 23.3439,5.61287204 23.3740071,6.23354502 C23.4793286,8.41385782 23.3052214,10.6606635 23.3481857,12.8534028 C23.3782929,14.489455 23.4879,16.0886635 23.4793286,17.7516398 C23.4750429,18.6198626 23.5802571,19.2894787 23.4750429,20.1209668 C23.3547214,21.0898009 23.0560071,21.8231848 22.4327571,22.2670521 C21.9793286,22.5907962 20.8404,22.4583555 20.42565,22.4510521 C19.6713643,22.4388436 19.0524,22.5221232 18.3154714,22.563872 L16.3491857,22.563872 Z" id="Fill-1" fill="#FEFEFE"></path>
            <g id="Group-5" transform="translate(0.000000, 0.054393)">
                <mask id="mask-2" fill="white">
                    <use xlink:href="#path-1"></use>
                </mask>
                <g id="Clip-4"></g>
            </g>
            <polygon id="Fill-6" fill="#51AF48" points="9.58626429 18.7426346 5.05058571 5.28381943 9.58626429 5.28381943 11.94855 13.9358526 14.3109429 5.28381943 18.8465143 5.28381943 14.3109429 18.7426346"></polygon>
        </g>
        <g id="Group-5" transform="translate(1.000000, 1.000000)" stroke="#50AE47" stroke-width="1.774194">
            <path d="M15.182701,22 C14.2206856,21.9608889 13.2791386,21.7188349 12.31305,21.7164448 C11.2387129,21.713946 10.1643759,21.7115559 9.09003883,21.7188349 C8.0504268,21.7261139 7.02109989,21.5208895 5.97741454,21.5208895 C5.17884098,21.5208895 4.38220223,21.5232796 3.58576716,21.5281685 C3.1812869,21.5306673 2.77487181,21.5135019 2.37253004,21.5330574 C2.11316166,21.547724 1.85369144,21.7115559 1.5984982,21.6992794 C1.37986298,21.6896103 0.475077701,21.2128899 0.313774394,20.8461151 C0.11560758,20.391449 0.227929263,19.0517865 0.13811265,18.4920637 C-0.082457402,17.1059025 0.0278276238,15.3262406 0.0257909659,13.893798 C0.023754308,12.1728027 -0.039585753,10.437032 0.140149308,8.75275765 C0.215709316,8.04875855 0.0625526412,7.54020611 0.0420842292,6.84359466 C0.0155058434,5.94143285 0.227929263,5.07620926 0.264690939,4.18632397 C0.30552593,3.26471527 0.0747725886,2.21588698 0.479151017,1.48744347 C0.869272839,0.780945605 1.35328459,0.927720727 1.83943483,0.790723371 C2.18658318,0.69305436 2.43994342,0.201558691 2.79941354,0.208946336 C3.1261953,0.216333981 3.46519701,0.446002823 3.80430055,0.446002823 C4.13311897,0.448501585 4.47008402,0.301835106 4.79686578,0.248057397 C6.91285152,-0.111221157 9.0574523,0.0255589154 11.185658,0.0255589154 C13.3343321,0.0255589154 15.5237393,0.345943692 17.6416599,0.350832574 C17.8787269,0.350832574 18.0400302,0.233390749 18.2830035,0.218832743 C18.6771986,0.194279688 19.2164038,0.292057341 19.6105989,0.41916829 C19.9373807,0.524333587 20.5583577,0.568224889 20.8443045,0.778555485 C20.9382962,0.849389963 21.0382961,0.890999786 21.1260761,1.00105397 C21.1363612,1.18194262 21.1690496,1.3506634 21.2222063,1.50949776 C21.3508213,1.89083061 21.5590695,2.09366492 21.636768,2.51421747 C21.7164014,2.94204902 21.636768,3.47004835 21.6612079,3.91743543 C21.6960348,4.53093588 21.8307597,5.10543391 21.8593748,5.72404053 C21.9594765,7.89709455 21.793998,10.1364201 21.834833,12.3218593 C21.8634481,13.9524646 21.9676231,15.546349 21.9594765,17.2037888 C21.9554032,18.0691211 22.0554031,18.7365079 21.9554032,19.5652278 C21.8410448,20.5308364 21.5571347,21.2617787 20.9647728,21.7041683 C20.533816,22.0268345 19.4513323,21.8948347 19.0571371,21.8875557 C18.3402336,21.8753878 17.7519449,21.9583902 17.0515383,22 L15.182701,22 Z" id="Stroke-3"></path>
        </g>
    </g>
</svg>