<?xml version="1.0" encoding="UTF-8"?>
<svg width="51px" height="24px" viewBox="0 0 51 24" version="1.1" xmlns="http://www.w3.org/2000/svg" xmlns:xlink="http://www.w3.org/1999/xlink">
    <!-- Generator: Sketch 52.5 (67469) - http://www.bohemiancoding.com/sketch -->
    <title>icon/vg</title>
    <desc>Created with Sketch.</desc>
    <defs>
        <polygon id="path-1" points="2.21739131e-05 0.174444444 50.9494435 0.174444444 50.9494435 23.7776854 2.21739131e-05 23.7776854"></polygon>
    </defs>
    <g id="icon/vg" stroke="none" stroke-width="1" fill="none" fill-rule="evenodd">
        <rect id="Rectangle-6" x="0" y="0" width="24" height="24"></rect>
        <g id="Group-8">
            <g id="Group-3" transform="translate(0.000000, 0.047778)">
                <mask id="mask-2" fill="white">
                    <use xlink:href="#path-1"></use>
                </mask>
                <g id="Clip-2"></g>
                <path d="M50.9494657,11.7271778 C50.9494657,11.7271778 49.0997178,14.1394 46.6055961,16.0976222 C42.8052091,19.0816222 29.7487657,27.6729556 18.6123613,21.7314 C7.02294391,15.5482889 7.92475696,14.1565111 4.03767,15.2669556 L1.13288739,15.9956222 L2.21739131e-05,14.4467333 C2.21739131e-05,14.4467333 4.49467435,14.4220667 6.2448613,12.5798444 C7.99482652,10.7374 20.2842743,-8.02682222 41.3404004,4.3974 C43.485283,5.66295556 46.0749743,7.05651111 50.9494657,11.7271778" id="Fill-1" fill="#51AF48" mask="url(#mask-2)"></path>
            </g>
            <polygon id="Fill-4" fill="#FEFEFE" points="19.6742922 18.4577778 15.2683357 5.57888889 19.6742922 5.57888889 21.9692922 13.8582222 24.2638487 5.57888889 28.6698052 5.57888889 24.2638487 18.4577778"></polygon>
            <path d="M35.8298504,18.4762222 C34.8018678,18.4762222 33.8441765,18.2955556 32.9567765,17.9335556 C32.0693765,17.5717778 31.3014939,17.078 30.6526852,16.4524444 C30.0040983,15.8266667 29.4963157,15.1031111 29.1288939,14.2813333 C28.7619157,13.4597778 28.5783157,12.5886667 28.5783157,11.6688889 C28.5783157,10.7488889 28.7619157,9.87822222 29.1288939,9.05622222 C29.4963157,8.23466667 30.0040983,7.51066667 30.6526852,6.88511111 C31.3014939,6.25955556 32.0693765,5.766 32.9567765,5.404 C33.8441765,5.04244444 34.8018678,4.86133333 35.8298504,4.86133333 C36.7722417,4.86133333 37.592233,4.99644444 38.2900461,5.26622222 C38.9874157,5.53622222 39.5685939,5.83044444 40.0340243,6.14933333 C40.5846026,6.52955556 41.0498113,6.95866667 41.429207,7.43711111 L38.9508287,10.0128889 C38.7182243,9.74333333 38.4428243,9.49777778 38.1248504,9.27711111 C37.8554374,9.09288889 37.5372417,8.92466667 37.1700417,8.77111111 C36.8030635,8.61777778 36.3868591,8.54111111 35.9216504,8.54111111 C35.4564417,8.54111111 35.0282635,8.62088889 34.6366722,8.78022222 C34.2448591,8.93977778 33.9082591,9.16066667 33.6268722,9.44266667 C33.3452635,9.72488889 33.1219722,10.056 32.9567765,10.436 C32.7915809,10.8164444 32.7090939,11.2271111 32.7090939,11.6688889 C32.7090939,12.1104444 32.7884765,12.5215556 32.9476852,12.9015556 C33.1066722,13.2817778 33.3268591,13.6128889 33.6084678,13.8951111 C33.8898548,14.1771111 34.2204678,14.398 34.5998635,14.5573333 C34.9790374,14.7168889 35.3894765,14.7964444 35.8298504,14.7964444 C36.1236548,14.7964444 36.3806504,14.7688889 36.6010591,14.7135556 C36.8212461,14.6584444 37.0048461,14.594 37.1516374,14.5204444 C37.32282,14.4468889 37.4638461,14.3548889 37.5738287,14.2444444 L37.5738287,13.1406667 L35.7380504,13.1406667 L35.7380504,10.8408889 L41.704607,10.8408889 L41.704607,15.9006667 C41.276207,16.3788889 40.7682026,16.8082222 40.1808157,17.1882222 C39.6787983,17.5075556 39.0639157,17.8017778 38.3359461,18.0715556 C37.607533,18.3415556 36.7722417,18.4762222 35.8298504,18.4762222" id="Fill-6" fill="#FEFEFE"></path>
        </g>
    </g>
</svg>