<?xml version="1.0" encoding="UTF-8"?>
<svg width="42px" height="22px" viewBox="0 0 42 22" version="1.1" xmlns="http://www.w3.org/2000/svg" xmlns:xlink="http://www.w3.org/1999/xlink">
    <!-- Generator: Sketch 50.2 (55047) - http://www.bohemiancoding.com/sketch -->
    <title>tag-new</title>
    <desc>Created with Sketch.</desc>
    <defs></defs>
    <g id="tag-new" stroke="none" stroke-width="1" fill="none" fill-rule="evenodd">
        <path d="M40.5798418,21.1866587 C40.5792601,21.1595914 40.5784457,21.132414 40.5773986,21.1046864 C40.6634927,21.136155 40.701886,21.1649828 40.5798418,21.1866587 Z M28.8377655,21.9019633 C28.7550453,21.8691744 28.6715108,21.8397964 28.9699316,21.8722552 L28.8377655,21.9019633 Z M41.8226222,19.9756693 C41.8150599,19.8812636 41.8066832,19.7726641 41.7977247,19.7266716 C41.7262899,19.2378086 41.6254201,18.6926102 41.7246611,18.2315848 C41.6988328,18.3017839 41.6633481,18.3202689 41.6426389,18.3289613 C41.8561291,17.4416799 41.4626557,16.3394001 41.5689936,16.1337541 L41.3859854,16.0548627 C41.6670711,15.2964263 41.6910378,15.2064218 41.5772539,14.3018658 C41.5477027,14.3135289 41.4951155,14.4180574 41.4567222,14.2749084 C41.5920296,14.0573793 41.727337,13.8384197 41.6901071,13.2192813 L41.6324007,13.2445881 L41.66265,12.2758846 C41.0983844,12.2830366 42.0078409,10.6161931 41.3959909,10.3251639 C41.5608495,10.1354723 41.6126223,9.42709961 41.6910378,9.11219394 C41.6670711,9.10999335 41.6418245,9.09018796 41.6155309,9.03781371 C41.9196526,8.66580251 41.5204784,7.96403159 41.5550323,7.55207952 C41.627398,7.2832764 41.7237303,7.39946801 41.820179,7.51675992 C41.5802789,6.98531534 42.0877689,6.04962079 41.9864338,5.85574805 C41.9631651,5.46624208 41.770035,5.71050853 41.6448495,5.60366947 C41.6988328,5.02502205 42.1555971,5.70093593 41.9308216,4.92445469 C41.9063895,5.01456921 41.8863784,5.18148462 41.8531042,5.11667699 C41.8056361,4.82014632 41.1571378,4.2900221 41.2875588,3.99459173 L41.3887776,4.18989486 C41.5343232,3.64909774 40.9286394,2.9104668 41.3096641,2.82354315 L41.4867388,2.87426695 C41.3695809,2.40840021 41.3869161,2.30970336 41.4079743,2.20924604 C41.4184452,2.15610158 41.4298468,2.11528047 41.4257748,2.00481042 C41.4217028,1.87761582 41.4021571,1.68374308 41.3507333,1.40019594 L41.3215311,1.4250627 C41.3436363,1.07846841 41.2595201,0.895928755 41.2733649,0.705026821 C41.1456198,0.698975175 41.0651102,0.670477422 41.0218304,0.59301635 L41.301171,0.563418298 C40.8619746,0.554945993 40.6132323,0.554725933 40.3643738,0.558026831 C40.132385,0.561877878 39.8967895,0.565838956 39.4773715,0.572770842 C39.5061083,0.566829225 39.5350778,0.560887609 39.563233,0.554945993 L40.6274262,0.154877156 C40.1142354,0.127369673 39.2812165,0.295495411 39.7598533,0.196028351 L38.9310228,0.235419067 L38.4350508,0.274699753 L38.4258597,0.243011133 C37.6683476,0.23057775 36.8760489,0.36261367 36.0377946,0.316951248 C35.9051631,0.215833739 35.6657283,0.142663834 35.1994239,0.135511888 C35.3335678,0.169511137 35.5440331,0.188546316 35.4578226,0.235088977 C35.4472354,0.240590474 35.4349029,0.244551552 35.4216398,0.24752236 C35.3785927,0.239930294 35.3355457,0.232998409 35.2922659,0.224085984 C35.2582936,0.227386882 35.2240887,0.23068778 35.1897674,0.234098708 C35.1527701,0.226506643 35.1203103,0.218694517 35.1001829,0.21363314 C35.0809863,0.223975954 35.0804045,0.233768618 35.0891303,0.243561282 C34.9482384,0.256544814 34.7987371,0.267877897 34.6263162,0.271949005 C34.5657012,0.270628646 34.5043883,0.271288825 34.4419118,0.273379394 C34.328826,0.272389125 34.2064327,0.268097957 34.0708927,0.259295563 L33.9635077,0.14937566 C33.540483,0.187666076 32.6930375,0.0393457265 32.5111927,0.153886887 C32.0550102,-0.141873573 30.457964,0.089409346 29.7140642,0.0368150381 L29.6859091,0.180294071 C29.1738817,0.172261886 28.6826797,0.213082991 28.0469793,0.270628646 L28.086187,0.397493159 C27.5379768,0.501691505 26.6770355,0.307268613 25.8101606,0.320252146 C25.8691467,0.271838975 26.0889195,0.284492417 26.2444706,0.313760379 C25.2088978,0.0272424339 24.0593085,0.522157073 23.1199517,0.31343029 C22.8858687,0.359532832 22.7163563,0.343798551 22.5523121,0.311889871 C22.5740683,0.311669811 22.5934977,0.309359182 22.6103675,0.305288075 C22.5862844,0.303857686 22.5506833,0.303527596 22.5142678,0.303857686 C22.4108385,0.281961729 22.3043843,0.256434784 22.1889716,0.236189277 C22.2871655,0.266997658 22.3809383,0.292414572 22.462495,0.304187775 C22.3229992,0.306168314 22.1273096,0.316181038 21.9217308,0.335326246 C21.8957862,0.327844211 21.8732156,0.319922056 21.858789,0.310789571 C21.8412211,0.324763373 21.8229552,0.336756635 21.8041076,0.347319509 C21.7827004,0.349630138 21.7612932,0.351830736 21.739886,0.354361425 L21.6255204,0.218144368 C21.6037642,0.219464727 21.5863127,0.220675056 21.5635094,0.221995415 C21.3002242,0.171711736 21.3518807,0.286582986 21.4923072,0.389020854 C21.4654319,0.393532081 21.4393709,0.398263368 21.4135427,0.403104685 C21.2650885,0.392541812 21.1176814,0.369545556 21.0000582,0.397493159 C20.882435,0.369545556 20.7349115,0.392541812 20.5864573,0.403104685 C20.5606291,0.398263368 20.5345681,0.393532081 20.5076928,0.389020854 C20.6481193,0.286582986 20.6997758,0.171711736 20.4364906,0.221995415 C20.4136873,0.220675056 20.3962358,0.219464727 20.3744796,0.218144368 L20.260114,0.354361425 C20.2387068,0.351830736 20.2172996,0.349630138 20.1958924,0.347319509 C20.1770448,0.336756635 20.1587789,0.324763373 20.141211,0.310789571 C20.1267844,0.319922056 20.1042138,0.327844211 20.0782692,0.335326246 C19.8726904,0.316181038 19.6771171,0.306168314 19.537505,0.304187775 C19.6190617,0.292414572 19.7129509,0.266997658 19.8110284,0.236189277 C19.6956157,0.256434784 19.5891615,0.281961729 19.4857322,0.303857686 C19.4493167,0.303527596 19.4137156,0.303857686 19.3896325,0.305288075 C19.4065023,0.309359182 19.4259317,0.311669811 19.4478042,0.311889871 C19.28376,0.343798551 19.1141313,0.359532832 18.8800483,0.31343029 C17.9406915,0.522157073 16.7912185,0.0272424339 15.7555294,0.313760379 C15.9110805,0.284492417 16.1309696,0.271838975 16.1899557,0.320252146 C15.3229645,0.307268613 14.4620232,0.501691505 13.913813,0.397493159 L13.9529044,0.270628646 C13.3172039,0.213082991 12.8262347,0.172261886 12.3140909,0.180294071 L12.2859358,0.0368150381 C11.542036,0.089409346 9.94510616,-0.141873573 9.48880726,0.153886887 C9.30696249,0.0393457265 8.459517,0.187666076 8.03649232,0.14937566 L7.92910734,0.259295563 C7.79356725,0.268097957 7.67117397,0.272389125 7.55808816,0.273379394 C7.49561175,0.271288825 7.43429876,0.270628646 7.37368384,0.271949005 C7.20137923,0.267877897 7.05176159,0.256544814 6.9108697,0.243561282 C6.91959546,0.233768618 6.91901374,0.223975954 6.89981708,0.21363314 C6.87968967,0.218694517 6.8473462,0.226506643 6.81023264,0.234098708 C6.77591133,0.23068778 6.74170637,0.227386882 6.70785043,0.224085984 C6.66445433,0.232998409 6.62140727,0.239930294 6.5783602,0.24752236 C6.56509705,0.244551552 6.55276465,0.240590474 6.5421774,0.235088977 C6.45596692,0.188546316 6.66631583,0.169511137 6.80057614,0.135511888 C6.3342717,0.142663834 6.09483694,0.215833739 5.96220544,0.316951248 C5.12406742,0.36261367 4.33165237,0.23057775 3.57414035,0.243011133 L3.56494922,0.274699753 L3.06897721,0.235419067 L2.24003032,0.196028351 C2.7187835,0.295495411 1.8857646,0.127369673 1.37257376,0.154877156 L2.43676705,0.554945993 C2.4650385,0.560887609 2.49400801,0.566829225 2.52262849,0.572770842 C2.10321045,0.565838956 1.86761502,0.561877878 1.63562624,0.558026831 C1.38676766,0.554725933 1.13802542,0.554945993 0.698712658,0.563418298 L0.978169559,0.59301635 C0.935006149,0.670477422 0.854380157,0.698975175 0.726635079,0.705026821 C0.74059629,0.895928755 0.656247309,1.07846841 0.678468902,1.4250627 L0.649266703,1.40019594 C0.597842911,1.68374308 0.578297216,1.87761582 0.574341539,2.00481042 C0.570153176,2.11528047 0.581554832,2.15610158 0.59202574,2.20924604 C0.613200242,2.30970336 0.630419069,2.40840021 0.513261242,2.87426695 L0.690335932,2.82354315 C1.07136064,2.9104668 0.465676783,3.64909774 0.611222404,4.18989486 L0.712441182,3.99459173 C0.842862158,4.2900221 0.194363921,4.82014632 0.146895805,5.11667699 C0.113621586,5.18148462 0.0936105174,5.01456921 0.0691783987,4.92445469 C-0.155597094,5.70093593 0.301167183,5.02502205 0.355150531,5.60366947 C0.229848665,5.71050853 0.0369512707,5.46624208 0.0135662427,5.85574805 C-0.0877688783,6.04962079 0.419721131,6.98531534 0.179820994,7.51675992 C0.276269691,7.39946801 0.372602045,7.2832764 0.445083997,7.55207952 C0.479637993,7.96403159 0.0804637107,8.66580251 0.384469074,9.03781371 C0.35817546,9.09018796 0.332928938,9.10999335 0.308962193,9.11219394 C0.387377659,9.42709961 0.439266826,10.1354723 0.604125455,10.3251639 C-0.00784094701,10.6161931 0.90173193,12.2830366 0.337349988,12.2758846 L0.367599277,13.2445881 L0.310009283,13.2192813 C0.272663045,13.8384197 0.407970445,14.0573793 0.543277845,14.2749084 C0.504884516,14.4180574 0.452297289,14.3135289 0.422629716,14.3018658 C0.308962193,15.2064218 0.332928938,15.2964263 0.614014646,16.0548627 L0.431006443,16.1337541 C0.537344331,16.3394001 0.143987219,17.4416799 0.357361056,18.3289613 C0.336768271,18.3202689 0.301167183,18.3017839 0.275338943,18.2315848 C0.374579883,18.6926102 0.273826479,19.2378086 0.202275274,19.7266716 C0.193316831,19.7726641 0.184823761,19.8812636 0.177377782,19.9756693 C0.170629863,20.0718355 0.164114631,20.165911 0.157832087,20.257566 C0.147128492,20.4421962 0.141893038,20.6193444 0.145616027,20.7792179 C0.153411037,21.0991849 0.196923477,21.3482927 0.30512286,21.4435786 C0.421582626,21.4162912 0.526757079,21.3836123 0.624369211,21.3447717 L1.89646819,21.2187875 C1.17572069,21.1990921 1.29753225,21.143637 1.48775375,21.0825704 C1.68518854,21.0215038 1.92881166,20.9549357 1.71811373,20.9124641 C2.14800267,20.882536 2.89853409,21.066506 2.30529898,21.0928032 L2.21013006,21.0672763 C2.13788079,21.1337343 2.20117162,21.172905 2.35474493,21.1971116 C2.40803022,21.2047036 2.45805789,21.2104252 2.50762019,21.2154866 C2.5277476,21.2338616 2.55741518,21.2520165 2.60022956,21.2698414 L2.21804141,21.2377126 C2.34404134,21.4165113 3.41765844,21.2420038 3.63754751,21.4293848 L4.18564137,21.3443316 C4.23357486,21.3445517 4.28185738,21.3442216 4.32967453,21.3446617 C4.05021763,21.4985936 3.57088273,21.6430629 3.90874403,21.7678368 L3.55168607,21.7412096 C3.66942561,21.8895299 4.67242225,21.7447306 4.8777684,21.9000928 L6.00490347,21.7446205 C5.96930239,21.8006258 6.15440477,21.8834783 5.97337441,21.9027335 C6.25190056,21.9055943 6.49482562,21.9134064 6.13020534,21.9935082 C8.82227579,21.6154454 11.5883407,21.9814049 14.2392255,21.7803803 C14.4183944,21.7934738 14.3155468,21.8458481 14.2466715,21.8806175 C14.7348485,21.7373585 14.713674,21.9553278 14.9809149,21.9755734 L15.6953798,21.7691572 C15.9856567,21.8306639 15.7589033,21.8938211 15.7800778,21.9350823 C17.1332682,21.9762335 18.4510901,21.7752088 19.5458817,21.897012 C19.894912,21.8229618 19.4626962,21.7307568 19.9227181,21.7052298 C19.3207572,21.9106557 21.1229168,21.8131692 20.8986067,21.9401437 C21.3678197,21.7374686 22.5168274,21.8996527 22.3200906,21.5925592 C22.8713258,21.5739641 22.7761569,21.7263556 22.6172317,21.7546332 C23.2564225,21.74253 23.7722892,21.7409895 24.2949039,21.8397964 C24.6450976,21.7662964 27.2155892,21.9180277 27.7857883,21.6812433 C27.3972013,21.8348451 27.8156886,21.7607949 28.1889182,21.8275831 L27.8523367,21.96336 L28.6941977,21.948506 C28.8656879,21.9614895 28.9139705,21.955768 28.9132724,21.9436647 C29.0557931,21.9369528 28.8793001,21.8654334 29.2418262,21.8311041 C29.8149339,21.8226317 29.8429727,21.897012 30.1579143,21.9672111 L30.0704241,21.9872365 L30.4591275,22 C30.7453323,21.9959289 29.4471724,21.8653234 30.380712,21.7956744 C30.3943242,21.8330846 30.9432324,22.0118832 31.1938362,21.9145067 C30.7172935,21.9216587 30.7772104,21.827253 30.9525399,21.7872021 L31.6208165,21.7774094 L31.4002294,21.9491662 C33.3159402,21.9397036 35.3093684,21.8175704 37.3546858,21.8283533 C37.3407246,21.7532029 37.7027853,21.7512223 38.0453003,21.7404394 C38.1308127,21.7376886 38.2152781,21.7344978 38.2922974,21.7294364 C38.3664082,21.724375 38.4376103,21.7173331 38.5167239,21.7075404 C38.6601753,21.687405 38.7192778,21.6549461 38.6516822,21.5996011 L38.5629122,21.6209469 C38.0086521,21.599161 38.7098539,21.4464394 39.1113551,21.4713062 C38.9146184,21.5065158 39.1421861,21.5618608 39.3267068,21.6124746 C39.5042468,21.6631984 39.618147,21.7090809 38.9447513,21.7254753 L40.133083,21.8298937 C40.2242963,21.8622425 40.3227228,21.8893099 40.4315039,21.9119761 C40.53249,21.8330846 40.5732102,21.6262283 40.5804235,21.3608361 C40.5812379,21.3306879 40.5801908,21.2974589 40.5800745,21.2659903 L41.3756308,21.3447717 C41.4732429,21.3836123 41.5785337,21.4162912 41.6948771,21.4435786 C41.8030765,21.3482927 41.8467053,21.0991849 41.854384,20.7792179 C41.858107,20.6193444 41.8527552,20.4421962 41.8422843,20.257566 C41.8358854,20.165911 41.8293701,20.0718355 41.8226222,19.9756693 Z" id="Fill-1" fill="#A3BB3A"></path>
        <path d="M9.29,4.776 L9.423,5.232 L9.537,5.441 L9.594,5.764 L9.765,5.992 L9.765,6.315 L9.974,6.828 L10.164,7.341 L10.335,7.968 L10.43,8.196 L10.449,8.405 L10.563,8.709 L10.829,9.507 L11.019,10.02 L11.076,10.381 L11.285,10.894 L11.323,11.179 L11.551,11.749 L11.57,12.015 L11.646,12.015 L11.722,11.331 L11.665,11.084 L11.665,9.887 L11.722,9.431 L11.665,9.051 L11.722,8.804 L11.646,8.576 L11.703,8.291 L11.703,7.607 L11.646,7.417 L11.684,7.075 L11.646,6.866 L11.646,6.182 L11.722,5.669 L11.703,5.441 L11.836,4.833 L12.311,4.7 L12.596,4.662 L12.9,4.719 L13.109,4.662 L13.641,4.776 L13.755,5.365 L13.755,5.669 L13.812,6.258 L13.755,6.543 L13.793,6.752 L13.793,7.436 L13.755,7.721 L13.812,7.93 L13.812,8.481 L13.736,8.804 L13.736,9.317 L13.812,9.659 L13.793,9.887 L13.793,10.286 L13.736,10.533 L13.736,10.856 L13.793,11.407 L13.736,11.616 L13.793,12.224 L13.774,12.471 L13.812,12.737 L13.793,13.041 L13.793,14.466 L13.736,14.846 L13.812,15.378 L13.774,15.587 L13.812,15.948 L13.755,16.252 L13.774,16.499 L13.736,16.746 L13.812,17.05 L13.717,17.335 L13.717,17.886 L13.128,17.981 L12.862,17.981 L12.539,18.076 L12.311,18.057 L11.779,17.905 L11.456,17.183 L11.323,16.632 L11.19,16.157 L11.057,15.929 L11,15.606 L10.886,15.378 L10.81,15.017 L10.715,14.77 L10.658,14.485 L10.449,13.972 L10.278,13.478 L10.145,12.965 L9.993,12.376 L9.841,12.11 L9.746,11.597 L9.632,11.274 L9.518,11.065 L9.461,10.723 L9.347,10.761 L9.404,11.084 L9.328,11.35 L9.385,11.597 L9.385,12.471 L9.328,13.022 L9.404,13.611 L9.328,13.915 L9.366,14.238 L9.328,14.447 L9.404,14.77 L9.366,14.998 L9.404,15.359 L9.328,15.872 L9.328,16.803 L9.385,17.278 L9.29,17.962 L8.701,17.962 L8.435,18.019 L7.903,18.019 L7.314,17.924 L7.314,17.031 L7.257,16.784 L7.295,16.537 L7.295,14.77 L7.238,14.276 L7.238,13.592 L7.276,13.402 L7.276,13.079 L7.314,12.775 L7.257,12.205 L7.257,11.882 L7.295,11.35 L7.257,11.084 L7.295,10.552 L7.238,9.887 L7.276,9.602 L7.276,8.272 L7.238,7.645 L7.295,7.132 L7.238,6.866 L7.238,6.258 L7.314,5.631 L7.238,5.346 L7.371,4.757 L7.941,4.662 L8.169,4.681 L8.511,4.776 L8.739,4.662 L9.29,4.776 Z M10.316,9.792 L10.107,9.944 L10.031,9.944 L9.993,9.849 L10.107,9.735 L10.107,9.716 L9.936,9.716 L9.993,9.621 L9.936,9.678 L9.974,9.545 L9.917,9.45 L9.917,9.298 L10.088,9.241 L9.86,8.899 L9.803,8.918 L9.936,9.127 L9.879,9.203 L9.746,9.203 L9.746,9.222 L9.651,9.393 L9.765,9.602 L9.708,9.621 L9.822,9.678 L9.803,9.849 L9.822,9.906 L9.936,9.963 L10.145,9.963 L10.221,10.058 L10.316,9.792 Z M7.865,16.632 C7.789,16.67 7.96,16.727 7.922,16.651 L8.074,16.784 L7.903,16.765 L7.922,16.822 L7.903,17.012 L8.036,17.164 L8.112,17.126 L8.036,17.012 C8.074,16.879 8.302,16.993 8.359,16.822 L8.245,16.689 L8.359,16.575 L8.207,16.518 L8.226,16.575 L7.96,16.575 L7.865,16.632 Z M8.169,15.891 L7.979,15.91 L8.036,16.081 L7.865,16.138 L7.846,16.252 L7.922,16.404 C7.903,16.271 8.131,16.195 8.093,16.081 L8.302,16.347 L8.34,16.271 L8.169,15.891 Z M9.043,6.068 L9.043,6.049 L8.815,6.239 L8.815,6.258 L8.986,6.391 L8.986,6.448 L9.1,6.619 L9.062,6.353 L9.252,6.087 L9.1,5.954 L9.043,6.068 Z M12.9,14.01 C12.938,14.238 13.09,14.428 13.128,14.637 L13.242,14.561 C13.242,14.409 13.09,14.295 13.242,14.143 C13.109,14.124 13.014,14.048 12.9,14.01 Z M13.185,12.566 L13.071,12.851 L13.128,13.041 L13.299,13.269 C13.28,13.041 13.261,12.794 13.185,12.566 Z M13.09,16.423 L13.109,16.461 C12.976,16.48 12.9,16.575 12.9,16.708 L13.147,16.689 L13.147,16.898 L13.09,17.012 L13.147,17.126 C13.166,16.955 13.204,16.765 13.204,16.594 L13.109,16.461 L13.128,16.461 L13.09,16.423 Z M12.311,16.176 L12.33,16.176 L12.387,16.29 L12.501,16.024 L12.33,15.967 L12.425,16.119 L12.368,16.176 L12.311,16.005 L12.14,16.119 C12.159,16.252 12.197,16.404 12.273,16.518 L12.254,16.347 L12.311,16.176 Z M8.188,16.993 L8.112,17.126 L8.074,17.24 L8.207,17.411 L8.131,17.278 C8.188,17.164 8.321,17.183 8.416,17.107 C8.511,17.126 8.625,17.183 8.72,17.164 L8.416,17.069 L8.435,17.031 L8.188,16.993 Z M8.53,15.663 L8.359,15.682 L8.435,15.948 L8.359,16.005 L8.473,16.176 L8.549,16.119 C8.454,15.967 8.568,15.815 8.53,15.663 Z M8.321,14.352 L8.321,14.181 L8.074,14.257 L8.017,14.428 L8.245,14.504 L8.302,14.485 L8.188,14.314 L8.321,14.352 Z M12.71,11.654 L12.71,11.787 C12.843,11.806 12.881,11.958 12.995,11.996 L13.071,11.806 L13.052,11.711 L12.881,11.768 L12.71,11.654 Z M8.074,15.226 L8.036,15.321 L8.131,15.606 L8.359,15.454 C8.226,15.416 8.207,15.264 8.074,15.226 Z M12.938,11.103 L12.881,11.198 L13.052,11.217 L12.881,11.312 L12.995,11.559 L12.995,11.369 L13.204,11.312 L12.938,11.103 Z M12.786,15.397 L12.767,15.283 L12.558,15.321 L12.596,15.492 L12.843,15.492 L12.786,15.397 Z M12.881,16.176 L12.425,16.309 L12.501,16.423 C12.634,16.366 12.767,16.271 12.881,16.176 Z M8.207,10.229 L8.397,10.096 L8.15,9.982 L8.15,10.039 C8.15,10.096 8.188,10.172 8.207,10.229 Z M10.107,10.362 L10.221,10.742 L10.278,10.419 L10.107,10.362 Z M8.758,15.112 L8.701,15.15 L8.815,15.321 L8.758,15.454 L8.948,15.207 L8.91,15.207 L8.758,15.112 Z M8.074,10.685 L7.922,11.027 L8.093,11.046 C8.055,10.932 8.074,10.799 8.074,10.685 Z M11.456,12.87 L11.228,13.326 L11.266,13.326 L11.361,13.098 L11.475,13.117 L11.513,13.022 L11.456,12.908 L11.456,12.87 Z M8.416,14.675 L8.473,14.751 L8.359,14.713 L8.321,14.865 L8.492,14.884 L8.473,14.751 L8.53,14.694 L8.435,14.637 L8.416,14.637 L8.416,14.675 Z M8.359,12.566 L8.188,12.395 L8.131,12.566 L8.15,12.623 L8.359,12.566 Z M9.214,6.98 L9.309,7.246 L9.214,7.36 L9.157,7.379 L9.309,7.417 L9.366,7.36 L9.309,7.246 L9.366,7.189 L9.214,6.98 Z M12.881,5.726 L12.767,5.783 L12.786,5.935 C12.881,5.84 12.938,5.726 12.938,5.593 L12.786,5.726 L12.881,5.726 Z M8.682,14.656 L8.72,14.922 L8.834,14.808 L8.815,14.694 L8.682,14.656 Z M8.207,13.06 L8.074,12.908 L8.093,12.832 L8.036,12.528 L7.979,12.756 L8.074,12.908 L8.074,12.965 L8.207,13.06 Z M8.986,7.018 L8.91,6.999 C8.777,6.999 8.701,7.17 8.663,7.265 C8.796,7.265 8.796,7.056 8.986,7.018 Z M11.627,13.839 L11.532,13.839 L11.513,13.706 L11.38,13.858 L11.456,13.858 L11.475,13.953 L11.399,14.029 L11.627,13.839 Z M12.9,12.623 L12.767,12.452 L12.71,12.509 L12.786,12.68 L12.9,12.623 Z M8.834,15.663 L8.986,15.511 L8.929,15.511 L8.663,15.606 L8.834,15.663 Z M8.644,14.295 L8.378,14.143 L8.606,14.276 L8.606,14.295 L8.511,14.428 L8.53,14.485 L8.587,14.485 L8.701,14.295 L8.644,14.295 Z M8.492,16.936 L8.606,16.632 L8.473,16.689 L8.492,16.936 Z M9.005,5.973 L9.005,5.954 L8.872,5.935 L8.834,5.954 L8.834,6.049 L8.891,6.049 C8.929,6.049 9.005,6.03 9.005,5.973 Z M13.147,6.885 L13.09,6.904 L13.052,7.037 L13.147,7.151 L13.128,7.018 L13.166,6.904 L13.147,6.885 Z M9.518,9.013 L9.48,9.089 L9.537,9.108 L9.689,9.089 C9.689,9.032 9.613,9.013 9.556,9.013 L9.518,9.013 Z M12.786,7.132 L12.919,7.151 L12.824,6.961 L12.786,7.132 Z M12.482,15.549 L12.273,15.492 L12.273,15.511 L12.406,15.625 L12.482,15.549 Z M7.865,14.599 L7.808,14.77 L7.96,14.713 L7.865,14.599 Z M13.014,6.22 L12.9,6.125 L12.862,6.201 L12.957,6.277 L13.014,6.22 Z M10.05,10.248 L10.05,10.058 L9.936,10.001 L10.05,10.248 Z M9.176,7.892 L9.328,7.778 C9.233,7.797 9.176,7.759 9.119,7.873 L9.176,7.892 Z M11.361,13.345 L11.342,13.459 L11.38,13.459 L11.532,13.383 C11.475,13.383 11.418,13.383 11.361,13.345 Z M8.378,10.438 L8.359,10.4 L8.34,10.4 C8.264,10.4 8.207,10.438 8.207,10.514 L8.378,10.438 Z M12.957,14.998 L13.128,14.979 L12.9,14.979 L13.071,15.131 L13.128,15.112 L12.957,14.998 Z M12.843,16.784 L12.729,16.765 L12.729,16.898 L12.767,16.898 L12.843,16.784 Z M9.86,8.348 L9.708,8.462 L9.746,8.538 L9.803,8.462 L9.822,8.424 L9.822,8.443 L9.86,8.348 Z M8.017,9.621 L7.979,9.792 L7.998,9.792 L8.093,9.735 L8.017,9.621 Z M12.938,13.269 L12.881,13.155 L12.881,13.174 L12.786,13.288 L12.843,13.288 C12.881,13.288 12.9,13.269 12.938,13.269 Z M12.843,13.972 L12.767,13.896 L12.748,13.953 L12.824,14.086 L12.843,13.972 Z M13.242,15.492 L13.299,15.72 L13.356,15.663 L13.242,15.492 Z M8.188,16.366 L8.188,16.404 C8.188,16.461 8.207,16.48 8.264,16.48 L8.302,16.48 C8.283,16.423 8.245,16.385 8.188,16.366 Z M7.694,16.423 L7.808,16.48 L7.789,16.347 L7.694,16.423 Z M12.995,12.756 L12.881,12.737 L12.957,12.87 L12.995,12.756 Z M8.473,13.288 L8.473,13.307 C8.473,13.364 8.549,13.383 8.587,13.383 C8.587,13.326 8.53,13.288 8.473,13.288 Z M10.164,10.229 L10.145,10.248 L10.164,10.343 L10.259,10.305 L10.164,10.229 Z M8.378,13.231 L8.53,13.155 L8.245,13.212 L8.378,13.231 Z M13.261,14.751 L13.261,14.713 C13.204,14.751 13.147,14.808 13.147,14.884 L13.261,14.751 Z M13.147,6.448 L13.204,6.524 L13.223,6.429 L13.185,6.372 L13.147,6.448 Z M12.197,15.853 L12.102,15.853 L12.178,15.967 L12.197,15.853 Z M8.435,6.448 L8.606,6.638 L8.625,6.6 L8.435,6.448 Z M12.634,6.201 L12.729,6.182 L12.558,6.125 L12.558,6.144 L12.634,6.201 Z M10.506,10.4 L10.487,10.514 L10.506,10.533 L10.563,10.514 L10.506,10.4 Z M8.245,6.106 L8.207,6.106 L8.207,6.163 L8.302,6.163 C8.302,6.125 8.283,6.106 8.245,6.106 Z M9.233,6.904 L9.233,6.733 L9.176,6.828 L9.233,6.904 Z M11.627,13.668 L11.627,13.63 L11.646,13.611 L11.589,13.44 C11.589,13.497 11.608,13.573 11.627,13.63 L11.57,13.668 L11.627,13.668 C11.646,13.706 11.646,13.725 11.646,13.763 L11.646,13.668 L11.627,13.668 Z M8.701,6.182 L8.644,6.011 L8.625,6.106 L8.701,6.182 Z M9.081,7.208 L9.157,7.151 L9.081,7.151 L9.005,7.189 L9.081,7.208 Z M9.822,8.747 L9.879,8.861 L9.841,8.633 L9.822,8.747 Z M12.045,15.34 L12.14,15.207 L12.026,15.283 L12.045,15.34 Z M8.568,5.688 L8.53,5.631 C8.53,5.726 8.435,5.65 8.435,5.707 L8.511,5.707 C8.53,5.707 8.549,5.688 8.568,5.688 Z M13.071,13.459 L13.052,13.516 L13.128,13.554 C13.128,13.516 13.109,13.478 13.071,13.459 Z M13.09,5.669 L13.052,5.631 L13.014,5.707 L13.052,5.726 L13.09,5.669 Z M7.941,15.53 L7.903,15.454 C7.922,15.511 7.865,15.549 7.865,15.606 L7.941,15.53 Z M8.074,13.497 L8.131,13.554 L8.131,13.516 C8.131,13.478 8.112,13.459 8.112,13.421 L8.074,13.497 Z M10.373,10.799 L10.278,10.799 L10.316,10.875 L10.373,10.799 Z M12.539,12.015 C12.558,12.053 12.558,12.091 12.596,12.129 L12.615,12.091 C12.596,12.053 12.577,12.034 12.539,12.015 Z M13.185,13.402 L13.147,13.402 L13.223,13.516 L13.242,13.497 C13.185,13.516 13.242,13.402 13.185,13.402 Z M9.366,7.721 C9.385,7.702 9.385,7.683 9.385,7.664 L9.423,7.588 L9.328,7.607 L9.385,7.664 L9.366,7.721 Z M8.359,10.685 C8.34,10.685 8.302,10.704 8.302,10.742 L8.302,10.761 L8.321,10.761 C8.359,10.761 8.359,10.704 8.359,10.685 Z M12.824,13.383 L12.824,13.459 L12.862,13.497 L12.881,13.497 C12.862,13.459 12.862,13.421 12.824,13.383 Z M8.663,13.554 L8.606,13.383 L8.606,13.497 L8.663,13.554 Z M12.615,13.516 L12.748,13.307 C12.691,13.364 12.634,13.44 12.615,13.516 Z M10.107,10.362 L10.05,10.248 L10.05,10.343 L10.107,10.362 Z M8.093,13.801 L7.96,13.801 C8.017,13.858 8.036,13.82 8.093,13.801 Z M12.824,14.656 L12.881,14.675 L12.938,14.637 C12.9,14.637 12.862,14.637 12.824,14.656 Z M13.147,15.796 L13.052,15.967 L13.147,15.834 L13.147,15.796 Z M13.147,15.454 L13.128,15.435 L13.014,15.511 L13.147,15.454 Z M12.463,16.727 C12.482,16.765 12.501,16.784 12.539,16.784 L12.463,16.727 L12.463,16.689 L12.425,16.689 L12.463,16.727 Z M12.9,12.927 L12.786,12.851 C12.805,12.889 12.843,12.908 12.881,12.927 L12.9,12.927 Z M12.653,12.395 L12.672,12.186 C12.653,12.262 12.653,12.319 12.653,12.395 Z M13.299,15.549 L13.356,15.435 C13.337,15.454 13.299,15.511 13.299,15.53 L13.299,15.549 Z M7.884,16.708 L7.865,16.765 L7.903,16.765 L7.884,16.708 Z M12.558,13.63 L12.539,13.554 L12.52,13.592 L12.558,13.63 Z M11.513,13.706 L11.57,13.668 L11.513,13.668 L11.513,13.706 Z M8.587,15.207 L8.625,15.188 L8.587,15.169 L8.587,15.207 Z M8.473,15.207 L8.492,15.226 L8.549,15.207 L8.473,15.207 Z M9.86,8.576 L9.841,8.576 L9.841,8.633 L9.86,8.576 Z M10.677,11.179 L10.677,11.103 C10.658,11.122 10.677,11.16 10.677,11.179 Z M11.646,13.82 L11.627,13.839 L11.646,13.839 L11.646,13.82 Z M13.261,15.112 L13.299,15.093 C13.28,15.093 13.261,15.093 13.261,15.112 Z M13.318,15.112 C13.318,15.093 13.318,15.093 13.299,15.093 L13.318,15.112 Z M23.267,4.795 L23.362,5.346 L23.419,5.688 L23.381,5.84 L23.438,6.163 L23.343,6.657 L22.754,6.809 L22.45,6.847 L22.241,6.752 L21.937,6.752 L21.386,6.866 L21.063,6.828 L20.246,6.828 L20.037,6.866 L19.752,7.056 L19.752,8.5 L19.676,8.804 L19.733,9.127 L19.733,10.001 L19.98,10.305 L20.284,10.362 L20.569,10.362 L20.778,10.286 L21.329,10.381 L21.633,10.286 L22.754,10.286 L23.381,10.419 L23.381,11.236 L23.438,11.521 L23.419,11.806 L23.286,12.357 L22.469,12.471 L22.184,12.376 L21.88,12.452 L21.69,12.357 L21.405,12.357 L21.101,12.452 L20.835,12.471 L20.246,12.376 L19.961,12.433 L19.733,12.737 L19.733,13.25 L19.676,13.573 L19.752,13.934 L19.752,14.143 L19.695,14.77 L19.752,15.397 L19.676,15.606 L19.999,15.891 L20.246,15.929 L20.55,15.872 L20.797,15.948 L21.633,15.948 L22.165,15.891 L22.469,15.986 L22.792,15.872 L23.343,16.062 L23.419,16.879 L23.381,17.145 L23.438,17.411 L23.267,17.962 L22.773,17.962 L22.146,18.057 L21.31,18.057 L21.044,17.981 L20.55,18.019 L20.246,17.962 L19.942,17.962 L19.638,18.038 L19.429,18.019 L19.106,18.076 L18.821,18.076 L18.574,17.981 L18.327,18 L17.776,17.943 L17.605,17.316 L17.662,17.069 L17.662,16.803 L17.586,16.461 L17.662,16.271 L17.662,15.302 L17.605,14.77 L17.605,13.364 L17.662,13.136 L17.662,12.509 L17.586,12.262 L17.662,11.996 L17.605,11.407 L17.643,10.78 L17.643,10.21 L17.586,9.944 L17.624,9.355 L17.662,8.785 L17.605,8.481 L17.643,8.177 L17.586,7.93 L17.643,7.645 L17.662,7.398 L17.662,6.258 L17.605,5.897 L17.605,5.422 L17.719,4.795 L18.27,4.7 L18.555,4.757 L18.821,4.7 L19.41,4.776 L19.695,4.7 L19.942,4.776 L20.227,4.7 L20.835,4.757 L21.044,4.662 L21.329,4.738 L21.652,4.776 L21.899,4.7 L22.165,4.719 L22.431,4.662 L23.267,4.795 Z M22.07,5.289 C21.861,5.289 21.804,5.555 21.595,5.555 L21.614,5.726 L21.804,5.764 L21.88,5.745 C21.937,5.593 22.07,5.498 22.07,5.327 L22.07,5.289 Z M19.201,16.746 L19.334,16.822 L19.125,16.993 L19.049,16.917 L18.992,17.012 L19.334,17.069 C19.448,16.917 19.277,16.708 19.391,16.556 L19.239,16.537 L19.315,16.613 L19.201,16.746 Z M18.859,14.181 C18.802,14.162 18.726,14.124 18.669,14.124 L18.479,14.124 C18.46,14.314 18.764,14.219 18.764,14.352 L18.745,14.428 L18.878,14.371 L18.859,14.181 Z M20.018,16.67 L20.037,16.993 C20.113,16.879 20.379,16.974 20.379,16.822 L20.379,16.784 L20.094,16.822 L20.018,16.67 Z M22.298,5.27 L22.222,5.479 L22.431,5.498 L22.488,5.327 L22.298,5.27 Z M21.88,16.803 L21.747,16.727 L21.652,16.594 L21.595,16.746 L21.595,16.822 L21.709,16.879 L21.88,16.803 Z M18.954,7.075 L18.707,6.885 L18.631,6.923 L18.726,7.075 L18.954,7.075 Z M18.954,12.243 C18.783,12.243 18.821,12.433 18.745,12.528 L18.916,12.547 C18.821,12.452 18.935,12.338 18.954,12.243 Z M20.512,5.745 L20.512,5.764 L20.645,5.992 L20.474,6.182 L20.664,6.125 L20.645,6.03 L20.702,5.916 L20.531,5.745 L20.512,5.745 Z M20.455,16.746 L20.607,16.879 L20.664,16.86 L20.588,16.784 L20.512,16.518 C20.493,16.556 20.455,16.632 20.455,16.689 L20.455,16.746 Z M20.968,16.67 L20.721,16.746 L20.892,16.917 L20.968,16.67 Z M20.341,11.255 L20.398,11.141 L20.227,10.951 L20.189,11.065 L20.341,11.255 Z M19.391,6.353 L19.258,6.543 L19.505,6.543 L19.391,6.353 Z M18.612,7.189 L18.536,7.265 L18.536,7.303 C18.612,7.284 18.593,7.398 18.574,7.436 L18.726,7.398 L18.612,7.189 Z M19.0995846,12.1324832 C19.1143897,12.1378095 19.1291949,12.143065 19.144,12.148 C19.1439833,12.1479498 19.1439665,12.1478995 19.1439497,12.1478494 L19.0995846,12.1324832 Z M18.498,6.296 L18.669,6.372 L18.612,6.106 L18.498,6.296 Z M19.239,5.403 L19.068,5.346 L19.049,5.346 C19.03,5.346 19.049,5.365 19.049,5.384 L19.068,5.555 L19.239,5.403 Z M21.158,10.894 L21.082,11.065 L21.082,11.084 L21.291,11.065 L21.158,10.894 Z M20.702,5.346 L20.607,5.327 L20.512,5.441 L20.512,5.46 L20.645,5.498 L20.702,5.365 L20.702,5.346 Z M18.574,15.397 L18.574,15.549 L18.764,15.625 L18.859,15.549 L18.688,15.549 L18.574,15.397 Z M20.721,10.951 L20.531,11.008 L20.474,11.141 C20.55,11.046 20.721,11.103 20.721,10.951 Z M21.12,5.916 L21.177,6.049 L21.348,6.03 L21.177,5.897 L21.12,5.916 Z M21.652,16.974 L21.462,17.069 L21.747,17.107 L21.652,16.974 Z M18.764,12.965 L18.935,13.174 L18.916,12.965 L18.764,12.965 Z M18.992,16.347 L18.916,16.271 L18.669,16.347 L18.783,16.366 L18.992,16.347 Z M19.144,15.72 L19.106,15.72 C19.03,15.72 19.049,15.853 19.011,15.891 L19.144,15.853 L19.144,15.72 Z M18.555,7.531 L18.517,7.664 L18.574,7.721 L18.669,7.645 L18.555,7.531 Z M22.507,10.894 C22.564,10.989 22.621,11.103 22.583,11.217 L22.697,11.122 L22.507,10.894 Z M20.341,17.24 L20.208,17.183 L20.132,17.24 L20.284,17.316 L20.341,17.24 Z M20.968,16.803 L20.968,16.841 C20.968,16.936 21.101,16.993 21.177,17.012 L20.968,16.803 Z M18.631,8.614 L18.498,8.291 L18.574,8.652 L18.631,8.614 Z M18.821,14.789 L18.726,14.694 L18.612,14.713 L18.745,14.808 L18.821,14.789 Z M21.291,11.654 L21.367,11.825 L21.424,11.749 L21.329,11.635 L21.291,11.654 Z M21.671,11.597 L21.728,11.502 C21.671,11.521 21.595,11.502 21.538,11.502 L21.538,11.54 L21.671,11.597 Z M20.93,5.669 L20.759,5.726 L20.873,5.783 L20.93,5.745 L20.93,5.669 Z M18.802,8.709 L18.745,8.709 L18.688,8.747 L18.688,8.766 L18.821,8.842 L18.802,8.709 Z M18.802,17.107 L18.802,17.202 L19.011,17.183 L18.802,17.107 Z M19.068,5.688 L19.03,5.821 L19.049,5.859 L19.144,5.726 L19.125,5.688 L19.068,5.688 Z M22.488,5.916 L22.488,5.973 L22.545,5.859 L22.545,5.84 L22.393,5.802 L22.393,5.821 L22.488,5.916 Z M18.954,11.844 L19.087,11.863 L19.201,11.825 L19.087,11.787 L18.954,11.844 Z M19.182,11.54 L19.182,11.388 L19.163,11.388 L19.068,11.445 L19.182,11.54 Z M18.384,8.785 L18.384,8.804 L18.479,8.88 L18.555,8.823 L18.555,8.804 L18.384,8.785 Z M19.144,15.606 L18.954,15.454 C18.973,15.53 19.011,15.606 19.106,15.606 L19.144,15.606 Z M19.125,13.193 C19.049,13.193 19.011,13.231 19.011,13.307 L19.03,13.307 C19.087,13.307 19.125,13.25 19.125,13.193 Z M19.087,16.727 L19.011,16.651 L18.954,16.727 L19.03,16.765 L19.087,16.727 Z M20.474,11.217 L20.531,11.445 L20.569,11.331 L20.474,11.217 Z M21.975,11.464 C21.975,11.388 21.956,11.312 21.975,11.236 L21.899,11.445 L21.937,11.464 L21.975,11.464 Z M20.379,16.993 L20.379,17.012 L20.588,17.126 L20.664,17.107 C20.55,17.107 20.474,17.012 20.379,16.993 Z M22.165,16.974 L22.184,16.784 L22.108,16.822 L22.165,16.974 Z M18.688,8.994 L18.802,9.07 L18.859,9.032 L18.726,8.975 L18.688,8.994 Z M20.854,5.878 L20.854,5.973 L20.911,5.973 C20.911,5.954 20.93,5.935 20.93,5.916 L20.93,5.878 L20.854,5.878 Z M18.992,14.39 C18.973,14.447 18.897,14.409 18.878,14.466 L18.973,14.485 L19.011,14.447 L18.992,14.39 Z M18.612,6.106 L18.631,6.087 L18.745,6.125 L18.726,6.03 L18.631,6.087 L18.631,6.068 C18.612,6.087 18.612,6.087 18.612,6.106 Z M18.878,7.949 L18.878,7.968 L18.935,8.025 L18.992,7.987 L18.954,7.949 L18.878,7.949 Z M18.745,8.538 L18.745,8.614 L18.802,8.614 C18.802,8.595 18.821,8.576 18.821,8.557 L18.821,8.538 L18.745,8.538 Z M21.12,5.612 L21.12,5.688 L21.158,5.707 L21.196,5.65 L21.158,5.612 L21.12,5.612 Z M19.847,16.746 L19.828,16.822 L19.904,16.822 L19.904,16.746 L19.847,16.746 Z M21.367,16.822 C21.386,16.879 21.291,16.841 21.291,16.898 L21.291,16.917 L21.329,16.917 L21.405,16.86 L21.367,16.822 Z M18.764,16.917 L18.821,17.05 L18.878,17.012 L18.764,16.917 Z M18.821,15.72 L18.745,15.777 L18.802,15.834 L18.821,15.834 L18.821,15.72 Z M18.600125,8.160375 C18.612,8.18175 18.631,8.196 18.669,8.196 C18.669,8.158 18.65475,8.139 18.63575,8.12475 L18.600125,8.160375 Z M18.802,13.231 C18.821,13.231 18.859,13.25 18.878,13.25 L18.916,13.25 L18.916,13.231 L18.859,13.193 L18.802,13.231 Z M18.688,14.979 L18.65,14.979 C18.612,14.979 18.593,14.998 18.574,15.017 L18.631,15.036 L18.688,14.979 Z M18.384,13.953 L18.479,14.048 C18.479,14.029 18.422,13.934 18.403,13.934 L18.384,13.953 Z M19.125,16.043 L19.144,15.929 L19.087,16.005 L19.125,16.043 Z M18.384,13.098 L18.422,12.927 C18.403,12.965 18.365,13.041 18.384,13.098 Z M20.341,5.973 L20.341,5.992 L20.379,6.011 L20.417,5.992 L20.417,5.973 L20.341,5.973 Z M18.821,5.916 C18.859,5.954 18.821,6.011 18.802,6.03 L18.821,6.049 L18.859,5.954 L18.821,5.916 Z M18.384,14.656 L18.498,14.694 L18.422,14.637 L18.384,14.656 Z M22.051,11.008 L21.994,11.217 C22.013,11.16 22.051,11.084 22.051,11.008 Z M19.1672622,8.4858187 C19.1763639,8.47226934 19.182,8.45763467 19.182,8.443 C19.1764836,8.45403278 19.1709672,8.46346395 19.1649858,8.47175852 L19.1672622,8.4858187 Z M19.182,8.348 L19.144,8.215 C19.144,8.272 19.144,8.31 19.182,8.348 Z M18.479,15.701 L18.574,15.796 L18.574,15.777 L18.479,15.701 Z M19.524,10.571 C19.486,10.571 19.486,10.59 19.467,10.609 L19.524,10.571 Z M28.732,4.814 L28.865,5.384 L28.865,5.878 L28.922,6.22 L28.884,6.486 L28.941,6.771 L28.941,7.341 L29.017,7.664 L28.979,8.006 L29.017,8.481 L29.112,9.127 L29.112,9.678 L29.188,10.305 L29.188,10.59 L29.226,10.799 L29.226,11.445 L29.283,11.692 L29.34,11.73 L29.397,11.35 L29.568,10.818 L29.568,10.267 L29.682,10.058 L29.72,9.678 L29.796,9.45 L29.777,9.146 L29.872,8.937 L29.891,8.671 L30.005,8.348 L30.1,7.74 L30.1,7.531 L30.29,6.999 L30.29,6.733 L30.366,6.448 L30.461,5.84 L30.556,5.612 L30.556,5.232 L30.784,4.757 L31.886,4.757 L32.133,5.555 L32.266,6.068 L32.342,6.714 L32.418,6.923 L32.437,7.208 L32.532,7.493 L32.608,8.082 L32.703,8.595 L32.836,8.918 L32.931,9.431 L33.045,10.039 L33.045,10.267 L33.178,10.799 L33.178,11.122 L33.349,11.673 L33.444,11.73 L33.387,11.331 L33.463,11.16 L33.52,10.571 L33.482,10.248 L33.52,10.02 L33.52,9.678 L33.634,9.108 L33.634,7.949 L33.71,7.683 L33.672,7.341 L33.729,7.132 L33.729,6.752 L33.824,6.163 L33.786,5.631 L34.014,4.833 L34.584,4.662 L34.85,4.757 L35.173,4.7 L35.8,4.833 L35.933,5.46 L35.762,6.049 L35.762,6.581 L35.686,6.885 L35.724,7.113 L35.667,7.664 L35.572,8.31 L35.515,8.861 L35.515,9.203 L35.458,9.431 L35.363,9.963 L35.325,10.59 L35.249,11.16 L35.249,11.388 L35.154,11.977 L35.116,12.547 L35.059,13.117 L34.983,13.63 L34.907,14.314 L34.774,14.865 L34.793,15.169 L34.717,15.625 L34.717,16.024 L34.603,16.575 L34.641,16.879 L34.584,17.107 L34.375,17.867 L33.843,18.057 L33.292,18.057 L32.798,17.886 L32.589,17.088 L32.475,16.575 L32.38,16.005 L32.361,15.701 L32.247,15.093 L32.152,14.922 L32.057,14.618 L32.019,14.314 L31.962,13.782 L31.848,13.421 L31.867,13.193 L31.734,12.927 L31.639,12.281 L31.582,11.749 L31.487,11.483 L31.354,10.818 L31.24,10.818 L31.202,11.217 L31.145,11.711 L31.012,12.034 L31.012,12.357 L30.917,12.528 L30.917,12.87 L30.803,13.193 L30.746,13.478 L30.67,14.029 L30.518,14.637 L30.423,15.112 L30.423,15.454 L30.328,16.005 L30.195,16.347 L30.214,16.518 L30.138,16.86 L30.043,17.107 L30.005,17.468 L29.796,17.924 L29.34,18 L28.751,18 L28.333,17.867 L28.105,17.335 L28.029,16.86 L28.067,16.518 L28.01,15.91 L27.934,15.682 L27.953,15.454 L27.858,15.074 L27.877,14.846 L27.744,14.276 L27.782,13.991 L27.687,13.725 L27.725,13.402 L27.592,13.155 L27.592,12.528 L27.516,12.224 L27.478,11.996 L27.478,11.464 L27.345,10.514 L27.269,9.963 L27.307,9.678 L27.269,9.431 L27.174,9.184 L27.136,8.804 L27.174,8.595 L27.041,8.025 L27.041,7.474 L26.927,7.189 L26.965,6.847 L26.87,6.6 L26.908,6.353 L26.813,5.954 L26.794,5.726 L26.794,4.814 L27.421,4.662 L27.82,4.738 L28.067,4.7 L28.732,4.814 Z M35.097,7.626 L35.078,7.417 L34.831,7.55 L34.85,7.626 L34.698,7.797 L34.679,7.911 L34.736,7.93 L34.793,7.778 L34.945,7.892 L34.831,7.892 L34.774,7.987 L34.774,8.082 L34.85,8.215 L35.04,7.949 L35.059,7.873 L34.926,7.607 L34.983,7.493 L35.097,7.626 Z M29.397,16.385 L29.169,16.271 L29.112,16.328 L29.131,16.537 L29.34,16.613 L29.264,16.366 C29.378,16.423 29.473,16.499 29.53,16.613 L29.416,16.955 L29.606,16.917 L29.549,16.727 L29.644,16.708 L29.663,16.423 L29.473,16.461 L29.53,16.366 L29.492,16.347 L29.397,16.385 Z M32.209,9.678 L32.171,9.507 L32.076,9.735 L32.114,9.906 L32.266,10.077 L32.361,10.02 L32.266,9.697 L32.209,9.678 Z M29.435,15.15 L29.321,14.941 L29.112,15.169 L29.112,15.226 L29.207,15.359 L29.321,15.321 L29.302,15.264 L29.511,15.188 L29.435,15.15 Z M27.782,9.811 L27.896,9.659 L27.953,10.058 L28.086,9.925 L27.953,9.83 L27.972,9.735 C27.972,9.64 27.953,9.545 27.934,9.469 L27.782,9.507 C27.801,9.602 27.801,9.716 27.782,9.811 Z M32.057,8.405 L31.867,8.652 L32,8.69 L32,8.519 L32.19,8.481 L32.114,8.234 L31.886,8.139 L32.057,8.405 Z M33.976,15.929 L33.691,15.834 L33.672,16.024 L33.824,16.138 L33.9,16.119 L33.976,15.929 Z M34.926,8.804 L34.831,8.614 L34.679,8.709 L34.717,8.937 L34.774,8.918 L34.926,9.051 L34.85,8.918 L34.926,8.804 Z M28.485,13.098 L28.542,12.756 L28.295,12.889 L28.314,13.098 L28.485,13.098 Z M34.033,14.029 L34.033,14.01 L34.204,14.067 L34.299,13.877 L34.109,13.763 L34.014,13.877 L34.033,14.01 L33.995,14.01 C34.014,14.01 34.014,14.029 34.033,14.029 Z M29.739,14.542 L29.758,14.523 L29.701,14.409 L29.587,14.466 C29.511,14.466 29.549,14.39 29.549,14.352 L29.53,14.371 L29.511,14.409 L29.245,14.333 L29.492,14.523 L29.549,14.504 L29.549,14.599 L29.568,14.618 L29.739,14.561 L29.758,14.618 L29.796,14.58 L29.739,14.542 Z M28.732,13.725 L28.751,13.516 L28.561,13.554 L28.618,13.63 L28.504,13.687 L28.352,13.573 L28.504,13.801 L28.732,13.725 Z M32.456,11.92 L32.456,11.844 L32.361,11.825 L32.209,11.901 L32.304,12.053 L32.266,12.091 L32.399,12.091 C32.418,12.053 32.456,11.977 32.456,11.92 Z M28.637,11.179 L28.447,11.198 L28.504,11.445 L28.637,11.502 L28.751,11.464 L28.599,11.35 L28.561,11.255 L28.637,11.179 Z M34.926,6.79 L34.926,6.676 L34.698,6.657 L34.679,6.904 L34.926,6.79 Z M35.021,9.127 L34.907,9.184 L34.774,9.051 L34.698,9.089 L34.736,9.222 L34.926,9.298 L35.002,9.26 L35.021,9.127 Z M28.181,10.97 L28.181,10.837 L27.953,10.894 L27.915,11.046 L28.143,11.084 L28.048,10.951 L28.181,10.97 Z M29.948,12.148 L29.739,12.205 L29.739,12.3 L29.815,12.395 L29.929,12.281 L29.929,12.376 L29.986,12.3 L29.948,12.148 Z M28.314,12.3 L28.333,12.053 L28.2,12.072 L28.257,12.281 L28.2,12.338 L28.295,12.471 L28.352,12.414 L28.314,12.3 Z M33.919,16.385 L33.919,16.48 L33.672,16.613 L33.729,16.708 L33.976,16.613 L33.919,16.385 Z M33.691,16.461 L33.729,16.328 L33.501,16.366 L33.425,16.423 L33.425,16.499 L33.634,16.518 L33.596,16.461 L33.691,16.461 Z M34.622,10.742 L34.641,10.514 L34.698,10.438 L34.527,10.324 L34.489,10.4 L34.622,10.742 Z M34.318,10.343 L34.603,10.153 L34.413,10.077 L34.413,9.982 L34.318,10.343 Z M29.53,16.119 L29.701,16.138 L29.606,16.385 L29.663,16.347 L29.758,16.119 L29.663,15.948 L29.53,16.119 Z M32.57,11.654 L32.399,11.502 L32.304,11.54 L32.361,11.597 L32.247,11.597 L32.475,11.673 L32.456,11.787 L32.57,11.654 Z M28.523,11.616 L28.485,11.635 L28.561,11.768 L28.523,11.882 L28.618,11.882 L28.694,11.673 L28.637,11.692 L28.523,11.616 Z M33.33,14.276 L33.159,14.067 L33.102,14.181 L33.254,14.333 L33.33,14.276 Z M32.304,11.35 L32.247,11.274 L32.152,11.426 L32.266,11.388 L32.494,11.464 L32.608,11.426 L32.304,11.35 Z M34.261,10.628 L34.318,10.343 L34.071,10.533 L34.185,10.476 L34.261,10.628 L34.242,10.894 L34.299,10.666 L34.261,10.628 Z M32.456,11.065 L32.114,11.198 L32.361,11.236 L32.456,11.065 Z M33.691,13.25 L33.862,13.117 L33.52,13.117 L33.691,13.25 Z M32.76,14.086 L32.646,14.181 L32.779,14.295 L32.855,14.219 L32.76,14.086 Z M28.599,12.243 L28.447,11.996 L28.428,12.148 L28.523,12.281 L28.599,12.243 Z M31.905,8.842 L32,9.032 L32.076,8.88 L32.057,8.804 L31.905,8.842 Z M34.603,9.659 L34.603,9.64 L34.527,9.659 L34.527,9.773 L34.641,9.849 L34.698,9.811 L34.603,9.659 Z M28.732,13.421 L28.618,13.364 L28.447,13.459 L28.504,13.516 L28.732,13.421 Z M28.105,12.376 L27.991,12.395 L28.143,12.604 L28.181,12.547 L28.105,12.376 Z M34.242,10.153 L34.299,10.02 L34.261,9.982 L34.109,10.096 L34.204,10.172 L34.242,10.153 Z M34.698,8.329 L34.603,8.348 L34.641,8.519 L34.812,8.462 L34.793,8.424 L34.641,8.405 L34.698,8.329 Z M30.252,12.11 L30.081,11.977 L30.138,12.167 L30.233,12.205 L30.252,12.11 Z M32.399,10.514 L32.342,10.514 L32.38,10.628 L32.513,10.742 L32.513,10.647 L32.399,10.514 Z M33.501,17.354 L33.577,17.354 L33.71,17.088 L33.463,17.335 L33.501,17.354 Z M33.919,13.364 L34.033,13.06 L33.995,13.079 L33.938,13.212 L33.862,13.288 L33.976,13.459 L33.995,13.364 L33.919,13.364 Z M28.428,13.193 L28.238,13.212 L28.39,13.307 L28.504,13.288 L28.428,13.193 Z M34.546,8.918 L34.413,8.918 L34.527,9.165 L34.546,8.918 Z M28.257,10.818 L28.219,10.818 L28.409,10.932 L28.333,11.084 L28.39,11.084 L28.485,10.951 L28.257,10.818 Z M28.561,12.661 L28.523,12.547 L28.371,12.623 L28.409,12.68 L28.561,12.661 Z M33.121,17.278 L33.216,17.335 L33.273,17.449 L33.33,17.335 L33.159,17.24 L33.121,17.278 Z M31.943,9.545 L31.81,9.412 L31.772,9.45 L31.848,9.602 L31.943,9.545 Z M29.055,14.542 L29.112,14.504 L29.055,14.466 L29.15,14.428 L29.131,14.333 C29.055,14.333 29.055,14.409 29.055,14.466 L29.017,14.428 L28.998,14.447 L29.055,14.542 Z M28.314,11.426 L28.295,11.293 L28.2,11.274 L28.181,11.388 L28.314,11.426 Z M28.846,14.276 L28.827,14.276 L28.865,14.409 L28.751,14.409 L28.827,14.466 L28.96,14.409 L28.846,14.276 Z M32.893,13.155 L32.779,13.079 L33.007,13.269 L33.026,13.098 L32.893,13.155 Z M34.508,11.046 L34.527,10.932 L34.337,10.989 L34.47,11.065 L34.508,11.046 Z M34.679,8.101 L34.774,8.101 L34.698,7.949 L34.622,8.006 L34.679,8.101 Z M32.418,10.438 L32.342,10.286 L32.285,10.419 L32.418,10.457 L32.418,10.438 Z M31.392,7.74 L31.221,7.607 L31.221,7.645 C31.221,7.683 31.24,7.702 31.24,7.74 L31.392,7.74 Z M32.456,12.281 L32.304,12.3 L32.418,12.376 L32.513,12.319 L32.456,12.281 Z M27.839,5.688 L27.744,5.688 L27.706,5.783 L27.801,5.802 L27.839,5.688 Z M28.2,9.507 L28.105,9.336 L28.105,9.507 L28.029,9.545 L28.2,9.507 Z M29.226,14.694 L29.131,14.675 L29.112,14.789 L29.245,14.732 L29.226,14.694 Z M34.28,11.179 L34.337,11.274 L34.489,11.274 L34.451,11.16 L34.375,11.255 L34.337,11.255 L34.28,11.179 Z M27.725,6.391 L27.858,6.543 L27.915,6.524 C27.858,6.467 27.801,6.41 27.725,6.391 Z M29.454,15.226 L29.568,15.435 L29.606,15.359 L29.454,15.226 Z M29.017,15.72 L29.017,15.853 L29.169,15.739 L29.112,15.758 L29.017,15.72 Z M28.903,14.713 L28.808,14.618 L28.751,14.675 L28.846,14.732 L28.903,14.713 Z M34.717,10.02 L34.641,9.925 L34.584,10.02 L34.717,10.039 L34.717,10.02 Z M30.271,12.338 L30.233,12.243 L30.157,12.338 L30.233,12.376 L30.271,12.338 Z M29.986,12.946 L29.948,12.984 L29.986,13.06 L30.081,13.003 L29.986,12.946 Z M32,9.659 L31.905,9.64 C31.905,9.678 31.924,9.754 31.981,9.754 L32,9.659 Z M27.744,5.954 L27.744,6.049 L27.896,5.954 L27.744,5.954 Z M29.948,12.718 C29.948,12.756 29.948,12.775 29.929,12.813 L30.024,12.813 C30.024,12.756 30.005,12.718 29.948,12.718 Z M30.024,11.901 L29.929,11.901 L29.91,11.996 L29.948,11.996 L30.024,11.901 Z M31.943,9.811 L31.848,9.735 L31.81,9.83 L31.943,9.811 Z M29.280625,15.964625 C29.2925,15.99075 29.3115,16.0145 29.34,16.024 C29.3305,15.9955 29.3305,15.96225 29.323375,15.936125 L29.280625,15.964625 Z M28.599,13.991 C28.58,13.953 28.542,13.915 28.504,13.877 L28.523,13.972 L28.428,13.972 L28.599,13.991 Z M34.47,9.754 L34.375,9.735 L34.375,9.83 C34.432,9.83 34.432,9.792 34.47,9.754 Z M32.266,11.958 L32.304,11.863 L32.361,11.977 L32.323,11.977 C32.304,11.977 32.285,11.958 32.266,11.958 Z M29.226,16.765 L29.264,16.727 L29.169,16.689 L29.131,16.727 L29.226,16.765 Z M34.698,9.431 L34.622,9.431 L34.622,9.507 L34.679,9.507 L34.698,9.431 Z M29.226,14.846 L29.093,14.827 L29.15,14.903 L29.226,14.846 Z M34.831,5.954 L34.945,5.973 L34.907,5.897 L34.831,5.954 Z M32.95475,13.06475 C32.96425,13.04575 32.969,13.022 32.988,13.003 C32.9595,13.003 32.93575,13.0125 32.919125,13.029125 L32.95475,13.06475 Z M29.758,14.333 L29.815,14.238 C29.758,14.257 29.72,14.276 29.72,14.333 L29.758,14.333 Z M34.071,12.813 L33.995,12.775 L34.014,12.889 L34.071,12.813 Z M29.188,17.316 L29.264,17.278 L29.055,17.278 L29.188,17.316 Z M29.207,15.397 L29.15,15.397 L29.112,15.435 L29.15,15.454 C29.188,15.454 29.207,15.435 29.207,15.397 Z M27.991,7.189 L27.915,7.094 L27.934,7.151 L27.896,7.227 L27.934,7.227 C27.934,7.17 27.934,7.189 27.991,7.189 Z M34.945,6.03 L34.907,6.049 L34.945,6.106 L35.002,6.068 L34.945,6.03 Z M32.988,16.765 L33.026,16.879 L33.064,16.803 L32.988,16.765 Z M28.295,11.293 L28.333,11.255 C28.314,11.217 28.276,11.198 28.238,11.198 L28.238,11.217 C28.276,11.217 28.295,11.255 28.295,11.293 Z M31.639,6.296 L31.639,6.353 L31.696,6.391 C31.696,6.353 31.677,6.296 31.639,6.296 Z M33.976,13.611 L34.014,13.554 L33.9,13.592 L33.976,13.63 L33.976,13.611 Z M33.254,14.618 L33.159,14.485 L33.14,14.523 L33.254,14.618 Z M29.321,17.43 L29.34,17.392 L29.245,17.335 L29.245,17.354 L29.321,17.43 Z M28.732,14.352 L28.656,14.295 C28.656,14.333 28.675,14.371 28.713,14.39 L28.732,14.352 Z M27.801,8.69 L27.839,8.633 L27.782,8.557 L27.801,8.69 Z M29.492,14.865 L29.454,14.922 L29.568,14.903 L29.492,14.865 Z M33.007,14.466 L33.102,14.314 L33.064,14.314 L33.007,14.466 Z M33.368,15.131 L33.368,15.15 C33.368,15.188 33.406,15.207 33.425,15.207 L33.425,15.188 C33.425,15.15 33.387,15.131 33.368,15.131 Z M27.858,6.315 L27.801,6.258 C27.801,6.296 27.801,6.334 27.839,6.353 L27.858,6.315 Z M29.815,12.984 L29.739,13.098 C29.796,13.098 29.815,13.041 29.815,12.984 Z M29.397,15.644 L29.397,15.701 L29.454,15.701 C29.454,15.663 29.435,15.644 29.397,15.644 Z M33.577,16.651 L33.539,16.651 L33.482,16.689 L33.482,16.708 C33.52,16.708 33.558,16.689 33.577,16.651 Z M33.71,15.663 L33.615,15.53 C33.615,15.587 33.653,15.644 33.71,15.663 Z M33.881,16.271 L33.938,16.195 L33.843,16.233 L33.881,16.271 Z M28.751,13.288 L28.713,13.117 L28.694,13.155 L28.751,13.288 Z M34.166,14.295 L34.185,14.276 C34.185,14.238 34.166,14.181 34.166,14.143 L34.166,14.295 Z M29.701,14.276 L29.568,14.333 L29.549,14.352 C29.606,14.333 29.663,14.314 29.701,14.276 Z M28.789,13.307 C28.77,13.307 28.77,13.288 28.751,13.288 L28.77,13.326 L28.713,13.326 L28.789,13.383 L28.77,13.326 L28.789,13.307 Z M31.24,7.322 L31.24,7.436 L31.278,7.379 L31.24,7.322 Z M34.47,11.768 L34.394,11.749 L34.394,11.806 L34.47,11.768 Z M33.083,13.82 L33.121,13.934 L33.14,13.877 L33.083,13.82 Z M29.397,17.126 L29.378,17.145 C29.378,17.183 29.397,17.202 29.435,17.202 L29.454,17.183 C29.416,17.183 29.397,17.164 29.397,17.126 Z M28.2,13.003 L28.2,12.794 L28.181,12.908 L28.2,13.003 Z M28.409,11.673 L28.39,11.654 L28.352,11.73 C28.371,11.73 28.409,11.711 28.409,11.673 Z M32.114,10.305 L32.076,10.248 L32.057,10.286 L32.114,10.324 L32.114,10.305 Z M30.005,11.445 L29.967,11.578 C30.005,11.559 30.005,11.483 30.005,11.445 Z M29.91,14.067 L29.872,14.086 L29.891,14.105 L29.834,14.2 L29.91,14.105 L29.891,14.105 C29.91,14.105 29.91,14.086 29.91,14.067 Z M29.454,16.081 L29.378,16.081 L29.397,16.119 L29.454,16.081 Z M31.905,9.982 L31.962,10.077 C31.962,10.039 31.943,10.001 31.905,9.982 Z M29.573116,15.7132118 C29.5643763,15.7177373 29.5555568,15.72 29.549,15.72 C29.5613009,15.72 29.5736017,15.72 29.5846136,15.718711 L29.573116,15.7132118 Z M28.4917178,13.8745436 C28.4768119,13.8688119 28.4619059,13.8539059 28.447,13.839 L28.409,13.858 L28.4917178,13.8745436 Z M28.998,15.644 L29.017,15.72 L29.017,15.587 L28.998,15.644 Z M29.321,17.43 C29.283,17.449 29.264,17.449 29.226,17.449 L29.321,17.468 L29.321,17.43 Z M28.01,10.21 L27.991,10.172 L27.991,10.305 L28.01,10.21 Z M29.701,13.269 L29.758,13.326 C29.758,13.288 29.739,13.269 29.701,13.269 Z M34.242,13.402 L34.185,13.307 C34.185,13.345 34.204,13.383 34.242,13.402 Z M33.976,14.713 L33.995,14.732 L33.976,14.599 L33.976,14.713 Z M29.302,14.599 L29.302,14.542 L29.264,14.637 L29.302,14.599 Z M32.589,11.654 L32.684,11.54 L32.57,11.654 L32.589,11.654 Z M32.969,16.746 L32.988,16.765 L32.969,16.651 L32.969,16.746 Z M32.304,10.647 L32.209,10.59 L32.304,10.666 L32.304,10.647 Z M33.995,14.01 L33.919,13.896 C33.938,13.934 33.957,13.991 33.995,14.01 Z M32.171,10.21 L32.152,10.21 L32.19,10.286 L32.171,10.21 Z M34.527,6.638 L34.489,6.581 C34.508,6.619 34.508,6.657 34.527,6.676 L34.527,6.638 Z M32.684,13.364 L32.608,13.383 L32.589,13.402 L32.684,13.364 Z M28.846,13.478 L28.846,13.421 L28.827,13.459 L28.846,13.478 Z M34.489,6.467 L34.451,6.429 C34.451,6.448 34.451,6.467 34.489,6.467 Z M32.952375,14.6275 C32.95,14.637 32.95,14.6465 32.95,14.656 C32.9595,14.6465 32.96425,14.637 32.966625,14.6275 L32.952375,14.6275 Z M32.722,11.407 L32.703,11.369 L32.722,11.445 L32.722,11.407 Z M27.991,10.343 C28.01,10.343 28.01,10.305 27.991,10.305 L27.991,10.343 Z M28.998,15.112 L29.017,15.036 C28.998,15.055 28.998,15.093 28.998,15.112 Z M34.033,15.834 L34.071,15.739 C34.052,15.777 34.033,15.796 34.033,15.834 Z M34.011625,11.984125 C34.014,11.977 34.014,11.9675 34.014,11.958 C34.0045,11.9675 33.99975,11.97225 33.997375,11.977 L34.011625,11.984125 Z M27.934,10.552 L27.991,10.533 C27.972,10.533 27.953,10.533 27.934,10.552 Z M32.057,7.626 L32.038,7.607 C32.038,7.626 32.038,7.626 32.057,7.626 Z M30.461,8.956 L30.442,8.918 C30.442,8.937 30.442,8.956 30.461,8.956 Z M29.853,11.977 C29.872,11.958 29.872,11.939 29.872,11.92 L29.853,11.977 Z M31.069,7.17 L31.126,7.189 C31.107,7.17 31.088,7.17 31.069,7.17 Z M27.82,8.728 L27.801,8.69 C27.801,8.709 27.801,8.709 27.82,8.728 Z M30.423,9.032 L30.404,9.07 C30.423,9.051 30.423,9.051 30.423,9.032 Z M30.062,14.314 C30.043,14.333 30.043,14.352 30.043,14.371 L30.062,14.314 Z" id="new" fill="#FFFFFF"></path>
    </g>
</svg>