<svg xmlns="http://www.w3.org/2000/svg" xmlns:xlink="http://www.w3.org/1999/xlink" width="80" height="24" viewBox="0 0 80 24" preserveAspectRatio="none">
    <defs>
        <path id="a" d="M54.535 23.152c.03.236.047.482.05.706-.38.002-.748-.007-1.053-.03-.676.03-1.774-.157-1.143-.047l-1.092-.043-.653-.044-.013.035c-1.29.018-2.654-.234-4.129.022-.434-.037-.882-.08-1.609-.04l-.141.123c-.558-.043-1.674.122-1.914-.005-.601.329-2.705.071-3.685.13l-.038-.16c-.674.009-1.321-.037-2.16-.101l.052-.14c-.722-.117-1.856.1-2.999.085.078.054.368.04.573.008-1.365.319-2.88-.232-4.117 0a2.146 2.146 0 0 0-.748.001c.029 0 .054.004.076.008a2.498 2.498 0 0 1-.126.002c-.137.024-.277.052-.429.075.13-.034.253-.062.36-.076-.237-.002-.598-.02-.952-.056l-.15.152-.082-.004c-.347.056-.279-.073-.094-.186a3.6 3.6 0 0 1-.468-.092c-.282.245-.927-.082-1.312.18-.22-.119-1.557-.1-1.903-.31l.011-.001h-.013a.208.208 0 0 1-.061-.054c-.012.034-.11.05.061.054h.002c-.39.031-.78.06-1.13-.015l-.168.194-.86-.26c-.524.117-.74.186-.221.334-1.254-.228-1.017-.086-2.084-.312l.052.125c-.38-.005-.99-.172-1.22-.069-.853.237-4.219.033-6.407.253.424-.367-1.018.165-1.104-.12-.128.087-.433.136-.079.211-1.116-.085-1.678.138-2.449-.102-.128.087.24.127.125.179-.09-.019-.355-.075-.47-.024-.114.052.163.073.34.11-1.141-.014-1.257-.281-1.34-.533-.578.12-.866.103-1.284-.062-.201.082-.537.168.172.198-.399.012-2.437.12-2.477-.081-.125.051-.558.015-.663-.009l-1.214.018c-.328.003-.656.003-1.234-.007l.368-.033c-.057-.086-.163-.118-.332-.124l.002-.02H.86v-.759l-.006.005a4.064 4.064 0 0 1-.098-.673c-.006-.124.01-.17.023-.228.028-.112.05-.222-.104-.741l.185.045v-.862c-.073-.217-.12-.445-.056-.649l.056.091v-.232c-.198-.306-.624-.661-.668-.89-.043-.072-.07.113-.102.213-.296-.865.306-.111.377-.756-.165-.119-.42.153-.45-.28-.134-.217.535-1.258.219-1.85.127.13.254.26.35-.04.045-.458-.481-1.24-.08-1.655-.035-.058-.069-.08-.1-.082.103-.351.172-1.14.39-1.352-.807-.323.391-2.18-.353-2.172l.04-1.078-.076.028c-.049-.69.13-.934.308-1.176-.05-.16-.12-.043-.16-.03C.408 7.065.439 6.964.81 6.119l-.241-.087C.708 5.802.19 4.575.47 3.586c-.027.01-.074.031-.108.11C.493 3.182.36 2.575.266 2.03c-.011-.05-.023-.172-.032-.277-.01-.107-.018-.212-.026-.314A6.18 6.18 0 0 1 .192.858c.01-.356.067-.634.21-.74.153.03.292.067.42.11l.039.003V0h53.214v.077l.093-.001c.124-.032.28-.052.416-.054 0 .162-.003.318-.011.447v.055c1.76-.007 3.65-.022 5.18-.118-.681.367 1.636-.165 1.775.12.205-.087.695-.136.126-.211C63.449.4 64.35.177 65.59.417c.206-.087-.384-.127-.201-.179.144.019.57.075.757.024.183-.052-.263-.073-.547-.11 1.833.014 2.02.281 2.152.533.93-.12 1.393-.103 2.064.062.324-.082.864-.168-.276-.198.641-.012 3.916-.12 3.981.081.201-.051.896-.015 1.065.009L76.537.62c.526-.003 1.053-.003 1.983.007L77.93.66c.091.086.262.118.53.144h.157l.01.754c.108.316.15.532.158.673.009.124-.016.17-.038.228-.044.112-.08.222.167.741l-.297-.045v.862c.117.217.194.445.09.649l-.09-.091v.232c.319.306 1.003.661 1.073.89.07.072.113-.113.165-.213.476.865-.492.111-.606.756.265.119.674-.153.723.28.215.217-.86 1.258-.352 1.85-.204-.13-.408-.26-.561.04-.073.458.772 1.24.128 1.655.056.058.11.08.16.082-.166.351-.276 1.14-.625 1.352 1.295.323-.63 2.18.565 2.172l-.065 1.078.123-.028c.079.69-.208.934-.495 1.176.082.16.193.043.256.03.24 1.007.19 1.108-.405 1.953l.388.087c-.226.23.607 1.457.155 2.446.044-.01.12-.031.174-.11-.21.514.003 1.121.155 1.666.019.05.037.172.053.277l.041.314c.023.205.034.403.026.581-.017.356-.109.634-.338.74-.246-.03-.47-.067-.738-.113l-24.081-.617z"/>
    </defs>
    <use fill="#A3BB3A" fill-rule="evenodd" xlink:href="#a"/>
</svg>
