<?xml version="1.0" encoding="utf-8"?>
<!-- Generator: Adobe Illustrator 24.0.3, SVG Export Plug-In . SVG Version: 6.00 Build 0)  -->
<svg version="1.1" id="Layer_1" xmlns="http://www.w3.org/2000/svg" xmlns:xlink="http://www.w3.org/1999/xlink" x="0px" y="0px"
	 viewBox="0 0 400 400" style="enable-background:new 0 0 400 400;" xml:space="preserve">
<style type="text/css">
	.st0{clip-path:url(#SVGID_2_);}
	.st1{clip-path:url(#SVGID_4_);fill:#3C3C3C;}
	.st2{clip-path:url(#SVGID_6_);fill:#FDC509;}
</style>
<g id="Artwork_2_1_">
	<g>
		<g>
			<defs>
				<rect id="SVGID_1_" x="10" y="136.8" width="380.1" height="126.4"/>
			</defs>
			<clipPath id="SVGID_2_">
				<use xlink:href="#SVGID_1_"  style="overflow:visible;"/>
			</clipPath>
			<g class="st0">
				<g>
					<defs>
						<rect id="SVGID_3_" x="10" y="136.8" width="380.1" height="126.4"/>
					</defs>
					<clipPath id="SVGID_4_">
						<use xlink:href="#SVGID_3_"  style="overflow:visible;"/>
					</clipPath>
					<path class="st1" d="M269.6,139.5h21.5V246h-21.5V139.5z M341.1,139.6h-43v18.9h10.8V246h21.5v-87.5h10.7V139.6z M95.7,183.3
						h-7.1v-43.8H67.2V246h21.5v-43.8h7.1V246h21.5V139.5H95.7V183.3z M126.5,246H148V139.5h-21.5V246z M390,192.7
						c0,20.1-7.9,39-22.4,53.3l-2,1.9c-0.6,0.6-1.7,0.6-2.3,0l-2-1.9c-14.4-14.3-22.4-33.2-22.4-53.3s7.9-39,22.4-53.3l2-1.9
						c0.6-0.6,1.7-0.6,2.3,0l2,1.9C382.1,153.7,390,172.7,390,192.7 M369.1,192.7c0-7-1.4-14-4-20.5l-0.5-1.2l-0.5,1.2
						c-2.6,6.5-4,13.5-4,20.5c0,7,1.4,14,4,20.5l0.5,1.2l0.5-1.2C367.7,206.8,369.1,199.7,369.1,192.7 M35.4,171l0.5,1.2
						c1.7,4,2.8,8.3,3.5,12.7l0.3,1.8l1.8-0.2c3-0.3,6-0.4,9-0.4c2.7,0,5.4,0.1,8.1,0.4l2.3,0.2l-0.3-2.3
						c-1.9-17.1-9.5-32.6-21.9-44.9l-2-1.9c-0.6-0.6-1.7-0.6-2.3,0l-2,1.9C17.9,153.7,10,172.7,10,192.7s7.9,39,22.4,53.3l2,1.9
						c0.6,0.6,1.7,0.6,2.3,0l2-1.9c12.4-12.3,19.9-27.7,21.9-44.8l0.3-2.3l-1.9,0.2c-2.8,0.2-5.6,0.4-8.4,0.4
						c-3.1,0-6.3-0.2-9.4-0.5l-1.4-0.1l-0.3,1.7c-0.6,4.3-1.8,8.6-3.4,12.6l-0.5,1.2l-0.5-1.2c-2.6-6.5-4-13.5-4-20.5s1.4-14,4-20.5
						L35.4,171z M239,221.4c0,1-0.3,4.1-2.1,4.8c-0.3,0.1-0.6,0.2-0.9,0.2c-0.1,0-0.8,0-0.9,0c-0.3,0-0.6-0.1-0.9-0.2
						c-1.8-0.7-2.1-3.9-2.1-4.9v-81.9h-21.4v75.8c0,5.7,1.1,24.8,15.8,30.3c2.3,0.8,4.6,1.2,6.9,1.3c1,0,1.7,0,2.1,0
						c0.4,0,1.1,0,2.2,0c2.3-0.1,4.7-0.5,7-1.3l0,0c5.9-2.2,10.2-6.9,12.9-13.8c2.4-6.3,2.8-13,2.8-16.4v-75.9H239L239,221.4
						L239,221.4z M209.1,242.6l2.3,1l-1.7,1.9c-5.6,6.1-9.1,11.1-11.7,16.5l-0.1,0.2c-0.4,0.9-1.6,1.2-2.4,0.6l-0.2-0.1
						c-0.2-0.1-0.4-0.3-0.7-0.5c-3.3-2.1-13.4-8.6-22.7-20c-11.9-14.5-18-31.2-18-49.6c0-20.1,7.9-39,22.4-53.3l2.3-2.3
						c0.4-0.4,1.1-0.4,1.5,0l2.3,2.3c14.4,14.3,22.4,33.2,22.4,53.3c0,14-3.9,27.7-11.4,39.6l-0.2,0.4l0.4,0.3
						C196,235.1,201.2,239.1,209.1,242.6 M183.8,192.7c0-7-1.4-14-4-20.5l-0.5-1.2l-0.5,1.2c-2.6,6.4-4,13.5-4,20.5
						c0,7,1.4,14,4,20.5l0.5,1.2l0.5-1.2C182.4,206.8,183.8,199.7,183.8,192.7"/>
				</g>
				<g>
					<defs>
						<rect id="SVGID_5_" x="10" y="136.8" width="380.1" height="126.4"/>
					</defs>
					<clipPath id="SVGID_6_">
						<use xlink:href="#SVGID_5_"  style="overflow:visible;"/>
					</clipPath>
					<path class="st2" d="M56.5,182.5l-0.7,0c-1.8-0.1-3.6-0.2-5.4-0.2c-2.4,0-4.8,0.1-7.1,0.3l-0.5,0l-0.1-0.5
						c-1.1-5.7-2.9-11.1-5.6-16.3l-0.7-1.3c-0.4-0.8-1.5-0.8-1.9,0l-0.7,1.3c-4.3,8.2-6.6,17.5-6.6,26.8s2.3,18.6,6.6,26.8l0.7,1.3
						c0.4,0.8,1.5,0.8,2,0l0.7-1.3c2.7-5.1,4.6-10.5,5.6-16.2l0.1-0.5l0.5,0c2.3,0.2,4.7,0.3,7.1,0.3c1.8,0,3.6,0,5.4-0.2l0.7,0
						l-0.1,0.7c-2.3,15-9.4,28.8-20.4,39.7l-0.1,0.1c-0.2,0.2-0.6,0.2-0.8,0l-0.1-0.1c-13.7-13.6-21.3-31.6-21.3-50.6
						c0-19.1,7.6-37.1,21.3-50.6l0.1-0.1c0.2-0.2,0.6-0.2,0.8,0l0.1,0.1c11.1,10.9,18.1,24.7,20.4,39.8L56.5,182.5z M99.5,242.2h14
						v-99h-14V187H85v-43.8h-14v99h14v-43.8h14.5V242.2z M130.2,143.2h14v99h-14C130.2,242.3,130.2,143.2,130.2,143.2z M386.3,192.7
						c0,19.1-7.6,37.1-21.3,50.6c-0.3,0.3-0.7,0.3-1,0l0,0c-13.7-13.6-21.3-31.6-21.3-50.6c0-19.1,7.6-37.1,21.3-50.6l0.1-0.1
						c0.2-0.2,0.6-0.2,0.8,0l0.1,0.1C378.8,155.7,386.3,173.7,386.3,192.7 M366.2,219.6c4.3-8.2,6.6-17.5,6.6-26.8
						s-2.3-18.6-6.6-26.8l-0.7-1.3c-0.4-0.8-1.5-0.8-1.9,0l-0.7,1.3c-4.3,8.2-6.6,17.5-6.6,26.8s2.3,18.6,6.6,26.8l0.7,1.3
						c0.4,0.8,1.5,0.8,1.9,0L366.2,219.6z M312.6,154.8h-10.8v-11.5h35.7v11.5h-10.8v87.5h-14L312.6,154.8L312.6,154.8z
						 M273.4,143.2h14v99h-14V143.2z M256.7,143.2h-14v78.3c-0.2,4.2-1.8,7.2-4.5,8.2c-0.7,0.2-1.4,0.4-2.1,0.4c-0.1,0-1,0-1.1,0
						c-0.7,0-1.3-0.2-2-0.4l0,0c-2.7-1-4.4-4-4.5-8.2v-0.1v-78.2h-14v72.1c0,3.1,0.3,9.2,2.5,15c2.3,6,5.9,10,10.8,11.9
						c1.6,0.6,3.4,0.9,5.8,1.1c1.1,0.1,3.4,0,4.1,0c2.1-0.1,4.1-0.5,5.8-1.1c12.3-4.7,13.3-21.6,13.3-26.7L256.7,143.2L256.7,143.2z
						 M204.6,244.6c-9.8-4.9-15-10.1-15.2-10.3l-1.1-1.1l0.8-1.3c7.8-11.6,11.9-25.2,11.9-39.2c0-19.1-7.6-37.1-21.3-50.6l-0.1-0.1
						c-0.2-0.2-0.6-0.2-0.8,0l-0.1,0.1c-13.7,13.6-21.3,31.6-21.3,50.6c0,35.2,23.5,56.1,37.6,65.5l0.5,0.3l0.3-0.5
						c2.3-4.2,5.1-8.2,9-12.6l0.5-0.5L204.6,244.6z M180.9,219.6l-0.7,1.3c-0.4,0.8-1.5,0.8-1.9,0l-0.7-1.3
						c-4.3-8.2-6.6-17.5-6.6-26.8s2.3-18.6,6.6-26.8l0.7-1.3c0.4-0.8,1.5-0.8,1.9,0l0.7,1.3c4.3,8.2,6.6,17.5,6.6,26.8
						S185.3,211.3,180.9,219.6"/>
				</g>
			</g>
		</g>
	</g>
</g>
</svg>
