<?xml version="1.0" encoding="UTF-8"?>
<svg width="226px" height="84px" viewBox="0 0 226 84" version="1.1" xmlns="http://www.w3.org/2000/svg" xmlns:xlink="http://www.w3.org/1999/xlink">
    <!-- Generator: Sketch 48.2 (47327) - http://www.bohemiancoding.com/sketch -->
    <title>expired</title>
    <desc>Created with Sketch.</desc>
    <defs></defs>
    <g id="9.2-Wallet-M" stroke="none" stroke-width="1" fill="none" fill-rule="evenodd" transform="translate(-66.000000, -501.000000)">
        <g id="expired" transform="translate(68.000000, 501.000000)">
            <path d="M73.6579338,43.3811193 L73.6579338,48.5611193 L57.8379338,48.5611193 L57.8379338,28.9611193 L73.3779338,28.9611193 L73.3779338,34.1411193 L64.1379338,34.1411193 L64.1379338,36.2411193 L71.1379338,36.2411193 L71.1379338,41.0011193 L64.1379338,41.0011193 L64.1379338,43.3811193 L73.6579338,43.3811193 Z M82.1979338,45.0611193 L80.3779338,48.5611193 L74.4979338,48.5611193 L78.5579338,41.5611193 L74.6379338,34.8411193 L80.6579338,34.8411193 L82.1979338,38.0611193 L83.7379338,34.8411193 L89.7579338,34.8411193 L85.8379338,41.5611193 L89.8979338,48.5611193 L84.0179338,48.5611193 L82.1979338,45.0611193 Z M96.8979338,41.7011193 C96.8979338,42.3357892 97.0892653,42.8444507 97.4719338,43.2271193 C97.8546024,43.6097879 98.363264,43.8011193 98.9979338,43.8011193 C99.5579366,43.8011193 100.024599,43.6097879 100.397934,43.2271193 C100.771269,42.8444507 100.957934,42.3357892 100.957934,41.7011193 C100.957934,41.0664495 100.771269,40.5577879 100.397934,40.1751193 C100.024599,39.7924507 99.5579366,39.6011193 98.9979338,39.6011193 C98.363264,39.6011193 97.8546024,39.7924507 97.4719338,40.1751193 C97.0892653,40.5577879 96.8979338,41.0664495 96.8979338,41.7011193 Z M96.8979338,54.4411193 L91.2979338,54.4411193 L91.2979338,34.8411193 L96.8979338,34.8411193 L96.8979338,36.5211193 C97.1406017,36.1664509 97.4392654,35.8397875 97.7939338,35.5411193 C98.1112688,35.2984514 98.5032648,35.0744537 98.9699338,34.8691193 C99.4366028,34.663785 100.00593,34.5611193 100.677934,34.5611193 C101.480605,34.5611193 102.24593,34.7337843 102.973934,35.0791193 C103.701937,35.4244544 104.341264,35.9097829 104.891934,36.5351193 C105.442603,37.1604558 105.881266,37.9117816 106.207934,38.7891193 C106.534602,39.666457 106.697934,40.637114 106.697934,41.7011193 C106.697934,42.7651246 106.534602,43.7357816 106.207934,44.6131193 C105.881266,45.490457 105.442603,46.2417829 104.891934,46.8671193 C104.341264,47.4924558 103.701937,47.9777843 102.973934,48.3231193 C102.24593,48.6684544 101.480605,48.8411193 100.677934,48.8411193 C100.00593,48.8411193 99.4366028,48.7431203 98.9699338,48.5471193 C98.5032648,48.3511183 98.1112688,48.122454 97.7939338,47.8611193 C97.4392654,47.5811179 97.1406017,47.2544545 96.8979338,46.8811193 L96.8979338,54.4411193 Z M114.957934,48.5611193 L109.357934,48.5611193 L109.357934,34.8411193 L114.957934,34.8411193 L114.957934,48.5611193 Z M115.237934,30.6411193 C115.237934,31.4251232 114.95327,32.0877833 114.383934,32.6291193 C113.814598,33.1704554 113.072605,33.4411193 112.157934,33.4411193 C111.243263,33.4411193 110.50127,33.1704554 109.931934,32.6291193 C109.362598,32.0877833 109.077934,31.4251232 109.077934,30.6411193 C109.077934,29.8571154 109.362598,29.1944554 109.931934,28.6531193 C110.50127,28.1117833 111.243263,27.8411193 112.157934,27.8411193 C113.072605,27.8411193 113.814598,28.1117833 114.383934,28.6531193 C114.95327,29.1944554 115.237934,29.8571154 115.237934,30.6411193 Z M127.977934,40.4411193 C127.865933,40.4037858 127.735268,40.3571196 127.585934,40.3011193 C127.455267,40.2637858 127.305935,40.2311195 127.137934,40.2031193 C126.969933,40.1751192 126.783268,40.1611193 126.577934,40.1611193 C125.73793,40.1611193 125.06127,40.4271167 124.547934,40.9591193 C124.034598,41.491122 123.777934,42.251781 123.777934,43.2411193 L123.777934,48.5611193 L118.177934,48.5611193 L118.177934,34.8411193 L123.777934,34.8411193 L123.777934,36.5211193 C124.020602,36.1851176 124.309932,35.8771207 124.645934,35.5971193 C124.944602,35.3544514 125.322598,35.1351203 125.779934,34.9391193 C126.237269,34.7431183 126.783264,34.6451193 127.417934,34.6451193 L127.977934,34.6451193 L127.977934,40.4411193 Z M135.257934,42.9611193 C135.407268,43.3157878 135.701265,43.6611176 136.139934,43.9971193 C136.578603,44.333121 137.21793,44.5011193 138.057934,44.5011193 C138.487269,44.5011193 138.865266,44.4544531 139.191934,44.3611193 C139.518602,44.2677855 139.793933,44.1557866 140.017934,44.0251193 C140.279268,43.8757852 140.512599,43.7077869 140.717934,43.5211193 L142.957934,47.0211193 C142.509932,47.3944545 141.996603,47.7211179 141.417934,48.0011193 C140.932598,48.262454 140.335271,48.4911183 139.625934,48.6871193 C138.916597,48.8831203 138.113938,48.9811193 137.217934,48.9811193 C136.097928,48.9811193 135.057272,48.7851213 134.095934,48.3931193 C133.134596,48.0011174 132.303937,47.4737893 131.603934,46.8111193 C130.90393,46.1484493 130.357936,45.378457 129.965934,44.5011193 C129.573932,43.6237816 129.377934,42.6904576 129.377934,41.7011193 C129.377934,40.711781 129.569265,39.7737904 129.951934,38.8871193 C130.334602,38.0004482 130.866597,37.2257893 131.547934,36.5631193 C132.229271,35.9004493 133.031929,35.3777879 133.955934,34.9951193 C134.879938,34.6124507 135.873929,34.4211193 136.937934,34.4211193 C137.983272,34.4211193 138.958596,34.6077841 139.863934,34.9811193 C140.769272,35.3544545 141.553264,35.8631161 142.215934,36.5071193 C142.878604,37.1511225 143.401265,37.8931151 143.783934,38.7331193 C144.166602,39.5731235 144.357934,40.4691146 144.357934,41.4211193 C144.357934,41.682454 144.343934,41.9064517 144.315934,42.0931193 C144.287934,42.2797869 144.255267,42.438452 144.217934,42.5691193 C144.161934,42.7184534 144.115267,42.8491188 144.077934,42.9611193 L135.257934,42.9611193 Z M136.937934,38.6211193 C136.508598,38.6211193 136.135269,38.7704512 135.817934,39.0691193 C135.500599,39.3677875 135.267268,39.7317838 135.117934,40.1611193 L138.757934,40.1611193 C138.6086,39.7317838 138.375269,39.3677875 138.057934,39.0691193 C137.740599,38.7704512 137.367269,38.6211193 136.937934,38.6211193 Z M155.837934,41.7011193 C155.837934,41.0664495 155.646602,40.5577879 155.263934,40.1751193 C154.881265,39.7924507 154.372604,39.6011193 153.737934,39.6011193 C153.177931,39.6011193 152.711269,39.7924507 152.337934,40.1751193 C151.964599,40.5577879 151.777934,41.0664495 151.777934,41.7011193 C151.777934,42.3357892 151.964599,42.8444507 152.337934,43.2271193 C152.711269,43.6097879 153.177931,43.8011193 153.737934,43.8011193 C154.372604,43.8011193 154.881265,43.6097879 155.263934,43.2271193 C155.646602,42.8444507 155.837934,42.3357892 155.837934,41.7011193 Z M155.837934,28.9611193 L161.437934,28.9611193 L161.437934,48.5611193 L155.837934,48.5611193 L155.837934,46.8811193 C155.595266,47.2544545 155.296602,47.5811179 154.941934,47.8611193 C154.624599,48.122454 154.227936,48.3511183 153.751934,48.5471193 C153.275931,48.7431203 152.71127,48.8411193 152.057934,48.8411193 C151.255263,48.8411193 150.489937,48.6684544 149.761934,48.3231193 C149.03393,47.9777843 148.394603,47.4924558 147.843934,46.8671193 C147.293264,46.2417829 146.854602,45.490457 146.527934,44.6131193 C146.201266,43.7357816 146.037934,42.7651246 146.037934,41.7011193 C146.037934,40.637114 146.201266,39.666457 146.527934,38.7891193 C146.854602,37.9117816 147.293264,37.1604558 147.843934,36.5351193 C148.394603,35.9097829 149.03393,35.4244544 149.761934,35.0791193 C150.489937,34.7337843 151.255263,34.5611193 152.057934,34.5611193 C152.71127,34.5611193 153.275931,34.663785 153.751934,34.8691193 C154.227936,35.0744537 154.624599,35.2984514 154.941934,35.5411193 C155.296602,35.8397875 155.595266,36.1664509 155.837934,36.5211193 L155.837934,28.9611193 Z" id="Expired" fill="#EB1C21" transform="translate(109.637934, 41.141119) rotate(-15.000000) translate(-109.637934, -41.141119) "></path>
            <path d="M90.3614029,2.77555741 C63.4544029,6.54855741 33.0804029,11.7995574 12.4904029,31.0735574 C7.63840292,35.6155574 3.40140292,41.0205574 1.30940292,47.3285574 C-0.782597081,53.6355574 -0.498597081,60.9405574 3.11340292,66.5195574 C8.26740292,74.4815574 19.4134029,77.4295574 28.2844029,79.1365574 C51.4294029,83.5935574 75.5774029,81.4095574 98.7674029,78.5915574 C133.023403,74.4295574 169.543403,68.8685574 200.008403,51.1775574 C209.157403,45.8665574 219.577403,38.5985574 221.979403,27.5345574 C228.788403,-3.82244259 165.837403,2.73355741 149.535403,3.44455741 C122.213403,4.63655741 95.0394029,8.14955741 68.0174029,12.2285574" id="Page-1" stroke="#FF3336" stroke-width="3" stroke-linecap="round" stroke-linejoin="round"></path>
        </g>
    </g>
</svg>