<?xml version="1.0" encoding="UTF-8"?>
<svg width="226px" height="84px" viewBox="0 0 226 84" version="1.1" xmlns="http://www.w3.org/2000/svg" xmlns:xlink="http://www.w3.org/1999/xlink">
    <!-- Generator: Sketch 48.2 (47327) - http://www.bohemiancoding.com/sketch -->
    <title>redeemed</title>
    <desc>Created with Sketch.</desc>
    <defs></defs>
    <g id="9.2-Wallet-M" stroke="none" stroke-width="1" fill="none" fill-rule="evenodd" transform="translate(-66.000000, -782.000000)">
        <g id="redeemed" transform="translate(68.000000, 781.000000)">
            <path d="M33.6779338,30.9611193 L43.3379338,30.9611193 C44.4579394,30.9611193 45.4752626,31.1431175 46.3899338,31.5071193 C47.3046051,31.8711211 48.0839306,32.3657829 48.7279338,32.9911193 C49.3719371,33.6164558 49.8712654,34.3584484 50.2259338,35.2171193 C50.5806023,36.0757903 50.7579338,36.9904478 50.7579338,37.9611193 C50.7579338,39.0251246 50.5946021,39.9211157 50.2679338,40.6491193 C49.9412655,41.377123 49.591269,41.9651171 49.2179338,42.4131193 C48.7512648,42.9544554 48.2379366,43.3837844 47.6779338,43.7011193 L51.4579338,50.5611193 L44.8779338,50.5611193 L41.9379338,44.9611193 L39.9779338,44.9611193 L39.9779338,50.5611193 L33.6779338,50.5611193 L33.6779338,30.9611193 Z M44.4579338,37.9611193 C44.4579338,37.5317838 44.3226019,37.1911206 44.0519338,36.9391193 C43.7812658,36.6871181 43.4032696,36.5611193 42.9179338,36.5611193 L39.9779338,36.5611193 L39.9779338,39.3611193 L42.9179338,39.3611193 C43.4032696,39.3611193 43.7812658,39.2351206 44.0519338,38.9831193 C44.3226019,38.7311181 44.4579338,38.3904548 44.4579338,37.9611193 Z M58.5979338,44.9611193 C58.7472679,45.3157878 59.041265,45.6611176 59.4799338,45.9971193 C59.9186027,46.333121 60.5579296,46.5011193 61.3979338,46.5011193 C61.8272693,46.5011193 62.2052655,46.4544531 62.5319338,46.3611193 C62.8586021,46.2677855 63.1339327,46.1557866 63.3579338,46.0251193 C63.6192685,45.8757852 63.8525995,45.7077869 64.0579338,45.5211193 L66.2979338,49.0211193 C65.8499316,49.3944545 65.3366034,49.7211179 64.7579338,50.0011193 C64.2725981,50.262454 63.6752707,50.4911183 62.9659338,50.6871193 C62.256597,50.8831203 61.4539383,50.9811193 60.5579338,50.9811193 C59.4379282,50.9811193 58.397272,50.7851213 57.4359338,50.3931193 C56.4745957,50.0011174 55.6439373,49.4737893 54.9439338,48.8111193 C54.2439303,48.1484493 53.6979358,47.378457 53.3059338,46.5011193 C52.9139319,45.6237816 52.7179338,44.6904576 52.7179338,43.7011193 C52.7179338,42.711781 52.9092653,41.7737904 53.2919338,40.8871193 C53.6746024,40.0004482 54.2065971,39.2257893 54.8879338,38.5631193 C55.5692706,37.9004493 56.3719292,37.3777879 57.2959338,36.9951193 C58.2199385,36.6124507 59.2139285,36.4211193 60.2779338,36.4211193 C61.3232724,36.4211193 62.298596,36.6077841 63.2039338,36.9811193 C64.1092717,37.3544545 64.8932639,37.8631161 65.5559338,38.5071193 C66.2186038,39.1511225 66.7412653,39.8931151 67.1239338,40.7331193 C67.5066024,41.5731235 67.6979338,42.4691146 67.6979338,43.4211193 C67.6979338,43.682454 67.683934,43.9064517 67.6559338,44.0931193 C67.6279337,44.2797869 67.5952674,44.438452 67.5579338,44.5691193 C67.5019336,44.7184534 67.4552674,44.8491188 67.4179338,44.9611193 L58.5979338,44.9611193 Z M60.2779338,40.6211193 C59.8485984,40.6211193 59.4752688,40.7704512 59.1579338,41.0691193 C58.8405989,41.3677875 58.6072679,41.7317838 58.4579338,42.1611193 L62.0979338,42.1611193 C61.9485998,41.7317838 61.7152688,41.3677875 61.3979338,41.0691193 C61.0805989,40.7704512 60.7072693,40.6211193 60.2779338,40.6211193 Z M79.1779338,43.7011193 C79.1779338,43.0664495 78.9866024,42.5577879 78.6039338,42.1751193 C78.2212653,41.7924507 77.7126037,41.6011193 77.0779338,41.6011193 C76.517931,41.6011193 76.051269,41.7924507 75.6779338,42.1751193 C75.3045986,42.5577879 75.1179338,43.0664495 75.1179338,43.7011193 C75.1179338,44.3357892 75.3045986,44.8444507 75.6779338,45.2271193 C76.051269,45.6097879 76.517931,45.8011193 77.0779338,45.8011193 C77.7126037,45.8011193 78.2212653,45.6097879 78.6039338,45.2271193 C78.9866024,44.8444507 79.1779338,44.3357892 79.1779338,43.7011193 Z M79.1779338,30.9611193 L84.7779338,30.9611193 L84.7779338,50.5611193 L79.1779338,50.5611193 L79.1779338,48.8811193 C78.935266,49.2544545 78.6366023,49.5811179 78.2819338,49.8611193 C77.9645989,50.122454 77.5679362,50.3511183 77.0919338,50.5471193 C76.6159315,50.7431203 76.0512704,50.8411193 75.3979338,50.8411193 C74.5952632,50.8411193 73.8299375,50.6684544 73.1019338,50.3231193 C72.3739302,49.9777843 71.7346033,49.4924558 71.1839338,48.8671193 C70.6332644,48.2417829 70.1946021,47.490457 69.8679338,46.6131193 C69.5412655,45.7357816 69.3779338,44.7651246 69.3779338,43.7011193 C69.3779338,42.637114 69.5412655,41.666457 69.8679338,40.7891193 C70.1946021,39.9117816 70.6332644,39.1604558 71.1839338,38.5351193 C71.7346033,37.9097829 72.3739302,37.4244544 73.1019338,37.0791193 C73.8299375,36.7337843 74.5952632,36.5611193 75.3979338,36.5611193 C76.0512704,36.5611193 76.6159315,36.663785 77.0919338,36.8691193 C77.5679362,37.0744537 77.9645989,37.2984514 78.2819338,37.5411193 C78.6366023,37.8397875 78.935266,38.1664509 79.1779338,38.5211193 L79.1779338,30.9611193 Z M93.1779338,44.9611193 C93.3272679,45.3157878 93.621265,45.6611176 94.0599338,45.9971193 C94.4986027,46.333121 95.1379296,46.5011193 95.9779338,46.5011193 C96.4072693,46.5011193 96.7852655,46.4544531 97.1119338,46.3611193 C97.4386021,46.2677855 97.7139327,46.1557866 97.9379338,46.0251193 C98.1992685,45.8757852 98.4325995,45.7077869 98.6379338,45.5211193 L100.877934,49.0211193 C100.429932,49.3944545 99.9166034,49.7211179 99.3379338,50.0011193 C98.8525981,50.262454 98.2552707,50.4911183 97.5459338,50.6871193 C96.836597,50.8831203 96.0339383,50.9811193 95.1379338,50.9811193 C94.0179282,50.9811193 92.977272,50.7851213 92.0159338,50.3931193 C91.0545957,50.0011174 90.2239373,49.4737893 89.5239338,48.8111193 C88.8239303,48.1484493 88.2779358,47.378457 87.8859338,46.5011193 C87.4939319,45.6237816 87.2979338,44.6904576 87.2979338,43.7011193 C87.2979338,42.711781 87.4892653,41.7737904 87.8719338,40.8871193 C88.2546024,40.0004482 88.7865971,39.2257893 89.4679338,38.5631193 C90.1492706,37.9004493 90.9519292,37.3777879 91.8759338,36.9951193 C92.7999385,36.6124507 93.7939285,36.4211193 94.8579338,36.4211193 C95.9032724,36.4211193 96.878596,36.6077841 97.7839338,36.9811193 C98.6892717,37.3544545 99.4732639,37.8631161 100.135934,38.5071193 C100.798604,39.1511225 101.321265,39.8931151 101.703934,40.7331193 C102.086602,41.5731235 102.277934,42.4691146 102.277934,43.4211193 C102.277934,43.682454 102.263934,43.9064517 102.235934,44.0931193 C102.207934,44.2797869 102.175267,44.438452 102.137934,44.5691193 C102.081934,44.7184534 102.035267,44.8491188 101.997934,44.9611193 L93.1779338,44.9611193 Z M94.8579338,40.6211193 C94.4285984,40.6211193 94.0552688,40.7704512 93.7379338,41.0691193 C93.4205989,41.3677875 93.1872679,41.7317838 93.0379338,42.1611193 L96.6779338,42.1611193 C96.5285998,41.7317838 96.2952688,41.3677875 95.9779338,41.0691193 C95.6605989,40.7704512 95.2872693,40.6211193 94.8579338,40.6211193 Z M109.697934,44.9611193 C109.847268,45.3157878 110.141265,45.6611176 110.579934,45.9971193 C111.018603,46.333121 111.65793,46.5011193 112.497934,46.5011193 C112.927269,46.5011193 113.305266,46.4544531 113.631934,46.3611193 C113.958602,46.2677855 114.233933,46.1557866 114.457934,46.0251193 C114.719268,45.8757852 114.952599,45.7077869 115.157934,45.5211193 L117.397934,49.0211193 C116.949932,49.3944545 116.436603,49.7211179 115.857934,50.0011193 C115.372598,50.262454 114.775271,50.4911183 114.065934,50.6871193 C113.356597,50.8831203 112.553938,50.9811193 111.657934,50.9811193 C110.537928,50.9811193 109.497272,50.7851213 108.535934,50.3931193 C107.574596,50.0011174 106.743937,49.4737893 106.043934,48.8111193 C105.34393,48.1484493 104.797936,47.378457 104.405934,46.5011193 C104.013932,45.6237816 103.817934,44.6904576 103.817934,43.7011193 C103.817934,42.711781 104.009265,41.7737904 104.391934,40.8871193 C104.774602,40.0004482 105.306597,39.2257893 105.987934,38.5631193 C106.669271,37.9004493 107.471929,37.3777879 108.395934,36.9951193 C109.319938,36.6124507 110.313929,36.4211193 111.377934,36.4211193 C112.423272,36.4211193 113.398596,36.6077841 114.303934,36.9811193 C115.209272,37.3544545 115.993264,37.8631161 116.655934,38.5071193 C117.318604,39.1511225 117.841265,39.8931151 118.223934,40.7331193 C118.606602,41.5731235 118.797934,42.4691146 118.797934,43.4211193 C118.797934,43.682454 118.783934,43.9064517 118.755934,44.0931193 C118.727934,44.2797869 118.695267,44.438452 118.657934,44.5691193 C118.601934,44.7184534 118.555267,44.8491188 118.517934,44.9611193 L109.697934,44.9611193 Z M111.377934,40.6211193 C110.948598,40.6211193 110.575269,40.7704512 110.257934,41.0691193 C109.940599,41.3677875 109.707268,41.7317838 109.557934,42.1611193 L113.197934,42.1611193 C113.0486,41.7317838 112.815269,41.3677875 112.497934,41.0691193 C112.180599,40.7704512 111.807269,40.6211193 111.377934,40.6211193 Z M134.897934,50.5611193 L129.297934,50.5611193 L129.297934,43.5611193 C129.297934,43.0011165 129.195268,42.6044538 128.989934,42.3711193 C128.784599,42.1377848 128.467269,42.0211193 128.037934,42.0211193 C127.683265,42.0211193 127.361269,42.1891176 127.071934,42.5251193 C126.782599,42.861121 126.637934,43.3464495 126.637934,43.9811193 L126.637934,50.5611193 L121.037934,50.5611193 L121.037934,36.8411193 L126.637934,36.8411193 L126.637934,38.5211193 C126.880602,38.1664509 127.169932,37.8397875 127.505934,37.5411193 C127.804602,37.2984514 128.168598,37.0744537 128.597934,36.8691193 C129.027269,36.663785 129.540598,36.5611193 130.137934,36.5611193 C130.847271,36.5611193 131.439931,36.6777848 131.915934,36.9111193 C132.391936,37.1444538 132.779266,37.4011179 133.077934,37.6811193 C133.413936,38.017121 133.693933,38.3904506 133.917934,38.8011193 C134.235269,38.3904506 134.617932,38.017121 135.065934,37.6811193 C135.439269,37.4011179 135.901264,37.1444538 136.451934,36.9111193 C137.002603,36.6777848 137.651263,36.5611193 138.397934,36.5611193 C139.797941,36.5611193 140.941263,37.0417812 141.827934,38.0031193 C142.714605,38.9644575 143.157934,40.3971098 143.157934,42.3011193 L143.157934,50.5611193 L137.557934,50.5611193 L137.557934,43.5611193 C137.557934,43.0011165 137.455268,42.6044538 137.249934,42.3711193 C137.044599,42.1377848 136.727269,42.0211193 136.297934,42.0211193 C135.943265,42.0211193 135.621269,42.1891176 135.331934,42.5251193 C135.042599,42.861121 134.897934,43.3464495 134.897934,43.9811193 L134.897934,50.5611193 Z M151.417934,44.9611193 C151.567268,45.3157878 151.861265,45.6611176 152.299934,45.9971193 C152.738603,46.333121 153.37793,46.5011193 154.217934,46.5011193 C154.647269,46.5011193 155.025266,46.4544531 155.351934,46.3611193 C155.678602,46.2677855 155.953933,46.1557866 156.177934,46.0251193 C156.439268,45.8757852 156.672599,45.7077869 156.877934,45.5211193 L159.117934,49.0211193 C158.669932,49.3944545 158.156603,49.7211179 157.577934,50.0011193 C157.092598,50.262454 156.495271,50.4911183 155.785934,50.6871193 C155.076597,50.8831203 154.273938,50.9811193 153.377934,50.9811193 C152.257928,50.9811193 151.217272,50.7851213 150.255934,50.3931193 C149.294596,50.0011174 148.463937,49.4737893 147.763934,48.8111193 C147.06393,48.1484493 146.517936,47.378457 146.125934,46.5011193 C145.733932,45.6237816 145.537934,44.6904576 145.537934,43.7011193 C145.537934,42.711781 145.729265,41.7737904 146.111934,40.8871193 C146.494602,40.0004482 147.026597,39.2257893 147.707934,38.5631193 C148.389271,37.9004493 149.191929,37.3777879 150.115934,36.9951193 C151.039938,36.6124507 152.033929,36.4211193 153.097934,36.4211193 C154.143272,36.4211193 155.118596,36.6077841 156.023934,36.9811193 C156.929272,37.3544545 157.713264,37.8631161 158.375934,38.5071193 C159.038604,39.1511225 159.561265,39.8931151 159.943934,40.7331193 C160.326602,41.5731235 160.517934,42.4691146 160.517934,43.4211193 C160.517934,43.682454 160.503934,43.9064517 160.475934,44.0931193 C160.447934,44.2797869 160.415267,44.438452 160.377934,44.5691193 C160.321934,44.7184534 160.275267,44.8491188 160.237934,44.9611193 L151.417934,44.9611193 Z M153.097934,40.6211193 C152.668598,40.6211193 152.295269,40.7704512 151.977934,41.0691193 C151.660599,41.3677875 151.427268,41.7317838 151.277934,42.1611193 L154.917934,42.1611193 C154.7686,41.7317838 154.535269,41.3677875 154.217934,41.0691193 C153.900599,40.7704512 153.527269,40.6211193 153.097934,40.6211193 Z M171.997934,43.7011193 C171.997934,43.0664495 171.806602,42.5577879 171.423934,42.1751193 C171.041265,41.7924507 170.532604,41.6011193 169.897934,41.6011193 C169.337931,41.6011193 168.871269,41.7924507 168.497934,42.1751193 C168.124599,42.5577879 167.937934,43.0664495 167.937934,43.7011193 C167.937934,44.3357892 168.124599,44.8444507 168.497934,45.2271193 C168.871269,45.6097879 169.337931,45.8011193 169.897934,45.8011193 C170.532604,45.8011193 171.041265,45.6097879 171.423934,45.2271193 C171.806602,44.8444507 171.997934,44.3357892 171.997934,43.7011193 Z M171.997934,30.9611193 L177.597934,30.9611193 L177.597934,50.5611193 L171.997934,50.5611193 L171.997934,48.8811193 C171.755266,49.2544545 171.456602,49.5811179 171.101934,49.8611193 C170.784599,50.122454 170.387936,50.3511183 169.911934,50.5471193 C169.435931,50.7431203 168.87127,50.8411193 168.217934,50.8411193 C167.415263,50.8411193 166.649937,50.6684544 165.921934,50.3231193 C165.19393,49.9777843 164.554603,49.4924558 164.003934,48.8671193 C163.453264,48.2417829 163.014602,47.490457 162.687934,46.6131193 C162.361266,45.7357816 162.197934,44.7651246 162.197934,43.7011193 C162.197934,42.637114 162.361266,41.666457 162.687934,40.7891193 C163.014602,39.9117816 163.453264,39.1604558 164.003934,38.5351193 C164.554603,37.9097829 165.19393,37.4244544 165.921934,37.0791193 C166.649937,36.7337843 167.415263,36.5611193 168.217934,36.5611193 C168.87127,36.5611193 169.435931,36.663785 169.911934,36.8691193 C170.387936,37.0744537 170.784599,37.2984514 171.101934,37.5411193 C171.456602,37.8397875 171.755266,38.1664509 171.997934,38.5211193 L171.997934,30.9611193 Z" id="Redeemed" fill="#EB1C21" transform="translate(105.637934, 40.971119) rotate(-15.000000) translate(-105.637934, -40.971119) "></path>
            <path d="M90.3614029,3.63154548 C63.4544029,7.40454548 33.0804029,12.6555455 12.4904029,31.9295455 C7.63840292,36.4715455 3.40140292,41.8765455 1.30940292,48.1845455 C-0.782597081,54.4915455 -0.498597081,61.7965455 3.11340292,67.3755455 C8.26740292,75.3375455 19.4134029,78.2855455 28.2844029,79.9925455 C51.4294029,84.4495455 75.5774029,82.2655455 98.7674029,79.4475455 C133.023403,75.2855455 169.543403,69.7245455 200.008403,52.0335455 C209.157403,46.7225455 219.577403,39.4545455 221.979403,28.3905455 C228.788403,-2.96645452 165.837403,3.58954548 149.535403,4.30054548 C122.213403,5.49254548 95.0394029,9.00554548 68.0174029,13.0845455" id="Page-1-Copy" stroke="#FF3336" stroke-width="3" stroke-linecap="round" stroke-linejoin="round"></path>
        </g>
    </g>
</svg>