
<svg width="49px" height="7px" viewBox="0 0 49 7" version="1.1" xmlns="http://www.w3.org/2000/svg" xmlns:xlink="http://www.w3.org/1999/xlink">
    <g id="Page-1" stroke="none" stroke-width="1" fill="none" fill-rule="evenodd">
        <g id="under25" transform="translate(-273.000000, -70.000000)" fill="#FFFFFF" fill-rule="nonzero">
            <g id="Group-2" transform="translate(0.000000, 67.000000)">
                <path d="M276.0539,7.39928 C276.0539,7.33728 276.0539,7.26528 276.0439,7.19428 C275.9819,6.89228 275.7419,6.63328 275.4029,6.63328 C274.8699,6.63328 274.6289,7.11428 274.6289,7.69228 C274.6289,8.36228 274.9579,8.71728 275.4029,8.71728 C275.7239,8.71728 275.9739,8.48528 276.0269,8.19228 C276.0439,8.10328 276.0539,7.99628 276.0539,7.89828 L276.0539,7.39928 Z M277.6569,3.57128 L277.6569,8.50328 C277.6569,9.04528 277.6739,9.59928 277.6899,9.89128 L276.2679,9.89128 L276.2059,9.29628 L276.1879,9.29628 C275.8939,9.79428 275.3669,9.98928 274.8609,9.98928 C273.8449,9.98928 272.9999,9.10928 272.9999,7.72928 C272.9909,6.25928 273.9269,5.41428 274.9579,5.41428 C275.4379,5.41428 275.8399,5.55528 276.0359,5.83228 L276.0539,5.83228 L276.0539,3.57128 L277.6569,3.57128 Z" id="Fill-1"></path>
                <path d="M278.9196,6.99008 C278.9196,6.29608 278.9016,5.87708 278.8846,5.51208 L280.2556,5.51208 L280.3096,6.30408 L280.3446,6.30408 C280.5766,5.63608 281.1366,5.41408 281.5106,5.41408 C281.6536,5.41408 281.7156,5.41408 281.8316,5.44008 L281.8316,6.94508 C281.7156,6.92008 281.5906,6.89908 281.4216,6.89908 C280.9496,6.89908 280.6296,7.09708 280.5486,7.45208 C280.5306,7.53208 280.5226,7.62208 280.5226,7.72908 L280.5226,9.89108 L278.9196,9.89108 L278.9196,6.99008 Z" id="Fill-4"></path>
                <path d="M285.6066,6.99798 C285.6066,6.41998 285.5886,5.91198 285.5716,5.51198 L286.9516,5.51198 L287.0226,6.07298 L287.0586,6.07298 C287.2176,5.84098 287.6366,5.41498 288.3676,5.41498 C289.3906,5.41498 289.9426,6.10898 289.9426,7.30998 L289.9426,9.89198 L288.3396,9.89198 L288.3396,7.50598 C288.3396,6.99798 288.1626,6.70498 287.7806,6.70498 C287.4666,6.70498 287.3246,6.91898 287.2536,7.08898 C287.2176,7.16698 287.2096,7.29198 287.2096,7.40798 L287.2096,9.89198 L285.6066,9.89198 L285.6066,6.99798 Z" id="Fill-6"></path>
                <path d="M292.7658,7.29238 L292.7848,7.29238 C292.8828,7.09738 292.9718,6.91938 293.0698,6.75938 L293.7908,5.51238 L295.7038,5.51238 L294.1908,7.27638 L295.9268,9.89138 L293.9508,9.89138 L293.0868,8.21838 L292.7658,8.64538 L292.7658,9.89138 L291.1638,9.89138 L291.1638,3.57138 L292.7658,3.57138 L292.7658,7.29238 Z" id="Fill-8"></path>
                <path d="M298.9543,7.88958 C298.3033,7.88958 297.9313,8.07558 297.9313,8.45858 C297.9313,8.73558 298.1163,8.87658 298.3833,8.87658 C298.6153,8.87658 298.8663,8.71658 298.9363,8.47658 C298.9543,8.40458 298.9543,8.32658 298.9543,8.24458 L298.9543,7.88958 Z M300.5123,8.82358 C300.5123,9.26058 300.5303,9.66958 300.5823,9.89258 L299.1413,9.89258 L299.0533,9.50958 L299.0253,9.50958 C298.7133,9.85558 298.2783,9.99058 297.8063,9.99058 C296.9153,9.99058 296.3633,9.34058 296.3633,8.60958 C296.3633,7.43358 297.4143,6.91858 298.9003,6.90958 L298.9003,6.87358 C298.9003,6.69658 298.7673,6.49958 298.1883,6.49958 C297.7253,6.49958 297.2363,6.65958 296.9503,6.82858 L296.6653,5.80558 C296.9503,5.66258 297.5733,5.41358 298.4823,5.41358 C299.9863,5.41358 300.5123,6.25158 300.5123,7.34658 L300.5123,8.82358 Z" id="Fill-10"></path>
                <path d="M302.8459,5.51158 L303.1039,7.12358 C303.1759,7.55958 303.2469,8.05858 303.3169,8.57458 L303.3339,8.57458 C303.4159,8.05858 303.5399,7.54958 303.6289,7.13258 L303.9749,5.51158 L305.2309,5.51158 L305.5619,7.06858 C305.6679,7.55958 305.7749,8.05858 305.8549,8.57458 L305.8719,8.57458 C305.9269,8.05858 306.0049,7.54958 306.0869,7.05058 L306.3539,5.51158 L307.9209,5.51158 L306.6119,9.89158 L305.0979,9.89158 L304.7949,8.59258 C304.7059,8.18258 304.6439,7.81858 304.5559,7.25658 L304.5379,7.25658 C304.4739,7.81858 304.4039,8.20058 304.3059,8.57458 L303.9849,9.89158 L302.4719,9.89158 L301.2159,5.51158 L302.8459,5.51158 Z" id="Fill-13"></path>
                <path d="M311.0192,7.88958 C310.3682,7.88958 309.9952,8.07558 309.9952,8.45858 C309.9952,8.73558 310.1812,8.87658 310.4502,8.87658 C310.6802,8.87658 310.9312,8.71658 311.0002,8.47658 C311.0192,8.40458 311.0192,8.32658 311.0192,8.24458 L311.0192,7.88958 Z M312.5782,8.82358 C312.5782,9.26058 312.5952,9.66958 312.6492,9.89258 L311.2062,9.89258 L311.1172,9.50958 L311.0892,9.50958 C310.7782,9.85558 310.3422,9.99058 309.8722,9.99058 C308.9812,9.99058 308.4282,9.34058 308.4282,8.60958 C308.4282,7.43358 309.4772,6.91858 310.9662,6.90958 L310.9662,6.87358 C310.9662,6.69658 310.8322,6.49958 310.2532,6.49958 C309.7892,6.49958 309.3002,6.65958 309.0152,6.82858 L308.7302,5.80558 C309.0152,5.66258 309.6392,5.41358 310.5472,5.41358 C312.0512,5.41358 312.5782,6.25158 312.5782,7.34658 L312.5782,8.82358 Z" id="Fill-15"></path>
                <path d="M313.82,6.99008 C313.82,6.29608 313.802,5.87708 313.785,5.51208 L315.154,5.51208 L315.209,6.30408 L315.244,6.30408 C315.476,5.63608 316.037,5.41408 316.411,5.41408 C316.554,5.41408 316.616,5.41408 316.731,5.44008 L316.731,6.94508 C316.616,6.92008 316.491,6.89908 316.322,6.89908 C315.85,6.89908 315.53,7.09708 315.448,7.45208 C315.432,7.53208 315.423,7.62208 315.423,7.72908 L315.423,9.89108 L313.82,9.89108 L313.82,6.99008 Z" id="Fill-18"></path>
                <path d="M319.653,5.41418 C321.068,5.41418 321.673,6.45618 321.673,7.65718 C321.673,7.92618 321.636,8.15618 321.611,8.26318 L318.903,8.26318 C318.958,8.61018 319.464,8.80718 320.026,8.80718 C320.445,8.80718 320.836,8.76218 321.228,8.63618 L321.431,9.70618 C320.907,9.91918 320.337,9.98918 319.795,9.98918 C318.255,9.98918 317.382,9.13518 317.382,7.74618 C317.382,6.72318 318.04,5.41418 319.653,5.41418 Z M319.571,6.46418 C319.101,6.46418 318.912,6.89918 318.886,7.17718 L320.195,7.17718 C320.195,6.92718 320.078,6.46418 319.571,6.46418 Z" id="Combined-Shape"></path>
                <polygon id="Fill-22" points="282.739 9.89188 284.325 9.89188 284.325 5.51088 282.739 5.51088"></polygon>
                <path d="M283.5231,4.86858 C282.9961,4.86858 282.6241,4.47758 282.6241,3.93458 C282.6241,3.38258 283.0031,2.99958 283.5341,2.99958 C284.0611,2.99958 284.4331,3.37258 284.4411,3.93458 C284.4411,4.47758 284.0711,4.86858 283.5341,4.86858 L283.5231,4.86858 Z" id="Fill-24"></path>
            </g>
        </g>
    </g>
</svg>