
<svg width="46px" height="46px" viewBox="0 0 46 46" version="1.1" xmlns="http://www.w3.org/2000/svg" xmlns:xlink="http://www.w3.org/1999/xlink">
    <g id="Page-1" stroke="none" stroke-width="1" fill="none" fill-rule="evenodd">
        <g id="under25" transform="translate(-281.000000, 0.000000)" fill-rule="nonzero">
            <path d="M325.988306,16.2778095 C329.703448,28.4211207 322.866693,41.2761511 310.721406,44.989358 C308.657033,45.6204946 306.572147,45.9467936 304.515136,45.9939968 L304.152433,45.9994348 L303.790368,45.9994348 C294.023758,45.9128203 285.019226,39.5591315 282.010996,29.722532 C278.297771,17.5779431 285.13261,4.72419041 297.276619,1.01098347 C309.423183,-2.70222348 322.276359,4.13258173 325.988306,16.2778095 Z" id="Path" fill="#1D1D1B"></path>
            <path d="M308.945364,28.3383026 L300.047379,31.1313629 C299.36383,28.8347755 300.457134,29.0135057 303.544954,27.0256924 C306.727572,24.9565216 307.596353,23.8886245 306.460015,20.0686662 C305.032421,15.2730586 302.229621,15.5325057 298.333518,16.7547899 C294.106866,18.0821341 292.04624,19.6990341 293.425812,24.336411 L293.677153,25.1775321 L297.8826,23.8572346 L297.631259,23.0154729 C297.11236,21.1903746 297.374304,20.9341305 299.390025,20.3012077 C301.151909,19.7227367 301.76623,19.7541266 302.274526,21.457509 C302.796543,23.2089371 302.581998,23.2262336 299.953828,24.7970097 C295.288108,27.5804608 294.664432,28.4965333 295.841932,32.452301 L296.898439,36 L310,31.8847204 L308.945364,28.3383026 Z" id="Fill-7" fill="#FFFFFF"></path>
            <path d="M309.29727,26.1561836 C310.707266,30.3941471 313.161108,30.5935502 317.376963,29.2941929 C322.323832,27.769536 324.04923,26.3083256 322.384215,20.8169712 C321.170141,16.8191978 319.462087,15.5373207 315.313038,16.8159608 C313.148261,17.4840907 312.703743,17.6698981 311.934829,19.2379316 L310.93081,15.9303002 L319.367017,13.3309383 L318.355289,10 L306,13.807434 L308.925982,23.4564727 L312.848275,22.2477532 C312.848275,21.3446125 313.325554,21.1976498 314.785012,20.7470506 C317.338421,19.9604442 317.530489,20.4285236 318.197909,22.634906 C318.873679,24.8626531 318.27435,25.0983113 316.292005,25.7101163 C315.013053,26.1037432 314.158062,26.2409947 313.628751,24.8212187 L309.29727,26.1561836 Z" id="Fill-9" fill="#FFFFFF"></path>
            <path d="M288.810944,19.5463441 L290.083989,23.9098303 C290.312129,24.6979664 290.083989,24.8413239 289.357345,25.0732063 C288.639524,25.3031069 288.225469,25.4253242 288.004892,24.6636134 L286.708528,20.2201906 L285,20.7685166 L286.305187,25.2476137 C286.775331,26.8608814 287.247367,27.4528092 289.811104,26.6323021 C291.692943,26.0291434 292.349632,25.2707358 291.826549,23.4777758 L290.520732,19 L288.810944,19.5463441 Z" id="Fill-11" fill="#FFFFFF"></path>
        </g>
    </g>
</svg>