<svg width="101px" height="15px" viewBox="0 0 101 15" version="1.1" xmlns="http://www.w3.org/2000/svg" xmlns:xlink="http://www.w3.org/1999/xlink">
    <g id="Page-1" stroke="none" stroke-width="1" fill="none" fill-rule="evenodd">
        <g id="under25" transform="translate(-7.000000, -16.000000)" fill="#FFFFFF" fill-rule="nonzero">
            <path d="M18,25.7773014 L18,16 L15.1037708,16 L15.1037708,25.6729524 C15.1037708,27.3858505 14.0750555,28.4096517 12.5009891,28.4096517 C10.9269228,28.4096517 9.91930939,27.3858505 9.91930939,25.6729524 L9.91930939,16 L7,16 L7,25.7773014 C7,28.9313966 9.43594509,31 12.5009891,31 C15.5653738,31 18,28.9313966 18,25.7773014" id="Fill-13"></path>
            <polygon id="Fill-15" points="32 31 32 16 29.1953202 16 29.1953202 25.1862261 23.5035445 16 21 16 21 31 23.8065818 31 23.8065818 21.7939204 29.4964555 31"></polygon>
            <path d="M43.0390073,23.4374586 C43.0390073,25.7121112 42.9534931,26.7875579 42.4003228,27.4606221 C41.8892415,28.0714758 41.2098041,28.3878226 40.1889778,28.3878226 L37.9555862,28.3878226 L37.9555862,18.613501 L40.1889778,18.613501 C41.2098041,18.613501 41.8892415,18.9285242 42.4003228,19.5393779 C42.9534931,20.2144275 43.0390073,21.1621443 43.0390073,23.4374586 M45.9952616,23.4374586 C45.9952616,21.1826605 46.165622,19.1184646 44.463354,17.4321641 C43.4639062,16.4440768 42.0395596,16 40.4648949,16 L35,16 L35,31 L40.4648949,31 C42.0395596,31 43.4639062,30.5579087 44.463354,29.5678359 C46.165622,27.882859 45.9952616,25.6922568 45.9952616,23.4374586" id="Fill-17"></path>
            <polygon id="Fill-19" points="58 31 58 28.3879379 50.9638312 28.3879379 50.9638312 24.7434925 56.9551239 24.7434925 56.9551239 22.1320921 50.9638312 22.1320921 50.9638312 18.6133857 58 18.6133857 58 16 48 16 48 31"></polygon>
            <path d="M68.5697132,20.5929848 C68.5697132,21.7524818 67.7541385,22.5737922 66.5089765,22.5737922 L63.8352763,22.5737922 L63.8352763,18.6128392 L66.5089765,18.6128392 C67.7541385,18.6128392 68.5697132,19.4348114 68.5697132,20.5929848 L68.5697132,20.5929848 Z M72,31 L68.7537305,24.5320979 C70.1630333,24.0059563 71.4081954,22.7001985 71.4081954,20.5929848 C71.4081954,18.0853739 69.6520168,16 66.6929937,16 L61,16 L61,31 L63.8352763,31 L63.8352763,25.0172071 L65.8767778,25.0172071 L68.7139776,31 L72,31 Z" id="Fill-21"></path>
            <path d="M87,31 L87,28.5560028 L81.2835897,28.5560028 L85.4192542,23.729699 C86.4378265,22.5398582 87,21.7667571 87,20.32556 C87,17.6505513 85.128047,16 82.5104469,16 C79.9725044,16 78,17.6295502 78,20.3465611 L80.7018282,20.3465611 C80.7018282,18.9033952 81.6152786,18.4439972 82.5104469,18.4439972 C83.653729,18.4439972 84.2968659,19.1960973 84.2968659,20.304559 C84.2968659,20.9929996 84.068993,21.4530539 83.5290192,22.1001488 L78,28.5560028 L78,31 L87,31 Z" id="Fill-23"></path>
            <path d="M98,25.859993 C98,24.460798 97.8337287,23.0616031 96.6801812,21.8914508 C96.0856157,21.2857018 95.1578607,20.8873381 93.942204,20.8873381 C92.9542808,20.8873381 92.129394,21.2647007 91.7392711,21.6400945 L91.7392711,18.4439972 L97.6700453,18.4439972 L97.6700453,16 L89.3079577,16 L89.3079577,24.3971386 L91.7593272,24.3971386 C91.9437136,23.8137032 92.4379987,23.1869531 93.5307311,23.1869531 C94.826612,23.1869531 95.3215441,24.1470949 95.3215441,25.859993 C95.3215441,26.8011026 95.2193228,27.5952048 94.7450938,28.0749475 C94.416433,28.4096517 93.9829631,28.5553465 93.468622,28.5553465 C92.3577744,28.5553465 91.8214363,27.8865943 91.677162,26.7164421 L89,26.7164421 C89.0821652,27.8032464 89.2885486,28.8887382 90.1956006,29.8088467 C90.8328661,30.4565978 91.9437136,31 93.468622,31 C94.9935303,31 96.0429157,30.4565978 96.7021781,29.7891582 C97.7722666,28.7023539 98,27.5322016 98,25.859993" id="Fill-25"></path>
            <path d="M102.119776,31 L105.071642,31 L105.071642,28.2223681 L102.119776,28.2223681 L102.119776,31 Z M108,20.178262 C108,17.5259911 105.906493,16 103.488582,16 C101.010896,16 99,17.5889997 99,20.178262 L101.780597,20.178262 C101.780597,19.2180362 102.356194,18.4442111 103.488582,18.4442111 C104.557836,18.4442111 105.221418,19.1766868 105.221418,20.1585718 C105.221418,20.6173536 104.94403,21.1187976 104.600821,21.5578892 L103.019776,23.5433185 C102.464328,24.2534786 102.207761,24.8179312 102.207761,25.716461 L102.207761,26.3419533 L104.987015,26.3419533 L104.987015,25.903518 C104.987015,25.5477816 105.157612,25.1100026 105.371194,24.8389341 L106.954254,22.7898399 C107.551343,22.0179837 108,21.2244684 108,20.178262 L108,20.178262 Z" id="Fill-27"></path>
        </g>
    </g>
</svg>