<svg data-name="Icon/Checkbox/Filled" xmlns="http://www.w3.org/2000/svg" width="143.014" height="143.01">
    <g data-name="Group 53">
        <path data-name="Path 38" d="M6745.181 6262.108c.447 39.083-32.534 72.232-73.007 71.42-38.22-.76-70.876-32.9-69.984-73.239.831-37.99 32.882-70.757 73.477-69.732 37.911.943 69.94 32.543 69.514 71.551zm-30.726-20.9a9.942 9.942 0 0 0-8.265-9.442c-3.918-.7-7.069.68-9.783 3.395q-15.642 15.658-31.316 31.294c-1.558 1.565-1.576 1.565-3.087.047-3.756-3.746-7.5-7.518-11.266-11.24-3.252-3.205-7.108-4.227-11.406-2.564-6.8 2.632-8.472 11.283-3.172 16.723 6.546 6.729 13.221 13.347 19.925 19.929 4.376 4.293 10.514 4.326 14.851.024q20.24-20.083 40.336-40.282a10.986 10.986 0 0 0 3.183-7.886z" transform="translate(-6602.171 -6190.533)" style="fill:#20b8d1"/>
    </g>
</svg>
