<svg xmlns="http://www.w3.org/2000/svg" width="328" height="47" viewBox="0 0 328 47">
    <g fill="none" fill-rule="evenodd">
        <path fill="#1D1D1B" d="M168 34h160v13H168z"/>
        <path fill="#333" d="M174.128 4.12c0 1.452-1.056 2.664-2.82 2.664h-1.644V10h-1.668V1.456h3.312c1.764 0 2.82 1.212 2.82 2.664zm-1.668 0c0-.696-.48-1.176-1.236-1.176h-1.56v2.34h1.56c.756 0 1.236-.468 1.236-1.164zm5.604 5.88h-.888c-1.284 0-1.824-.9-1.824-1.788V1.456h1.56v6.66c0 .372.156.564.552.564h.6V10zm6.084-2.64h-3.912c0 .804.492 1.392 1.368 1.392.684 0 1.02-.192 1.416-.588l.948.924c-.636.636-1.248.984-2.376.984-1.476 0-2.892-.672-2.892-3.204 0-2.04 1.104-3.192 2.724-3.192 1.74 0 2.724 1.272 2.724 2.988v.696zm-1.536-1.068a1.723 1.723 0 0 0-.144-.672c-.168-.372-.516-.648-1.044-.648s-.876.276-1.044.648a1.723 1.723 0 0 0-.144.672h2.376zM190.316 10h-1.524v-.54c-.42.42-.816.6-1.536.6-.708 0-1.224-.18-1.596-.552-.336-.348-.516-.852-.516-1.404 0-.996.684-1.812 2.136-1.812h1.476V5.98c0-.684-.336-.984-1.164-.984-.6 0-.876.144-1.2.516l-.996-.972c.612-.672 1.212-.864 2.256-.864 1.752 0 2.664.744 2.664 2.208V10zm-1.56-2.304V7.36h-1.236c-.564 0-.876.264-.876.708 0 .432.288.72.9.72.432 0 .708-.036.984-.3.168-.156.228-.408.228-.792zm7.944.336c0 1.38-1.176 2.04-2.652 2.04-.984 0-1.872-.108-2.664-.9l1.02-1.02c.516.516 1.188.588 1.668.588.54 0 1.104-.18 1.104-.648 0-.312-.168-.528-.66-.576l-.984-.096c-1.128-.108-1.824-.6-1.824-1.752 0-1.296 1.14-1.992 2.412-1.992.972 0 1.788.168 2.388.732l-.96.972c-.36-.324-.912-.42-1.452-.42-.624 0-.888.288-.888.6 0 .228.096.492.648.54l.984.096c1.236.12 1.86.78 1.86 1.836zm6.444-.672h-3.912c0 .804.492 1.392 1.368 1.392.684 0 1.02-.192 1.416-.588l.948.924c-.636.636-1.248.984-2.376.984-1.476 0-2.892-.672-2.892-3.204 0-2.04 1.104-3.192 2.724-3.192 1.74 0 2.724 1.272 2.724 2.988v.696zm-1.536-1.068a1.723 1.723 0 0 0-.144-.672c-.168-.372-.516-.648-1.044-.648s-.876.276-1.044.648a1.723 1.723 0 0 0-.144.672h2.376zm10.992.576c0 .936-.012 2.016-.636 2.64-.348.348-.912.564-1.524.564-.66 0-1.128-.18-1.56-.66V10h-1.512V1.456h1.56V4.3c.408-.456.876-.624 1.512-.624.612 0 1.176.216 1.524.564.624.624.636 1.692.636 2.628zm-1.56 0c0-1.02-.12-1.788-1.056-1.788s-1.056.768-1.056 1.788.12 1.8 1.056 1.8 1.056-.78 1.056-1.8zm8.184.492h-3.912c0 .804.492 1.392 1.368 1.392.684 0 1.02-.192 1.416-.588l.948.924c-.636.636-1.248.984-2.376.984-1.476 0-2.892-.672-2.892-3.204 0-2.04 1.104-3.192 2.724-3.192 1.74 0 2.724 1.272 2.724 2.988v.696zm-1.536-1.068a1.723 1.723 0 0 0-.144-.672c-.168-.372-.516-.648-1.044-.648s-.876.276-1.044.648a1.723 1.723 0 0 0-.144.672h2.376zm10.992.576c0 .936-.012 2.016-.636 2.64-.348.348-.912.564-1.524.564-.636 0-1.104-.168-1.512-.624v2.844h-1.56V3.748h1.512v.588c.432-.48.9-.66 1.56-.66.612 0 1.176.216 1.524.564.624.624.636 1.692.636 2.628zm-1.56 0c0-1.02-.12-1.788-1.056-1.788s-1.056.768-1.056 1.788.12 1.8 1.056 1.8 1.056-.78 1.056-1.8zm7.62-2.604l-1.176 1.188c-.24-.24-.444-.372-.828-.372-.48 0-1.008.36-1.008 1.152V10h-1.56V3.748h1.524v.6c.3-.36.9-.672 1.572-.672.612 0 1.044.156 1.476.588zm5.652 3.096h-3.912c0 .804.492 1.392 1.368 1.392.684 0 1.02-.192 1.416-.588l.948.924c-.636.636-1.248.984-2.376.984-1.476 0-2.892-.672-2.892-3.204 0-2.04 1.104-3.192 2.724-3.192 1.74 0 2.724 1.272 2.724 2.988v.696zm-1.536-1.068a1.723 1.723 0 0 0-.144-.672c-.168-.372-.516-.648-1.044-.648s-.876.276-1.044.648a1.723 1.723 0 0 0-.144.672h2.376zm8.208.576c0 .936-.012 2.016-.636 2.64-.348.348-.912.564-1.524.564-.636 0-1.104-.168-1.512-.624v2.844h-1.56V3.748h1.512v.588c.432-.48.9-.66 1.56-.66.612 0 1.176.216 1.524.564.624.624.636 1.692.636 2.628zm-1.56 0c0-1.02-.12-1.788-1.056-1.788s-1.056.768-1.056 1.788.12 1.8 1.056 1.8 1.056-.78 1.056-1.8zM253.28 10h-1.524v-.54c-.42.42-.816.6-1.536.6-.708 0-1.224-.18-1.596-.552-.336-.348-.516-.852-.516-1.404 0-.996.684-1.812 2.136-1.812h1.476V5.98c0-.684-.336-.984-1.164-.984-.6 0-.876.144-1.2.516l-.996-.972c.612-.672 1.212-.864 2.256-.864 1.752 0 2.664.744 2.664 2.208V10zm-1.56-2.304V7.36h-1.236c-.564 0-.876.264-.876.708 0 .432.288.72.9.72.432 0 .708-.036.984-.3.168-.156.228-.408.228-.792zm7.812-3.432l-1.176 1.188c-.24-.24-.444-.372-.828-.372-.48 0-1.008.36-1.008 1.152V10h-1.56V3.748h1.524v.6c.3-.36.9-.672 1.572-.672.612 0 1.044.156 1.476.588zm5.652 3.096h-3.912c0 .804.492 1.392 1.368 1.392.684 0 1.02-.192 1.416-.588l.948.924c-.636.636-1.248.984-2.376.984-1.476 0-2.892-.672-2.892-3.204 0-2.04 1.104-3.192 2.724-3.192 1.74 0 2.724 1.272 2.724 2.988v.696zm-1.536-1.068a1.723 1.723 0 0 0-.144-.672c-.168-.372-.516-.648-1.044-.648s-.876.276-1.044.648a1.723 1.723 0 0 0-.144.672h2.376zM271.604 10h-1.524v-.588c-.432.48-.888.66-1.548.66-.612 0-1.188-.216-1.536-.564-.624-.624-.636-1.704-.636-2.64 0-.936.012-2.004.636-2.628.348-.348.912-.564 1.524-.564.636 0 1.116.168 1.524.624V1.456h1.56V10zm-1.56-3.132c0-1.02-.132-1.788-1.068-1.788s-1.056.768-1.056 1.788.12 1.8 1.056 1.8 1.068-.78 1.068-1.8zM278.948 10h-.852c-1.272 0-1.812-.9-1.812-1.788V5.116h-.66V3.928h.66V2.08h1.56v1.848h1.104v1.188h-1.104v3c0 .36.168.564.54.564h.564V10zm6.408-3.132c0 1.14-.144 1.848-.708 2.436-.384.408-1.02.768-1.944.768-.924 0-1.548-.36-1.932-.768-.564-.588-.708-1.296-.708-2.436 0-1.128.144-1.836.708-2.424.384-.408 1.008-.768 1.932-.768.924 0 1.56.36 1.944.768.564.588.708 1.296.708 2.424zm-1.56 0c0-.648-.036-1.188-.36-1.512-.18-.18-.42-.276-.732-.276s-.54.096-.72.276c-.324.324-.36.864-.36 1.512s.036 1.2.36 1.524c.18.18.408.276.72.276s.552-.096.732-.276c.324-.324.36-.876.36-1.524zm10.536 1.164c0 1.38-1.176 2.04-2.652 2.04-.984 0-1.872-.108-2.664-.9l1.02-1.02c.516.516 1.188.588 1.668.588.54 0 1.104-.18 1.104-.648 0-.312-.168-.528-.66-.576l-.984-.096c-1.128-.108-1.824-.6-1.824-1.752 0-1.296 1.14-1.992 2.412-1.992.972 0 1.788.168 2.388.732l-.96.972c-.36-.324-.912-.42-1.452-.42-.624 0-.888.288-.888.6 0 .228.096.492.648.54l.984.096c1.236.12 1.86.78 1.86 1.836zM300.788 10h-1.56V6.184c0-.828-.528-1.104-1.02-1.104s-1.008.288-1.008 1.104V10h-1.56V1.456h1.56v2.868c.42-.432.948-.648 1.5-.648 1.368 0 2.088.96 2.088 2.28V10zm6.708-3.132c0 1.14-.144 1.848-.708 2.436-.384.408-1.02.768-1.944.768-.924 0-1.548-.36-1.932-.768-.564-.588-.708-1.296-.708-2.436 0-1.128.144-1.836.708-2.424.384-.408 1.008-.768 1.932-.768.924 0 1.56.36 1.944.768.564.588.708 1.296.708 2.424zm-1.56 0c0-.648-.036-1.188-.36-1.512-.18-.18-.42-.276-.732-.276s-.54.096-.72.276c-.324.324-.36.864-.36 1.512s.036 1.2.36 1.524c.18.18.408.276.72.276s.552-.096.732-.276c.324-.324.36-.876.36-1.524zm11.136-3.12L315.164 10h-1.284l-1.308-3.924L311.264 10h-1.284l-1.92-6.252h1.656l1.008 3.864 1.272-3.864h1.14l1.284 3.864 1.008-3.864h1.644zM169.664 24h-1.668v-8.544h1.668V24zm8.196-4.308c0 1.284.096 2.532-.864 3.492-.564.564-1.368.816-2.256.816h-3.084v-8.544h3.084c.888 0 1.692.252 2.256.816.96.96.864 2.136.864 3.42zm-1.668 0c0-1.296-.048-1.836-.36-2.22-.288-.348-.672-.528-1.248-.528h-1.26v5.568h1.26c.576 0 .96-.18 1.248-.528.312-.384.36-.996.36-2.292zm14.22-1.944L188.504 24h-1.284l-1.308-3.924L184.604 24h-1.284l-1.92-6.252h1.656l1.008 3.864 1.272-3.864h1.14l1.284 3.864 1.008-3.864h1.644zM196.484 24h-1.56v-3.816c0-.828-.528-1.104-1.02-1.104s-1.008.288-1.008 1.104V24h-1.56v-8.544h1.56v2.868c.42-.432.948-.648 1.5-.648 1.368 0 2.088.96 2.088 2.28V24zm6.816-2.64h-3.912c0 .804.492 1.392 1.368 1.392.684 0 1.02-.192 1.416-.588l.948.924c-.636.636-1.248.984-2.376.984-1.476 0-2.892-.672-2.892-3.204 0-2.04 1.104-3.192 2.724-3.192 1.74 0 2.724 1.272 2.724 2.988v.696zm-1.536-1.068a1.723 1.723 0 0 0-.144-.672c-.168-.372-.516-.648-1.044-.648s-.876.276-1.044.648a1.723 1.723 0 0 0-.144.672h2.376zM209.936 24h-1.56v-3.78c0-.852-.54-1.14-1.032-1.14s-1.044.288-1.044 1.14V24h-1.56v-6.252h1.524v.576a2.14 2.14 0 0 1 1.56-.648c.624 0 1.128.204 1.476.552.504.504.636 1.092.636 1.776V24zm9.696-3.132c0 .936-.012 2.016-.636 2.64-.348.348-.912.564-1.524.564-.66 0-1.128-.18-1.56-.66V24H214.4v-8.544h1.56V18.3c.408-.456.876-.624 1.512-.624.612 0 1.176.216 1.524.564.624.624.636 1.692.636 2.628zm-1.56 0c0-1.02-.12-1.788-1.056-1.788s-1.056.768-1.056 1.788.12 1.8 1.056 1.8 1.056-.78 1.056-1.8zM226.244 24h-1.524v-.576a2.14 2.14 0 0 1-1.56.648c-.624 0-1.128-.204-1.476-.552-.504-.504-.636-1.092-.636-1.776v-3.996h1.56v3.78c0 .852.54 1.14 1.032 1.14s1.044-.288 1.044-1.14v-3.78h1.56V24zM233 17.748l-2.676 7.26c-.132.348-.276.612-.468.804-.36.36-.828.48-1.344.48h-.612v-1.404h.36c.444 0 .624-.108.78-.564l.264-.768-2.136-5.808h1.644l1.296 3.864 1.248-3.864H233zm2.496-1.068H233.9v-1.272h1.596v1.272zm-.012 7.32h-1.56v-6.252h1.56V24zm6.936 0h-1.56v-3.78c0-.852-.54-1.14-1.032-1.14s-1.044.288-1.044 1.14V24h-1.56v-6.252h1.524v.576a2.14 2.14 0 0 1 1.56-.648c.624 0 1.128.204 1.476.552.504.504.636 1.092.636 1.776V24zm6.588-.228c0 1.5-1.068 2.592-2.748 2.592-.96 0-1.62-.192-2.268-.816l.972-.984c.348.336.696.48 1.224.48.936 0 1.26-.66 1.26-1.296v-.636c-.408.456-.876.624-1.488.624s-1.14-.204-1.488-.552c-.588-.588-.636-1.392-.636-2.484s.048-1.884.636-2.472c.348-.348.888-.552 1.5-.552.66 0 1.092.18 1.524.66v-.588h1.512v6.024zm-1.56-3.072c0-.828-.108-1.62-1.032-1.62s-1.02.792-1.02 1.62c0 .828.096 1.632 1.02 1.632s1.032-.804 1.032-1.632zm10.824 3.3h-1.524v-.54c-.42.42-.816.6-1.536.6-.708 0-1.224-.18-1.596-.552-.336-.348-.516-.852-.516-1.404 0-.996.684-1.812 2.136-1.812h1.476v-.312c0-.684-.336-.984-1.164-.984-.6 0-.876.144-1.2.516l-.996-.972c.612-.672 1.212-.864 2.256-.864 1.752 0 2.664.744 2.664 2.208V24zm-1.56-2.304v-.336h-1.236c-.564 0-.876.264-.876.708 0 .432.288.72.9.72.432 0 .708-.036.984-.3.168-.156.228-.408.228-.792zM262.604 24h-.888c-1.284 0-1.824-.9-1.824-1.788v-6.756h1.56v6.66c0 .372.156.564.552.564h.6V24zm5.496-.78c-.552.576-1.2.852-2.064.852-1.248 0-2.796-.672-2.796-3.204s1.548-3.192 2.796-3.192c.864 0 1.512.264 2.064.84l-1.056 1.056c-.324-.348-.6-.492-1.008-.492-.372 0-.66.132-.888.408-.24.3-.348.72-.348 1.38 0 .66.108 1.092.348 1.392.228.276.516.408.888.408.408 0 .684-.144 1.008-.492l1.056 1.044zm6.024-2.352c0 1.14-.144 1.848-.708 2.436-.384.408-1.02.768-1.944.768-.924 0-1.548-.36-1.932-.768-.564-.588-.708-1.296-.708-2.436 0-1.128.144-1.836.708-2.424.384-.408 1.008-.768 1.932-.768.924 0 1.56.36 1.944.768.564.588.708 1.296.708 2.424zm-1.56 0c0-.648-.036-1.188-.36-1.512-.18-.18-.42-.276-.732-.276s-.54.096-.72.276c-.324.324-.36.864-.36 1.512s.036 1.2.36 1.524c.18.18.408.276.72.276s.552-.096.732-.276c.324-.324.36-.876.36-1.524zM280.76 24h-1.56v-3.816c0-.828-.528-1.104-1.02-1.104s-1.008.288-1.008 1.104V24h-1.56v-8.544h1.56v2.868c.42-.432.948-.648 1.5-.648 1.368 0 2.088.96 2.088 2.28V24zm6.708-3.132c0 1.14-.144 1.848-.708 2.436-.384.408-1.02.768-1.944.768-.924 0-1.548-.36-1.932-.768-.564-.588-.708-1.296-.708-2.436 0-1.128.144-1.836.708-2.424.384-.408 1.008-.768 1.932-.768.924 0 1.56.36 1.944.768.564.588.708 1.296.708 2.424zm-1.56 0c0-.648-.036-1.188-.36-1.512-.18-.18-.42-.276-.732-.276s-.54.096-.72.276c-.324.324-.36.864-.36 1.512s.036 1.2.36 1.524c.18.18.408.276.72.276s.552-.096.732-.276c.324-.324.36-.876.36-1.524zm5.7 3.132h-.888c-1.284 0-1.824-.9-1.824-1.788v-6.756h1.56v6.66c0 .372.156.564.552.564h.6V24z"/>
        <path fill="#EA092A" d="M141.725 40.884H2.66A2.668 2.668 0 0 1 0 38.208V8.792a2.668 2.668 0 0 1 2.66-2.676h139.065a2.668 2.668 0 0 1 2.66 2.676v29.416a2.668 2.668 0 0 1-2.66 2.676"/>
        <path fill="#1D1D1B" d="M158.152 16.726c3.721 12.237-3.127 25.192-15.294 28.934-12.164 3.741-25.04-3.147-28.76-15.385-3.72-12.239 3.127-25.192 15.292-28.934 12.168-3.742 25.043 3.146 28.762 15.385"/>
        <path stroke="#1D1D1B" stroke-width=".64" d="M158.152 16.726c3.721 12.237-3.127 25.192-15.294 28.934-12.164 3.741-25.04-3.147-28.76-15.385-3.72-12.239 3.127-25.192 15.292-28.934 12.168-3.742 25.043 3.146 28.762 15.385"/>
        <path fill="#FFF" d="M140.738 28.582l-9.131 2.807c-.701-2.308.42-2.129 3.59-4.126 3.265-2.08 4.157-3.153 2.99-6.992-1.464-4.82-4.34-4.56-8.339-3.331-4.337 1.334-6.452 2.96-5.036 7.62l.258.845 4.316-1.327-.258-.846c-.533-1.834-.264-2.092 1.804-2.728 1.808-.581 2.439-.55 2.96 1.162.536 1.76.316 1.778-2.381 3.357-4.788 2.797-5.428 3.718-4.22 7.694l1.085 3.565 13.444-4.136-1.082-3.564zM141.034 26.941c1.405 4.215 3.85 4.413 8.05 3.12 4.928-1.515 6.647-2.969 4.989-8.43-1.21-3.975-2.912-5.25-7.046-3.979-2.156.665-2.6.85-3.365 2.41l-1-3.29 8.404-2.585-1.008-3.313-12.31 3.787 2.916 9.595 3.908-1.202c0-.898.475-1.044 1.93-1.492 2.543-.782 2.735-.317 3.4 1.877.673 2.216.076 2.45-1.9 3.059-1.273.391-2.125.527-2.653-.884l-4.315 1.327zM120.517 20.1l1.293 4.252c.232.768 0 .908-.738 1.134-.729.224-1.15.343-1.373-.4l-1.317-4.33-1.735.535 1.326 4.365c.477 1.572.956 2.149 3.56 1.35 1.911-.589 2.578-1.328 2.047-3.075l-1.326-4.364-1.737.532zM18.027 25.796v-9.592h-2.81v9.49c0 1.68-1 2.684-2.527 2.684-1.528 0-2.506-1.004-2.506-2.685v-9.489H7.351v9.592c0 3.094 2.364 5.123 5.339 5.123 2.974 0 5.337-2.029 5.337-5.123M32.086 30.796V16.203h-2.831v8.937l-5.746-8.937h-2.527v14.593h2.833V21.84l5.744 8.956zM42.965 23.44c0 2.212-.081 3.258-.611 3.913-.49.594-1.14.902-2.119.902h-2.14v-9.509h2.14c.978 0 1.629.307 2.119.901.53.657.611 1.579.611 3.792m2.832 0c0-2.193.164-4.201-1.467-5.842-.958-.961-2.322-1.393-3.83-1.393h-5.236v14.592H40.5c1.508 0 2.872-.43 3.83-1.393 1.63-1.639 1.467-3.77 1.467-5.964M58.04 30.796v-2.541h-6.723v-3.546h5.724v-2.54h-5.724v-3.423h6.723v-2.543h-9.555v14.593zM68.165 20.672c0 1.128-.814 1.927-2.057 1.927h-2.669v-3.853h2.669c1.243 0 2.057.8 2.057 1.926zm3.424 10.124l-3.24-6.292c1.406-.512 2.65-1.782 2.65-3.832 0-2.44-1.754-4.468-4.707-4.468h-5.683v14.592h2.83v-5.82h2.038l2.832 5.82h3.28zM86.58 30.796V28.4h-5.602l4.053-4.735c.999-1.167 1.55-1.926 1.55-3.34 0-2.624-1.835-4.243-4.4-4.243-2.489 0-4.422 1.598-4.422 4.264h2.648c0-1.416.896-1.867 1.773-1.867 1.12 0 1.751.738 1.751 1.826 0 .675-.223 1.126-.753 1.761L77.76 28.4v2.397h8.822zM97.48 25.877c0-1.372-.164-2.745-1.305-3.893-.588-.594-1.506-.985-2.709-.985-.977 0-1.793.37-2.179.738v-3.135h5.867v-2.398h-8.272v8.238h2.425c.182-.572.671-1.187 1.752-1.187 1.282 0 1.772.942 1.772 2.622 0 .924-.101 1.703-.57 2.173-.326.329-.754.472-1.263.472-1.099 0-1.63-.657-1.772-1.804h-2.649c.082 1.066.286 2.13 1.183 3.033.63.636 1.73 1.169 3.238 1.169s2.546-.533 3.199-1.188c1.058-1.066 1.283-2.214 1.283-3.855M102.593 30.795h2.812V28.07h-2.812v2.725zm5.603-10.616c0-2.601-1.995-4.098-4.299-4.098-2.361 0-4.277 1.558-4.277 4.098h2.65c0-.942.548-1.7 1.627-1.7 1.019 0 1.651.718 1.651 1.681 0 .45-.264.942-.591 1.373l-1.507 1.947c-.529.697-.774 1.25-.774 2.132v.614h2.649v-.43c0-.35.162-.779.366-1.045l1.508-2.01c.57-.757.997-1.535.997-2.562zM276.054 41.4c0-.063 0-.135-.01-.206-.062-.302-.302-.56-.641-.56-.533 0-.774.48-.774 1.058 0 .67.329 1.025.774 1.025a.633.633 0 0 0 .624-.525 1.64 1.64 0 0 0 .027-.294V41.4zm1.603-3.829v4.932c0 .542.017 1.096.033 1.388h-1.422l-.062-.595h-.018c-.294.498-.821.693-1.327.693-1.016 0-1.861-.88-1.861-2.26-.01-1.47.927-2.315 1.958-2.315.48 0 .882.141 1.078.418h.018v-2.26h1.603zM278.92 40.99c0-.694-.018-1.113-.035-1.478h1.37l.055.792h.035c.232-.668.792-.89 1.166-.89.143 0 .205 0 .32.026v1.505a1.836 1.836 0 0 0-.41-.046c-.471 0-.791.198-.872.553a1.26 1.26 0 0 0-.026.277v2.162h-1.603v-2.9zM285.607 40.998c0-.578-.018-1.086-.035-1.486h1.38l.07.561h.037a1.569 1.569 0 0 1 1.309-.658c1.023 0 1.575.694 1.575 1.895v2.582h-1.603v-2.386c0-.508-.177-.801-.56-.801-.313 0-.455.214-.526.384a.849.849 0 0 0-.044.319v2.484h-1.603v-2.894zM292.766 41.292h.019c.098-.195.187-.373.285-.533l.72-1.247h1.914l-1.513 1.764 1.736 2.615h-1.976l-.864-1.673-.321.427v1.246h-1.602v-6.32h1.602v3.721zM298.954 41.89c-.65 0-1.023.186-1.023.569 0 .277.185.418.452.418.232 0 .483-.16.553-.4.018-.072.018-.15.018-.232v-.355zm1.558.934c0 .437.018.846.07 1.069h-1.44l-.089-.383h-.028c-.312.346-.747.48-1.219.48-.89 0-1.443-.65-1.443-1.38 0-1.176 1.051-1.691 2.537-1.7v-.036c0-.177-.133-.374-.712-.374-.463 0-.952.16-1.238.329l-.285-1.023c.285-.143.908-.392 1.817-.392 1.504 0 2.03.838 2.03 1.933v1.477zM302.846 39.512l.258 1.612c.072.436.143.935.213 1.45h.017c.082-.515.206-1.024.295-1.441l.346-1.621h1.256l.33 1.557c.107.49.214.99.294 1.506h.017c.055-.516.133-1.025.215-1.524l.267-1.54h1.567l-1.31 4.38h-1.513l-.303-1.298a21.98 21.98 0 0 1-.24-1.336h-.017a8.956 8.956 0 0 1-.232 1.318l-.321 1.317h-1.513l-1.256-4.38h1.63zM311.02 41.89c-.652 0-1.025.186-1.025.569 0 .277.186.418.455.418.23 0 .481-.16.55-.4.02-.072.02-.15.02-.232v-.355zm1.558.934c0 .437.017.846.071 1.069h-1.443l-.089-.383h-.028c-.31.346-.747.48-1.217.48-.89 0-1.444-.65-1.444-1.38 0-1.176 1.05-1.691 2.538-1.7v-.036c0-.177-.134-.374-.713-.374-.464 0-.953.16-1.238.329l-.285-1.023c.285-.143.91-.392 1.817-.392 1.504 0 2.031.838 2.031 1.933v1.477zM313.82 40.99c0-.694-.018-1.113-.035-1.478h1.369l.055.792h.035c.232-.668.793-.89 1.167-.89.143 0 .205 0 .32.026v1.505a1.819 1.819 0 0 0-.409-.046c-.472 0-.792.198-.874.553-.016.08-.025.17-.025.277v2.162h-1.603v-2.9zM318.903 42.263c.055.347.561.544 1.123.544.419 0 .81-.045 1.202-.17l.203 1.07c-.524.212-1.094.282-1.636.282-1.54 0-2.413-.854-2.413-2.243 0-1.023.658-2.332 2.271-2.332 1.415 0 2.02 1.042 2.02 2.243 0 .27-.037.5-.062.606h-2.708zm1.292-1.086c0-.25-.117-.713-.624-.713-.47 0-.659.435-.685.713h1.309zM282.739 43.892h1.586V39.51h-1.586zM283.523 38.869c-.527 0-.899-.391-.899-.934 0-.552.38-.935.91-.935.527 0 .9.373.907.935 0 .543-.37.934-.907.934h-.01z"/>
    </g>
</svg>
